<?xml version="1.0" encoding="UTF-8" standalone="no"?>
<svg
   xmlns:dc="http://purl.org/dc/elements/1.1/"
   xmlns:cc="http://creativecommons.org/ns#"
   xmlns:rdf="http://www.w3.org/1999/02/22-rdf-syntax-ns#"
   xmlns:svg="http://www.w3.org/2000/svg"
   xmlns="http://www.w3.org/2000/svg"
   xmlns:sodipodi="http://sodipodi.sourceforge.net/DTD/sodipodi-0.dtd"
   xmlns:inkscape="http://www.inkscape.org/namespaces/inkscape"
   width="323"
   height="279"
   viewBox="0 0 85.460626 73.818677"
   version="1.1"
   id="svg8"
   inkscape:version="1.0.1 (3bc2e813f5, 2020-09-07)"
   sodipodi:docname="asertivo.svg">
  <defs
     id="defs2" />
  <sodipodi:namedview
     id="base"
     pagecolor="#ffffff"
     bordercolor="#666666"
     borderopacity="1.0"
     inkscape:pageopacity="0.0"
     inkscape:pageshadow="2"
     inkscape:zoom="1.1749267"
     inkscape:cx="400.62992"
     inkscape:cy="156.96611"
     inkscape:document-units="mm"
     inkscape:current-layer="layer1"
     inkscape:document-rotation="0"
     showgrid="false"
     inkscape:window-width="1258"
     inkscape:window-height="728"
     inkscape:window-x="99"
     inkscape:window-y="-5"
     inkscape:window-maximized="0"
     units="px" />
  <metadata
     id="metadata5">
    <rdf:RDF>
      <cc:Work
         rdf:about="">
        <dc:format>image/svg+xml</dc:format>
        <dc:type
           rdf:resource="http://purl.org/dc/dcmitype/StillImage" />
        <dc:title></dc:title>
      </cc:Work>
    </rdf:RDF>
  </metadata>
  <g
     inkscape:label="Capa 1"
     inkscape:groupmode="layer"
     id="layer1">
    <path
       style="fill:#002a43;fill-opacity:1;stroke-width:0.175622"
       d="m 141.17462,64.382034 c -3.14378,-0.946852 -5.16616,-3.245908 -5.38268,-6.118959 l -0.0994,-1.319542 -1.4165,-0.07423 c -2.66977,-0.140637 -4.90324,-1.469208 -6.17776,-3.67509 -0.58464,-1.011849 -0.70071,-1.393549 -0.78137,-2.569316 l -0.0947,-1.380948 -1.44867,-0.09052 c -3.79154,-0.236108 -6.71771,-2.895321 -6.93451,-6.301432 l -0.0836,-1.312243 -1.48256,-0.09256 c -2.7579,-0.172084 -5.06288,-1.611535 -6.23848,-3.896361 -0.97067,-1.886526 -0.99439,-4.047186 -0.0647,-5.894038 l 0.45254,-0.89898 -0.77691,-0.887445 c -1.5208,-1.737245 -1.59537,-1.848114 -3.0519,-4.538206 -1.19158,-2.200784 -2.12083,-5.022135 -2.45481,-7.45318 -0.24523,-1.785197 -0.0902,-5.35678 0.30895,-7.118124 1.41646,-6.249523 5.53666,-11.75016019 11.32451,-15.1185968 4.74381,-2.7608368 10.67065,-4.0679019 16.17382,-3.5667682 1.90694,0.1741237 5.82514,0.9602652 6.61291,1.327535 0.17972,0.083982 0.78254,0.3306724 1.33962,0.5483477 0.55705,0.2173239 1.04045,0.4524494 1.07422,0.5215206 0.0334,0.069317 0.15807,0.1255943 0.2762,0.1255943 0.35808,2.041e-4 3.12235,1.5592212 4.26294,2.4042557 l 1.07055,0.7931678 0.47922,-0.4088976 c 0.84569,-0.7215266 3.38141,-2.1987468 4.89894,-2.8539309 0.81028,-0.3498726 1.68041,-0.7338366 1.93362,-0.8533911 0.76642,-0.3616647 3.35393,-1.0549504 5.08745,-1.3626016 2.2499,-0.3991918 6.72857,-0.3934847 9.09244,0.012095 2.08633,0.3576205 5.16493,1.2620467 6.708,1.9704809 6.21038,2.8512399 10.89756,7.7259272 13.05933,13.5819242 0.9568,2.591865 1.13487,3.776193 1.12548,7.485269 -0.009,3.412188 -0.0125,3.44795 -0.68918,5.778195 -0.83057,2.861963 -2.46425,5.979139 -4.27933,8.165247 l -1.21699,1.465802 0.51775,1.13022 c 0.44423,0.969767 0.51793,1.357462 0.51895,2.730215 0.001,1.510412 -0.0369,1.670499 -0.68495,2.862371 -1.25501,2.309287 -3.63644,3.803024 -6.31213,3.959153 l -1.33054,0.07748 -0.1157,1.277501 c -0.16011,1.767829 -1.01924,3.342747 -2.50679,4.595338 -1.31725,1.109096 -2.67557,1.629925 -4.56372,1.749763 l -1.33512,0.08481 v 0.696491 c 0,1.849664 -1.0044,3.853216 -2.60902,5.204279 -1.33856,1.127162 -2.69247,1.628783 -4.57299,1.694392 l -1.38117,0.04853 -0.0315,1.138947 c -0.0695,2.53592 -1.93595,5.010555 -4.62332,6.129886 -0.72206,0.300927 -1.2147,0.362912 -2.89578,0.365746 -1.83809,0.0029 -2.12987,-0.04078 -3.15043,-0.469574 l -1.12474,-0.472712 -1.17719,0.45934 c -1.40295,0.547493 -3.9889,0.717853 -5.22859,0.344959 z m 3.52077,-2.917499 c 0.26967,-0.161047 -5.16214,-5.311887 -5.43808,-5.156774 -0.35512,0.199787 -0.24766,2.617267 0.14184,3.191346 0.93793,1.382497 2.28044,2.085636 3.98536,2.087348 0.60772,6.13e-4 1.19762,-0.05382 1.31092,-0.121928 z m 9.02243,-0.233652 c 1.00228,-0.428472 2.21374,-1.737045 2.38737,-2.578776 0.16213,-0.786074 -0.0609,-2.223699 -0.44036,-2.838027 -0.17068,-0.276473 -2.05095,-2.057743 -4.1784,-3.958624 -4.13751,-3.696799 -4.35374,-3.830871 -6.16833,-3.824877 -3.05329,0.0121 -5.068,3.078806 -3.72868,5.679315 0.45389,0.881326 7.41214,7.152948 8.37883,7.552102 1.08018,0.445881 2.66454,0.432792 3.74957,-0.0325 z m -17.8314,-7.413865 c 0.4087,-0.131302 0.77458,-0.209576 0.81301,-0.174918 0.0385,0.03666 0.29672,-0.102766 0.57391,-0.305803 0.44401,-0.325381 0.51334,-0.509044 0.58216,-1.54185 0.10103,-1.516569 0.47117,-2.591457 1.26825,-3.683265 1.28764,-1.763873 3.34577,-2.863471 5.73618,-3.06486 l 1.40929,-0.11864 0.0695,-0.920796 c 0.11091,-1.4698 0.43991,-2.442912 1.17495,-3.475473 1.35027,-1.896803 3.32166,-2.979109 5.80754,-3.188534 l 1.41912,-0.119471 0.0695,-0.920879 c 0.11091,-1.469759 0.43991,-2.442909 1.17495,-3.475473 1.37868,-1.936681 3.39068,-3.023474 5.88557,-3.17895 l 1.4513,-0.09052 0.0856,-1.359177 c 0.1306,-2.072219 0.81826,-3.22735 2.87396,-4.827795 1.50599,-1.172381 4.357,-1.767013 6.23802,-1.30107 2.21035,0.547576 2.77546,0.904241 5.8875,3.715844 2.51015,2.26786 3.03165,2.666281 3.26207,2.492331 0.54451,-0.410977 2.52421,-3.203702 3.06114,-4.318346 0.30204,-0.626883 0.6278,-1.264492 0.72399,-1.416793 0.33643,-0.532731 1.11031,-3.757718 1.31536,-5.481267 0.61167,-5.141935 -1.43855,-10.948186 -5.30038,-15.010664 -7.44199,-7.8286407 -20.18989,-9.3804425 -29.42924,-3.5824689 -1.65327,1.03749651 -1.93362,1.24329281 -1.93362,1.41944231 0,0.079106 1.81822,1.80448759 4.04049,3.83368759 3.57951,3.268535 4.10844,3.821819 4.63617,4.849081 1.80874,3.521062 0.11589,7.563312 -3.88865,9.285719 -0.89968,0.386961 -1.23918,0.435646 -3.03855,0.435646 -3.13413,0 -3.32143,-0.104807 -8.40596,-4.712647 -2.29374,-2.07858 -4.26558,-3.750341 -4.38188,-3.71515 -0.11631,0.03666 -5.72566,5.071798 -12.46522,11.192266 -7.63679,6.935288 -12.39529,11.380404 -12.62938,11.797745 -0.77985,1.390324 -0.39468,3.336099 0.89495,4.521081 1.17073,1.075824 3.25407,1.420458 4.76049,0.78754 0.47372,-0.198993 2.28111,-1.723382 5.06424,-4.271129 2.38019,-2.178926 4.58603,-4.110591 4.90183,-4.292698 1.25376,-0.72283 2.6485,-0.117846 2.6485,1.148895 0,0.552309 -0.33745,0.902612 -4.85723,5.041952 -5.24324,4.801988 -5.35624,4.943191 -5.31921,6.648186 0.0452,2.079925 1.94557,3.738639 4.2835,3.738639 1.80109,0 2.253,-0.302968 7.37077,-4.942825 4.39028,-3.980319 4.74404,-4.261589 5.35963,-4.261589 0.93411,0 1.63364,0.619793 1.63364,1.447294 0,0.594549 -0.23904,0.844302 -4.77915,4.992855 -3.1011,2.833707 -4.87926,4.58494 -5.06425,4.987556 -0.40316,0.877577 -0.36925,2.504403 0.0684,3.284724 0.51144,0.911785 1.4235,1.654432 2.49006,2.027692 1.13359,0.39675 1.49935,0.412367 2.45709,0.105222 z M 162.255,53.472059 c 2.05091,-0.945223 2.9349,-3.261933 1.95859,-5.133088 -0.45448,-0.871049 -7.55223,-7.317638 -8.47771,-7.699913 -1.48676,-0.614202 -3.54053,-0.29847 -4.73943,0.727767 -1.30511,1.117498 -1.72916,3.189592 -0.93439,4.565974 0.38008,0.658242 7.70222,7.406779 8.42307,7.763239 0.2026,0.09989 0.93043,0.184291 1.61747,0.187163 0.97308,0.0029 1.4488,-0.08644 2.1524,-0.41118 z m 8.40588,-7.690332 c 2.01202,-0.852049 2.90353,-2.867995 2.16057,-4.885576 -0.26088,-0.708476 -0.82871,-1.304412 -4.0095,-4.208048 -4.05893,-3.705326 -4.61575,-4.060441 -6.37738,-4.066761 -3.21938,-0.01209 -5.30806,3.080969 -3.84356,5.690813 0.45972,0.819265 7.46039,7.117636 8.36522,7.526004 1.04258,0.470592 2.51296,0.448209 3.70465,-0.05628 z m 8.45706,-7.698443 c 1.08584,-0.45991 1.76459,-1.13389 2.20993,-2.194426 0.37719,-0.898247 0.28999,-2.252934 -0.20123,-3.126716 -0.50927,-0.905874 -7.14726,-6.900059 -8.24035,-7.44115 -1.0546,-0.522012 -2.11221,-0.605763 -3.38955,-0.268726 -1.07394,0.283806 -1.78235,0.878673 -2.41328,2.026955 -0.44565,0.81111 -0.52559,1.13544 -0.46284,1.877557 0.0417,0.493386 0.23687,1.201495 0.4336,1.573614 0.522,0.98718 7.80406,7.49954 8.64934,7.735101 1.12288,0.313173 2.40645,0.244234 3.4144,-0.182666 z m -53.28767,-20.64337 c 7.01938,-6.413117 12.27518,-11.086332 12.61927,-11.220446 0.44055,-0.171667 0.72001,-0.185538 1.10492,-0.05465 0.28338,0.09623 2.62841,2.086411 5.21118,4.422083 3.20143,2.895192 4.92286,4.331476 5.409,4.513129 0.39218,0.146382 1.15963,0.266269 1.70543,0.266269 3.19613,0 5.26511,-3.035542 3.84079,-5.635113 -0.62344,-1.137846 -10.23265,-9.80279749 -12.29168,-11.0838025 -1.41369,-0.8795305 -4.60025,-2.3431745 -5.84556,-2.6849172 -2.04675,-0.5617652 -2.69414,-0.6814407 -4.7404,-0.8765106 -2.71334,-0.2585209 -5.44021,-0.05503 -8.15041,0.6088205 -2.14164,0.5244988 -5.74117,2.1076105 -7.39999,3.2544682 -3.72804,2.5774686 -6.75407,6.4602896 -8.03032,10.3038456 -1.22282,3.682653 -1.29374,7.909787 -0.1925,11.472761 0.3912,1.265758 0.46206,1.437954 1.34396,3.266011 0.73803,1.52982 2.84809,4.394065 3.26212,4.42807 0.0686,0.0083 5.53791,-4.935485 12.15419,-10.980313 z"
       id="path630" />
    <path
       style="fill:#000000;stroke-width:1.03678"
       d="m 18.044399,60.921618 c -0.370866,-0.841757 -0.67433,-4.098443 -0.67433,-7.237127 0,-5.836287 -2.671577,-13.486276 -4.709767,-13.486276 -0.675286,0 -0.882456,1.359066 -0.51104,3.352474 1.124041,6.032631 -9.6232457,17.655123 -11.78621681,12.746038 -0.31928145,-0.724718 0.87489661,-3.228218 2.65375241,-5.56348 3.161102,-4.149804 3.2343981,-4.534678 3.2390436,-17.008949 0.00341,-9.162256 0.3965431,-12.9743 1.3934437,-13.511857 0.7637743,-0.411818 6.3879411,-0.845243 12.4981541,-0.963203 6.110209,-0.117887 12.595517,-0.351243 14.411798,-0.517748 2.375449,-0.218528 3.406742,0.14955 3.674324,1.309786 0.290516,1.259911 -1.040506,1.871321 -6.079702,2.792506 C 21.5082,24.779916 18.22483,24.60751 15.639048,21.966564 13.12887,19.402802 9.2451905,19.655562 8.0081319,22.46318 c -0.8192128,1.859292 5.3891331,10.648183 8.0583571,11.407907 1.022482,0.291073 2.770498,2.813311 3.884486,5.605138 2.117523,5.306828 4.473846,19.679886 3.568404,21.766436 -0.749403,1.726937 -4.674022,1.496832 -5.47498,-0.321177 z m 37.09787,-2.72001 c 0,-2.887611 -3.038774,-4.021701 -5.525133,-2.061972 -2.461032,1.93976 -3.728383,1.860213 -6.056172,-0.380102 -1.439049,-1.384847 -1.647208,-2.310161 -0.821859,-3.653307 1.639752,-2.668492 -0.272863,-4.975966 -3.657287,-4.412509 -2.237761,0.372482 -3.00742,-0.04571 -3.916326,-2.127568 -1.573677,-3.604911 -1.444474,-4.183483 1.090679,-4.884267 2.87725,-0.795327 2.851272,-3.749898 -0.04787,-5.445438 -2.013886,-1.177833 -2.125446,-1.685558 -0.989598,-4.503686 1.012108,-2.511155 1.731182,-3.0516 3.434032,-2.58088 3.086461,0.853182 5.62708,-1.224827 4.245778,-3.47272 -1.639001,-2.667247 -1.360746,-3.453792 1.874953,-5.300295 2.730601,-1.558257 3.066376,-1.566958 4.288525,-0.111048 2.206063,2.627593 5.877688,1.995734 6.284228,-1.081446 0.308802,-2.337545 0.823892,-2.660751 4.23984,-2.660751 3.379172,0 3.932915,0.335188 4.228923,2.562238 0.421418,3.170081 3.804352,4.172899 5.605127,1.661542 1.615083,-2.252344 2.272585,-2.225641 5.660291,0.230161 2.28596,1.656971 2.509758,2.261484 1.406696,3.799814 -2.058891,2.871251 -0.482315,5.093161 3.163343,4.458136 2.693749,-0.469233 3.237498,-0.147134 4.331785,2.567691 1.102355,2.734608 0.981091,3.262301 -1.018404,4.431716 -2.899144,1.695581 -2.925122,4.650111 -0.04787,5.445438 2.535152,0.70078 2.664355,1.279393 1.090674,4.884267 -0.90397,2.07075 -1.683666,2.499329 -3.881256,2.133462 -3.597411,-0.598942 -5.555434,1.374739 -3.952192,3.983771 1.619631,2.635731 1.574777,2.762834 -1.617796,4.584716 -2.610913,1.489934 -2.947048,1.489852 -4.838598,-0.0011 -2.632116,-2.074563 -5.68693,-1.035459 -5.68693,1.934468 0,2.056279 -0.49736,2.315413 -4.443788,2.315413 -3.946435,0 -4.443791,-0.259409 -4.443791,-2.315413 z M 65.202329,45.97492 c 3.248016,-1.513909 5.748345,-6.432538 4.926508,-9.691391 -0.907393,-3.598095 -6.486709,-7.696017 -10.478199,-7.696017 -3.730371,0 -8.720535,3.213664 -10.179418,6.55559 -1.365972,3.129063 0.558053,8.407386 3.781368,10.373734 2.7483,1.676493 8.835077,1.909846 11.949741,0.458084 z M 22.289727,34.084631 c -5.779592,-1.595062 -7.18323,-2.464525 -9.804359,-6.072844 -2.9591608,-4.073746 -3.0720112,-6.210056 -0.326715,-6.185237 0.727714,0.0082 2.420162,1.487493 3.760988,3.290847 1.807301,2.430769 3.962449,3.709764 8.332105,4.944771 7.260533,2.052031 8.53835,2.976304 6.402093,4.630506 -1.333345,1.03249 -2.808287,0.925277 -8.364093,-0.608043 z M 14.284426,17.405704 c -3.081224,-1.87962 -3.17803,-5.375595 -0.213548,-7.712136 3.055257,-2.4080757 7.840662,-0.9746725 9.36723,2.805856 0.951615,2.35663 0.740617,3.004127 -1.491968,4.578622 -3.15711,2.226522 -4.457754,2.282136 -7.66171,0.327569 z"
       id="path1830" />
  </g>
</svg>
