<?xml version="1.0" encoding="UTF-8" standalone="no"?>
<!-- Created with Inkscape (http://www.inkscape.org/) -->

<svg
   xmlns:dc="http://purl.org/dc/elements/1.1/"
   xmlns:cc="http://creativecommons.org/ns#"
   xmlns:rdf="http://www.w3.org/1999/02/22-rdf-syntax-ns#"
   xmlns:svg="http://www.w3.org/2000/svg"
   xmlns="http://www.w3.org/2000/svg"
   xmlns:sodipodi="http://sodipodi.sourceforge.net/DTD/sodipodi-0.dtd"
   xmlns:inkscape="http://www.inkscape.org/namespaces/inkscape"
   width="47mm"
   height="61mm"
   viewBox="0 0 47 61"
   version="1.1"
   id="svg8"
   inkscape:version="0.92.4 (5da689c313, 2019-01-14)"
   sodipodi:docname="bachillerato.svg">
  <defs
     id="defs2" />
  <sodipodi:namedview
     id="base"
     pagecolor="#ffffff"
     bordercolor="#666666"
     borderopacity="1.0"
     inkscape:pageopacity="0.0"
     inkscape:pageshadow="2"
     inkscape:zoom="0.35"
     inkscape:cx="42.857143"
     inkscape:cy="560"
     inkscape:document-units="mm"
     inkscape:current-layer="layer1"
     showgrid="false"
     inkscape:window-width="1366"
     inkscape:window-height="705"
     inkscape:window-x="-8"
     inkscape:window-y="-8"
     inkscape:window-maximized="1" />
  <metadata
     id="metadata5">
    <rdf:RDF>
      <cc:Work
         rdf:about="">
        <dc:format>image/svg+xml</dc:format>
        <dc:type
           rdf:resource="http://purl.org/dc/dcmitype/StillImage" />
        <dc:title></dc:title>
      </cc:Work>
    </rdf:RDF>
  </metadata>
  <g
     inkscape:label="Capa 1"
     inkscape:groupmode="layer"
     id="layer1"
     transform="translate(0,-236)">
    <path
       inkscape:connector-curvature="0"
       style="opacity:1;fill:#000080;fill-opacity:1;stroke:url(#meshgradient2367);stroke-width:0.13918801"
       d="m 4.3939562,289.85954 c 0.0574,-8.15014 1.05405,-15.57849 2.50644,-18.68075 0.45472,-0.97125 0.6892,-1.21795 1.65013,-1.73608 0.49912,-0.26912 0.58989,-0.36671 0.39001,-0.41928 -0.14327,-0.0377 -0.34176,-0.2283 -0.44108,-0.4236 -0.1465,-0.28802 -0.096,-0.59644 0.26716,-1.63284 0.41928,-1.19648 0.43543,-1.34006 0.25376,-2.25725 -0.10674,-0.53871 -0.34432,-1.44618 -0.52803,-2.01658 -0.40664,-1.2626 -0.35004,-1.53119 0.61918,-2.93848 1.2605198,-1.83022 1.2526598,-1.80467 1.2340698,-4.00961 -0.0204,-2.42947 0.0465,-2.56361 1.98172,-3.97184 0.75998,-0.55302 1.40782,-1.13341 1.46806,-1.3152 0.23118,-0.69778 1.13855,-2.65483 1.69052,-3.64625 0.46958,-0.84342 0.53879,-1.06824 0.3638,-1.18164 -0.11887,-0.077 -2.0126,-0.97982 -4.2083,-2.00624 -2.1957198,-1.0264 -4.0287798,-1.90674 -4.0734598,-1.9563 -0.0446,-0.0496 2.7601298,-0.1285 6.2329098,-0.17542 l 6.31417,-0.0853 0.25504,0.24958 c 0.37113,0.36317 1.11303,0.9008 0.96309,0.6979 -0.0703,-0.0951 -0.31385,-0.34275 -0.54127,-0.55041 l -0.41353,-0.37756 0.49048,0.0256 c 0.26977,0.0141 0.58289,-0.0135 0.69583,-0.0613 0.23974,-0.10155 0.26485,0.0294 0.0502,0.26188 -0.20283,0.21959 -0.0405,0.47138 0.30387,0.47138 0.41124,0 0.87495,-0.40458 0.64464,-0.56244 -0.27214,-0.18654 -0.031,-0.281 0.35551,-0.13922 0.20087,0.0737 0.35954,0.08 0.39267,0.0157 0.0308,-0.0597 1.23453,-0.11776 2.69121,-0.12981 l 2.6356,-0.0218 3.50082,1.64504 c 1.92545,0.90475 5.82662,2.7368 8.66926,4.07122 3.38229,1.58772 5.09628,2.45761 4.95957,2.51712 -0.11486,0.05 -1.0756,0.0917 -2.13495,0.0927 l -1.9261,0.002 -4.85003,-1.34327 c -2.66751,-0.73881 -4.76415,-1.37967 -4.6592,-1.42413 0.32632,-0.13823 0.12482,-0.74216 -0.25642,-0.76844 -0.26209,-0.0181 -0.27135,-0.0101 -0.042,0.0363 0.35515,0.0717 0.39229,0.27302 0.0503,0.27302 -0.1341,0 -0.31521,0.0874 -0.40247,0.19432 -0.14366,0.17595 -0.30742,0.15249 -1.73161,-0.248 -0.86512,-0.24328 -1.93855,-0.56712 -2.38541,-0.71964 -0.44685,-0.15253 -0.97642,-0.25856 -1.17684,-0.23563 -0.47983,0.0549 -0.65008,0.005 7.72337,2.29082 l 6.91088,1.88706 -2.70368,0.0932 c -1.487,0.0513 -2.71772,0.10309 -2.73488,0.11524 -0.0171,0.0121 -0.30773,0.95547 -0.64572,2.09627 -0.33797,1.14082 -0.72926,2.19562 -0.86951,2.34399 -0.19572,0.20705 -0.26157,0.67594 -0.28313,2.0166 l -0.0281,1.74682 0.988,1.4156 c 0.5434,0.77858 1.02475,1.63909 1.06968,1.91224 0.0499,0.30347 -0.0892,1.04184 -0.35756,1.89838 -0.45113,1.43978 -0.55826,2.75458 -0.28304,3.47394 0.0848,0.22182 0.20335,0.66716 0.26329,0.98964 0.0978,0.52645 0.0624,0.62424 -0.34664,0.95747 l -0.45562,0.37113 0.40154,0.18719 c 1.09957,0.51261 1.79393,1.13068 2.14466,1.909 1.03687,2.30096 1.96373,7.47365 2.31022,12.89296 l 0.11562,1.80844 -0.40326,0.058 c -0.87358,0.12571 -6.20344,0.15161 -6.20344,0.0302 0,-0.0754 -0.0763,-0.0691 -0.20175,0.017 -0.11095,0.0761 -0.54597,0.13146 -0.96669,0.12311 l -0.76496,-0.0151 0.58844,-0.0914 c 0.53683,-0.0834 0.51472,-0.0897 -0.2522,-0.0712 l -0.8406,0.0202 0.0519,-2.76561 c 0.0683,-3.63312 -0.24282,-10.51139 -0.54496,-12.05074 -0.56351,-2.8711 -1.57758,-4.27184 -3.22143,-4.44985 -0.80141,-0.0868 -0.90306,-0.18123 -0.90622,-0.8421 -0.002,-0.49303 0.0509,-0.55126 1.08182,-1.18317 1.50784,-0.92422 3.12923,-2.31396 3.29798,-2.82681 0.26437,-0.80343 -0.25736,-2.69748 -1.10484,-4.01096 -0.60299,-0.93456 -1.28053,-1.05 -3.3101,-0.56399 -1.44481,0.34599 -1.64875,0.35439 -1.64875,0.0679 0,-0.53453 2.75706,-1.04711 3.72413,-0.69237 0.18678,0.0685 0.38013,0.0968 0.42967,0.0628 0.16381,-0.11228 -0.74975,-1.04118 -1.6722,-1.70026 -0.83292,-0.59513 -1.00861,-0.66435 -2.12972,-0.83912 -0.67206,-0.10477 -1.93653,-0.34739 -2.80995,-0.53916 l -1.58803,-0.34868 -0.62486,0.34379 c -0.34366,0.18907 -1.18877,0.73545 -1.87803,1.21416 -0.86307,0.59944 -1.29403,0.8263 -1.38442,0.72877 -0.0786,-0.0848 -0.13228,0.009 -0.13382,0.23291 -0.002,0.39435 -0.14072,0.4642 -0.47052,0.23814 -0.10937,-0.075 -0.25631,-0.097 -0.32643,-0.049 -0.0701,0.0481 0.004,0.13793 0.16532,0.1997 0.30102,0.11548 0.40874,0.44658 0.14527,0.44658 -0.0811,0 -0.24171,-0.0778 -0.35682,-0.17285 -0.30299,-0.25025 -0.50965,-0.21511 -1.24587,0.21181 l -0.65745,0.38125 0.39485,0.36607 c 0.52853,0.48998 0.7877,0.46853 0.33985,-0.0281 -0.46376,-0.51432 -0.15423,-0.66668 0.49212,-0.24223 l 0.47302,0.31062 -0.38753,0.65371 c -0.70844,1.19503 -0.96181,2.07939 -0.88599,3.09252 0.0588,0.7857 0.14497,1.01649 0.51689,1.38435 0.81919,0.81022 2.21,1.85414 3.27177,2.45573 0.83706,0.47426 1.05076,0.66171 1.05076,0.92165 0,0.50342 -0.1668,0.69085 -0.61476,0.69085 -1.45833,0 -2.64601,1.18871 -3.25086,3.25366 -0.54592,1.86374 -0.7129,4.11134 -0.84551,11.38104 -0.14557,7.98035 -0.19037,8.31807 -1.13954,8.59163 -0.29587,0.0853 -0.53793,0.20983 -0.53793,0.2768 0,0.078 0.12297,0.0695 0.34137,-0.0232 0.28227,-0.11991 0.36914,-0.1151 0.50179,0.0278 0.21965,0.23668 0.2066,0.57617 -0.0222,0.57617 -0.10969,0 -0.14818,-0.10364 -0.0927,-0.24929 0.0899,-0.23577 0.0796,-0.23851 -0.19054,-0.0501 -0.26899,0.1875 -0.26488,0.21079 0.0708,0.39966 0.25171,0.14164 0.44044,0.48482 0.64252,1.16839 0.15737,0.53231 0.39416,1.14509 0.52623,1.36173 0.13207,0.21666 0.24012,0.4135 0.24012,0.43745 0,0.0239 -0.69061,0.0435 -1.53469,0.0435 h -1.53469 l 0.0779,-0.92303 c 0.0639,-0.75624 0.14695,-0.9734 0.45975,-1.20162 l 0.3818,-0.27855 -0.43815,-0.39375 c -0.39982,-0.3593 -0.56221,-0.66008 -0.35636,-0.66008 0.0449,0 0.34555,0.19447 0.66793,0.43214 0.75712,0.55818 0.76197,0.43546 0.009,-0.21425 l -0.58679,-0.50596 -0.0322,-3.16894 -0.0322,-3.16892 -0.0977,3.41772 c -0.0864,3.02491 -0.13124,3.44314 -0.38975,3.63893 -0.33829,0.25621 -0.39463,0.46247 -0.077,0.28178 0.1724,-0.0981 0.22432,0.16228 0.26146,1.31107 l 0.0463,1.43346 0.28889,-6.91404 -6.9510798,6.91404 z M 32.328646,278.95617 c -0.0361,-0.25317 -0.1501,-0.37066 -0.38732,-0.39896 l -0.33623,-0.0401 0.33623,0.17954 c 0.30554,0.16314 0.3089,0.17988 0.0369,0.18321 -0.37474,0.005 -0.58163,0.34061 -0.28666,0.46556 0.39818,0.16869 0.69116,-0.0102 0.63722,-0.38924 z m -0.55542,0.15781 c 0.0572,-0.0634 0.17509,-0.11523 0.26208,-0.11523 0.0871,0 0.15821,0.0519 0.15821,0.11523 0,0.0634 -0.11794,0.11523 -0.26212,0.11523 -0.14414,0 -0.21535,-0.0519 -0.15817,-0.11523 z m -17.63084,-10.86079 c -0.0557,-0.1426 -0.10244,-0.3241 -0.10365,-0.40333 -9.8e-4,-0.0792 -0.17251,-0.13801 -0.38057,-0.13066 -0.28465,0.0101 -0.30545,0.0264 -0.0841,0.066 0.38646,0.0692 0.37175,0.17764 -0.0486,0.35755 -0.42699,0.18277 -0.28127,0.36966 0.28825,0.36966 0.36386,0 0.4144,-0.0398 0.32861,-0.25928 z m -0.61032,0.0289 c 0,-0.0634 0.0756,-0.11524 0.16812,-0.11524 0.0925,0 0.16811,0.0519 0.16811,0.11524 0,0.0634 -0.0756,0.11523 -0.16811,0.11523 -0.0924,0 -0.16812,-0.0519 -0.16812,-0.11523 z m 18.4619,-0.3169 c -0.0336,-0.12085 -0.22378,-0.20922 -0.47465,-0.22053 -0.37117,-0.0166 -0.37573,-0.0125 -0.0402,0.0369 0.41406,0.0609 0.4992,0.21749 0.16812,0.30905 -0.12108,0.0335 -0.0802,0.062 0.0964,0.0673 0.2046,0.007 0.28791,-0.058 0.25048,-0.19256 z m -20.21163,-8.88961 0.40482,-0.21825 -0.48779,-0.35792 c -0.57286,-0.42033 -0.70296,-0.43528 -1.10942,-0.12744 -0.32083,0.24299 -0.12567,0.32812 0.21576,0.0941 0.29239,-0.20043 0.4293,-0.0379 0.18966,0.2251 -0.22425,0.24612 -0.10992,0.60266 0.19323,0.60266 0.10388,0 0.37108,-0.0982 0.59374,-0.21827 z m -0.77208,-0.11333 c 0,-0.0556 0.10672,-0.16185 0.2372,-0.23606 0.26346,-0.14987 0.53293,0.0204 0.35122,0.22195 -0.12804,0.142 -0.58842,0.15304 -0.58842,0.0141 z m 0.91413,-0.99489 c -0.84107,-0.70352 -0.94866,-0.56449 -0.14433,0.18652 0.35305,0.32967 0.67067,0.54026 0.70581,0.46799 0.0352,-0.0723 -0.21753,-0.36678 -0.56148,-0.65451 z m 1.57758,0.17403 c 0.38267,-0.21862 0.3843,-0.22851 0.084,-0.51183 -0.16838,-0.15888 -0.44217,-0.32042 -0.60842,-0.35893 -0.3201,-0.0742 -0.79052,0.12332 -0.79052,0.33186 0,0.0809 0.0704,0.076 0.20176,-0.0141 0.11095,-0.0761 0.30184,-0.13828 0.42417,-0.13828 0.17026,0 0.15771,0.0677 -0.0536,0.28865 -0.22238,0.23262 -0.23544,0.32212 -0.0674,0.46095 0.26451,0.21845 0.33413,0.21343 0.80982,-0.0584 z m -0.61641,-0.17873 c 0.0319,-0.11295 0.15987,-0.2286 0.28429,-0.257 0.14469,-0.033 0.20527,0.0223 0.16812,0.15375 -0.0319,0.11296 -0.15988,0.22861 -0.28429,0.25701 -0.14469,0.033 -0.20527,-0.0223 -0.16812,-0.15376 z m 18.3953,-0.51091 c 0,-0.13533 -0.0616,-0.18652 -0.15106,-0.12528 -0.0831,0.057 -0.10024,0.15993 -0.0381,0.22883 0.15807,0.17531 0.18916,0.15829 0.18916,-0.10355 z m 0.74453,-0.0938 c 0,-0.33007 -0.26471,-0.60197 -0.58002,-0.5957 -0.097,0.002 -0.044,0.0564 0.11769,0.12095 0.33827,0.13506 0.39651,0.63468 0.0841,0.72109 -0.12553,0.0347 -0.0917,0.0618 0.0841,0.0673 0.21332,0.007 0.29422,-0.0796 0.29422,-0.31356 z m -11.30963,-14.53538 c 0.1636,-0.17954 0.13808,-0.27235 -0.14191,-0.51633 -0.41593,-0.36242 -0.67056,-0.37391 -1.08946,-0.0491 l -0.32026,0.24831 0.44677,-0.19695 c 0.48209,-0.21253 0.8113,-0.0762 0.39197,0.16232 -0.30459,0.17329 -0.32871,0.53717 -0.0401,0.60616 0.30085,0.072 0.52465,-0.003 0.75307,-0.25437 z m -0.79509,0.007 c 0,-0.14525 0.49352,-0.40566 0.61326,-0.32359 0.17216,0.11801 -0.0847,0.42471 -0.35581,0.42471 -0.1416,0 -0.25745,-0.0455 -0.25745,-0.10112 z m 15.00857,48.61459 c 0,-0.28522 0.0327,-0.40188 0.0729,-0.25929 0.0401,0.14262 0.0401,0.37596 0,0.51857 -0.0401,0.14259 -0.0729,0.0259 -0.0729,-0.25928 z m -23.74829,0.0289 c 0.007,-0.20486 0.29364,-0.39689 0.40663,-0.27158 0.0632,0.0702 0.0682,0.1794 0.0111,0.24276 -0.12119,0.13442 -0.42148,0.15512 -0.41772,0.0289 z m 22.90714,-1.9524 c 0.16356,-0.0292 0.39054,-0.0274 0.50436,0.005 0.11381,0.0316 -0.02,0.0554 -0.2974,0.0532 -0.27741,-0.002 -0.37056,-0.0282 -0.20696,-0.0574 z m -1.84935,-0.11524 c 0.16358,-0.0292 0.39054,-0.0274 0.50437,0.005 0.11381,0.0316 -0.02,0.0554 -0.2974,0.0532 -0.27741,-0.002 -0.37054,-0.0282 -0.20697,-0.0574 z m 2.48987,-0.56353 c 0.008,-0.13424 0.048,-0.16155 0.10157,-0.0696 0.0485,0.0832 0.0426,0.18257 -0.0133,0.22085 -0.0558,0.0383 -0.0956,-0.0298 -0.0883,-0.15123 z m -4.97977,-0.40139 c -0.0609,-0.0675 -0.0748,-0.14761 -0.0307,-0.17781 0.044,-0.0302 0.12492,0.0251 0.17968,0.12289 0.11369,0.20305 0.0168,0.23876 -0.149,0.0549 z m 8.91734,-0.10755 c 0.16736,-0.12677 0.34213,-0.23049 0.38835,-0.23049 0.0463,0 -0.0529,0.10372 -0.22022,0.23049 -0.16737,0.12674 -0.34213,0.23045 -0.38836,0.23045 -0.0463,0 0.0529,-0.10371 0.22023,-0.23045 z m -8.98121,-0.41294 c 0.008,-0.13423 0.048,-0.16154 0.10157,-0.0696 0.0486,0.0832 0.0426,0.18256 -0.0133,0.22085 -0.0558,0.0382 -0.0956,-0.0298 -0.0883,-0.15124 z m 0.15485,-0.32199 c 0,-0.0239 0.13239,-0.11467 0.29421,-0.20165 0.26664,-0.14334 0.27261,-0.13926 0.0634,0.0435 -0.21962,0.19195 -0.35769,0.25299 -0.35769,0.15813 z m 2.3537,-0.0717 c -0.15154,-0.0672 -0.17226,-0.11241 -0.052,-0.11347 0.11009,-7.9e-4 0.24698,0.0501 0.30413,0.11347 0.12899,0.14307 0.0708,0.14307 -0.25218,0 z m 4.70739,-0.61967 c 0,-0.0239 0.13239,-0.11468 0.29422,-0.20167 0.26664,-0.14334 0.2726,-0.13926 0.0634,0.0435 -0.21961,0.19196 -0.35768,0.25299 -0.35768,0.15815 z m -16.44602,-1.22962 c -0.862,-0.0483 -1.60368,-0.11289 -1.64818,-0.1434 -0.27708,-0.18991 -1.4055,-9.86305 -1.66967,-14.3129 l -0.10947,-1.84374 1.50182,1.01507 c 1.31135,0.88633 1.5294,0.99229 1.71931,0.83545 0.31481,-0.26 0.55634,-0.22357 1.10099,0.16608 0.60026,0.42942 0.74365,0.43019 1.33511,0.007 0.43904,-0.31411 0.50068,-0.32639 0.8502,-0.16942 0.36247,0.16279 0.43873,0.12461 2.00145,-1.00191 0.89356,-0.64412 1.66658,-1.14237 1.71786,-1.10722 0.0512,0.0351 0.008,1.29953 -0.0956,2.80978 -0.27718,4.03026 -0.62732,7.19208 -1.38557,12.51195 l -0.19298,1.354 -1.77899,-0.0164 c -0.97843,-0.009 -2.48425,-0.056 -3.34626,-0.10437 z m 0.11253,-10.23497 c 0.45147,-0.26838 0.4511,-0.33874 -0.004,-0.67045 -0.4538,-0.3311 -0.67135,-0.3348 -1.07945,-0.0184 l -0.32027,0.2483 0.46232,-0.20394 c 0.40296,-0.17775 0.46235,-0.18091 0.46235,-0.0247 0,0.0986 -0.0757,0.21135 -0.16814,0.25052 -0.23807,0.10085 -0.20888,0.48808 0.042,0.55746 0.11559,0.032 0.21749,0.0622 0.22647,0.0673 0.009,0.005 0.17919,-0.0877 0.37827,-0.20608 z m -0.64675,-0.11642 c 0,-0.14525 0.49352,-0.40565 0.61326,-0.32358 0.17216,0.11801 -0.0847,0.42471 -0.35581,0.42471 -0.1416,0 -0.25745,-0.0455 -0.25745,-0.10113 z m 0.86099,-1.06102 c -0.38107,-0.32806 -0.69287,-0.5302 -0.69287,-0.44923 0,0.18174 1.18169,1.18554 1.3001,1.10438 0.0471,-0.0323 -0.22615,-0.3271 -0.60723,-0.65515 z m 1.69745,0.1318 c 0.26187,-0.20964 0.25817,-0.24226 -0.0589,-0.51856 -0.3644,-0.31752 -0.79779,-0.37805 -1.12093,-0.15655 -0.34399,0.23577 -0.22147,0.3706 0.13552,0.14917 0.43532,-0.27003 0.65078,-0.12919 0.25775,0.16849 -0.16475,0.12478 -0.25494,0.3066 -0.20038,0.40403 0.1376,0.24578 0.65207,0.2215 0.98695,-0.0467 z m -0.68313,-0.0704 c 0.0319,-0.11296 0.15987,-0.22862 0.28429,-0.25702 0.14469,-0.033 0.20528,0.0223 0.16811,0.15376 -0.0319,0.11296 -0.15986,0.22862 -0.28428,0.25702 -0.1447,0.033 -0.20528,-0.0223 -0.16812,-0.15376 z m 1.48711,-0.35036 c 0,-0.0376 -0.1513,-0.20008 -0.33624,-0.36123 -0.18494,-0.16115 -0.33624,-0.33786 -0.33624,-0.39267 0,-0.1978 0.66482,-0.0944 0.8406,0.13076 0.0989,0.12675 0.25724,0.23047 0.35169,0.23047 0.0944,0 0.054,-0.11525 -0.09,-0.25612 -0.26739,-0.26166 -0.3553,-0.66575 -0.14483,-0.66575 0.0643,0 0.3291,0.13934 0.58844,0.30964 0.25933,0.1703 0.47153,0.2578 0.47153,0.19441 0,-0.0634 -0.22071,-0.26017 -0.49047,-0.43731 l -0.49048,-0.32208 -0.30343,0.2429 c -0.1669,0.13359 -0.38191,0.2429 -0.47782,0.2429 -0.0959,0 -0.27106,0.10613 -0.38925,0.23583 -0.18477,0.20281 -0.16102,0.2826 0.16971,0.5698 0.36071,0.31323 0.63677,0.43395 0.63677,0.27845 z m 2.05216,-1.57317 c -0.28571,-0.56135 -0.34663,-0.62372 -0.27535,-0.2818 l 0.0916,0.43906 -0.43506,-0.1954 c -0.23929,-0.10746 -0.47769,-0.16619 -0.52976,-0.13048 -0.0521,0.0357 0.21906,0.20067 0.60254,0.3666 0.57497,0.24879 0.67765,0.34622 0.58542,0.55568 -0.0909,0.20654 -0.0708,0.22719 0.10783,0.1106 0.18028,-0.11768 0.15388,-0.27271 -0.1472,-0.86426 z M 4.1172762,270.29202 c 0,-0.0988 0.0769,-0.14709 0.17087,-0.10727 0.094,0.0398 0.12733,0.12065 0.0742,0.17966 -0.14412,0.15983 -0.245,0.13003 -0.245,-0.0724 z m 16.8961898,-6.14374 c -0.40614,-0.1274 -0.84885,-0.39726 -1.11778,-0.68136 -0.46511,-0.49137 -0.4531,-0.72438 0.0221,-0.42959 0.24604,0.15263 0.34904,0.14629 0.93182,-0.0574 0.79738,-0.27865 1.88302,-0.29587 2.41935,-0.0383 0.31505,0.15125 0.46157,0.16295 0.70991,0.0566 0.79352,-0.33968 -0.0311,0.72237 -0.85937,1.10676 -0.67353,0.31259 -1.2122,0.32366 -2.10608,0.0433 z m -3.51855,-4.68967 c -0.31139,-0.21344 -0.35202,-0.9802 -0.0624,-1.17869 0.15692,-0.10754 0.12087,-0.13827 -0.16227,-0.13827 -0.2002,0 -0.63438,0.16271 -0.96483,0.36157 l -0.60081,0.36158 -0.41375,-0.26643 c -0.46154,-0.29719 -0.54285,-0.48343 -0.16804,-0.38485 0.13517,0.0355 0.64583,-0.0693 1.13482,-0.23311 0.75557,-0.25302 0.97888,-0.28069 1.48707,-0.18421 0.59237,0.11245 1.76007,0.80638 1.35694,0.80638 -0.11522,0 -0.16666,0.0475 -0.11432,0.10556 0.12255,0.13592 -0.20401,0.72765 -0.46412,0.84102 -0.32305,0.14079 -0.74493,0.10364 -1.02824,-0.0906 z m 1.12607,-0.53913 c 0.10761,-0.2115 -0.0484,-0.43212 -0.30553,-0.43212 -0.29537,0 -0.46547,0.19964 -0.34835,0.40883 0.1148,0.20506 0.55342,0.22068 0.65388,0.0233 z m 6.6443,0.51855 c -0.14052,-0.11092 -0.29841,-0.39447 -0.35087,-0.63013 -0.0828,-0.37217 -0.031,-0.46555 0.39353,-0.71046 0.78802,-0.45448 1.3865,-0.48553 2.42394,-0.12576 0.4949,0.17163 0.98251,0.27702 1.08357,0.23421 0.2273,-0.0963 0.23449,0.002 0.0203,0.27548 -0.29076,0.37237 -0.67891,0.3745 -1.28941,0.007 -0.31697,-0.19075 -0.72672,-0.34683 -0.91057,-0.34683 -0.31644,0 -0.31981,0.0151 -0.0633,0.28341 0.66596,0.69664 -0.53187,1.6249 -1.30715,1.01298 z m 0.70774,-0.67105 c 0,-0.37822 -0.56243,-0.34457 -0.64215,0.0384 -0.0408,0.19603 0.0299,0.2581 0.29422,0.2581 0.2617,0 0.34793,-0.0735 0.34793,-0.29653 z m -7.85759,-1.59801 c -1.19105,-0.30317 -1.38522,-0.39022 -1.387,-0.62192 -0.002,-0.25306 0.0412,-0.26444 0.71244,-0.18771 1.05185,0.12026 2.31167,0.58653 2.31167,0.85558 0,0.12195 -0.0567,0.24081 -0.1261,0.26413 -0.0694,0.0234 -0.7493,-0.11621 -1.51101,-0.31008 z m -3.3729,-0.2027 c -0.23892,-0.16377 -0.26604,-0.51229 -0.0471,-0.60504 0.19294,-0.0818 0.88311,0.50264 0.7578,0.64162 -0.12966,0.1438 -0.47337,0.12611 -0.71071,-0.0366 z m 1.01705,-0.23624 c 0.10596,-0.21805 0.63053,-0.24903 0.63053,-0.0373 0,0.1069 -0.14374,0.1813 -0.35024,0.1813 -0.20545,0 -0.32133,-0.0595 -0.28029,-0.14404 z m 16.01364,-10.11177 c 0.0572,-0.0634 0.17509,-0.11523 0.26208,-0.11523 0.0871,0 0.15821,0.0519 0.15821,0.11523 0,0.0634 -0.11794,0.11523 -0.26212,0.11523 -0.14414,0 -0.21535,-0.0519 -0.15817,-0.11523 z m -10.00323,-4.7585 c 0,-0.0926 0.12075,-0.23702 0.26834,-0.32097 0.23427,-0.13327 0.26094,-0.11792 0.21014,0.1209 -0.0635,0.29895 -0.47848,0.47244 -0.47848,0.20007 z"
       id="path2365"
       sodipodi:nodetypes="csssssssssssssscscsssccccssssccsssccsscsssssscccsssscsscssscssscsssccssccsscsssssssssscsscccccscscssscssssssssssscsccssssscsscssscccccssscccccscscsccsssssccssssccsssssccsscccscssssssssssssssscscsssscccscscssssssccssscccsscsscccssssscsssscssccccccccccscssssscsssssssscssscscccccccccsccccsscssscssscsccccccscsssssccsssssssscsssssccscscscsssscsssscssssccsccssssssscsccccssssssccsssscsscssssssssssscscssccssccssssssssscsssssscssccssssssscs" />
  </g>
</svg>
