<?xml version="1.0" encoding="UTF-8" standalone="no"?>
<svg
   xmlns:dc="http://purl.org/dc/elements/1.1/"
   xmlns:cc="http://creativecommons.org/ns#"
   xmlns:rdf="http://www.w3.org/1999/02/22-rdf-syntax-ns#"
   xmlns:svg="http://www.w3.org/2000/svg"
   xmlns="http://www.w3.org/2000/svg"
   xmlns:sodipodi="http://sodipodi.sourceforge.net/DTD/sodipodi-0.dtd"
   xmlns:inkscape="http://www.inkscape.org/namespaces/inkscape"
   width="89mm"
   height="85mm"
   viewBox="0 0 89 85"
   version="1.1"
   id="svg8"
   inkscape:version="1.0.1 (3bc2e813f5, 2020-09-07)"
   sodipodi:docname="componer.svg">
  <defs
     id="defs2" />
  <sodipodi:namedview
     id="base"
     pagecolor="#ffffff"
     bordercolor="#666666"
     borderopacity="1.0"
     inkscape:pageopacity="0.0"
     inkscape:pageshadow="2"
     inkscape:zoom="0.35"
     inkscape:cx="400"
     inkscape:cy="560"
     inkscape:document-units="mm"
     inkscape:current-layer="g243"
     inkscape:document-rotation="0"
     showgrid="false"
     inkscape:window-width="1258"
     inkscape:window-height="728"
     inkscape:window-x="92"
     inkscape:window-y="0"
     inkscape:window-maximized="0" />
  <metadata
     id="metadata5">
    <rdf:RDF>
      <cc:Work
         rdf:about="">
        <dc:format>image/svg+xml</dc:format>
        <dc:type
           rdf:resource="http://purl.org/dc/dcmitype/StillImage" />
        <dc:title></dc:title>
      </cc:Work>
    </rdf:RDF>
  </metadata>
  <g
     inkscape:label="Capa 1"
     inkscape:groupmode="layer"
     id="layer1">
    <g
       id="g243"
       transform="translate(-228.58641,-82.587305)">
      <path
         style="opacity:1;fill:#220055;stroke-width:0.0625634"
         d="m 247.11535,154.51345 c -1.41077,-0.12756 -2.76979,-0.50073 -3.86284,-1.06072 -0.27609,-0.14146 -0.51783,-0.27187 -0.53719,-0.28981 -0.0193,-0.0179 -0.14609,-0.0984 -0.2816,-0.1789 -0.39769,-0.23608 -0.56321,-0.36231 -0.56321,-0.42949 0,-0.0346 -0.0274,-0.0567 -0.0609,-0.0491 -0.0667,0.0152 -0.47879,-0.31832 -0.77282,-0.62548 -0.10246,-0.10703 -0.203,-0.2071 -0.22343,-0.22239 -0.0204,-0.0153 -0.169,-0.19042 -0.33016,-0.3892 -0.62909,-0.77587 -1.10634,-1.7835 -1.28219,-2.70716 -0.10504,-0.55174 -0.10747,-36.57441 -0.003,-37.19455 0.0906,-0.53495 0.41973,-1.39872 0.74695,-1.95996 0.47112,-0.80806 1.5332,-1.90111 2.37182,-2.44099 0.36131,-0.23261 1.29422,-0.71492 1.60609,-0.83033 0.99677,-0.3689 1.29988,-0.45486 2.10079,-0.59571 1.01112,-0.17782 1.86217,-0.23396 2.01942,-0.13322 0.0806,0.0517 0.10239,0.054 0.0668,0.007 -0.041,-0.0539 0.12241,-0.0695 0.72985,-0.0695 0.60743,0 0.77087,0.0156 0.72984,0.0695 -0.0421,0.0553 -0.0306,0.0553 0.0562,-2.2e-4 0.15944,-0.10192 26.49008,-0.10123 26.41727,4.5e-4 -0.0387,0.0542 -0.0289,0.0541 0.0455,-4.2e-4 0.0736,-0.054 1.02371,-0.0695 4.25182,-0.0695 h 4.15702 l -2.21748,1.75098 -2.21748,1.75102 -16.36814,0.0171 c -17.55841,0.0183 -16.6055,0.002 -17.45108,0.29676 -0.50136,0.17467 -1.27392,0.63173 -1.61505,0.95546 -0.30171,0.28634 -0.71656,0.86658 -0.8516,1.19114 -0.0476,0.11441 -0.11523,0.36461 -0.15026,0.55599 -0.0888,0.48515 -0.0868,35.7763 0.002,36.20337 0.13167,0.63272 0.44089,1.17478 0.95395,1.67224 0.17627,0.17091 0.30178,0.33465 0.27892,0.36386 -0.0229,0.0292 10e-4,0.0403 0.0526,0.0246 0.0518,-0.0157 0.15637,0.0159 0.23246,0.0701 0.47198,0.33663 1.18637,0.61183 1.92155,0.74023 0.55095,0.0962 0.9185,0.10672 3.77389,0.10781 l 3.16349,0.001 0.18003,0.1251 0.18003,0.12509 -0.13361,-0.12509 -0.1336,-0.1251 h 7.87375 7.87374 l -0.20662,0.18069 -0.20663,0.1807 0.24961,-0.1807 0.2496,-0.18069 h 4.92085 4.92083 l 0.2148,0.1529 0.2148,0.15289 -0.17042,-0.15289 -0.17041,-0.1529 6.43632,-1e-5 c 6.60968,-1e-5 6.97474,-0.0105 7.70564,-0.22025 1.01413,-0.29111 1.9907,-0.99105 2.4723,-1.77195 0.42177,-0.6839 0.44193,-0.82137 0.44472,-3.03235 0.003,-1.89096 0.009,-1.99054 0.1257,-1.91911 0.11733,0.0718 0.11733,0.0699 0,-0.0393 -0.11594,-0.10787 -0.1232,-0.53681 -0.1232,-7.28522 0,-5.65948 0.0186,-7.18638 0.088,-7.24548 0.0704,-0.0599 0.0704,-0.067 0,-0.0356 -0.0699,0.0312 -0.088,-0.53422 -0.088,-2.74727 0,-2.21304 0.0181,-2.7784 0.088,-2.74724 0.0704,0.0314 0.0704,0.0242 0,-0.0356 -0.0621,-0.0529 -0.088,-0.31585 -0.088,-0.89473 v -0.81996 l 2.23522,-1.76468 2.23522,-1.76468 0.0181,3.63194 c 0.0142,2.85121 -0.001,3.65051 -0.0704,3.7183 -0.0701,0.0684 -0.0702,0.0777 -10e-4,0.0446 0.0685,-0.0325 0.088,0.1078 0.088,0.632 0,0.52285 -0.0197,0.66495 -0.088,0.6345 -0.0704,-0.0314 -0.0704,-0.0243 0,0.0356 0.0697,0.0593 0.088,2.0365 0.088,9.498 v 9.42312 l -0.1584,0.14218 -0.1584,0.14219 0.16836,-0.1108 0.16835,-0.1108 -0.0469,0.94983 c -0.0731,1.4784 -0.25743,2.15567 -0.869,3.19225 -0.16315,0.27653 -0.69539,0.98768 -0.7906,1.05637 -0.0212,0.0153 -0.1773,0.17202 -0.34692,0.34831 -0.62266,0.64713 -1.85889,1.43728 -2.8897,1.84696 -0.52164,0.20732 -1.62479,0.51941 -2.22241,0.62872 -0.44864,0.0821 -2.57437,0.0909 -23.725,0.0984 -12.77771,0.005 -23.32723,-5.3e-4 -23.44339,-0.0109 z m 19.96755,-1.22962 c 0.0876,-0.0882 0.0851,-0.0902 -0.0266,-0.021 -0.0678,0.0419 -0.1232,0.0857 -0.1232,0.0973 0,0.0458 0.0578,0.0163 0.14978,-0.0763 z m 0.41343,-0.31969 c 0.13135,-0.10703 0.22298,-0.19461 0.20362,-0.19461 -0.0194,0 -0.14267,0.0876 -0.27403,0.19461 -0.13134,0.10702 -0.22298,0.19459 -0.20362,0.19459 0.0194,0 0.14267,-0.0876 0.27403,-0.19459 z m 25.49399,0.0973 c 0.0876,-0.0882 0.0851,-0.0901 -0.0266,-0.021 -0.0678,0.042 -0.1232,0.0858 -0.1232,0.0973 0,0.0458 0.0578,0.0163 0.14978,-0.0763 z m 0.37823,-0.2919 c 0.0701,-0.0612 0.11158,-0.11119 0.0922,-0.11119 -0.0194,0 -0.0925,0.05 -0.16263,0.11119 -0.0701,0.0612 -0.11158,0.11121 -0.0922,0.11121 0.0193,0 0.0925,-0.05 0.16262,-0.11121 z m -37.20672,-0.0748 c 0,-0.0106 -0.0713,-0.0668 -0.1584,-0.12509 l -0.1584,-0.10591 0.13411,0.12509 c 0.12603,0.11757 0.18269,0.15041 0.18269,0.10591 z m 11.8977,-0.1754 c 0.13135,-0.10704 0.22298,-0.19461 0.20363,-0.19461 -0.0193,0 -0.14268,0.0876 -0.27403,0.19461 -0.13135,0.10703 -0.22298,0.19459 -0.20362,0.19459 0.0193,0 0.14267,-0.0876 0.27402,-0.19459 z m 13.79852,0.11799 c 0,-0.0115 -0.0554,-0.0553 -0.1232,-0.0973 -0.11166,-0.0692 -0.11415,-0.0672 -0.0266,0.021 0.092,0.0926 0.14978,0.12206 0.14978,0.0763 z m -39.76736,-0.29869 c 0.0876,-0.0882 0.0851,-0.0901 -0.0266,-0.021 -0.0677,0.042 -0.1232,0.0858 -0.1232,0.0973 0,0.0458 0.0578,0.0163 0.14978,-0.0763 z m 51.84106,-0.0139 c 0.0701,-0.0612 0.11159,-0.11119 0.0922,-0.11119 -0.0193,0 -0.0925,0.05 -0.16262,0.11119 -0.0701,0.0612 -0.11158,0.1112 -0.0922,0.1112 0.0193,0 0.0925,-0.05 0.16261,-0.1112 z m -25.30902,-0.2502 c 0.13136,-0.10701 0.22299,-0.19459 0.20363,-0.19459 -0.0193,0 -0.14267,0.0876 -0.27402,0.19459 -0.13136,0.10704 -0.22299,0.19461 -0.20363,0.19461 0.0193,0 0.14268,-0.0876 0.27402,-0.19461 z m 12.67211,0.11802 c 0,-0.0115 -0.0554,-0.0553 -0.1232,-0.0973 -0.11166,-0.0692 -0.11415,-0.0672 -0.0266,0.021 0.092,0.0926 0.14978,0.12207 0.14978,0.0763 z m -38.61472,-0.31262 c 0.0701,-0.0612 0.11158,-0.1112 0.0922,-0.1112 -0.0193,0 -0.0925,0.05 -0.16262,0.1112 -0.0701,0.0611 -0.11159,0.11118 -0.0922,0.11118 0.0193,0 0.0925,-0.05 0.16263,-0.11118 z m 51.81484,0 c 0.0701,-0.0612 0.11158,-0.1112 0.0922,-0.1112 -0.0193,0 -0.0925,0.05 -0.16262,0.1112 -0.0701,0.0611 -0.11159,0.11118 -0.0922,0.11118 0.0194,0 0.0925,-0.05 0.16263,-0.11118 z m -25.30902,-0.25021 c 0.13135,-0.10701 0.22298,-0.19459 0.20362,-0.19459 -0.0194,0 -0.14267,0.0876 -0.27402,0.19459 -0.13135,0.10703 -0.22298,0.19461 -0.20362,0.19461 0.0194,0 0.14267,-0.0876 0.27402,-0.19461 z m 11.5457,0.11801 c 0,-0.0115 -0.0554,-0.0553 -0.1232,-0.0973 -0.11166,-0.0692 -0.11415,-0.0672 -0.0266,0.021 0.092,0.0926 0.14978,0.12207 0.14978,0.0763 z m -37.48832,-0.3126 c 0.0701,-0.0612 0.11159,-0.11119 0.0922,-0.11119 -0.0193,0 -0.0925,0.05 -0.16262,0.11119 -0.0701,0.0612 -0.11158,0.11121 -0.0922,0.11121 0.0194,0 0.0925,-0.05 0.16262,-0.11121 z m 51.81484,0 c 0.0701,-0.0612 0.11158,-0.11119 0.0922,-0.11119 -0.0194,0 -0.0925,0.05 -0.16263,0.11119 -0.0701,0.0612 -0.11158,0.11121 -0.0922,0.11121 0.0193,0 0.0925,-0.05 0.16262,-0.11121 z m -51.25163,-0.44478 c 0.0701,-0.0611 0.11158,-0.1112 0.0922,-0.1112 -0.0194,0 -0.0925,0.05 -0.16263,0.1112 -0.0701,0.0612 -0.11158,0.1112 -0.0922,0.1112 0.0193,0 0.0926,-0.05 0.16263,-0.1112 z m 51.81484,0 c 0.0701,-0.0611 0.11158,-0.1112 0.0922,-0.1112 -0.0193,0 -0.0925,0.05 -0.16262,0.1112 -0.0701,0.0612 -0.11159,0.1112 -0.0922,0.1112 0.0193,0 0.0925,-0.05 0.16263,-0.1112 z m -51.25164,-0.44478 c 0.0701,-0.0612 0.11159,-0.1112 0.0922,-0.1112 -0.0193,0 -0.0926,0.05 -0.16263,0.1112 -0.0701,0.0612 -0.11158,0.11118 -0.0922,0.11118 0.0193,0 0.0925,-0.05 0.16262,-0.11118 z m 51.81484,0 c 0.0701,-0.0612 0.11158,-0.1112 0.0922,-0.1112 -0.0193,0 -0.0925,0.05 -0.16262,0.1112 -0.0701,0.0612 -0.11158,0.11118 -0.0922,0.11118 0.0194,0 0.0926,-0.05 0.16263,-0.11118 z m 0.56321,-0.4448 c 0.0701,-0.0612 0.11158,-0.11119 0.0922,-0.11119 -0.0194,0 -0.0925,0.05 -0.16263,0.11119 -0.0701,0.0612 -0.11158,0.11121 -0.0922,0.11121 0.0193,0 0.0925,-0.05 0.16263,-0.11121 z m 0.5632,-0.44478 c 0.0701,-0.0612 0.11159,-0.1112 0.0922,-0.1112 -0.0193,0 -0.0925,0.05 -0.16262,0.1112 -0.0701,0.0612 -0.11159,0.1112 -0.0922,0.1112 0.0193,0 0.0925,-0.05 0.16262,-0.1112 z m 0.56321,-0.44479 c 0.0701,-0.0611 0.11158,-0.1112 0.0922,-0.1112 -0.0193,0 -0.0925,0.05 -0.16262,0.1112 -0.0701,0.0612 -0.11159,0.11119 -0.0922,0.11119 0.0193,0 0.0925,-0.05 0.16263,-0.11119 z m 0.5632,-0.44479 c 0.0701,-0.0612 0.11158,-0.11119 0.0922,-0.11119 -0.0194,0 -0.0925,0.05 -0.16263,0.11119 -0.0701,0.0612 -0.11158,0.1112 -0.0922,0.1112 0.0193,0 0.0925,-0.05 0.16262,-0.1112 z m 0.5632,-0.44478 c 0.0701,-0.0612 0.11159,-0.11121 0.0922,-0.11121 -0.0193,0 -0.0925,0.05 -0.16262,0.11121 -0.0701,0.0612 -0.11159,0.1112 -0.0922,0.1112 0.0193,0 0.0925,-0.05 0.16262,-0.1112 z m 0.56321,-0.44479 c 0.0701,-0.0612 0.11159,-0.1112 0.0922,-0.1112 -0.0193,0 -0.0925,0.05 -0.16262,0.1112 -0.0701,0.0612 -0.11159,0.11119 -0.0922,0.11119 0.0193,0 0.0926,-0.05 0.16263,-0.11119 z m 0.56321,-0.4448 c 0.0701,-0.0611 0.11158,-0.11118 0.0922,-0.11118 -0.0194,0 -0.0926,0.05 -0.16263,0.11118 -0.0701,0.0612 -0.11158,0.11121 -0.0922,0.11121 0.0193,0 0.0925,-0.05 0.16263,-0.11121 z m 1.1616,-0.0174 c 0,-0.01 -0.10296,-0.0909 -0.2288,-0.18068 l -0.2288,-0.16331 0.20677,0.18069 c 0.19275,0.16845 0.25083,0.20626 0.25083,0.1633 z m -0.4928,-0.38918 c 0,-0.01 -0.10296,-0.0909 -0.2288,-0.1807 l -0.2288,-0.16329 0.20677,0.18068 c 0.19274,0.16844 0.25083,0.20626 0.25083,0.16331 z m -59.4181,-6.00823 c 0,-0.0116 -0.0555,-0.0553 -0.12321,-0.0973 -0.11166,-0.0692 -0.11414,-0.0672 -0.0266,0.021 0.092,0.0926 0.14978,0.12207 0.14978,0.0763 z m -0.27263,-7.86007 c 0.0876,-0.0882 0.0851,-0.0902 -0.0266,-0.021 -0.0678,0.0419 -0.1232,0.0857 -0.1232,0.0973 0,0.0458 0.0578,0.0163 0.14979,-0.0763 z m 56.3467,-3.96139 c 0.0701,-0.0612 0.11159,-0.11119 0.0922,-0.11119 -0.0193,0 -0.0925,0.05 -0.16262,0.11119 -0.0701,0.0612 -0.11159,0.1112 -0.0922,0.1112 0.0193,0 0.0925,-0.05 0.16262,-0.1112 z m 0.56321,-0.44479 c 0.0701,-0.0612 0.11158,-0.11118 0.0922,-0.11118 -0.0194,0 -0.0925,0.05 -0.16262,0.11118 -0.0701,0.0612 -0.11159,0.11121 -0.0922,0.11121 0.0193,0 0.0925,-0.05 0.16263,-0.11121 z m 0.5632,-0.44478 c 0.0701,-0.0611 0.11158,-0.1112 0.0922,-0.1112 -0.0193,0 -0.0926,0.05 -0.16263,0.1112 -0.0701,0.0612 -0.11158,0.11119 -0.0922,0.11119 0.0193,0 0.0925,-0.05 0.16262,-0.11119 z m 0.56321,-0.44479 c 0.0701,-0.0612 0.11158,-0.11119 0.0922,-0.11119 -0.0193,0 -0.0925,0.05 -0.16262,0.11119 -0.0701,0.0612 -0.11159,0.1112 -0.0922,0.1112 0.0193,0 0.0925,-0.05 0.16263,-0.1112 z m 0.5632,-0.44479 c 0.0701,-0.0612 0.11159,-0.1112 0.0922,-0.1112 -0.0194,0 -0.0925,0.05 -0.16262,0.1112 -0.0701,0.0612 -0.11158,0.11121 -0.0922,0.11121 0.0193,0 0.0926,-0.05 0.16263,-0.11121 z m 1.30241,-0.29538 c 0,-0.01 -0.10296,-0.0909 -0.2288,-0.1807 l -0.2288,-0.16329 0.20677,0.18068 c 0.19275,0.16844 0.25083,0.20625 0.25083,0.16331 z m -0.7392,-0.1494 c 0.0701,-0.0612 0.11158,-0.11121 0.0922,-0.11121 -0.0193,0 -0.0925,0.05 -0.16263,0.11121 -0.0701,0.0612 -0.11158,0.11119 -0.0922,0.11119 0.0193,0 0.0925,-0.05 0.16263,-0.11119 z m 0.56763,-0.45869 0.20678,-0.1807 -0.22881,0.1633 c -0.21328,0.15221 -0.26117,0.1981 -0.20677,0.1981 0.0121,0 0.11507,-0.0813 0.2288,-0.1807 z m -0.46203,0.10591 c 0,-0.0106 -0.0713,-0.0668 -0.15841,-0.12509 l -0.1584,-0.10591 0.13412,0.12509 c 0.12603,0.11756 0.18269,0.15041 0.18269,0.10591 z m -0.56321,-0.44478 c 0,-0.0106 -0.0713,-0.0668 -0.1584,-0.1251 l -0.1584,-0.10591 0.13411,0.1251 c 0.12603,0.11756 0.18269,0.1504 0.18269,0.10591 z m -0.5632,-0.4448 c 0,-0.0105 -0.0713,-0.0668 -0.1584,-0.12509 l -0.1584,-0.10592 0.13411,0.1251 c 0.12603,0.11756 0.18269,0.15041 0.18269,0.10591 z m -0.56321,-0.44478 c 0,-0.0106 -0.0713,-0.0668 -0.1584,-0.1251 l -0.1584,-0.10591 0.13411,0.1251 c 0.12603,0.11756 0.18269,0.1504 0.18269,0.10591 z m -0.5632,-0.44478 c 0,-0.0106 -0.0713,-0.0669 -0.1584,-0.1251 l -0.1584,-0.10591 0.13411,0.1251 c 0.12603,0.11754 0.18269,0.1504 0.18269,0.10591 z m -0.56321,-0.44474 c 0,-0.0106 -0.0713,-0.0668 -0.1584,-0.1251 l -0.1584,-0.10591 0.13411,0.1251 c 0.12604,0.11756 0.18269,0.15041 0.18269,0.10591 z m -54.06766,-1.94415 c 0,-0.01 -0.10296,-0.0909 -0.2288,-0.1807 l -0.2288,-0.1633 0.20677,0.18071 c 0.19275,0.16842 0.25083,0.20623 0.25083,0.16329 z m -0.5632,-0.44479 c 0,-0.01 -0.10296,-0.0909 -0.2288,-0.1807 l -0.22881,-0.1633 0.20678,0.18071 c 0.19274,0.16842 0.25083,0.20624 0.25083,0.16329 z m -0.56321,-0.44479 c 0,-0.01 -0.10296,-0.0909 -0.2288,-0.18068 l -0.2288,-0.1633 0.20677,0.18068 c 0.19275,0.16843 0.25083,0.20625 0.25083,0.1633 z m -0.5632,-0.44479 c 0,-0.01 -0.10296,-0.0909 -0.22881,-0.18069 l -0.22879,-0.16329 0.20677,0.18068 c 0.19274,0.16844 0.25083,0.20626 0.25083,0.1633 z m -0.56321,-0.4455 c 0,-0.01 -0.0871,-0.0788 -0.1936,-0.15289 l -0.1936,-0.13479 0.17067,0.1529 c 0.15952,0.1429 0.21653,0.17839 0.21653,0.13478 z m -0.0704,-8.57182 c 0.0909,-0.0764 0.14951,-0.139 0.13015,-0.139 -0.0194,0 -0.1096,0.0626 -0.20055,0.139 -0.0909,0.0764 -0.1495,0.13899 -0.13014,0.13899 0.0194,0 0.1096,-0.0626 0.20054,-0.13899 z m 0.64259,-0.51429 c 0.0876,-0.0882 0.0851,-0.0902 -0.0266,-0.021 -0.0678,0.042 -0.1232,0.0858 -0.1232,0.0973 0,0.0458 0.0578,0.0163 0.14978,-0.0763 z m 0.5632,-0.44479 c 0.0876,-0.0882 0.0851,-0.0901 -0.0266,-0.021 -0.0677,0.0419 -0.12319,0.0858 -0.12319,0.0973 0,0.0458 0.0578,0.0163 0.14978,-0.0763 z m 0.56321,-0.44478 c 0.0876,-0.0882 0.0851,-0.0901 -0.0266,-0.021 -0.0678,0.0419 -0.1232,0.0857 -0.1232,0.0973 0,0.0458 0.0578,0.0163 0.14978,-0.0763 z m 0.5632,-0.44479 c 0.0876,-0.0882 0.0851,-0.0901 -0.0266,-0.021 -0.0678,0.0419 -0.12321,0.0857 -0.12321,0.0973 0,0.0458 0.0578,0.0163 0.14978,-0.0763 z m 0.28161,-0.2224 c 0.0876,-0.0882 0.0851,-0.0901 -0.0266,-0.021 -0.0678,0.0419 -0.1232,0.0858 -0.1232,0.0973 0,0.0458 0.0578,0.0163 0.14978,-0.0763 z m 0.2816,-0.22239 c 0.0876,-0.0882 0.0851,-0.0902 -0.0266,-0.021 -0.11727,0.0726 -0.15457,0.11829 -0.0966,0.11829 0.0146,0 0.0701,-0.0438 0.1232,-0.0973 z m 0.5632,-0.44479 c 0.0876,-0.0882 0.0851,-0.0902 -0.0266,-0.021 -0.0678,0.0419 -0.1232,0.0858 -0.1232,0.0973 0,0.0458 0.0578,0.0163 0.14978,-0.0763 z m 0.56321,-0.44479 c 0.0876,-0.0882 0.0851,-0.0901 -0.0266,-0.021 -0.0678,0.0419 -0.1232,0.0858 -0.1232,0.0973 0,0.0458 0.0578,0.0163 0.14978,-0.0763 z m 26.75222,-0.2224 c 0.0876,-0.0882 0.0851,-0.0901 -0.0266,-0.021 -0.0678,0.0419 -0.1232,0.0858 -0.1232,0.0973 0,0.0458 0.0578,0.0163 0.14978,-0.0763 z m -26.18902,-0.22241 c 0.0876,-0.0882 0.0851,-0.0901 -0.0266,-0.021 -0.11727,0.0726 -0.15456,0.1183 -0.0966,0.1183 0.0146,0 0.0701,-0.0438 0.12321,-0.0973 z m 26.47063,0 c 0.0876,-0.0882 0.0851,-0.0901 -0.0266,-0.021 -0.0678,0.042 -0.1232,0.0858 -0.1232,0.0973 0,0.0458 0.0578,0.0163 0.14978,-0.0763 z m 4.91906,-0.0887 c 0,-0.0106 -0.0713,-0.0668 -0.1584,-0.1251 l -0.1584,-0.10591 0.13411,0.1251 c 0.12603,0.11756 0.18269,0.1504 0.18269,0.10591 z m -30.82648,-0.35611 c 0.0876,-0.0882 0.0851,-0.0901 -0.0266,-0.021 -0.11727,0.0726 -0.15456,0.11828 -0.0966,0.11828 0.0146,0 0.0701,-0.0438 0.1232,-0.0973 z m 26.47062,0 c 0.0876,-0.0882 0.0851,-0.0901 -0.0266,-0.021 -0.0678,0.0419 -0.12321,0.0858 -0.12321,0.0973 0,0.0458 0.0578,0.0163 0.14979,-0.0763 z m 3.79265,-0.0887 c 0,-0.0106 -0.0713,-0.0668 -0.1584,-0.12509 l -0.1584,-0.10592 0.13412,0.1251 c 0.12602,0.11756 0.18268,0.15041 0.18268,0.10591 z m -29.70007,-0.3561 c 0.0876,-0.0882 0.0851,-0.0901 -0.0266,-0.021 -0.11728,0.0726 -0.15457,0.11829 -0.0966,0.11829 0.0146,0 0.0701,-0.0438 0.1232,-0.0973 z m 26.47063,0 c 0.0876,-0.0882 0.0851,-0.0901 -0.0266,-0.021 -0.0678,0.0419 -0.1232,0.0858 -0.1232,0.0973 0,0.0457 0.0578,0.0163 0.14978,-0.0763 z m 2.66624,-0.0887 c 0,-0.0105 -0.0713,-0.0668 -0.1584,-0.12509 l -0.1584,-0.10592 0.13411,0.1251 c 0.12603,0.11756 0.18269,0.15041 0.18269,0.10591 z m -28.57366,-0.3561 c 0.0876,-0.0882 0.0851,-0.0901 -0.0266,-0.021 -0.11727,0.0726 -0.15457,0.11829 -0.0966,0.11829 0.0146,0 0.0701,-0.0438 0.1232,-0.0973 z m 26.47062,0 c 0.0876,-0.0882 0.0851,-0.0901 -0.0266,-0.021 -0.0678,0.0419 -0.1232,0.0858 -0.1232,0.0973 0,0.0458 0.0578,0.0163 0.14978,-0.0763 z m 1.53984,-0.0887 c 0,-0.0106 -0.0713,-0.0669 -0.15841,-0.12509 l -0.1584,-0.10592 0.13411,0.12509 c 0.12604,0.11756 0.1827,0.15041 0.1827,0.10592 z m -27.44726,-0.35611 c 0.0876,-0.0882 0.0851,-0.0901 -0.0266,-0.021 -0.11727,0.0726 -0.15456,0.11829 -0.0966,0.11829 0.0146,0 0.0701,-0.0438 0.1232,-0.0973 z m 27.02485,0.0207 c 0,-0.0115 -0.0554,-0.0553 -0.1232,-0.0973 -0.11166,-0.0691 -0.11415,-0.0672 -0.0266,0.021 0.092,0.0926 0.14978,0.12207 0.14978,0.0763 z m -0.32262,-0.19397 c 0.0207,-0.0265 -0.0328,-0.0953 -0.11904,-0.1529 -0.15634,-0.10445 -0.15642,-0.10442 -0.0334,0.011 0.0679,0.0636 0.10216,0.13244 0.0763,0.1529 -0.0259,0.0204 -0.0278,0.0372 -0.004,0.0372 0.0235,0 0.0597,-0.0217 0.0805,-0.0482 z m 0.28742,-0.22983 c 0.0701,-0.0612 0.11158,-0.11119 0.0922,-0.11119 -0.0193,0 -0.0925,0.05 -0.16262,0.11119 -0.0701,0.0612 -0.11158,0.1112 -0.0922,0.1112 0.0193,0 0.0926,-0.05 0.16263,-0.1112 z m -26.42644,-0.0417 c 0.0876,-0.0882 0.0851,-0.0901 -0.0266,-0.021 -0.11727,0.0726 -0.15456,0.11829 -0.0966,0.11829 0.0146,0 0.0701,-0.0438 0.1232,-0.0973 z m 0.69502,0.0792 c 0,-0.01 -0.0871,-0.0788 -0.1936,-0.1529 l -0.1936,-0.13479 0.17068,0.1529 c 0.15951,0.1429 0.21652,0.17839 0.21652,0.13479 z m 25.06261,-0.16787 c 0,-0.0106 -0.0713,-0.0668 -0.1584,-0.1251 l -0.1584,-0.10591 0.13411,0.12509 c 0.12604,0.11757 0.18269,0.15041 0.18269,0.10592 z m -25.43051,-0.17003 c -0.0106,-0.004 -0.0985,-0.0563 -0.1953,-0.11717 l -0.176,-0.11061 0.13009,0.1216 c 0.0783,0.0732 0.10796,0.15066 0.0745,0.19459 -0.0418,0.0549 -0.0256,0.0538 0.0652,-0.005 0.0665,-0.0426 0.11214,-0.0804 0.10152,-0.084 z m 0.23608,-0.18608 c 0.0876,-0.0882 0.0851,-0.0901 -0.0266,-0.021 -0.11727,0.0726 -0.15456,0.11829 -0.0966,0.11829 0.0146,0 0.0701,-0.0438 0.1232,-0.0973 z m 26.47062,0 c 0.0876,-0.0882 0.0851,-0.0901 -0.0266,-0.021 -0.0678,0.0419 -0.12321,0.0858 -0.12321,0.0973 0,0.0458 0.0578,0.0163 0.14978,-0.0763 z m -1.83939,-0.0887 c 0,-0.0105 -0.0713,-0.0668 -0.1584,-0.12509 l -0.1584,-0.10592 0.13411,0.1251 c 0.12603,0.11756 0.18269,0.1504 0.18269,0.10591 z m -14.80539,34.24312 c -0.36466,-0.10273 -0.78173,-0.33852 -1.00179,-0.56638 -0.60684,-0.62832 -0.63889,-1.30864 -0.10442,-2.21666 0.036,-0.0611 0.33899,-0.66162 0.67332,-1.33436 0.33432,-0.67274 0.87107,-1.74857 1.19277,-2.39073 0.3217,-0.64216 0.79614,-1.59289 1.05431,-2.11274 0.25816,-0.51986 0.57459,-1.14534 0.70316,-1.38996 0.12858,-0.24464 0.25704,-0.50733 0.28547,-0.58379 0.0284,-0.0764 0.0754,-0.16401 0.10431,-0.19459 0.0289,-0.0306 0.0924,-0.15567 0.14105,-0.27799 0.11203,-0.28167 0.31341,-0.65282 0.52639,-0.97009 0.11398,-0.16977 5.68978,-4.61003 17.78972,-14.16666 9.69303,-7.65566 17.81379,-14.0639 18.04611,-14.24055 1.02125,-0.77649 2.25374,-1.17092 3.6655,-1.17306 0.80964,-0.001 1.33665,0.0754 2.00175,0.2911 0.83742,0.27157 1.23534,0.50252 2.30435,1.33741 0.97963,0.76508 0.99923,0.78506 0.88001,0.89698 -0.11972,0.11239 -0.1193,0.11272 0.0232,0.0181 0.14186,-0.0943 0.16466,-0.0806 1.02378,0.61159 0.48327,0.38939 0.96722,0.80299 1.07545,0.91911 0.24987,0.26813 0.70612,1.04632 0.80605,1.37484 0.21814,0.71721 0.15743,1.80724 -0.13413,2.40804 -0.41643,0.85816 -0.75159,1.20434 -2.50372,2.5862 -1.2043,0.94981 -1.60462,1.2341 -1.69815,1.20598 -0.0965,-0.029 -0.10423,-0.0224 -0.0366,0.0315 0.0677,0.0539 -2.64392,2.22401 -12.83259,10.27 l -12.91845,10.20171 -0.22671,-0.16171 -0.22672,-0.16173 0.20666,0.18061 0.20667,0.18061 -3.3757,2.65934 c -1.85663,1.46266 -3.50196,2.7247 -3.65629,2.80458 -0.15433,0.0799 -0.77998,0.29726 -1.39034,0.48309 -0.61036,0.18581 -1.2875,0.39992 -1.50477,0.4758 -0.21727,0.0759 -0.42184,0.13798 -0.45459,0.13798 -0.0328,0 -0.22681,0.0596 -0.43125,0.13247 -0.20442,0.0729 -0.45088,0.1509 -0.54769,0.17341 -0.0968,0.0225 -0.30272,0.0851 -0.4576,0.13897 -0.15488,0.0539 -0.82017,0.26494 -1.47841,0.46899 -0.65825,0.20403 -1.29186,0.40436 -1.40802,0.44517 -0.11616,0.0408 -0.2904,0.0923 -0.3872,0.11435 -0.0968,0.0221 -0.27104,0.0737 -0.3872,0.11471 -0.11616,0.041 -0.46464,0.152 -0.77441,0.24667 -0.30976,0.0947 -0.66303,0.20846 -0.78504,0.25286 -0.12202,0.0444 -0.24433,0.0807 -0.27181,0.0807 -0.0636,0 -1.23583,0.3648 -1.65357,0.5146 -0.75798,0.27179 -1.51151,0.33883 -2.06288,0.18351 z m 4.91076,-4.8637 c 0.0221,-0.0282 0.14276,-0.0689 0.26815,-0.0903 0.1254,-0.0214 0.35472,-0.0848 0.5096,-0.14087 0.15488,-0.056 0.74097,-0.24207 1.30241,-0.41343 0.56144,-0.17134 1.11585,-0.34418 1.23201,-0.38408 0.2375,-0.0816 1.22741,-0.39244 1.97122,-0.61904 0.27104,-0.0826 0.62571,-0.19691 0.78815,-0.25411 0.16243,-0.0572 0.33587,-0.104 0.38542,-0.104 0.0495,0 1.53388,-1.13923 3.29853,-2.53164 1.76465,-1.39239 3.23574,-2.51202 3.2691,-2.48803 0.0333,0.024 0.0416,0.0171 0.0183,-0.0153 -0.0644,-0.0896 25.74943,-20.4537 25.85941,-20.40001 0.061,0.0297 0.0721,0.0214 0.035,-0.0261 -0.0365,-0.0466 0.44798,-0.46861 1.46201,-1.27345 1.98347,-1.5743 1.96402,-1.50152 0.67199,-2.51336 -0.63345,-0.49609 -0.69831,-0.565 -0.6128,-0.65115 0.0845,-0.0851 0.0825,-0.0883 -0.0169,-0.0271 -0.0965,0.0594 -0.22686,-0.0217 -0.91521,-0.56935 -1.33438,-1.06162 -1.29349,-1.06797 -3.29179,0.51155 -1.49257,1.17977 -1.50606,1.18866 -1.6551,1.08938 -0.14921,-0.0994 -0.14937,-0.0993 -0.0247,0.0175 0.12441,0.11655 -0.0183,0.23123 -15.96377,12.82433 l -16.08931,12.70672 -0.27559,0.54708 c -0.15157,0.3009 -0.45371,0.90987 -0.67142,1.35326 -0.21772,0.4434 -0.45783,0.91224 -0.53359,1.04187 -0.0758,0.12962 -0.13774,0.25242 -0.13774,0.27287 0,0.0539 -0.70647,1.42706 -0.76814,1.49298 -0.0286,0.0306 -0.0915,0.16454 -0.13976,0.29768 -0.0483,0.13314 -0.10472,0.277 -0.12546,0.31969 -0.0416,0.0857 0.086,0.10803 0.15001,0.0263 z m 15.38588,-5.19593 c 0,-0.0116 -0.0554,-0.0553 -0.1232,-0.0973 -0.11167,-0.0692 -0.11416,-0.0672 -0.0266,0.021 0.092,0.0926 0.14978,0.12207 0.14978,0.0763 z m -0.56321,-0.44478 c 0,-0.0116 -0.0554,-0.0553 -0.1232,-0.0973 -0.11166,-0.0692 -0.11415,-0.0672 -0.0266,0.021 0.092,0.0926 0.14978,0.12207 0.14978,0.0763 z m -0.5632,-0.4448 c 0,-0.0116 -0.0554,-0.0553 -0.1232,-0.0973 -0.11166,-0.0692 -0.11415,-0.0672 -0.0266,0.021 0.092,0.0926 0.14978,0.12207 0.14978,0.0763 z m -0.5632,-0.44478 c 0,-0.0116 -0.0554,-0.0553 -0.12321,-0.0973 -0.11166,-0.0692 -0.11415,-0.0672 -0.0266,0.021 0.092,0.0926 0.14978,0.12206 0.14978,0.0763 z m -0.35201,-0.278 c 0,-0.0115 -0.0554,-0.0553 -0.1232,-0.0973 -0.11166,-0.0692 -0.11415,-0.0672 -0.0266,0.021 0.092,0.0926 0.14978,0.12207 0.14978,0.0763 z m -4.57604,-3.61101 c 0,-0.01 -0.0871,-0.0788 -0.1936,-0.15289 l -0.1936,-0.13479 0.17067,0.1529 c 0.15952,0.14291 0.21653,0.17839 0.21653,0.13478 z m -0.70401,-0.55887 c 0,-0.0116 -0.0554,-0.0553 -0.1232,-0.0973 -0.11166,-0.0692 -0.11415,-0.0672 -0.0266,0.021 0.092,0.0926 0.14979,0.12207 0.14979,0.0763 z m -0.5632,-0.44478 c 0,-0.0116 -0.0554,-0.0553 -0.1232,-0.0973 -0.11166,-0.0692 -0.11415,-0.0672 -0.0266,0.021 0.092,0.0926 0.14978,0.12207 0.14978,0.0763 z m -0.56321,-0.44479 c 0,-0.0116 -0.0554,-0.0553 -0.1232,-0.0973 -0.11166,-0.0692 -0.11415,-0.0672 -0.0266,0.021 0.092,0.0926 0.14978,0.12206 0.14978,0.0763 z m -0.5632,-0.44477 c 0,-0.0116 -0.0554,-0.0553 -0.1232,-0.0973 -0.11166,-0.0692 -0.11415,-0.0672 -0.0266,0.021 0.092,0.0926 0.14978,0.12207 0.14978,0.0763 z m 35.2003,-13.06381 c 0,-0.0106 -0.0713,-0.0669 -0.1584,-0.12511 l -0.1584,-0.10591 0.13411,0.12509 c 0.12603,0.11757 0.18269,0.15042 0.18269,0.10593 z m -0.5632,-0.4448 c 0,-0.0106 -0.0713,-0.0668 -0.1584,-0.1251 l -0.15841,-0.10591 0.13411,0.1251 c 0.12604,0.11755 0.1827,0.1504 0.1827,0.10591 z m -0.56321,-0.44479 c 0,-0.0106 -0.0713,-0.0668 -0.1584,-0.12509 l -0.1584,-0.10592 0.13411,0.1251 c 0.12603,0.11756 0.18269,0.1504 0.18269,0.10591 z m -0.56321,-0.44479 c 0,-0.0106 -0.0713,-0.0668 -0.1584,-0.12509 l -0.1584,-0.10592 0.13412,0.1251 c 0.12603,0.11756 0.18268,0.15041 0.18268,0.10591 z m -0.5632,-0.44659 c 0,-0.0115 -0.0554,-0.0553 -0.1232,-0.0973 -0.11166,-0.0692 -0.11415,-0.0672 -0.0266,0.021 0.092,0.0926 0.14978,0.12206 0.14978,0.0763 z m -5.06884,-4.00127 c 0,-0.0106 -0.0713,-0.0668 -0.1584,-0.1251 l -0.1584,-0.10592 0.13411,0.1251 c 0.12603,0.11756 0.18269,0.15041 0.18269,0.10592 z m -0.56321,-0.44468 c 0,-0.0106 -0.0713,-0.0668 -0.1584,-0.1251 l -0.1584,-0.10591 0.13411,0.12509 c 0.12604,0.11757 0.18269,0.15041 0.18269,0.10592 z m -0.5632,-0.44479 c 0,-0.0106 -0.0713,-0.0668 -0.1584,-0.12509 l -0.15841,-0.10592 0.13412,0.12509 c 0.12603,0.11757 0.18269,0.15042 0.18269,0.10592 z m 7.61225,-0.0781 c 0.0876,-0.0882 0.0851,-0.0901 -0.0266,-0.021 -0.0678,0.042 -0.1232,0.0858 -0.1232,0.0973 0,0.0458 0.0578,0.0163 0.14978,-0.0763 z m -8.17545,-0.36666 c 0,-0.0106 -0.0713,-0.0668 -0.15841,-0.1251 l -0.1584,-0.10591 0.13411,0.12509 c 0.12604,0.11756 0.1827,0.15041 0.1827,0.10592 z m 8.76487,-0.092 c 0.0701,-0.0612 0.11158,-0.1112 0.0922,-0.1112 -0.0194,0 -0.0925,0.05 -0.16262,0.1112 -0.0701,0.0612 -0.11159,0.11119 -0.0922,0.11119 0.0193,0 0.0925,-0.05 0.16263,-0.11119 z m 0.5632,-0.44479 c 0.0701,-0.0612 0.11159,-0.1112 0.0922,-0.1112 -0.0193,0 -0.0926,0.05 -0.16263,0.1112 -0.0701,0.0612 -0.11158,0.11119 -0.0922,0.11119 0.0194,0 0.0925,-0.05 0.16262,-0.11119 z m -10.03208,-0.021 c 0,-0.0115 -0.0555,-0.0553 -0.12321,-0.0973 -0.11165,-0.0692 -0.11415,-0.0672 -0.0266,0.021 0.092,0.0926 0.14978,0.12206 0.14978,0.0763 z m 10.59529,-0.4238 c 0.0701,-0.0612 0.11158,-0.1112 0.0922,-0.1112 -0.0193,0 -0.0925,0.05 -0.16262,0.1112 -0.0701,0.0612 -0.11159,0.11119 -0.0922,0.11119 0.0193,0 0.0925,-0.05 0.16263,-0.11119 z m 0.5632,-0.44479 c 0.0701,-0.0612 0.11159,-0.1112 0.0922,-0.1112 -0.0194,0 -0.0925,0.05 -0.16263,0.1112 -0.0701,0.0612 -0.11158,0.1112 -0.0922,0.1112 0.0193,0 0.0925,-0.05 0.16262,-0.1112 z"
         id="path3357" />
    </g>
  </g>
</svg>
