<?xml version="1.0" encoding="UTF-8" standalone="no"?>
<svg
   xmlns:dc="http://purl.org/dc/elements/1.1/"
   xmlns:cc="http://creativecommons.org/ns#"
   xmlns:rdf="http://www.w3.org/1999/02/22-rdf-syntax-ns#"
   xmlns:svg="http://www.w3.org/2000/svg"
   xmlns="http://www.w3.org/2000/svg"
   xmlns:sodipodi="http://sodipodi.sourceforge.net/DTD/sodipodi-0.dtd"
   xmlns:inkscape="http://www.inkscape.org/namespaces/inkscape"
   width="323"
   height="279"
   viewBox="0 0 85.460626 73.818677"
   version="1.1"
   id="svg8"
   inkscape:version="1.0.1 (3bc2e813f5, 2020-09-07)"
   sodipodi:docname="comunicacion.svg">
  <defs
     id="defs2" />
  <sodipodi:namedview
     id="base"
     pagecolor="#ffffff"
     bordercolor="#666666"
     borderopacity="1.0"
     inkscape:pageopacity="0.0"
     inkscape:pageshadow="2"
     inkscape:zoom="1.1749267"
     inkscape:cx="400.62992"
     inkscape:cy="156.96611"
     inkscape:document-units="mm"
     inkscape:current-layer="layer1"
     inkscape:document-rotation="0"
     showgrid="false"
     inkscape:window-width="1258"
     inkscape:window-height="728"
     inkscape:window-x="99"
     inkscape:window-y="-5"
     inkscape:window-maximized="0"
     units="px" />
  <metadata
     id="metadata5">
    <rdf:RDF>
      <cc:Work
         rdf:about="">
        <dc:format>image/svg+xml</dc:format>
        <dc:type
           rdf:resource="http://purl.org/dc/dcmitype/StillImage" />
        <dc:title></dc:title>
      </cc:Work>
    </rdf:RDF>
  </metadata>
  <g
     inkscape:label="Capa 1"
     inkscape:groupmode="layer"
     id="layer1">
    <path
       style="fill:#002a43;fill-opacity:1;stroke-width:0.175622"
       d="m 141.17462,64.382034 c -3.14378,-0.946852 -5.16616,-3.245908 -5.38268,-6.118959 l -0.0994,-1.319542 -1.4165,-0.07423 c -2.66977,-0.140637 -4.90324,-1.469208 -6.17776,-3.67509 -0.58464,-1.011849 -0.70071,-1.393549 -0.78137,-2.569316 l -0.0947,-1.380948 -1.44867,-0.09052 c -3.79154,-0.236108 -6.71771,-2.895321 -6.93451,-6.301432 l -0.0836,-1.312243 -1.48256,-0.09256 c -2.7579,-0.172084 -5.06288,-1.611535 -6.23848,-3.896361 -0.97067,-1.886526 -0.99439,-4.047186 -0.0647,-5.894038 l 0.45254,-0.89898 -0.77691,-0.887445 c -1.5208,-1.737245 -1.59537,-1.848114 -3.0519,-4.538206 -1.19158,-2.200784 -2.12083,-5.022135 -2.45481,-7.45318 -0.24523,-1.785197 -0.0902,-5.35678 0.30895,-7.118124 1.41646,-6.249523 5.53666,-11.75016019 11.32451,-15.1185968 4.74381,-2.7608368 10.67065,-4.0679019 16.17382,-3.5667682 1.90694,0.1741237 5.82514,0.9602652 6.61291,1.327535 0.17972,0.083982 0.78254,0.3306724 1.33962,0.5483477 0.55705,0.2173239 1.04045,0.4524494 1.07422,0.5215206 0.0334,0.069317 0.15807,0.1255943 0.2762,0.1255943 0.35808,2.041e-4 3.12235,1.5592212 4.26294,2.4042557 l 1.07055,0.7931678 0.47922,-0.4088976 c 0.84569,-0.7215266 3.38141,-2.1987468 4.89894,-2.8539309 0.81028,-0.3498726 1.68041,-0.7338366 1.93362,-0.8533911 0.76642,-0.3616647 3.35393,-1.0549504 5.08745,-1.3626016 2.2499,-0.3991918 6.72857,-0.3934847 9.09244,0.012095 2.08633,0.3576205 5.16493,1.2620467 6.708,1.9704809 6.21038,2.8512399 10.89756,7.7259272 13.05933,13.5819242 0.9568,2.591865 1.13487,3.776193 1.12548,7.485269 -0.009,3.412188 -0.0125,3.44795 -0.68918,5.778195 -0.83057,2.861963 -2.46425,5.979139 -4.27933,8.165247 l -1.21699,1.465802 0.51775,1.13022 c 0.44423,0.969767 0.51793,1.357462 0.51895,2.730215 0.001,1.510412 -0.0369,1.670499 -0.68495,2.862371 -1.25501,2.309287 -3.63644,3.803024 -6.31213,3.959153 l -1.33054,0.07748 -0.1157,1.277501 c -0.16011,1.767829 -1.01924,3.342747 -2.50679,4.595338 -1.31725,1.109096 -2.67557,1.629925 -4.56372,1.749763 l -1.33512,0.08481 v 0.696491 c 0,1.849664 -1.0044,3.853216 -2.60902,5.204279 -1.33856,1.127162 -2.69247,1.628783 -4.57299,1.694392 l -1.38117,0.04853 -0.0315,1.138947 c -0.0695,2.53592 -1.93595,5.010555 -4.62332,6.129886 -0.72206,0.300927 -1.2147,0.362912 -2.89578,0.365746 -1.83809,0.0029 -2.12987,-0.04078 -3.15043,-0.469574 l -1.12474,-0.472712 -1.17719,0.45934 c -1.40295,0.547493 -3.9889,0.717853 -5.22859,0.344959 z m 3.52077,-2.917499 c 0.26967,-0.161047 -5.16214,-5.311887 -5.43808,-5.156774 -0.35512,0.199787 -0.24766,2.617267 0.14184,3.191346 0.93793,1.382497 2.28044,2.085636 3.98536,2.087348 0.60772,6.13e-4 1.19762,-0.05382 1.31092,-0.121928 z m 9.02243,-0.233652 c 1.00228,-0.428472 2.21374,-1.737045 2.38737,-2.578776 0.16213,-0.786074 -0.0609,-2.223699 -0.44036,-2.838027 -0.17068,-0.276473 -2.05095,-2.057743 -4.1784,-3.958624 -4.13751,-3.696799 -4.35374,-3.830871 -6.16833,-3.824877 -3.05329,0.0121 -5.068,3.078806 -3.72868,5.679315 0.45389,0.881326 7.41214,7.152948 8.37883,7.552102 1.08018,0.445881 2.66454,0.432792 3.74957,-0.0325 z m -17.8314,-7.413865 c 0.4087,-0.131302 0.77458,-0.209576 0.81301,-0.174918 0.0385,0.03666 0.29672,-0.102766 0.57391,-0.305803 0.44401,-0.325381 0.51334,-0.509044 0.58216,-1.54185 0.10103,-1.516569 0.47117,-2.591457 1.26825,-3.683265 1.28764,-1.763873 3.34577,-2.863471 5.73618,-3.06486 l 1.40929,-0.11864 0.0695,-0.920796 c 0.11091,-1.4698 0.43991,-2.442912 1.17495,-3.475473 1.35027,-1.896803 3.32166,-2.979109 5.80754,-3.188534 l 1.41912,-0.119471 0.0695,-0.920879 c 0.11091,-1.469759 0.43991,-2.442909 1.17495,-3.475473 1.37868,-1.936681 3.39068,-3.023474 5.88557,-3.17895 l 1.4513,-0.09052 0.0856,-1.359177 c 0.1306,-2.072219 0.81826,-3.22735 2.87396,-4.827795 1.50599,-1.172381 4.357,-1.767013 6.23802,-1.30107 2.21035,0.547576 2.77546,0.904241 5.8875,3.715844 2.51015,2.26786 3.03165,2.666281 3.26207,2.492331 0.54451,-0.410977 2.52421,-3.203702 3.06114,-4.318346 0.30204,-0.626883 0.6278,-1.264492 0.72399,-1.416793 0.33643,-0.532731 1.11031,-3.757718 1.31536,-5.481267 0.61167,-5.141935 -1.43855,-10.948186 -5.30038,-15.010664 -7.44199,-7.8286407 -20.18989,-9.3804425 -29.42924,-3.5824689 -1.65327,1.03749651 -1.93362,1.24329281 -1.93362,1.41944231 0,0.079106 1.81822,1.80448759 4.04049,3.83368759 3.57951,3.268535 4.10844,3.821819 4.63617,4.849081 1.80874,3.521062 0.11589,7.563312 -3.88865,9.285719 -0.89968,0.386961 -1.23918,0.435646 -3.03855,0.435646 -3.13413,0 -3.32143,-0.104807 -8.40596,-4.712647 -2.29374,-2.07858 -4.26558,-3.750341 -4.38188,-3.71515 -0.11631,0.03666 -5.72566,5.071798 -12.46522,11.192266 -7.63679,6.935288 -12.39529,11.380404 -12.62938,11.797745 -0.77985,1.390324 -0.39468,3.336099 0.89495,4.521081 1.17073,1.075824 3.25407,1.420458 4.76049,0.78754 0.47372,-0.198993 2.28111,-1.723382 5.06424,-4.271129 2.38019,-2.178926 4.58603,-4.110591 4.90183,-4.292698 1.25376,-0.72283 2.6485,-0.117846 2.6485,1.148895 0,0.552309 -0.33745,0.902612 -4.85723,5.041952 -5.24324,4.801988 -5.35624,4.943191 -5.31921,6.648186 0.0452,2.079925 1.94557,3.738639 4.2835,3.738639 1.80109,0 2.253,-0.302968 7.37077,-4.942825 4.39028,-3.980319 4.74404,-4.261589 5.35963,-4.261589 0.93411,0 1.63364,0.619793 1.63364,1.447294 0,0.594549 -0.23904,0.844302 -4.77915,4.992855 -3.1011,2.833707 -4.87926,4.58494 -5.06425,4.987556 -0.40316,0.877577 -0.36925,2.504403 0.0684,3.284724 0.51144,0.911785 1.4235,1.654432 2.49006,2.027692 1.13359,0.39675 1.49935,0.412367 2.45709,0.105222 z M 162.255,53.472059 c 2.05091,-0.945223 2.9349,-3.261933 1.95859,-5.133088 -0.45448,-0.871049 -7.55223,-7.317638 -8.47771,-7.699913 -1.48676,-0.614202 -3.54053,-0.29847 -4.73943,0.727767 -1.30511,1.117498 -1.72916,3.189592 -0.93439,4.565974 0.38008,0.658242 7.70222,7.406779 8.42307,7.763239 0.2026,0.09989 0.93043,0.184291 1.61747,0.187163 0.97308,0.0029 1.4488,-0.08644 2.1524,-0.41118 z m 8.40588,-7.690332 c 2.01202,-0.852049 2.90353,-2.867995 2.16057,-4.885576 -0.26088,-0.708476 -0.82871,-1.304412 -4.0095,-4.208048 -4.05893,-3.705326 -4.61575,-4.060441 -6.37738,-4.066761 -3.21938,-0.01209 -5.30806,3.080969 -3.84356,5.690813 0.45972,0.819265 7.46039,7.117636 8.36522,7.526004 1.04258,0.470592 2.51296,0.448209 3.70465,-0.05628 z m 8.45706,-7.698443 c 1.08584,-0.45991 1.76459,-1.13389 2.20993,-2.194426 0.37719,-0.898247 0.28999,-2.252934 -0.20123,-3.126716 -0.50927,-0.905874 -7.14726,-6.900059 -8.24035,-7.44115 -1.0546,-0.522012 -2.11221,-0.605763 -3.38955,-0.268726 -1.07394,0.283806 -1.78235,0.878673 -2.41328,2.026955 -0.44565,0.81111 -0.52559,1.13544 -0.46284,1.877557 0.0417,0.493386 0.23687,1.201495 0.4336,1.573614 0.522,0.98718 7.80406,7.49954 8.64934,7.735101 1.12288,0.313173 2.40645,0.244234 3.4144,-0.182666 z m -53.28767,-20.64337 c 7.01938,-6.413117 12.27518,-11.086332 12.61927,-11.220446 0.44055,-0.171667 0.72001,-0.185538 1.10492,-0.05465 0.28338,0.09623 2.62841,2.086411 5.21118,4.422083 3.20143,2.895192 4.92286,4.331476 5.409,4.513129 0.39218,0.146382 1.15963,0.266269 1.70543,0.266269 3.19613,0 5.26511,-3.035542 3.84079,-5.635113 -0.62344,-1.137846 -10.23265,-9.80279749 -12.29168,-11.0838025 -1.41369,-0.8795305 -4.60025,-2.3431745 -5.84556,-2.6849172 -2.04675,-0.5617652 -2.69414,-0.6814407 -4.7404,-0.8765106 -2.71334,-0.2585209 -5.44021,-0.05503 -8.15041,0.6088205 -2.14164,0.5244988 -5.74117,2.1076105 -7.39999,3.2544682 -3.72804,2.5774686 -6.75407,6.4602896 -8.03032,10.3038456 -1.22282,3.682653 -1.29374,7.909787 -0.1925,11.472761 0.3912,1.265758 0.46206,1.437954 1.34396,3.266011 0.73803,1.52982 2.84809,4.394065 3.26212,4.42807 0.0686,0.0083 5.53791,-4.935485 12.15419,-10.980313 z"
       id="path630" />
    <path
       style="fill:#441650;stroke-width:0.230046"
       d="M 8.2329529,74.016036 C 7.8578634,73.741474 7.8349616,73.056904 7.9041019,64.181561 l 0.074435,-9.539703 0.6114276,-1.531031 c 1.5577956,-3.900758 3.5175466,-6.441916 6.5132926,-8.445597 2.689811,-1.799052 4.307911,-2.090429 4.623592,-0.8326 0.218144,0.868671 -0.02889,1.232617 -1.168235,1.720956 -2.907684,1.246341 -5.327876,3.57849 -6.805433,6.557729 -1.443251,2.910106 -1.586031,4.020007 -1.590602,12.365022 l -0.0032,7.303968 h 2.645539 2.645539 v -6.520678 c 0,-6.024951 0.03181,-6.549608 0.420701,-6.901397 0.585812,-0.530156 1.327658,-0.47489 1.751716,0.130626 0.303161,0.432937 0.3581,1.490162 0.3581,6.901397 v 6.390117 h 8.396703 8.396736 v -6.520678 c 0,-6.024948 0.03181,-6.549605 0.420669,-6.901397 0.585841,-0.530153 1.327658,-0.47489 1.751713,0.130626 0.303161,0.432969 0.358131,1.49086 0.358131,6.908925 v 6.397648 l 2.588011,-0.06515 2.588013,-0.06515 0.0645,-6.441286 c 0.03545,-3.542767 -0.03545,-7.272448 -0.157796,-8.288246 -0.653236,-5.421424 -3.214802,-8.863189 -8.648403,-11.620217 -1.226147,-0.622157 -0.995399,-2.2945 0.315561,-2.288161 0.819975,0.0032 2.927933,1.102649 4.633398,2.414973 0.772922,0.594768 1.435746,1.044549 1.472925,0.999583 0.03736,-0.04519 0.238919,-0.595295 0.44856,-1.222878 1.032704,-3.09369 4.009733,-6.609179 7.065244,-8.343233 2.083525,-1.182427 2.977863,-1.404777 3.510071,-0.872592 0.463892,0.463931 0.498769,1.34745 0.06739,1.70551 -0.173411,0.143936 -0.975756,0.588464 -1.782857,0.987848 -2.147792,1.062692 -4.921032,3.915187 -5.996862,6.16826 -0.453127,0.948939 -0.943557,2.228167 -1.089852,2.842689 -0.259695,1.090989 -0.241776,1.166913 0.766793,3.220641 1.408598,2.868678 1.746795,4.721522 1.746795,9.570136 v 3.920511 h 1.150218 1.150255 v -6.424896 c 0,-7.032935 0.0224,-7.147876 1.350686,-7.147876 1.166703,0 1.179827,0.07846 1.179827,7.056366 v 6.504252 l 7.534025,0.06372 c 4.143732,0.03503 7.917736,0.03149 8.386673,-0.0071 l 0.852651,-0.07109 0.06775,-6.551673 c 0.07349,-7.122136 0.046,-6.983453 1.382213,-6.991017 0.384575,-0.0017 0.716036,0.167406 0.862682,0.441481 0.147571,0.275957 0.237977,2.855018 0.237977,6.786352 v 6.341437 l 0.977704,0.03607 c 0.537736,0.01753 1.288272,0.06129 1.667835,0.09209 0.379595,0.03149 1.130131,4.9e-4 1.667835,-0.06723 l 0.977704,-0.12329 v -7.408297 c 0,-6.57188 -0.05015,-7.604908 -0.445045,-9.148547 -1.072508,-4.193467 -3.412202,-7.13408 -7.358179,-9.247972 -1.88878,-1.011841 -2.254384,-1.609725 -1.496502,-2.447194 0.593122,-0.655358 1.186823,-0.547945 3.147979,0.569659 3.186216,1.815721 5.317459,4.020916 6.882539,7.121328 1.457019,2.886399 1.569681,3.871832 1.569681,13.730965 0,7.176838 -0.06006,8.956734 -0.309199,9.163431 -0.219117,0.181754 -4.826835,0.273881 -15.815703,0.315886 l -15.506569,0.05918 -0.11498,3.402155 c -0.0907,2.683519 -0.187824,3.448108 -0.460088,3.619714 -0.208891,0.131665 -7.337008,0.21889 -18.072223,0.221 -14.055337,0.0026 -17.8106567,-0.05744 -18.1303274,-0.291389 z M 24.242541,43.470262 c -4.382748,-0.863733 -7.773486,-5.882271 -6.987852,-10.342531 0.548666,-3.114704 2.311205,-5.541408 5.02542,-6.919119 1.477748,-0.750052 1.648316,-0.782728 4.08467,-0.782728 2.34765,0 2.648318,0.05184 3.922823,0.676685 5.626654,2.758639 6.990244,10.075739 2.727053,14.633466 -2.316314,2.476296 -5.323944,3.41375 -8.772114,2.734227 z m 5.261086,-3.028617 c 2.013667,-1.188874 3.211062,-2.972341 3.550414,-5.2881 0.245314,-1.673078 -0.544449,-4.005368 -1.789057,-5.284349 -1.43498,-1.474649 -2.91688,-2.12132 -4.888194,-2.133191 -2.74593,-0.01753 -5.009575,1.449432 -6.183591,4.004493 -0.598972,1.303566 -0.643146,4.060419 -0.0856,5.346338 0.544699,1.256427 2.200974,2.941136 3.508668,3.568895 0.987573,0.474085 1.413513,0.54031 3.011812,0.468375 1.495411,-0.06723 2.061006,-0.201361 2.875582,-0.682461 z M 56.052851,36.18906 c -1.183213,-0.284723 -3.499751,-1.598237 -4.392106,-2.490586 -0.543554,-0.54353 -1.330022,-1.643801 -1.747659,-2.44502 -0.724534,-1.389793 -0.759443,-1.572848 -0.760531,-3.987191 -8.57e-4,-2.268657 0.06294,-2.667408 0.618774,-3.853306 l 0.619893,-1.322759 h -5.320721 c -4.951855,0 -5.390638,-0.03503 -6.328732,-0.487956 -1.512726,-0.732296 -2.194427,-1.917177 -2.348162,-4.081398 l -0.124881,-1.75692 -1.597438,-0.06898 -1.597468,-0.06898 -3.118497,3.23959 c -3.233363,3.35887 -3.698304,3.649198 -4.47305,2.793135 -0.356343,-0.393748 -0.384705,-1.248237 -0.323189,-9.736664 l 0.06742,-9.3050526 0.617462,-0.9326208 c 0.371707,-0.5614657 1.018589,-1.126817 1.625449,-1.42057674 0.980834,-0.47481863 1.280381,-0.48784879 11.114941,-0.48294381 11.372297,0.007142 11.342111,0.001785 12.657499,1.72613635 0.560709,0.7351686 0.674546,1.1340656 0.778453,2.7280663 l 0.121699,1.867027 4.255881,0.1148822 c 4.835492,0.1306263 5.429673,0.3197487 6.392551,2.0328548 0.482353,0.8582022 0.508865,1.1696471 0.508865,5.9776023 v 5.072223 l 1.276069,1.276044 c 2.147663,2.147724 3.160503,5.175747 2.667451,7.974908 -0.829045,4.706428 -4.508183,7.850863 -9.098076,7.775811 -0.897501,-0.01753 -1.838886,-0.07671 -2.091926,-0.137281 z m 4.533134,-2.724002 c 3.118818,-1.062729 4.980379,-4.857266 4.013858,-8.181922 -1.375955,-4.733078 -7.240736,-6.380417 -10.924412,-3.068473 -4.497991,4.044103 -1.667576,11.59672 4.349341,11.605686 0.831509,8.6e-4 1.984058,-0.158641 2.561213,-0.355291 z M 54.442512,18.75521 c 1.290094,-0.644429 1.550288,-0.689362 3.981946,-0.687612 l 2.601686,0.0017 -0.07122,-4.221276 -0.07125,-4.2212732 -0.651992,-0.56031 C 59.591469,8.5162379 59.5127,8.5072719 55.860807,8.569261 l -3.718936,0.063398 -0.11498,2.185441 c -0.130302,2.475738 -0.567127,3.46355 -1.882008,4.255874 -0.685434,0.413008 -1.292901,0.471845 -5.939586,0.575126 l -5.176056,0.114882 -0.06869,1.313758 c -0.08943,1.708101 0.345312,2.428528 1.524578,2.526729 0.464528,0.03853 3.48439,0.01753 6.710787,-0.04483 l 5.866219,-0.114882 z M 40.207926,13.299009 c 8.344923,-0.06547 8.356804,-0.06655 8.879852,-0.58899 0.497681,-0.497341 0.527387,-0.719727 0.596862,-4.4655837 C 49.7645,3.9340644 49.70379,3.4349026 49.03057,2.7604245 48.592297,2.3221676 48.226914,2.3061964 38.641631,2.3061964 c -9.88359,0 -9.937444,0.00259 -10.467133,0.5001778 l -0.532431,0.5002102 v 7.1753706 7.175368 l 2.104858,-2.146358 2.104861,-2.14636 z M 31.616724,8.4599556 c -0.69773,-0.9018015 -0.442996,-2.1102502 0.522184,-2.4771723 0.608298,-0.231128 1.411218,0.0211 1.768388,0.5561776 0.293552,0.439867 0.190064,1.4714606 -0.185584,1.8470305 -0.431693,0.4316737 -1.791384,0.4794088 -2.10515,0.073883 z M 37.432095,8.236164 C 36.703409,7.1958155 37.30241,5.9868767 38.546667,5.9868767 c 0.88798,0 1.517934,0.589412 1.517934,1.4202586 0,1.2598973 -1.909504,1.861252 -2.632506,0.8290287 z m 6.003822,0.090698 c -0.846805,-0.9357011 -0.145332,-2.3973582 1.150575,-2.3973582 0.672213,0 1.459317,0.761612 1.459317,1.4120652 0,0.2108393 -0.161303,0.6135051 -0.358128,0.8947281 -0.451466,0.6445354 -1.70479,0.6949648 -2.251764,0.090698 z"
       id="path1862" />
  </g>
</svg>
