<?xml version="1.0" encoding="UTF-8" standalone="no"?>
<svg
   xmlns:dc="http://purl.org/dc/elements/1.1/"
   xmlns:cc="http://creativecommons.org/ns#"
   xmlns:rdf="http://www.w3.org/1999/02/22-rdf-syntax-ns#"
   xmlns:svg="http://www.w3.org/2000/svg"
   xmlns="http://www.w3.org/2000/svg"
   xmlns:sodipodi="http://sodipodi.sourceforge.net/DTD/sodipodi-0.dtd"
   xmlns:inkscape="http://www.inkscape.org/namespaces/inkscape"
   width="31mm"
   height="28mm"
   viewBox="0 0 31 28"
   version="1.1"
   id="svg8"
   inkscape:version="1.0.1 (3bc2e813f5, 2020-09-07)"
   sodipodi:docname="contacto.svg"
   inkscape:export-filename="C:\Users\Rosio\Documents\Portafolio web\images\home.png"
   inkscape:export-xdpi="94.342857"
   inkscape:export-ydpi="94.342857">
  <defs
     id="defs2" />
  <sodipodi:namedview
     id="base"
     pagecolor="#ffffff"
     bordercolor="#666666"
     borderopacity="1.0"
     inkscape:pageopacity="0.0"
     inkscape:pageshadow="2"
     inkscape:zoom="3.9943548"
     inkscape:cx="113.28488"
     inkscape:cy="52.913386"
     inkscape:document-units="mm"
     inkscape:current-layer="layer1"
     inkscape:document-rotation="0"
     showgrid="false"
     inkscape:window-width="1104"
     inkscape:window-height="623"
     inkscape:window-x="54"
     inkscape:window-y="46"
     inkscape:window-maximized="0" />
  <metadata
     id="metadata5">
    <rdf:RDF>
      <cc:Work
         rdf:about="">
        <dc:format>image/svg+xml</dc:format>
        <dc:type
           rdf:resource="http://purl.org/dc/dcmitype/StillImage" />
        <dc:title></dc:title>
      </cc:Work>
    </rdf:RDF>
  </metadata>
  <g
     inkscape:label="Capa 1"
     inkscape:groupmode="layer"
     id="layer1">
    <g
       id="g1187"
       transform="matrix(1.1650363,0,0,1.1650363,-19.652571,-111.1586)">
      <ellipse
         style="fill:none;stroke:#800080;stroke-width:0.301913"
         id="ellipse14"
         cx="29.973946"
         cy="106.79459"
         rx="12.09059"
         ry="9.5611315" />
      <g
         id="g955"
         transform="matrix(0.39490991,0,0,0.30848282,10.675494,8.8513169)">
        <path
           style="fill:#000000;stroke-width:0.428358"
           d="m 54.042129,325.16361 c -4.531999,-1.51661 -4.995546,-1.5892 -10.020858,-1.56922 -4.318427,0.0171 -5.751169,-0.13968 -7.941281,-0.86956 -15.257896,-5.08465 -15.458268,-21.16778 -0.329224,-26.42549 7.185842,-2.49725 16.570433,-0.80183 21.669115,3.91476 2.744958,2.53925 3.939393,4.89826 4.171082,8.23793 0.280231,4.03948 -0.655308,6.56312 -3.500646,9.44307 l -2.187407,2.21403 1.160077,2.41616 c 1.312511,2.73364 1.978914,4.28 1.831272,4.24932 -0.05521,-0.0108 -2.238631,-0.73641 -4.85213,-1.611 z m -0.560987,-4.49147 -0.69051,-1.23521 2.635487,-2.43798 c 2.116288,-1.95771 2.782852,-2.90696 3.383607,-4.81865 1.20953,-3.8488 0.137183,-7.27149 -3.241003,-10.34521 -7.26955,-6.61426 -21.815491,-5.34437 -26.960412,2.35371 -3.176176,4.75237 -1.430297,11.00973 4.000244,14.33721 3.530171,2.16305 7.520949,3.06302 12.314291,2.777 3.216618,-0.19194 4.587911,-0.0899 6.522463,0.48505 1.347242,0.40044 2.511813,0.59111 2.587932,0.42368 0.07609,-0.16741 -0.172336,-0.86022 -0.552099,-1.5396 z M 32.987643,310.63595 c -0.381321,-0.50362 -0.693312,-1.33791 -0.693312,-1.85399 0,-2.17494 3.482306,-3.43813 5.052744,-1.83285 0.978334,1.00003 0.937454,3.07107 -0.07737,3.92066 -1.194331,0.99984 -3.440833,0.87717 -4.282051,-0.23382 z m 8.06046,0.16223 c -1.696162,-1.73378 -0.398735,-4.60251 2.081557,-4.60251 2.450358,0 3.738569,2.51113 2.277879,4.44028 -0.874047,1.15435 -3.300499,1.24465 -4.359436,0.16223 z m 8.008648,0.1329 c -1.19445,-1.10493 -1.329815,-2.28641 -0.39482,-3.44602 1.895852,-2.35132 5.45561,-1.16386 5.45561,1.81988 0,1.79322 -3.622044,2.95708 -5.06079,1.62614 z"
           id="path935" />
        <path
           style="fill:#8a6f91;stroke-width:0.0312666"
           d="m 73.38056,319.96475 c 0.0279,0.30329 0.03312,0.55121 0.01501,0.73025 -0.01513,0.14908 -0.03423,0.42665 -0.04267,0.61679 -0.0087,0.19015 -0.03461,0.44188 -0.05818,0.55939 -0.02357,0.11752 -0.08187,0.42257 -0.129484,0.6779 -0.542077,2.90748 -1.847962,5.46699 -4.454212,8.73013 -0.449666,0.56301 -1.137835,1.35641 -1.763849,2.03357 -0.553811,0.59905 -1.856085,1.86675 -2.556659,2.48877 -0.60443,0.53666 -1.814073,1.51963 -2.391426,1.94333 -1.547215,1.13541 -2.785751,1.90932 -4.024748,2.51496 -0.528446,0.25829 -1.278985,0.57091 -1.61925,0.67442 -1.481965,0.4509 -2.043871,0.55355 -3.537108,0.64624 -0.58615,0.0363 -1.349394,-0.0363 -1.839749,-0.17542 -0.908202,-0.25751 -1.258716,-0.41495 -1.709398,-0.7679 -0.355109,-0.2781 -0.510104,-0.44849 -0.452967,-0.49795 0.02146,-0.0185 0.172521,-0.16622 0.335694,-0.3281 0.163178,-0.16189 0.383645,-0.37752 0.489918,-0.47916 0.409033,-0.39121 0.854917,-0.81863 1.493877,-1.43197 0.364925,-0.35032 0.824807,-0.79115 1.021957,-0.97966 0.197151,-0.18851 0.400143,-0.38371 0.451093,-0.43378 0.05097,-0.0501 0.194321,-0.18724 0.31861,-0.30479 0.124289,-0.11752 0.285513,-0.27235 0.358279,-0.34402 0.07277,-0.0716 0.365333,-0.35283 0.650148,-0.62481 0.757405,-0.72333 1.126559,-1.07816 1.379881,-1.32635 0.333155,-0.3264 0.330709,-0.32545 0.58758,-0.229 0.600069,0.22536 1.007437,0.2669 1.610576,0.16424 0.720024,-0.12249 0.998603,-0.29177 2.009862,-1.22098 1.137933,-1.04559 2.300379,-2.12205 3.078017,-2.85031 0.117094,-0.10969 0.302793,-0.2833 0.412617,-0.38584 0.926622,-0.86519 2.020288,-2.06576 2.313244,-2.53937 0.27048,-0.43728 0.416462,-0.88585 0.464825,-1.42834 0.03374,-0.37834 0.0139,-0.92332 -0.0413,-1.13421 -0.05917,-0.22636 -0.01241,-0.36877 0.18261,-0.55242 0.187995,-0.17727 0.760646,-0.72394 1.261491,-1.20425 0.690055,-0.66178 1.382207,-1.32697 1.47278,-1.41542 0.05098,-0.0499 0.277922,-0.26746 0.504319,-0.48371 0.226383,-0.21626 0.453288,-0.43413 0.504244,-0.48416 0.05098,-0.05 0.259961,-0.25067 0.464452,-0.44589 0.204479,-0.19521 0.533096,-0.50923 0.730231,-0.6978 0.197149,-0.18859 0.408399,-0.39053 0.469476,-0.44878 0.178555,-0.17028 0.743702,-0.72456 0.997995,-0.97881 0.128976,-0.12896 0.238055,-0.23073 0.242384,-0.22618 0.0037,0.003 0.06797,0.0955 0.141431,0.20227 0.140486,0.20409 0.3178,0.59303 0.416002,0.91251 0.07814,0.25435 0.190487,0.96043 0.242521,1.52461 z m -2.072,-4.09402 c -0.03348,0.0272 -0.120318,0.10794 -0.193154,0.17938 -0.07281,0.0715 -0.31754,0.30707 -0.543888,0.52358 -0.226359,0.21652 -0.453288,0.43422 -0.504306,0.48378 -0.137993,0.13407 -1.03399,0.99476 -1.579018,1.51681 -0.262815,0.25173 -0.555361,0.53303 -0.650103,0.6251 -0.172625,0.16774 -0.362925,0.35028 -1.327132,1.27294 -0.284744,0.27248 -0.559454,0.53612 -0.610434,0.58586 -0.05098,0.0498 -0.277836,0.26819 -0.504083,0.48545 -0.226247,0.21725 -0.474686,0.45728 -0.552098,0.5334 -0.0774,0.0761 -0.145746,0.13402 -0.151862,0.12866 -0.0062,-0.006 -0.06029,-0.0763 -0.120317,-0.15789 -0.06003,-0.0815 -0.294768,-0.38668 -0.521548,-0.67823 -0.226781,-0.29155 -0.489012,-0.6296 -0.582724,-0.75121 -0.183653,-0.23831 -0.616153,-0.79568 -0.864355,-1.1139 -0.207058,-0.26547 -0.276694,-0.42315 -0.31651,-0.71658 -0.02593,-0.19165 -0.02295,-0.28543 0.0139,-0.42109 0.05421,-0.19941 0.225467,-0.45878 0.437896,-0.66311 0.08026,-0.0772 0.289321,-0.27752 0.464552,-0.44513 0.62058,-0.5936 1.358576,-1.30107 1.712112,-1.64132 0.484163,-0.46597 0.572863,-0.55097 0.942351,-0.90318 0.175305,-0.16711 0.480006,-0.4583 0.677117,-0.64709 1.16525,-1.11609 1.290145,-1.22734 1.54698,-1.37782 l 0.259813,-0.15222 0.195336,0.0207 c 0.280962,0.0299 0.533915,0.22583 0.865311,0.67048 0.137918,0.18507 0.330378,0.43548 0.427662,0.5565 0.09724,0.12099 0.210891,0.26674 0.252456,0.32386 0.04156,0.0571 0.175169,0.22945 0.296901,0.383 0.548811,0.69214 0.980083,1.25815 0.984772,1.29241 0.0024,0.0205 -0.0222,0.0597 -0.0557,0.0868 z m -17.203771,16.47431 c -0.174975,0.16966 -0.676167,0.64995 -1.26668,1.21387 -0.197181,0.1883 -0.400229,0.38309 -0.451213,0.43288 -0.117763,0.11504 -1.110826,1.06887 -1.512682,1.45299 -0.167954,0.16051 -0.520463,0.49736 -0.783353,0.7485 -0.262898,0.25115 -0.537585,0.51484 -0.610429,0.58596 -0.07284,0.0711 -0.281828,0.27187 -0.464418,0.44607 -0.182595,0.17423 -0.409456,0.39248 -0.504136,0.48501 -0.208512,0.20375 -0.670857,0.64413 -0.837105,0.79732 l -0.120988,0.11154 -0.227953,-0.28587 c -0.125374,-0.15723 -0.315557,-0.39852 -0.422636,-0.5362 -0.10707,-0.13768 -0.247177,-0.31642 -0.311342,-0.39721 -0.141481,-0.17817 -0.637592,-0.81796 -0.995641,-1.28401 -0.161772,-0.21058 -0.308516,-0.44145 -0.382476,-0.60174 l -0.120007,-0.26008 0.01644,-0.23705 c 0.02915,-0.41979 0.154743,-0.58936 1.039317,-1.40312 0.139347,-0.12819 0.33238,-0.30918 0.428955,-0.4022 0.527129,-0.50767 0.863572,-0.83092 0.999169,-0.95999 0.349297,-0.33249 1.407143,-1.34539 1.492792,-1.42936 0.723559,-0.70947 1.604025,-1.54641 1.700499,-1.61645 0.186964,-0.13571 0.627919,-0.20573 0.820672,-0.1303 0.218676,0.0856 0.462527,0.31003 0.723197,0.66562 0.131485,0.17936 0.332654,0.44525 0.447035,0.59085 0.114389,0.14561 0.33232,0.42367 0.484292,0.61791 0.557428,0.71242 0.719004,0.91154 0.869635,1.07171 l 0.153868,0.16361 z"
           id="path951" />
      </g>
    </g>
  </g>
</svg>
