<?xml version="1.0" encoding="UTF-8" standalone="no"?>
<!-- Created with Inkscape (http://www.inkscape.org/) -->

<svg
   xmlns:dc="http://purl.org/dc/elements/1.1/"
   xmlns:cc="http://creativecommons.org/ns#"
   xmlns:rdf="http://www.w3.org/1999/02/22-rdf-syntax-ns#"
   xmlns:svg="http://www.w3.org/2000/svg"
   xmlns="http://www.w3.org/2000/svg"
   xmlns:sodipodi="http://sodipodi.sourceforge.net/DTD/sodipodi-0.dtd"
   xmlns:inkscape="http://www.inkscape.org/namespaces/inkscape"
   width="197mm"
   height="66mm"
   viewBox="0 0 197 66"
   version="1.1"
   id="svg8"
   inkscape:version="0.92.4 (5da689c313, 2019-01-14)"
   sodipodi:docname="Coreldraw.svg">
  <defs
     id="defs2" />
  <sodipodi:namedview
     id="base"
     pagecolor="#ffffff"
     bordercolor="#666666"
     borderopacity="1.0"
     inkscape:pageopacity="0.0"
     inkscape:pageshadow="2"
     inkscape:zoom="0.35"
     inkscape:cx="42.857143"
     inkscape:cy="560"
     inkscape:document-units="mm"
     inkscape:current-layer="layer1"
     showgrid="false"
     inkscape:window-width="1366"
     inkscape:window-height="705"
     inkscape:window-x="-8"
     inkscape:window-y="-8"
     inkscape:window-maximized="1" />
  <metadata
     id="metadata5">
    <rdf:RDF>
      <cc:Work
         rdf:about="">
        <dc:format>image/svg+xml</dc:format>
        <dc:type
           rdf:resource="http://purl.org/dc/dcmitype/StillImage" />
        <dc:title></dc:title>
      </cc:Work>
    </rdf:RDF>
  </metadata>
  <g
     inkscape:label="Capa 1"
     inkscape:groupmode="layer"
     id="layer1"
     transform="translate(0,-231)">
    <g
       transform="translate(-48.604836,124.74615)"
       id="g141">
      <text
         transform="scale(0.86270214,1.1591486)"
         id="text2470"
         y="131.29973"
         x="135.45239"
         style="font-style:normal;font-variant:normal;font-weight:400;font-size:19.88829994px;line-height:125%;font-family:'Roboto Th';text-align:start;letter-spacing:0px;word-spacing:0px;text-anchor:start;fill:#000000;fill-opacity:1;stroke:none;stroke-width:0.93591702"
         xml:space="preserve"><tspan
           style="stroke-width:0.93591702"
           id="tspan2468"
           y="131.29973"
           x="135.45239"
           sodipodi:role="line"><tspan
             id="tspan2464"
             style="font-style:normal;font-variant:normal;font-weight:400;font-size:19.88829994px;font-family:'Roboto Th';fill:#000000;stroke-width:0.93591702">CorelDraw = 85% </tspan><tspan
             id="tspan2466"
             style="font-style:normal;font-variant:normal;font-weight:400;font-size:19.88829994px;font-family:'Roboto Th';fill:#000000;stroke-width:0.93591702"
             dy="0"
             dx="0.47475952"> </tspan></tspan></text>
      <rect
         ry="3.5466447"
         y="158.86932"
         x="115.21912"
         height="7.0932894"
         width="106.90293"
         id="rect2436"
         style="fill:#00a93b;fill-opacity:1;stroke-width:1.59477997" />
      <path
         inkscape:connector-curvature="0"
         id="path2513"
         d="m 73.107836,169.25275 c -0.55059,-0.22131 -0.59531,-0.40492 -0.59531,-2.44385 0,-1.36189 0.12136,-2.32593 0.3175,-2.52207 0.43073,-0.43073 5.01968,-0.43073 5.45041,0 0.1961,0.19609 0.3175,1.15974 0.3175,2.52009 0,2.12088 -0.0252,2.21216 -0.67868,2.46063 -0.83934,0.31911 -4.00491,0.30938 -4.81142,-0.0148 z m -2.62492,-11.96415 c -6.02736,-9.09794 -10.02034,-17.31652 -11.92275,-24.5401 -0.84564,-3.21095 -0.95952,-7.93737 -0.25501,-10.58334 1.27757,-4.79821 4.26713,-8.39913 8.78341,-10.57961 1.16416,-0.56207 2.67224,-1.08685 3.35128,-1.16619 l 1.23462,-0.14425 -2.31083,2.30701 c -2.61157,2.60725 -4.06463,5.07506 -5.10611,8.67197 -0.54504,1.88238 -0.60722,2.64009 -0.59585,7.26107 0.0114,4.63559 0.0866,5.48993 0.74053,8.41539 1.45646,6.51548 4.17073,13.88351 7.73408,20.99455 1.03901,2.07346 1.56976,3.3984 1.36134,3.3984 -0.18788,0 -1.5445,-1.81571 -3.01471,-4.0349 z m 4.01753,3.72026 c -0.39109,-1.08953 -2.34317,-9.11108 -3.01404,-12.38536 -2.09385,-10.21945 -2.90094,-20.07103 -2.14089,-26.13255 0.49969,-3.98507 2.02654,-8.30285 3.97772,-11.24859 0.81289,-1.22725 0.85005,-1.24803 2.23199,-1.24803 1.38195,0 1.41911,0.0208 2.232,1.24803 1.95118,2.94574 3.47803,7.26352 3.97772,11.24859 0.98458,7.85225 -0.63253,21.34993 -4.17693,34.8638 l -1.00622,3.83645 -0.97843,0.0823 c -0.62946,0.0529 -1.02283,-0.0415 -1.10292,-0.26459 z m 4.47373,-3.08376 c 3.56335,-7.11104 6.27762,-14.47907 7.73408,-20.99455 0.65395,-2.92546 0.72913,-3.7798 0.74053,-8.41539 0.0114,-4.62098 -0.0508,-5.37869 -0.59585,-7.26107 -1.04148,-3.59691 -2.49454,-6.06472 -5.10611,-8.67197 l -2.31083,-2.30701 1.23462,0.14425 c 0.67904,0.0793 2.18711,0.60412 3.35128,1.16619 4.51628,2.18048 7.50584,5.7814 8.783413,10.57961 0.70451,2.64597 0.59063,7.37239 -0.25501,10.58334 -1.337843,5.07986 -4.154213,11.61451 -7.587913,17.60576 -2.37945,4.15175 -6.94727,10.96924 -7.34955,10.96924 -0.20842,0 0.32233,-1.32494 1.36134,-3.3984 z m -9.59244,0.28954 c -7.13781,-7.74626 -12.37778,-15.82702 -14.82626,-22.86416 -3.51584,-10.10485 -1.34504,-17.47981 6.44767,-21.90495 l 1.05833,-0.60098 -0.92604,0.73964 c -1.74354,1.39257 -3.42,3.37678 -4.35273,5.15176 -1.37194,2.61082 -1.83029,4.64634 -1.81477,8.05942 0.041,9.00915 5.78777,20.7087 16.21287,33.00677 1.61093,1.90036 0.56172,0.97453 -1.79907,-1.5875 z m 10.54277,1.65365 c 0.46543,-0.58209 1.78058,-2.21838 2.92257,-3.63622 4.39347,-5.45476 8.85122,-12.94 10.957283,-18.39896 2.22332,-5.7629 2.94678,-11.70423 1.90383,-15.63504 -0.86755,-3.26974 -2.93922,-6.38235 -5.733163,-8.61388 l -0.92605,-0.73964 1.05834,0.60098 c 7.792713,4.42514 9.963514,11.8001 6.447673,21.90495 -2.50692,7.20511 -8.506253,16.33048 -15.423053,23.45947 -1.12952,1.16417 -1.67286,1.64042 -1.20743,1.05834 z"
         style="fill:#000000;stroke-width:0.26458299" />
    </g>
  </g>
</svg>
