<?xml version="1.0" encoding="UTF-8" standalone="no"?>
<svg
   xmlns:dc="http://purl.org/dc/elements/1.1/"
   xmlns:cc="http://creativecommons.org/ns#"
   xmlns:rdf="http://www.w3.org/1999/02/22-rdf-syntax-ns#"
   xmlns:svg="http://www.w3.org/2000/svg"
   xmlns="http://www.w3.org/2000/svg"
   xmlns:sodipodi="http://sodipodi.sourceforge.net/DTD/sodipodi-0.dtd"
   xmlns:inkscape="http://www.inkscape.org/namespaces/inkscape"
   width="323"
   height="279"
   viewBox="0 0 85.460626 73.818677"
   version="1.1"
   id="svg8"
   inkscape:version="1.0.1 (3bc2e813f5, 2020-09-07)"
   sodipodi:docname="creatividad.svg">
  <defs
     id="defs2" />
  <sodipodi:namedview
     id="base"
     pagecolor="#ffffff"
     bordercolor="#666666"
     borderopacity="1.0"
     inkscape:pageopacity="0.0"
     inkscape:pageshadow="2"
     inkscape:zoom="1.1749267"
     inkscape:cx="400.62992"
     inkscape:cy="156.96611"
     inkscape:document-units="mm"
     inkscape:current-layer="layer1"
     inkscape:document-rotation="0"
     showgrid="false"
     inkscape:window-width="1258"
     inkscape:window-height="728"
     inkscape:window-x="99"
     inkscape:window-y="-5"
     inkscape:window-maximized="0"
     units="px" />
  <metadata
     id="metadata5">
    <rdf:RDF>
      <cc:Work
         rdf:about="">
        <dc:format>image/svg+xml</dc:format>
        <dc:type
           rdf:resource="http://purl.org/dc/dcmitype/StillImage" />
        <dc:title></dc:title>
      </cc:Work>
    </rdf:RDF>
  </metadata>
  <g
     inkscape:label="Capa 1"
     inkscape:groupmode="layer"
     id="layer1">
    <path
       style="fill:#002a43;fill-opacity:1;stroke-width:0.175622"
       d="m 141.17462,64.382034 c -3.14378,-0.946852 -5.16616,-3.245908 -5.38268,-6.118959 l -0.0994,-1.319542 -1.4165,-0.07423 c -2.66977,-0.140637 -4.90324,-1.469208 -6.17776,-3.67509 -0.58464,-1.011849 -0.70071,-1.393549 -0.78137,-2.569316 l -0.0947,-1.380948 -1.44867,-0.09052 c -3.79154,-0.236108 -6.71771,-2.895321 -6.93451,-6.301432 l -0.0836,-1.312243 -1.48256,-0.09256 c -2.7579,-0.172084 -5.06288,-1.611535 -6.23848,-3.896361 -0.97067,-1.886526 -0.99439,-4.047186 -0.0647,-5.894038 l 0.45254,-0.89898 -0.77691,-0.887445 c -1.5208,-1.737245 -1.59537,-1.848114 -3.0519,-4.538206 -1.19158,-2.200784 -2.12083,-5.022135 -2.45481,-7.45318 -0.24523,-1.785197 -0.0902,-5.35678 0.30895,-7.118124 1.41646,-6.249523 5.53666,-11.75016019 11.32451,-15.1185968 4.74381,-2.7608368 10.67065,-4.0679019 16.17382,-3.5667682 1.90694,0.1741237 5.82514,0.9602652 6.61291,1.327535 0.17972,0.083982 0.78254,0.3306724 1.33962,0.5483477 0.55705,0.2173239 1.04045,0.4524494 1.07422,0.5215206 0.0334,0.069317 0.15807,0.1255943 0.2762,0.1255943 0.35808,2.041e-4 3.12235,1.5592212 4.26294,2.4042557 l 1.07055,0.7931678 0.47922,-0.4088976 c 0.84569,-0.7215266 3.38141,-2.1987468 4.89894,-2.8539309 0.81028,-0.3498726 1.68041,-0.7338366 1.93362,-0.8533911 0.76642,-0.3616647 3.35393,-1.0549504 5.08745,-1.3626016 2.2499,-0.3991918 6.72857,-0.3934847 9.09244,0.012095 2.08633,0.3576205 5.16493,1.2620467 6.708,1.9704809 6.21038,2.8512399 10.89756,7.7259272 13.05933,13.5819242 0.9568,2.591865 1.13487,3.776193 1.12548,7.485269 -0.009,3.412188 -0.0125,3.44795 -0.68918,5.778195 -0.83057,2.861963 -2.46425,5.979139 -4.27933,8.165247 l -1.21699,1.465802 0.51775,1.13022 c 0.44423,0.969767 0.51793,1.357462 0.51895,2.730215 0.001,1.510412 -0.0369,1.670499 -0.68495,2.862371 -1.25501,2.309287 -3.63644,3.803024 -6.31213,3.959153 l -1.33054,0.07748 -0.1157,1.277501 c -0.16011,1.767829 -1.01924,3.342747 -2.50679,4.595338 -1.31725,1.109096 -2.67557,1.629925 -4.56372,1.749763 l -1.33512,0.08481 v 0.696491 c 0,1.849664 -1.0044,3.853216 -2.60902,5.204279 -1.33856,1.127162 -2.69247,1.628783 -4.57299,1.694392 l -1.38117,0.04853 -0.0315,1.138947 c -0.0695,2.53592 -1.93595,5.010555 -4.62332,6.129886 -0.72206,0.300927 -1.2147,0.362912 -2.89578,0.365746 -1.83809,0.0029 -2.12987,-0.04078 -3.15043,-0.469574 l -1.12474,-0.472712 -1.17719,0.45934 c -1.40295,0.547493 -3.9889,0.717853 -5.22859,0.344959 z m 3.52077,-2.917499 c 0.26967,-0.161047 -5.16214,-5.311887 -5.43808,-5.156774 -0.35512,0.199787 -0.24766,2.617267 0.14184,3.191346 0.93793,1.382497 2.28044,2.085636 3.98536,2.087348 0.60772,6.13e-4 1.19762,-0.05382 1.31092,-0.121928 z m 9.02243,-0.233652 c 1.00228,-0.428472 2.21374,-1.737045 2.38737,-2.578776 0.16213,-0.786074 -0.0609,-2.223699 -0.44036,-2.838027 -0.17068,-0.276473 -2.05095,-2.057743 -4.1784,-3.958624 -4.13751,-3.696799 -4.35374,-3.830871 -6.16833,-3.824877 -3.05329,0.0121 -5.068,3.078806 -3.72868,5.679315 0.45389,0.881326 7.41214,7.152948 8.37883,7.552102 1.08018,0.445881 2.66454,0.432792 3.74957,-0.0325 z m -17.8314,-7.413865 c 0.4087,-0.131302 0.77458,-0.209576 0.81301,-0.174918 0.0385,0.03666 0.29672,-0.102766 0.57391,-0.305803 0.44401,-0.325381 0.51334,-0.509044 0.58216,-1.54185 0.10103,-1.516569 0.47117,-2.591457 1.26825,-3.683265 1.28764,-1.763873 3.34577,-2.863471 5.73618,-3.06486 l 1.40929,-0.11864 0.0695,-0.920796 c 0.11091,-1.4698 0.43991,-2.442912 1.17495,-3.475473 1.35027,-1.896803 3.32166,-2.979109 5.80754,-3.188534 l 1.41912,-0.119471 0.0695,-0.920879 c 0.11091,-1.469759 0.43991,-2.442909 1.17495,-3.475473 1.37868,-1.936681 3.39068,-3.023474 5.88557,-3.17895 l 1.4513,-0.09052 0.0856,-1.359177 c 0.1306,-2.072219 0.81826,-3.22735 2.87396,-4.827795 1.50599,-1.172381 4.357,-1.767013 6.23802,-1.30107 2.21035,0.547576 2.77546,0.904241 5.8875,3.715844 2.51015,2.26786 3.03165,2.666281 3.26207,2.492331 0.54451,-0.410977 2.52421,-3.203702 3.06114,-4.318346 0.30204,-0.626883 0.6278,-1.264492 0.72399,-1.416793 0.33643,-0.532731 1.11031,-3.757718 1.31536,-5.481267 0.61167,-5.141935 -1.43855,-10.948186 -5.30038,-15.010664 -7.44199,-7.8286407 -20.18989,-9.3804425 -29.42924,-3.5824689 -1.65327,1.03749651 -1.93362,1.24329281 -1.93362,1.41944231 0,0.079106 1.81822,1.80448759 4.04049,3.83368759 3.57951,3.268535 4.10844,3.821819 4.63617,4.849081 1.80874,3.521062 0.11589,7.563312 -3.88865,9.285719 -0.89968,0.386961 -1.23918,0.435646 -3.03855,0.435646 -3.13413,0 -3.32143,-0.104807 -8.40596,-4.712647 -2.29374,-2.07858 -4.26558,-3.750341 -4.38188,-3.71515 -0.11631,0.03666 -5.72566,5.071798 -12.46522,11.192266 -7.63679,6.935288 -12.39529,11.380404 -12.62938,11.797745 -0.77985,1.390324 -0.39468,3.336099 0.89495,4.521081 1.17073,1.075824 3.25407,1.420458 4.76049,0.78754 0.47372,-0.198993 2.28111,-1.723382 5.06424,-4.271129 2.38019,-2.178926 4.58603,-4.110591 4.90183,-4.292698 1.25376,-0.72283 2.6485,-0.117846 2.6485,1.148895 0,0.552309 -0.33745,0.902612 -4.85723,5.041952 -5.24324,4.801988 -5.35624,4.943191 -5.31921,6.648186 0.0452,2.079925 1.94557,3.738639 4.2835,3.738639 1.80109,0 2.253,-0.302968 7.37077,-4.942825 4.39028,-3.980319 4.74404,-4.261589 5.35963,-4.261589 0.93411,0 1.63364,0.619793 1.63364,1.447294 0,0.594549 -0.23904,0.844302 -4.77915,4.992855 -3.1011,2.833707 -4.87926,4.58494 -5.06425,4.987556 -0.40316,0.877577 -0.36925,2.504403 0.0684,3.284724 0.51144,0.911785 1.4235,1.654432 2.49006,2.027692 1.13359,0.39675 1.49935,0.412367 2.45709,0.105222 z M 162.255,53.472059 c 2.05091,-0.945223 2.9349,-3.261933 1.95859,-5.133088 -0.45448,-0.871049 -7.55223,-7.317638 -8.47771,-7.699913 -1.48676,-0.614202 -3.54053,-0.29847 -4.73943,0.727767 -1.30511,1.117498 -1.72916,3.189592 -0.93439,4.565974 0.38008,0.658242 7.70222,7.406779 8.42307,7.763239 0.2026,0.09989 0.93043,0.184291 1.61747,0.187163 0.97308,0.0029 1.4488,-0.08644 2.1524,-0.41118 z m 8.40588,-7.690332 c 2.01202,-0.852049 2.90353,-2.867995 2.16057,-4.885576 -0.26088,-0.708476 -0.82871,-1.304412 -4.0095,-4.208048 -4.05893,-3.705326 -4.61575,-4.060441 -6.37738,-4.066761 -3.21938,-0.01209 -5.30806,3.080969 -3.84356,5.690813 0.45972,0.819265 7.46039,7.117636 8.36522,7.526004 1.04258,0.470592 2.51296,0.448209 3.70465,-0.05628 z m 8.45706,-7.698443 c 1.08584,-0.45991 1.76459,-1.13389 2.20993,-2.194426 0.37719,-0.898247 0.28999,-2.252934 -0.20123,-3.126716 -0.50927,-0.905874 -7.14726,-6.900059 -8.24035,-7.44115 -1.0546,-0.522012 -2.11221,-0.605763 -3.38955,-0.268726 -1.07394,0.283806 -1.78235,0.878673 -2.41328,2.026955 -0.44565,0.81111 -0.52559,1.13544 -0.46284,1.877557 0.0417,0.493386 0.23687,1.201495 0.4336,1.573614 0.522,0.98718 7.80406,7.49954 8.64934,7.735101 1.12288,0.313173 2.40645,0.244234 3.4144,-0.182666 z m -53.28767,-20.64337 c 7.01938,-6.413117 12.27518,-11.086332 12.61927,-11.220446 0.44055,-0.171667 0.72001,-0.185538 1.10492,-0.05465 0.28338,0.09623 2.62841,2.086411 5.21118,4.422083 3.20143,2.895192 4.92286,4.331476 5.409,4.513129 0.39218,0.146382 1.15963,0.266269 1.70543,0.266269 3.19613,0 5.26511,-3.035542 3.84079,-5.635113 -0.62344,-1.137846 -10.23265,-9.80279749 -12.29168,-11.0838025 -1.41369,-0.8795305 -4.60025,-2.3431745 -5.84556,-2.6849172 -2.04675,-0.5617652 -2.69414,-0.6814407 -4.7404,-0.8765106 -2.71334,-0.2585209 -5.44021,-0.05503 -8.15041,0.6088205 -2.14164,0.5244988 -5.74117,2.1076105 -7.39999,3.2544682 -3.72804,2.5774686 -6.75407,6.4602896 -8.03032,10.3038456 -1.22282,3.682653 -1.29374,7.909787 -0.1925,11.472761 0.3912,1.265758 0.46206,1.437954 1.34396,3.266011 0.73803,1.52982 2.84809,4.394065 3.26212,4.42807 0.0686,0.0083 5.53791,-4.935485 12.15419,-10.980313 z"
       id="path630" />
    <path
       style="fill:#8a6f91;stroke-width:0.0988478"
       d="M 43.013333,63.852817 C 40.795449,63.539302 39.01242,62.851146 37.49795,61.723846 l -0.779685,-0.580344 -0.792256,0.484519 c -1.117342,0.683406 -2.26637,1.008489 -3.556913,1.006456 -1.22645,-0.002 -1.945553,-0.186167 -2.942693,-0.753835 -0.721538,-0.41081 -1.990223,-1.506532 -2.249756,-1.943042 -0.123785,-0.20838 -0.149527,-0.200452 -1.070053,0.328604 -1.125591,0.64693 -2.018224,0.932184 -3.421997,1.09365 -1.192161,0.137162 -2.5595,0.01886 -3.711571,-0.332341 -0.821791,-0.247954 -2.078405,-0.922045 -2.703174,-1.450842 l -0.448351,-0.37949 -0.745407,0.110408 c -1.861875,0.275093 -4.419469,0.06783 -6.0561321,-0.49111 C 4.6710054,57.331726 1.8196596,52.706348 1.4759954,46.578809 1.4262927,45.692827 1.3676485,45.399774 1.1102496,44.751072 -0.01720049,41.910062 -0.10899495,38.783385 0.83725181,35.451978 1.3469292,33.657552 1.9541501,32.36426 2.816601,31.236133 c 0.6182197,-0.808662 1.5271773,-1.672489 1.6848461,-1.601194 0.067795,0.03004 0.1134813,0.01502 0.1015009,-0.04031 -0.012225,-0.05274 0.05096,-0.159761 0.1396424,-0.237755 0.1426463,-0.125497 0.1499812,-0.209883 0.06315,-0.731789 C 4.6638626,27.771922 4.685518,25.9059 4.8477234,25.006918 5.333028,22.317576 6.6087617,19.786842 8.3696777,18.020225 10.240698,16.143202 12.580641,15.235323 14.785695,15.53094 c 0.448333,0.06029 0.999575,0.172964 1.224982,0.250959 l 0.409818,0.141703 0.343797,-0.741736 C 18.021892,12.468677 20.481887,10.32 23.042076,9.6985078 24.39871,9.3691711 26.1784,9.5086039 27.54226,10.050834 l 0.514491,0.204609 0.538489,-0.4100207 C 30.519071,8.3805286 33.422896,8.149008 36.145158,9.2433742 l 0.872947,0.350821 0.40205,-0.4111488 c 1.12045,-1.1458397 2.82626,-2.2810543 4.274608,-2.8447793 1.574613,-0.6129002 2.231918,-0.7272652 4.141708,-0.7204473 1.575179,0.00768 1.812015,0.030038 2.641061,0.2916494 1.815858,0.569303 3.417247,1.7808983 4.37094,3.3071396 l 0.37641,0.6023904 0.449524,-0.2091493 c 2.158939,-1.0048735 5.776351,-0.7533809 8.782764,0.6107521 4.011754,1.820238 6.691715,4.858026 7.379553,8.364843 l 0.201535,1.027667 h 0.833593 c 4.828107,0 8.672814,3.341094 9.486498,8.243922 0.07195,0.433007 0.130631,0.970958 0.130631,1.195392 0,0.333109 0.03772,0.419518 0.205028,0.470425 0.363182,0.110792 1.320526,0.919332 1.896908,1.602699 1.511163,1.791562 2.455479,4.437416 2.726276,7.638782 0.210616,2.489585 -0.08872,4.74328 -0.855074,6.440676 l -0.404851,0.89661 0.07999,0.73028 c 0.186166,1.701804 0.03144,3.949921 -0.373905,5.397333 -0.73824,2.64265 -2.371651,4.556492 -4.563771,5.34733 -0.333563,0.120222 -0.859161,0.272823 -1.16796,0.338767 -0.531151,0.113412 -0.599121,0.164686 -1.260414,0.948839 -0.814034,0.96538 -1.618986,1.487844 -2.839163,1.842811 -0.962478,0.279984 -2.80193,0.392725 -3.702201,0.226858 l -0.651268,-0.119838 -0.776312,0.574165 c -0.448231,0.331607 -1.115951,0.705372 -1.579936,0.884477 -0.722103,0.27883 -0.923603,0.310126 -1.987512,0.307122 -0.991363,-0.0025 -1.277029,-0.04219 -1.756441,-0.243798 l -0.572527,-0.240794 -0.299194,0.268667 c -0.456192,0.409943 -1.564243,0.973141 -2.426292,1.233299 -1.451936,0.438131 -4.20118,0.407607 -5.783019,-0.06444 -0.755177,-0.225356 -1.893486,-0.875849 -2.572484,-1.470398 l -0.568922,-0.498082 -0.432867,0.392232 c -0.936764,0.848867 -2.614237,1.596143 -4.166776,1.856186 -0.595345,0.09947 -3.031564,0.126614 -3.642847,0.04031 z m 3.522265,-2.232784 c 1.012687,-0.180124 1.811121,-0.472762 2.551649,-0.9361 0.886404,-0.554605 0.892527,-0.580833 0.353158,-1.513241 -0.597438,-1.032795 -1.216692,-2.582438 -1.46634,-3.669417 -0.421166,-1.833727 -0.332865,-4.212116 0.22333,-6.017544 l 0.212013,-0.688076 -0.421278,-0.002 c -1.404695,-0.0077 -3.648222,-0.59881 -4.936806,-1.3023 l -0.781599,-0.426636 -0.584469,0.229094 c -0.78614,0.307856 -1.69354,0.952869 -2.352727,1.671846 -0.298774,0.325948 -0.659906,0.631929 -0.80249,0.680087 -0.687293,0.232482 -1.339341,-0.541304 -1.119077,-1.32758 0.16727,-0.597113 1.463831,-1.880004 2.551443,-2.524556 0.225425,-0.133774 0.419933,-0.252844 0.432297,-0.264894 0.01257,-0.01502 -0.164546,-0.260005 -0.393129,-0.550086 -0.658904,-0.836807 -1.496315,-2.370058 -1.496315,-2.739646 0,-0.645268 0.411467,-1.167809 0.919523,-1.167809 0.350633,0 0.701111,0.319172 0.972572,0.88587 0.789378,1.647805 2.276727,3.055158 4.051335,3.833446 1.217592,0.533994 3.458587,0.919108 4.565318,0.784582 0.488805,-0.05952 0.546974,-0.09797 0.901385,-0.59289 0.838697,-1.171805 2.507315,-2.349034 3.658869,-2.581383 0.532419,-0.107404 0.636955,-0.09909 0.910529,0.07461 0.370154,0.234752 0.546443,0.677378 0.467457,1.173388 -0.08128,0.510365 -0.284804,0.682386 -1.096857,0.927057 -1.893695,0.570582 -3.414585,2.51977 -4.078686,5.22731 -0.166957,0.680692 -0.203526,1.085058 -0.19689,2.177126 0.0066,1.158313 0.04251,1.465386 0.260459,2.253056 0.46653,1.686317 1.207508,3.081574 2.254439,4.245088 1.435288,1.595088 2.529466,2.106246 4.838159,2.260289 1.196552,0.07988 2.329859,-0.0731 3.326098,-0.448756 0.963142,-0.363255 0.965426,-0.365518 0.779679,-0.824449 -0.315575,-0.77957 0.07698,-1.584309 0.772836,-1.584309 0.248024,0 0.457428,0.112294 0.830131,0.444725 1.034102,0.922534 2.094521,1.287337 3.162552,1.087884 0.631988,-0.117952 1.664357,-0.525856 1.658454,-0.655181 -0.0018,-0.03996 -0.15543,-0.207612 -0.341596,-0.372298 -0.953257,-0.844271 -2.022964,-2.917545 -2.391839,-4.635814 -0.101292,-0.472046 -0.221794,-1.316956 -0.267899,-1.877555 -0.09815,-1.194299 0.02445,-1.657976 0.515155,-1.931211 l 0.288156,-0.160914 -0.360947,-0.528643 c -0.411557,-0.602876 -0.922097,-1.81692 -1.063563,-2.529113 -0.323399,-1.62791 -0.353234,-4.068813 -0.06895,-5.642797 0.457736,-2.534769 1.64047,-4.669009 3.248908,-5.862819 0.959544,-0.712155 1.443367,-0.770073 1.812697,-0.217043 0.469992,0.703941 0.277678,1.343634 -0.561225,1.866887 -1.235789,0.770828 -2.203297,2.361504 -2.633716,4.330249 -0.218649,1.000312 -0.263357,3.16361 -0.09081,4.398869 0.275583,1.972926 1.432715,3.496568 3.272411,4.309222 0.971978,0.429427 1.253743,0.911494 0.981409,1.679307 -0.159971,0.45147 -0.381764,0.610301 -0.849276,0.608531 -0.380576,-0.0017 -1.472986,-0.523897 -2.205184,-1.05465 L 66.281703,51.802 v 0.486324 c 0,0.267549 0.06497,0.858476 0.144603,1.313303 0.677814,3.875384 2.756872,5.646261 6.076366,5.175686 1.367678,-0.193676 2.155306,-0.558224 2.859141,-1.322569 0.640546,-0.69554 1.028772,-1.848086 1.028772,-3.054068 0,-0.48629 0.416272,-0.991342 0.817142,-0.991342 0.713091,0 1.060765,0.590591 0.984622,1.672523 -0.04017,0.572468 -0.03912,0.57522 0.194549,0.510708 1.207254,-0.333109 2.501129,-1.460713 3.132419,-2.729775 0.491613,-0.98829 0.880118,-2.915771 0.88148,-4.373431 0.001,-0.503624 -0.01746,-0.565761 -0.158923,-0.502077 -0.596606,0.27167 -1.126674,0.121724 -1.347594,-0.381345 -0.290951,-0.662491 -0.107579,-1.231305 0.517668,-1.607106 0.490914,-0.294689 1.092341,-1.053972 1.434426,-1.810029 1.044594,-2.308899 0.851617,-6.794399 -0.416342,-9.676181 -0.390286,-0.88704 -1.144279,-1.968972 -1.691776,-2.427486 l -0.416727,-0.348932 -0.20398,0.809863 c -0.236812,0.939946 -0.545611,1.336663 -1.040297,1.336663 -0.382777,0 -0.899957,-0.475396 -0.835095,-0.767622 0.02445,-0.108905 0.007,-0.171077 -0.03842,-0.13828 -0.130631,0.09532 -0.09745,-0.190288 0.102688,-0.874529 0.10199,-0.348547 0.233669,-1.083741 0.292348,-1.633788 0.403838,-3.763859 -1.827856,-7.273051 -5.299077,-8.33245 -0.763492,-0.232866 -2.172211,-0.397283 -2.748035,-0.320291 l -0.511487,0.06822 -0.05414,0.608077 c -0.07335,0.826974 -0.438872,2.272238 -0.830345,3.284342 -0.295143,0.762877 -0.337755,0.82396 -0.48323,0.6897 -0.143904,-0.133006 -0.147397,-0.129269 -0.03737,0.03769 0.105482,0.158643 0.08348,0.261507 -0.161717,0.751041 -0.156129,0.311628 -0.34949,0.675645 -0.429441,0.808434 -0.136219,0.22609 -0.134473,0.241179 0.03144,0.241179 0.402267,0 1.672531,0.463453 2.37207,0.865409 1.210188,0.695386 2.645103,2.371679 3.28502,3.837515 0.805581,1.845488 1.078369,3.433978 1.200548,6.991704 0.04575,1.327693 0.129932,2.607115 0.187214,2.843159 0.410719,1.687068 1.548221,2.929298 3.24852,3.547515 0.520917,0.189554 0.804603,0.356472 0.933487,0.549366 0.350049,0.524312 0.159272,1.389043 -0.362378,1.643659 -0.709494,0.346311 -2.667143,-0.612974 -3.935485,-1.928197 l -0.407262,-0.42234 -0.117009,0.772672 c -0.26231,1.731761 -0.637437,3.226539 -0.886579,3.532893 -0.470062,0.578007 -1.364081,0.302582 -1.528941,-0.471329 -0.02794,-0.138281 0.06776,-0.80606 0.215855,-1.484527 1.074423,-4.922423 1.115184,-10.809626 0.0957,-13.82273 -0.53908,-1.593655 -1.452868,-2.828464 -2.622609,-3.544199 -0.945537,-0.578535 -1.683917,-0.78782 -2.788237,-0.790423 -1.099431,-0.0024 -1.829463,0.240026 -2.684921,0.89111 -1.218375,0.927738 -2.150989,2.221481 -2.873274,3.985949 -0.60625,1.481023 -0.879569,2.845456 -0.887267,4.429161 -0.007,1.513017 0.147152,2.393914 0.635398,3.62386 0.288366,0.726399 0.32036,0.884665 0.24743,1.223541 -0.108452,0.503809 -0.480044,0.831305 -0.92654,0.816573 -0.28166,-0.01118 -0.398323,-0.08931 -0.668985,-0.459423 l -0.327799,-0.448117 -0.288367,0.428934 c -0.914357,1.360103 -1.118746,3.243082 -0.55063,5.072928 0.171147,0.551291 0.219174,0.613578 0.567588,0.736385 0.56428,0.198951 1.335688,0.685251 1.732554,1.092218 0.28676,0.294304 0.358698,0.448456 0.397405,0.852898 0.04219,0.440883 0.01956,0.524236 -0.212572,0.777611 -0.459147,0.501588 -0.954721,0.480788 -1.460528,-0.06105 -0.108347,-0.116066 -0.46879,-0.327067 -0.801016,-0.469409 -1.126014,-0.481501 -2.466323,-0.282987 -3.752504,0.555887 -0.308659,0.201221 -0.648806,0.365896 -0.755854,0.365896 -0.270238,0 -0.707974,-0.283371 -0.82039,-0.530491 -0.157526,-0.346661 -0.108487,-0.920613 0.106146,-1.242004 0.254766,-0.381606 1.661637,-1.171012 2.490487,-1.397482 0.348058,-0.09497 0.641782,-0.183128 0.652683,-0.196331 0.01083,-0.01502 -0.03776,-0.280367 -0.108137,-0.594853 -0.567717,-2.535407 0.01572,-5.124401 1.558113,-6.914905 l 0.603616,-0.700702 -0.102793,-0.814348 c -0.21603,-1.710871 -0.07873,-3.513435 0.405047,-5.317546 l 0.236218,-0.881046 -0.196924,-0.656313 c -0.258258,-0.860736 -1.073151,-2.284935 -1.683075,-2.941659 -1.579213,-1.700333 -3.336986,-2.395119 -4.781181,-1.889874 -0.619858,0.217043 -1.023281,0.5196 -1.611578,1.20937 -0.415277,0.486933 -0.515182,0.551857 -0.849415,0.551857 -0.540097,0 -0.91105,-0.444159 -0.911588,-1.091464 -3.42e-4,-0.440017 0.0373,-0.506638 0.719585,-1.276561 0.699759,-0.789514 0.714464,-0.816423 0.524043,-0.959125 -1.45597,-1.09101 -2.327153,-1.520663 -3.459356,-1.706212 -2.415454,-0.395777 -4.29858,1.092557 -5.059209,3.998572 -0.314038,1.199762 -0.203526,2.332563 0.323504,3.316071 0.125112,0.23325 0.172894,0.385753 0.106146,0.338383 -0.06671,-0.04747 0.08138,0.164686 0.329093,0.471065 0.422591,0.522726 0.669906,0.758204 0.412308,0.392535 -0.06374,-0.09043 0.09794,0.0034 0.359302,0.212153 0.567706,0.450038 1.594092,0.850034 2.646594,1.031321 0.76826,0.132273 2.813843,0.08065 3.597409,-0.09081 0.351233,-0.07688 0.364649,-0.0957 0.435776,-0.614255 0.234193,-1.706816 0.782148,-2.330041 1.606926,-1.827548 0.435801,0.265278 0.516886,0.682686 0.319871,1.645845 -0.254556,1.244602 -0.220746,2.740661 0.08596,3.806425 0.381023,1.323927 0.292662,1.86606 -0.344496,2.113784 -0.506984,0.197448 -0.918772,-0.06972 -1.19076,-0.771205 -0.230735,-0.595188 -0.501585,-1.702443 -0.501585,-2.050438 0,-0.169192 -0.04363,-0.192174 -0.250434,-0.13339 -0.374977,0.107019 -3.629571,0.207996 -3.819597,0.119069 -0.09064,-0.04258 -0.349211,-0.09497 -0.574588,-0.11645 -0.622149,-0.05952 -1.430587,-0.337265 -2.157042,-0.740716 -0.830216,-0.461228 -1.2322,-0.7839 -1.815512,-1.457205 -0.409445,-0.472612 -0.542727,-0.557323 -1.092858,-0.694635 -1.778062,-0.443782 -3.504563,0.140934 -4.875832,1.651196 -1.144394,1.260469 -1.782092,2.895648 -1.850757,4.74577 -0.0248,0.671873 -0.08778,1.055327 -0.224728,1.371632 -0.226822,0.523743 -0.641031,2.29228 -0.643322,2.746653 -10e-4,0.17712 -0.03353,0.381606 -0.07321,0.454637 -0.08327,0.154487 0.02375,1.661934 0.173487,2.44222 0.412861,2.152141 1.820974,3.796855 3.771396,4.405086 1.209213,0.377083 3.50624,0.292033 3.50624,-0.129269 0,-0.08893 0.119769,-0.302582 0.266222,-0.47521 0.196785,-0.231748 0.352704,-0.313899 0.597947,-0.313899 0.631287,0 0.883471,0.353081 0.996544,1.394769 0.119384,1.09994 0.904602,2.841915 1.644333,3.647862 0.51968,0.566174 0.644038,1.260544 0.314248,1.754483 -0.225706,0.337999 -0.675268,0.500795 -1.011681,0.366269 -0.527075,-0.211 -1.774322,-2.104964 -2.2651,-3.439932 l -0.223714,-0.608528 -0.455364,0.07876 c -0.250434,0.04335 -1.049592,0.07649 -1.775883,0.07272 -1.065816,-0.0034 -1.46985,-0.05239 -2.094639,-0.246453 -1.595064,-0.495675 -3.052154,-1.60564 -3.852084,-2.934352 -0.929991,-1.544743 -1.327287,-2.908761 -1.404049,-4.820416 -0.06371,-1.587061 0.07185,-2.691529 0.528155,-4.302516 0.196086,-0.692372 0.356549,-1.424388 0.356549,-1.62674 0,-0.202338 0.06088,-0.742979 0.135346,-1.201382 0.07447,-0.458407 0.121445,-0.849849 0.10447,-0.869856 -0.01746,-0.01886 -0.313549,0.04146 -0.659026,0.136778 -0.920191,0.253613 -2.870389,0.16996 -3.678995,-0.158259 -2.581833,-1.046699 -4.342606,-3.934471 -5.178285,-8.492849 -0.221444,-1.208204 -0.408407,-3.300053 -0.363332,-4.066361 l 0.03213,-0.541189 -0.390891,7.3e-5 c -1.231396,2.27e-4 -3.000446,0.816161 -3.957758,1.825477 -0.288017,0.303351 -0.523666,0.590707 -0.523666,0.637811 0,0.04712 0.124868,0.146593 0.277538,0.2212 0.4809,0.234751 0.665806,0.907008 0.409822,1.490178 -0.154173,0.351198 -0.447122,0.503774 -1.142683,0.595342 -2.177887,0.286759 -4.14082,2.435286 -4.593477,5.02801 -0.152636,0.874414 -0.141808,2.26089 0.02166,2.758374 0.04789,0.145824 0.181731,0.554605 0.297622,0.908667 0.344391,1.05269 0.805085,1.884146 1.499406,2.706035 0.651255,0.770897 0.654905,0.778477 0.716529,1.487087 0.0832,0.956714 0.519488,2.517776 0.940536,3.365284 0.433097,0.871703 1.341304,2.020292 2.012492,2.54517 1.174072,0.918084 2.655274,1.440475 4.518072,1.593352 0.829482,0.06822 0.926033,0.09948 1.161162,0.376444 0.441205,0.519751 0.333633,1.335307 -0.22064,1.673016 -0.55646,0.338768 -3.171892,-0.03769 -4.571704,-0.658383 -2.487346,-1.102997 -4.233369,-3.191793 -5.155617,-6.167784 l -0.249351,-0.804665 -0.73145,-0.03004 c -1.299729,-0.05501 -2.58724,0.457314 -3.0857268,1.228176 -0.5083326,0.786126 -0.6338885,0.89499 -1.0318799,0.89499 -0.7038809,0 -1.1378412,-0.886132 -0.8047357,-1.643205 0.6090023,-1.384182 2.2531957,-2.455751 4.0132524,-2.615672 0.390726,-0.03388 0.710413,-0.09459 0.710413,-0.13112 0,-0.03769 -0.179112,-0.348547 -0.397988,-0.693504 -1.273628,-2.006132 -1.850276,-4.740842 -1.4927,-7.079209 0.109814,-0.717922 0.407425,-1.76771 0.597357,-2.106886 0.0826,-0.147326 0.151308,-0.298425 0.152601,-0.334995 0.0014,-0.03769 0.142646,-0.326717 0.314143,-0.643727 0.398389,-0.736986 1.763005,-2.322654 2.289164,-2.660021 0.349351,-0.224203 0.385802,-0.231363 0.267794,-0.05351 -0.07513,0.113063 0.01851,0.049 0.208066,-0.14282 0.18959,-0.19179 0.376965,-0.348548 0.416413,-0.348548 0.08529,0 0.559436,-0.831909 0.559436,-0.981583 0,-0.0569 0.03814,-0.07649 0.08474,-0.04219 0.04666,0.03388 0.11439,0.0034 0.15068,-0.06406 0.04118,-0.07838 0.02655,-0.09686 -0.03926,-0.049 -0.183931,0.134158 -0.114494,-0.05313 0.217287,-0.585692 0.386039,-0.619571 1.535532,-1.897222 1.965493,-2.184625 l 0.307647,-0.205377 -0.17981,0.259621 c -0.09892,0.142436 -0.01746,0.08215 0.182115,-0.134159 0.622079,-0.67598 1.961745,-1.196258 3.631908,-1.410521 l 0.993148,-0.127348 0.154941,-0.536404 c 0.874298,-3.026975 2.858796,-5.184845 5.5998,-6.089031 0.998629,-0.329337 2.880595,-0.378516 3.869073,-0.100977 0.424949,0.11907 0.799389,0.197832 0.832078,0.173697 0.03283,-0.0227 0.08816,-0.223819 0.123296,-0.444198 0.228988,-1.438065 1.005687,-3.549247 1.822898,-4.955018 l 0.507016,-0.872202 -0.253089,-0.113411 c -0.714943,-0.320675 -1.499957,-0.460401 -2.620928,-0.466846 -1.009358,-0.0077 -1.29033,0.03004 -1.905571,0.255849 -1.160569,0.422304 -2.408744,1.516028 -2.947041,2.582473 -0.290986,0.576463 -0.603414,0.868385 -0.995775,0.93041 -0.311279,0.04897 -0.393276,0.01502 -0.646452,-0.285258 -0.402843,-0.474606 -0.396424,-0.975516 0.022,-1.707793 0.171497,-0.300347 0.284245,-0.565046 0.250435,-0.588371 -0.03353,-0.0227 -0.36868,-0.102863 -0.744234,-0.176352 -2.089369,-0.409982 -4.432124,0.54805 -6.116847,2.501343 -0.891892,1.034038 -1.548379,2.374958 -1.902822,3.886544 -0.160634,0.685135 -0.208416,1.230397 -0.239432,2.733425 -0.02166,1.03268 -0.0832,2.012607 -0.137547,2.177691 -0.105378,0.320291 -0.487582,0.611846 -0.801714,0.611846 -0.258922,0 -0.703888,-0.28187 -0.808386,-0.511647 -0.163917,-0.360996 -0.214423,-2.092831 -0.09766,-3.350814 0.184281,-1.985287 0.205622,-1.853248 -0.323399,-1.99938 -0.737736,-0.203876 -2.106966,-0.17485 -2.889298,0.06105 -2.7235026,0.820565 -5.1290265,3.953728 -5.7699321,7.515147 -0.1329013,0.738645 -0.1689471,2.101874 -0.070764,2.680031 0.04862,0.286375 0.090464,0.333109 0.2504343,0.279983 0.6546637,-0.217427 2.1094038,-0.312012 3.0018823,-0.194444 1.0873975,0.143205 1.3878695,0.274709 1.5684345,0.685931 0.214248,0.488134 0.163952,0.926264 -0.14855,1.29442 l -0.278306,0.327835 -0.700706,-0.09497 c -0.3853893,-0.05239 -1.1310162,-0.08893 -1.6569526,-0.08215 -0.8272468,0.01118 -1.0668184,0.05878 -1.7758931,0.355341 -0.4507956,0.188786 -0.8883465,0.35007 -0.9723241,0.359113 -0.084002,0.01118 -0.1354161,0.049 -0.1143545,0.08931 0.020957,0.04031 -0.012923,0.09609 -0.074991,0.124728 -0.3634091,0.166187 -1.3042455,1.154956 -1.7345174,1.822644 -1.7704758,2.747449 -2.3885978,6.694693 -1.5245053,9.735269 0.2019191,0.710461 0.235974,0.947556 0.1542423,1.072924 -0.090044,0.13828 -0.083478,0.141319 0.046769,0.01886 0.1305611,-0.120188 0.1608437,-0.105134 0.2169382,0.107404 0.1219688,0.46206 0.8402156,1.66574 1.4434094,2.419009 0.5174942,0.646288 0.6013181,0.80621 0.6013181,1.147311 0,0.21816 -0.042193,0.489226 -0.093747,0.602764 -0.1420874,0.312746 -0.6168821,0.561538 -0.9307143,0.487606 -0.26947,-0.06367 -0.2703782,-0.06217 -0.2081713,0.338383 0.09462,0.608454 0.4943684,1.93272 0.8014699,2.655089 1.2520839,2.945239 3.2357362,4.695687 6.0801907,5.365489 0.90295,0.212921 3.549177,0.346311 3.549177,0.179006 0,-0.06671 -0.08184,-0.279599 -0.181835,-0.472535 -0.262904,-0.508071 -0.242261,-1.16359 0.04743,-1.504876 0.272614,-0.321443 0.527494,-0.395022 0.934609,-0.270937 0.227556,0.06933 0.37862,0.238524 0.62999,0.704244 0.767524,1.422463 2.076243,2.571321 3.598716,3.15916 0.725927,0.279984 1.022407,0.333878 2.101629,0.379124 2.56942,0.107753 4.174616,-0.501477 5.500332,-2.08835 0.920742,-1.102165 1.321867,-1.224218 1.804154,-0.548992 0.285921,0.400335 0.299158,0.954755 0.03318,1.394695 l -0.194095,0.321059 0.523177,0.573634 c 1.325136,1.452875 3.062696,1.977788 4.807045,1.452197 0.660605,-0.19895 1.615157,-0.625977 1.615157,-0.722368 0,-0.0227 -0.06594,-0.195946 -0.146593,-0.37972 -0.120816,-0.275478 -0.128361,-0.405802 -0.04289,-0.741813 0.131889,-0.518469 0.3989,-0.737517 0.899164,-0.737517 0.37328,0 0.430785,0.04373 1.004294,0.764722 0.706668,0.888319 1.366344,1.443494 2.411011,2.028961 1.93833,1.086263 4.777231,1.536793 7.092776,1.125603 z M 22.64873,48.420189 c -0.35832,-0.229478 -0.475193,-0.680804 -0.424048,-1.637858 0.06427,-1.202287 0.3981,-2.148561 1.207023,-3.421316 0.160634,-0.25246 -0.228988,-0.901056 -1.318021,-2.19299 -1.560128,-1.850835 -3.360188,-3.177249 -5.875275,-4.329343 -1.180537,-0.540739 -1.502675,-0.83191 -1.502675,-1.358255 0,-0.737363 0.516052,-1.26725 1.100161,-1.129636 0.664541,0.156757 3.012165,1.380902 4.215276,2.198267 1.770357,1.202852 3.651904,3.091783 4.502476,4.520163 0.228919,0.384436 0.428096,0.717999 0.442612,0.741247 0.01467,0.0227 0.317252,-0.111176 0.672725,-0.298426 0.355495,-0.187284 0.826416,-0.369661 1.046508,-0.405081 0.369434,-0.0599 0.424865,-0.03388 0.721792,0.314282 0.370227,0.43621 0.413349,0.811977 0.151204,1.318388 -0.127837,0.247186 -0.329617,0.397433 -0.817122,0.609432 -1.704409,0.741359 -2.606957,2.006729 -2.723236,3.817959 -0.04555,0.709707 -0.08694,0.861794 -0.304189,1.117695 -0.284559,0.335379 -0.702361,0.386842 -1.095264,0.134892 z m 29.699394,-2.669144 c 0,-0.0227 -0.07171,-0.107019 -0.159342,-0.187668 -0.144427,-0.13339 -0.14764,-0.130002 -0.03423,0.04069 0.119,0.178622 0.193711,0.23552 0.193711,0.146977 z m 31.692754,-1.176702 c 0,-0.01886 -0.09221,-0.128884 -0.205027,-0.241527 l -0.205028,-0.204609 0.173592,0.241562 c 0.163114,0.226858 0.236463,0.290532 0.236463,0.204609 z M 73.704301,38.388551 c 0.09081,-0.117952 0.144253,-0.214423 0.119454,-0.214423 -0.02445,0 -0.119803,0.09647 -0.210267,0.214423 -0.09081,0.117952 -0.144253,0.214423 -0.119454,0.214423 0.02445,0 0.119803,-0.09647 0.210267,-0.214423 z M 31.221845,37.592663 c 0.326822,-0.08177 0.940183,-0.305621 1.363068,-0.497703 0.681272,-0.309743 0.836667,-0.434516 1.363839,-1.096969 1.436074,-1.804523 3.10433,-2.72996 5.116309,-2.838146 l 1.060646,-0.0569 -0.04789,-0.870872 -0.04789,-0.870876 0.307787,0.321793 0.307786,0.321792 -0.312362,-0.400297 -0.312362,-0.400261 0.148549,-0.806399 c 0.159657,-0.866876 0.744366,-2.445272 1.121712,-3.028064 l 0.231922,-0.358358 -0.178447,-0.346312 c -0.542632,-1.052879 -1.017804,-3.457341 -1.017804,-5.150325 0,-3.055801 1.067119,-6.194423 2.854353,-8.395255 0.523372,-0.644475 0.592624,-0.694782 0.956578,-0.694782 0.545133,0 0.92477,0.438169 0.92477,1.067346 0,0.389636 -0.0628,0.519715 -0.547574,1.133559 -1.837503,2.326911 -2.668313,5.403435 -2.239693,8.293586 0.143869,0.969938 0.456384,2.242804 0.591238,2.407965 0.03653,0.04485 0.289449,-0.0599 0.56202,-0.232481 0.946485,-0.598957 1.735293,-0.811788 3.000077,-0.809262 1.310906,0.0024 2.185851,0.228359 3.385106,0.874413 0.554368,0.298426 0.708649,0.427995 0.666319,0.559055 -0.04275,0.132273 -0.03039,0.142053 0.05417,0.04296 0.125706,-0.146942 0.74549,0.278866 1.690312,1.1611 l 0.559342,0.522387 h 0.855895 c 0.473065,0 1.094296,0.0731 1.388883,0.163534 0.293116,0.09004 0.540697,0.150365 0.550124,0.134158 0.0098,-0.01886 0.06549,-0.473212 0.124623,-1.01561 0.215332,-1.97594 0.929321,-3.945209 1.999181,-5.513846 0.917351,-1.344989 2.222592,-2.565966 2.743094,-2.565966 0.645949,0 1.131557,0.940131 0.82929,1.605524 -0.04914,0.108138 -0.350105,0.415861 -0.668852,0.683819 -1.830814,1.539091 -2.946961,4.000116 -3.122807,6.885555 l -0.05892,0.967186 0.638513,0.559394 c 0.780317,0.683591 1.462965,1.547191 2.030641,2.568945 l 0.428445,0.77109 0.293186,-0.4809 c 1.042593,-1.71032 2.587919,-3.075169 4.125085,-3.643417 0.472996,-0.17485 0.579701,-0.274709 1.075994,-1.005436 0.810122,-1.193094 1.402956,-2.433215 1.785523,-3.735096 0.333214,-1.134121 0.338802,-1.18096 0.342994,-2.81633 0.0035,-1.949147 -0.138665,-2.631533 -0.829542,-3.944343 -1.637385,-3.110885 -5.801533,-5.623684 -9.761884,-5.890625 -2.308204,-0.15564 -3.879844,0.480184 -5.390539,2.180517 -1.208054,1.359725 -1.961092,2.929753 -2.413945,5.032834 -0.26699,1.239971 -0.278726,1.53423 -0.06451,1.617282 0.08767,0.03388 0.542694,0.280752 1.011195,0.54873 0.876509,0.501022 1.196196,0.872116 1.196939,1.389379 6.85e-4,0.587539 -0.433038,1.104765 -0.92677,1.104765 -0.11418,0 -0.57726,-0.217043 -1.029076,-0.483122 -1.091198,-0.641726 -1.684472,-0.804327 -2.933818,-0.804327 -0.993874,0 -1.035805,-0.01118 -1.309833,-0.298076 -0.3351,-0.352704 -0.393235,-0.906108 -0.142542,-1.356746 0.209708,-0.377048 0.494117,-0.492318 1.400637,-0.567682 0.703377,-0.0584 0.752511,-0.07838 0.752511,-0.303351 0,-0.605743 0.567501,-2.818062 0.990483,-3.861221 0.60895,-1.501823 1.236363,-2.543584 2.163162,-3.591789 l 0.769702,-0.870652 -0.3278,-0.526045 c -0.665187,-1.0675727 -2.10043,-2.0633265 -3.491982,-2.4227014 -0.989851,-0.2558481 -2.47998,-0.30108 -3.54888,-0.107788 -4.301091,0.7767792 -7.909346,4.3951764 -9.064054,9.0894324 -0.586858,2.385811 -0.533289,4.739365 0.169471,7.44525 l 0.222911,0.858325 0.641726,0.304468 c 0.835386,0.39634 1.275287,0.874452 1.275287,1.386177 0,0.210267 -0.07611,0.488549 -0.171706,0.627559 -0.15295,0.222317 -0.190254,0.232866 -0.341527,0.09759 -0.141179,-0.126614 -0.15061,-0.126614 -0.05599,-0.002 0.176247,0.232866 0.138839,0.307123 -0.192174,0.379986 -0.234647,0.05201 -0.431061,-0.0077 -0.842402,-0.248338 -1.1665,-0.687322 -2.353512,-0.945597 -3.494332,-0.760199 -0.857023,0.139048 -1.577907,0.482444 -2.48172,1.181487 -0.626114,0.484253 -0.748449,0.540701 -1.049697,0.484176 -0.466052,-0.08742 -0.750806,-0.490243 -0.750806,-1.06211 0,-0.387258 0.05194,-0.49944 0.415979,-0.89887 0.537595,-0.589802 1.853671,-1.387947 2.717952,-1.648371 0.373618,-0.112294 1.030308,-0.238139 1.459295,-0.279599 0.428986,-0.04069 0.779486,-0.104016 0.778892,-0.140166 -6.85e-4,-0.03769 -0.06158,-0.331223 -0.135521,-0.65582 -0.161926,-0.710612 -0.159586,-0.673116 -0.03618,-0.583208 0.05529,0.04031 0.03618,-0.04219 -0.04212,-0.183128 -0.151064,-0.271705 -0.329616,-1.77634 -0.330803,-2.788632 -6.85e-4,-0.575294 -0.01327,-0.607288 -0.251203,-0.656802 -0.137721,-0.02654 -0.516831,-0.136778 -0.842413,-0.240025 -0.781739,-0.248339 -2.230971,-0.173733 -3.14195,0.161647 -2.08632,0.768602 -3.569534,2.514534 -4.237512,4.988067 -0.279879,1.036336 -0.351876,3.434693 -0.148374,4.942887 0.500756,3.711921 1.792218,6.525234 3.449653,7.514655 0.951409,0.56802 2.23746,0.727152 3.442947,0.426034 z M 74.4329,37.530106 c 0.09081,-0.117952 0.144253,-0.214423 0.119454,-0.214423 -0.02445,0 -0.119803,0.09647 -0.210267,0.214423 -0.09081,0.117952 -0.144252,0.214424 -0.119454,0.214424 0.02445,0 0.119804,-0.09647 0.210267,-0.214424 z m -32.142407,-2.065281 0.267514,-0.348547 -0.29598,0.315016 c -0.275897,0.29392 -0.33786,0.382249 -0.267514,0.382249 0.01572,0 0.148898,-0.156757 0.29598,-0.348547 z M 11.924147,32.943472 c 0.113272,-0.170309 0.110023,-0.174081 -0.03423,-0.04069 -0.08767,0.08103 -0.159376,0.165419 -0.159376,0.187669 0,0.08816 0.07482,0.03004 0.193711,-0.146943 z m 67.608705,-1.421558 c 0.09081,-0.117952 0.144253,-0.214423 0.119454,-0.214423 -0.02445,0 -0.119803,0.09647 -0.210267,0.214423 -0.09081,0.117952 -0.144253,0.214423 -0.119454,0.214423 0.02445,0 0.119804,-0.09647 0.210267,-0.214423 z m -66.333708,-0.08027 c 0.113271,-0.16996 0.110058,-0.173697 -0.03423,-0.04069 -0.08767,0.08103 -0.159377,0.165804 -0.159377,0.187669 0,0.08819 0.07478,0.03004 0.193746,-0.146943 z m 67.062308,-0.777837 c 0.09081,-0.117952 0.144253,-0.214424 0.119454,-0.214424 -0.02445,0 -0.119803,0.09647 -0.210267,0.214424 -0.09081,0.117952 -0.144253,0.214423 -0.119454,0.214423 0.02445,0 0.119803,-0.09647 0.210267,-0.214423 z m -63.203403,-3.75518 c 0.09064,-0.117952 0.144358,-0.214423 0.119314,-0.214423 -0.02515,0 -0.119698,0.09647 -0.210372,0.214423 -0.09067,0.117952 -0.144357,0.214424 -0.119314,0.214424 0.02515,0 0.119699,-0.09647 0.210372,-0.214424 z m 32.603475,-0.107019 c 0.09067,-0.117952 0.144357,-0.214424 0.119314,-0.214424 -0.02515,0 -0.119733,0.09647 -0.210372,0.214424 -0.09064,0.117952 -0.144357,0.214423 -0.119314,0.214423 0.02515,0 0.119698,-0.09647 0.210372,-0.214423 z m 0.546428,-0.643725 c 0.09067,-0.117952 0.144358,-0.214423 0.119315,-0.214423 -0.02515,0 -0.119734,0.09647 -0.210372,0.214423 -0.09064,0.117952 -0.144358,0.214424 -0.119314,0.214424 0.02515,0 0.119733,-0.09647 0.210371,-0.214424 z m 17.804401,-0.466206 c 0,-0.01886 -0.09221,-0.128884 -0.205028,-0.241178 l -0.205027,-0.204608 0.173592,0.241178 c 0.163114,0.226858 0.236463,0.290532 0.236463,0.204608 z M 33.769606,23.864249 c 0,-0.01886 -0.07171,-0.107019 -0.159376,-0.187668 -0.144428,-0.13339 -0.147641,-0.129618 -0.03423,0.04069 0.119,0.178622 0.193711,0.23552 0.193711,0.146977 z"
       id="path570" />
  </g>
</svg>
