<?xml version="1.0" encoding="UTF-8" standalone="no"?>
<svg
   xmlns:dc="http://purl.org/dc/elements/1.1/"
   xmlns:cc="http://creativecommons.org/ns#"
   xmlns:rdf="http://www.w3.org/1999/02/22-rdf-syntax-ns#"
   xmlns:svg="http://www.w3.org/2000/svg"
   xmlns="http://www.w3.org/2000/svg"
   xmlns:sodipodi="http://sodipodi.sourceforge.net/DTD/sodipodi-0.dtd"
   xmlns:inkscape="http://www.inkscape.org/namespaces/inkscape"
   width="25mm"
   height="28mm"
   viewBox="0 0 25 28"
   version="1.1"
   id="svg8"
   inkscape:version="1.0.1 (3bc2e813f5, 2020-09-07)"
   sodipodi:docname="cultura.svg">
  <defs
     id="defs2" />
  <sodipodi:namedview
     id="base"
     pagecolor="#ffffff"
     bordercolor="#666666"
     borderopacity="1.0"
     inkscape:pageopacity="0.0"
     inkscape:pageshadow="2"
     inkscape:zoom="0.35"
     inkscape:cx="400"
     inkscape:cy="560"
     inkscape:document-units="mm"
     inkscape:current-layer="layer1"
     inkscape:document-rotation="0"
     showgrid="false"
     inkscape:window-width="1258"
     inkscape:window-height="728"
     inkscape:window-x="92"
     inkscape:window-y="0"
     inkscape:window-maximized="0" />
  <metadata
     id="metadata5">
    <rdf:RDF>
      <cc:Work
         rdf:about="">
        <dc:format>image/svg+xml</dc:format>
        <dc:type
           rdf:resource="http://purl.org/dc/dcmitype/StillImage" />
        <dc:title></dc:title>
      </cc:Work>
    </rdf:RDF>
  </metadata>
  <g
     inkscape:label="Capa 1"
     inkscape:groupmode="layer"
     id="layer1">
    <path
       style="fill:#453748;stroke-width:0.0398566"
       d="M 12.795733,25.97041 C 9.7437227,25.87121 7.7940427,25.40799 6.6172727,24.5025 c -0.27217,-0.20944 -0.56388,-0.52635 -0.70301,-0.76376 -0.0838,-0.14298 -0.12154,-0.17234 -0.22157,-0.17234 -0.15297,0 -1.15227,-0.14558 -1.54583,-0.2252 -0.45909,-0.0929 -1.13721,-0.32341 -1.53448,-0.52167 -0.8749,-0.43662 -1.38673,-0.97728 -1.61024,-1.7009 -0.0716,-0.23192 -0.0837,-0.37236 -0.0837,-0.97666 0,-2.51524 0.92877,-4.9175 2.54942,-6.59407 0.59154,-0.61195 1.59386,-1.31811 2.19168,-1.5441 1.3769,-0.5205 2.74572,-0.31551 4.01911,0.60186 l 0.3305503,0.23814 0.15102,-0.0953 c 0.27202,-0.17172 0.93545,-0.48869 1.24049,-0.59267 0.84687,-0.28869 1.66078,-0.3291 2.49103,-0.12368 0.49008,0.12125 1.21239,0.43616 1.6775,0.73132 0.0749,0.0475 0.11284,0.0329 0.37863,-0.14599 0.93679,-0.63048 1.67171,-0.88844 2.53114,-0.88844 0.99823,0 1.7983,0.28321 2.68655,0.95099 2.24837,1.69032 3.49146,4.19076 3.61007,7.26156 0.0288,0.74632 -0.0108,1.0182 -0.22235,1.52641 -0.20652,0.49608 -0.38565,0.73501 -0.74069,0.98797 -0.81611,0.58146 -1.86669,0.92382 -3.36555,1.09674 l -0.57902,0.0668 -0.15832,0.27854 c -0.20462,0.35999 -0.41399,0.57255 -0.83296,0.84565 -1.04626,0.68198 -2.67609,1.08205 -4.94514,1.21385 -0.37266,0.0216 -0.70447,0.0359 -0.73735,0.0316 -0.0329,-0.004 -0.21223,-0.0127 -0.39856,-0.0187 z m 3.65575,-3.60904 2.64074,-2.64113 -0.12115,-0.47828 c -0.18592,-0.73394 -0.27771,-1.0226 -0.32061,-1.0083 -0.0573,0.0191 -6.73158,6.69521 -6.73158,6.7334 0,0.0343 1.19774,0.0696 1.63345,0.0481 l 0.2584,-0.0127 z m -1.96274,-1.26519 3.78532,-3.78547 -0.13167,-0.26993 c -0.19318,-0.396 -0.53697,-0.96974 -0.57374,-0.95748 -0.0175,0.006 -1.94152,1.91991 -4.27555,4.2535 -3.13991,3.13929 -4.2288103,4.25121 -4.1864503,4.27491 0.0677,0.0379 1.3039703,0.26066 1.4771203,0.26616 0.10723,0.003 0.51233,-0.38891 3.90497,-3.78169 z m 1.43673,3.6474 c 1.22833,-0.21661 2.20001,-0.58101 2.68828,-1.00813 0.22397,-0.19593 0.439,-0.57761 0.59888,-1.06301 0.0857,-0.26028 0.0898,-0.3206 0.07,-1.04827 -0.0115,-0.42465 -0.0292,-0.78037 -0.0394,-0.7905 -0.0127,-0.0127 -3.46178,3.41736 -4.01299,3.99086 -0.0349,0.0363 0.15723,0.0139 0.69517,-0.081 z m -3.33481,-4.97287 4.46166,-4.47325 -0.11266,-0.14014 c -0.062,-0.0771 -0.27555,-0.30137 -0.47463,-0.49841 l -0.36198,-0.35826 -4.58543,4.58305 -4.5854403,4.58306 0.25142,0.23153 c 0.20918,0.19263 0.79978,0.54372 0.91727,0.54529 0.0155,1.5e-4 2.0358903,-2.01258 4.4897903,-4.47287 z m -1.64808,-1.55802 c 2.41122,-2.42939 4.38939,-4.4318 4.39593,-4.44981 0.0173,-0.0477 -0.52836,-0.36965 -0.91327,-0.53889 l -0.33163,-0.1458 -3.79366,3.7993 -3.7936603,3.79931 -0.0338,0.23914 c -0.0186,0.13152 -0.0337,0.52611 -0.0335,0.87684 2.91e-4,0.60983 0.029,0.8775 0.091,0.84978 0.0157,-0.007 2.00142,-2.00047 4.4126403,-4.42987 z m -5.4605303,3.66978 c 0,-0.79364 0.0474,-1.24906 0.22494,-2.16223 0.48439,-2.4911 1.46045,-4.39327 3.02197,-5.8893 l 0.48038,-0.46022 -0.25373,-0.16025 c -0.90948,-0.57439 -1.89903,-0.71187 -2.80504,-0.38971 -0.78272,0.27831 -1.73323,0.99104 -2.41784,1.81296 -1.13565,1.36342 -1.82251,3.26049 -1.88625,5.20975 -0.032,0.97983 0.0413,1.2337 0.48244,1.67118 0.46534,0.46142 1.19199,0.74194 2.57521,0.99414 0.27402,0.05 0.51614,0.0931 0.53807,0.096 0.0253,0.003 0.0399,-0.26051 0.0399,-0.72227 z m 7.4437803,-9.07049 c -0.51414,-0.0448 -1.38512,0.18207 -2.01318,0.52452 -1.8734803,1.0215 -3.3881503,3.11467 -4.1147203,5.68625 -0.0171,0.0604 1.2143,-1.14108 3.12489,-3.04902 L 13.075873,12.82506 Z M 6.5382527,10.95097 c -1.9316,-0.30164 -3.28911,-2.2807905 -2.86874,-4.1824105 0.31518,-1.42574 1.57277,-2.54439 3.07734,-2.73734 0.71356,-0.0915 1.50494,0.0968 2.21192,0.52629 0.14191,0.0862 0.26963,0.15636 0.28383,0.15589 0.0142,-4.5e-4 0.0975,-0.10089 0.18511,-0.22315 0.20588,-0.28732 0.7309603,-0.79058 1.0530803,-1.00933 0.53315,-0.36206 1.27635,-0.63762 1.94313,-0.72048 0.79632,-0.099 1.69814,0.10899 2.4842,0.57282 0.39216,0.23139 1.0237,0.832 1.25029,1.18904 0.0791,0.1246 0.15813,0.23542 0.17569,0.24627 0.0176,0.0109 0.11193,-0.0351 0.20971,-0.10216 0.27629,-0.18943 0.78187,-0.41519 1.15427,-0.51543 0.44241,-0.11907 1.19428,-0.12846 1.61419,-0.0201 0.623,0.16071 1.4426,0.65637 1.82767,1.1053 0.39057,0.45533 0.68591,1.05376 0.7819,1.58426 0.0667,0.36855 0.06,1.09277 -0.0131,1.42576 -0.23823,1.08505 -0.89003,1.9370305 -1.83923,2.4040705 -1.01264,0.49825 -2.16322,0.4902 -3.17941,-0.0222 -0.27489,-0.13863 -0.46341,-0.2847 -0.83392,-0.6461405 l -0.30666,-0.29917 -0.13176,0.10717 c -0.66741,0.5429105 -1.19266,0.8354405 -1.76587,0.9835005 -0.45195,0.11674 -1.16998,0.14408 -1.66141,0.0633 -0.81502,-0.13402 -1.63121,-0.52564 -2.18955,-1.0505805 l -0.1443003,-0.13566 -0.15284,0.18652 c -0.33493,0.4087505 -1.01082,0.8375605 -1.59321,1.0108105 -0.28536,0.0849 -0.84508,0.16683 -1.09304,0.16002 -0.0773,-0.002 -0.293,-0.0277 -0.47933,-0.0568 z m 1.18442,-0.93513 c 0.56301,-0.1564405 1.06076,-0.4945205 1.41833,-0.9633105 l 0.10889,-0.14276 -0.16008,-0.33411 c -0.26532,-0.55371 -0.3703,-1.03019 -0.37218,-1.68922 -10e-4,-0.388 0.0191,-0.64906 0.0665,-0.85691 l 0.0681,-0.29893 -0.17052,-0.1515 c -0.2014,-0.17894 -0.72296,-0.43861 -1.01539,-0.50553 -1.19753,-0.27406 -2.56956,0.51369 -2.98742,1.71524 -0.11795,0.33918 -0.16198,0.87119 -0.0996,1.20325 0.18943,1.00784 1.00664,1.86635 1.95897,2.0579405 0.12057,0.0243 0.25508,0.0522 0.29892,0.0622 0.14635,0.0333 0.59461,-0.0155 0.8855,-0.0964 z M 13.572933,9.8773295 c 0.7281,-0.19332 1.39691,-0.66746 1.82137,-1.29123 0.37666,-0.55353 0.55009,-1.11275 0.55009,-1.77373 0,-0.39468 -0.0641,-0.90241 -0.11385,-0.90241 -0.0492,0 -3.92806,3.90282 -3.90337,3.9275 0.0136,0.0136 0.1563,0.0498 0.31711,0.0803 0.35668,0.0678 0.99385,0.0484 1.32865,-0.0405 z m -0.66667,-2.30165 c 1.00238,-1.00195 1.97294,-1.97332 2.15681,-2.1586 l 0.3343,-0.33688 -0.18865,-0.24013 c -0.20928,-0.26638 -0.71923,-0.6941 -0.80559,-0.67569 -0.0305,0.006 -1.01344,0.97024 -2.18437,2.14165 l -2.12896,2.12982 0.0676,0.11998 c 0.10668,0.18936 0.79454,0.8695 0.8644,0.8547 0.0341,-0.007 0.88209,-0.8329 1.88447,-1.83485 z m -1.29131,-1.93476 c 1.20737,-1.21477 1.83471,-1.87301 1.80241,-1.89122 -0.10217,-0.0576 -0.7637,-0.0798 -1.0202,-0.0343 -1.62301,0.28822 -2.7118603,1.52647 -2.7162103,3.08888 -9e-4,0.30614 0.0377,0.69989 0.0685,0.69989 0.007,0 0.8469603,-0.83848 1.8655403,-1.86329 z"
       id="path2050" />
  </g>
</svg>
