<?xml version="1.0" encoding="UTF-8" standalone="no"?>
<!-- Created with Inkscape (http://www.inkscape.org/) -->

<svg
   xmlns:dc="http://purl.org/dc/elements/1.1/"
   xmlns:cc="http://creativecommons.org/ns#"
   xmlns:rdf="http://www.w3.org/1999/02/22-rdf-syntax-ns#"
   xmlns:svg="http://www.w3.org/2000/svg"
   xmlns="http://www.w3.org/2000/svg"
   xmlns:sodipodi="http://sodipodi.sourceforge.net/DTD/sodipodi-0.dtd"
   xmlns:inkscape="http://www.inkscape.org/namespaces/inkscape"
   width="61mm"
   height="46mm"
   viewBox="0 0 61 46"
   version="1.1"
   id="svg8"
   inkscape:version="0.92.4 (5da689c313, 2019-01-14)"
   sodipodi:docname="cursovirtual.svg">
  <defs
     id="defs2" />
  <sodipodi:namedview
     id="base"
     pagecolor="#ffffff"
     bordercolor="#666666"
     borderopacity="1.0"
     inkscape:pageopacity="0.0"
     inkscape:pageshadow="2"
     inkscape:zoom="0.35"
     inkscape:cx="42.857143"
     inkscape:cy="560"
     inkscape:document-units="mm"
     inkscape:current-layer="layer1"
     showgrid="false"
     inkscape:window-width="1366"
     inkscape:window-height="705"
     inkscape:window-x="-8"
     inkscape:window-y="-8"
     inkscape:window-maximized="1" />
  <metadata
     id="metadata5">
    <rdf:RDF>
      <cc:Work
         rdf:about="">
        <dc:format>image/svg+xml</dc:format>
        <dc:type
           rdf:resource="http://purl.org/dc/dcmitype/StillImage" />
        <dc:title></dc:title>
      </cc:Work>
    </rdf:RDF>
  </metadata>
  <g
     inkscape:label="Capa 1"
     inkscape:groupmode="layer"
     id="layer1"
     transform="translate(0,-251)">
    <path
       inkscape:connector-curvature="0"
       style="opacity:1;fill:#4d4d4d;fill-opacity:1;stroke-width:0.207754"
       d="m 33.688444,294.94025 c -4.07346,-0.5378 -9.24563,-2.97778 -14.77017,-6.96787 -4.15229,-2.99899 -9.5254197,-7.67932 -13.4850397,-11.74631 l -1.94792,-2.00073 2.25694,-2.22341 c 9.3474697,-9.20858 17.6992597,-15.2197 24.1857897,-17.40747 4.53113,-1.52827 10.5898,-1.50243 15.20062,0.0648 3.5543,1.20812 6.49971,3.03858 9.03038,5.61202 2.62174,2.66605 4.16356,5.24762 5.16239,8.64372 0.7861,2.67282 0.92402,6.93518 0.30913,9.55406 -1.47487,6.28174 -5.47022,11.23929 -11.42817,14.18045 -4.43097,2.18736 -9.38021,2.96849 -14.51395,2.29073 z m 8.43575,-4.15546 c 7.7214,-2.02891 13.4468,-8.51994 13.90795,-15.76781 0.28568,-4.49016 -1.1177,-8.39613 -4.21704,-11.73712 -2.37683,-2.56217 -5.39332,-4.38629 -9.00223,-5.44383 -1.42573,-0.41778 -2.1102,-0.48216 -5.14676,-0.48406 -3.04748,-0.002 -3.72978,0.0618 -5.25352,0.49053 -7.0029,1.97036 -11.79073,6.88163 -13.09366,13.43125 -1.11897,5.62482 1.57651,12.14462 6.60874,15.98521 2.97011,2.26677 5.37402,3.27495 9.57522,4.01574 1.13564,0.20024 5.11542,-0.0942 6.6213,-0.48991 z m -8.16645,-4.19846 c -6.81244,-1.92106 -11.49133,-8.4249 -10.40735,-14.46664 0.872,-4.86022 4.56516,-8.64176 9.86273,-10.09876 1.85793,-0.51098 5.86139,-0.62097 7.62438,-0.20946 4.86522,1.13562 8.74805,4.42407 10.16561,8.60946 0.68491,2.02224 0.6471,5.22003 -0.0851,7.19642 -0.77478,2.09135 -1.74288,3.58107 -3.35692,5.16566 -1.68398,1.65326 -3.45921,2.76182 -5.6457,3.52551 -2.15595,0.75303 -6.00733,0.88419 -8.15765,0.27781 z m 5.84795,-3.16607 c 4.51332,-1.0581 7.83338,-5.93657 7.08078,-10.40446 -0.78933,-4.68594 -4.75401,-8.03471 -9.48804,-8.01407 -2.39314,0.0105 -4.5147,0.86291 -6.31759,2.53849 -3.15446,2.93174 -3.89322,7.45047 -1.844,11.27919 0.65645,1.22652 2.59868,3.15537 3.81004,3.7838 1.82934,0.94904 4.71028,1.2973 6.75881,0.81705 z m -4.09677,-4.36488 c -3.69613,-1.33154 -4.42643,-6.31126 -1.28313,-8.74924 3.68411,-2.85747 9.15182,0.62976 8.08407,5.1559 -0.70463,2.98686 -3.85863,4.65331 -6.80094,3.59334 z"
       id="path1127" />
  </g>
</svg>
