<?xml version="1.0" encoding="UTF-8" standalone="no"?>
<svg
   xmlns:dc="http://purl.org/dc/elements/1.1/"
   xmlns:cc="http://creativecommons.org/ns#"
   xmlns:rdf="http://www.w3.org/1999/02/22-rdf-syntax-ns#"
   xmlns:svg="http://www.w3.org/2000/svg"
   xmlns="http://www.w3.org/2000/svg"
   xmlns:sodipodi="http://sodipodi.sourceforge.net/DTD/sodipodi-0.dtd"
   xmlns:inkscape="http://www.inkscape.org/namespaces/inkscape"
   width="59mm"
   height="83mm"
   viewBox="0 0 59 83"
   version="1.1"
   id="svg8"
   inkscape:version="1.0.1 (3bc2e813f5, 2020-09-07)"
   sodipodi:docname="diagramar.svg">
  <defs
     id="defs2" />
  <sodipodi:namedview
     id="base"
     pagecolor="#ffffff"
     bordercolor="#666666"
     borderopacity="1.0"
     inkscape:pageopacity="0.0"
     inkscape:pageshadow="2"
     inkscape:zoom="0.35"
     inkscape:cx="400"
     inkscape:cy="560"
     inkscape:document-units="mm"
     inkscape:current-layer="g243"
     inkscape:document-rotation="0"
     showgrid="false"
     inkscape:window-width="1258"
     inkscape:window-height="728"
     inkscape:window-x="92"
     inkscape:window-y="0"
     inkscape:window-maximized="0" />
  <metadata
     id="metadata5">
    <rdf:RDF>
      <cc:Work
         rdf:about="">
        <dc:format>image/svg+xml</dc:format>
        <dc:type
           rdf:resource="http://purl.org/dc/dcmitype/StillImage" />
        <dc:title></dc:title>
      </cc:Work>
    </rdf:RDF>
  </metadata>
  <g
     inkscape:label="Capa 1"
     inkscape:groupmode="layer"
     id="layer1">
    <g
       id="g243"
       transform="translate(-228.58641,-82.587305)">
      <path
         style="opacity:1;fill:#000000;stroke-width:0.105545"
         d="m 227.94146,150.05998 v -2.41544 l 30.88302,-5.3e-4 30.88308,-5.3e-4 v 2.41592 2.4159 h -12.10647 c -11.51022,0 -12.09772,-0.008 -11.92841,-0.14835 0.16961,-0.14129 0.16527,-0.14129 -0.093,0 -0.24957,0.13668 -0.75503,0.14835 -6.42996,0.14835 h -6.15911 l -0.40094,-0.23311 -0.40096,-0.23312 0.31821,0.23312 0.31822,0.23311 h -12.4418 -12.44185 v -2.41545 z m 23.91791,1.70807 c 0,-0.0161 -0.13294,-0.10192 -0.29555,-0.19073 l -0.29557,-0.16148 0.25025,0.19072 c 0.23525,0.17924 0.34101,0.22932 0.34101,0.16149 z m 14.86693,-0.11909 c 0.16362,-0.13444 0.15896,-0.13744 -0.0496,-0.0321 -0.12663,0.0639 -0.22991,0.13075 -0.22991,0.14833 0,0.0697 0.10791,0.0248 0.27954,-0.11634 z m -15.91826,-0.55905 c 0,-0.0161 -0.13293,-0.1019 -0.29556,-0.19073 l -0.29556,-0.16147 0.25024,0.19073 c 0.23525,0.17923 0.34102,0.22931 0.34102,0.16146 z m 16.9696,-0.11908 c 0.1636,-0.13447 0.15893,-0.13746 -0.0496,-0.0321 -0.12662,0.0639 -0.22992,0.13074 -0.22992,0.14835 0,0.0697 0.10791,0.0248 0.27956,-0.11635 z m -18.02093,-0.55905 c 0,-0.0161 -0.13294,-0.1019 -0.29556,-0.19073 l -0.29556,-0.16147 0.25025,0.19072 c 0.23525,0.17924 0.34104,0.22932 0.34104,0.16148 z m 19.07226,-0.11909 c 0.16361,-0.13446 0.15894,-0.13746 -0.0496,-0.032 -0.12662,0.0639 -0.22992,0.13074 -0.22992,0.14835 0,0.0697 0.10792,0.0248 0.27956,-0.11634 z m -20.12358,-0.55905 c 0,-0.0161 -0.13294,-0.1019 -0.29557,-0.19071 l -0.29557,-0.16147 0.25025,0.19071 c 0.23525,0.17923 0.34105,0.22931 0.34105,0.16149 z m 21.17494,-0.11908 c 0.16362,-0.13444 0.15895,-0.13744 -0.0496,-0.0321 -0.12661,0.0639 -0.22992,0.13074 -0.22992,0.14834 0,0.0697 0.10792,0.0248 0.27957,-0.11633 z m -22.22627,-0.55905 c 0,-0.0161 -0.13294,-0.1019 -0.29556,-0.19071 l -0.29557,-0.16146 0.25025,0.19072 c 0.23525,0.17923 0.34104,0.2293 0.34104,0.16148 z m 23.27761,-0.11908 c 0.1636,-0.13447 0.15893,-0.13744 -0.0496,-0.032 -0.12661,0.0639 -0.22991,0.13075 -0.22991,0.14835 0,0.0697 0.10792,0.0248 0.27957,-0.11633 z m -24.32898,-0.55904 c 0,-0.0161 -0.13293,-0.10191 -0.29556,-0.19072 l -0.29556,-0.16148 0.25024,0.19071 c 0.23525,0.17924 0.34101,0.22933 0.34101,0.16149 z m 25.3803,-0.11909 c 0.16361,-0.13447 0.15894,-0.13747 -0.0496,-0.0321 -0.12662,0.0639 -0.22993,0.13075 -0.22993,0.14835 0,0.0697 0.10792,0.0248 0.27957,-0.11635 z m -40.39265,-2.72678 -0.42914,-0.24734 v -8.36343 -8.36342 l 0.42914,-0.24734 0.42923,-0.24734 h 3.29344 3.29347 l 0.38412,0.24777 0.38416,0.24778 v 8.36255 8.36254 l -0.38416,0.2478 -0.38412,0.24777 h -3.29347 -3.29344 z m 12.01827,0.11506 c -0.72154,-0.32598 -0.68558,0.27166 -0.68558,-11.39597 0,-11.58372 -0.034,-10.99761 0.65713,-11.40133 0.26824,-0.15669 0.50799,-0.17132 3.21616,-0.19623 3.45099,-0.0317 3.7312,0.009 4.14448,0.59589 0.23825,0.3388 0.25591,0.5757 0.25858,3.49315 0.003,2.85919 -0.0167,3.14479 -0.22726,3.30442 -0.21892,0.16643 -0.21892,0.1693 0,0.0598 0.21859,-0.10921 0.22992,0.2517 0.22992,7.3153 0,7.98391 0.0167,7.76379 -0.6674,8.17563 -0.29122,0.17514 -0.41396,0.18155 -3.46778,0.18155 -2.656,0 -3.21284,-0.0214 -3.45851,-0.1323 z m 1.03961,-11.45955 c 0.1636,-0.13445 0.15893,-0.13744 -0.0496,-0.032 -0.12662,0.0639 -0.22992,0.13073 -0.22992,0.14836 0,0.0697 0.10793,0.0248 0.27958,-0.11637 z m 0.65706,-0.42382 c 0.16361,-0.13446 0.15894,-0.13746 -0.0496,-0.0321 -0.12662,0.0639 -0.22993,0.13074 -0.22993,0.14835 0,0.0697 0.10792,0.0248 0.27957,-0.11634 z m 1.05137,-0.67814 c 0.1636,-0.13444 0.15894,-0.13743 -0.0496,-0.032 -0.12662,0.0639 -0.22992,0.13073 -0.22992,0.14834 0,0.0697 0.10793,0.0248 0.27958,-0.11634 z m 1.05132,-0.67814 c 0.16362,-0.13445 0.15895,-0.13743 -0.0496,-0.032 -0.12661,0.0639 -0.22993,0.13075 -0.22993,0.14835 0,0.0697 0.10792,0.0248 0.27957,-0.11634 z m 1.05134,-0.67813 c 0.1636,-0.13445 0.15893,-0.13745 -0.0496,-0.0321 -0.12661,0.0639 -0.22991,0.13073 -0.22991,0.14834 0,0.0697 0.10792,0.0248 0.27958,-0.11634 z m 1.05133,-0.67814 c 0.16361,-0.13443 0.15894,-0.13743 -0.0496,-0.032 -0.12662,0.0639 -0.22993,0.13076 -0.22993,0.14834 0,0.0697 0.10793,0.0248 0.27958,-0.11634 z m 1.05132,-0.67813 c 0.16362,-0.13445 0.15895,-0.13743 -0.0496,-0.0321 -0.12661,0.0639 -0.22991,0.13073 -0.22991,0.14834 0,0.0697 0.10792,0.0248 0.27956,-0.11634 z m 4.94333,15.31444 c -0.12691,-0.0477 -0.34877,-0.23574 -0.49279,-0.41786 -0.25657,-0.32434 -0.26192,-0.50857 -0.26192,-8.95406 v -8.62294 l 0.29556,-0.21676 0.29558,-0.21679 -0.29558,0.16086 -0.29556,0.16088 v -2.69641 -2.69643 l 0.29556,0.16087 0.29558,0.16086 -0.29558,-0.21676 c -0.28688,-0.21027 -0.29556,-0.27092 -0.29556,-2.01533 0,-2.78354 -0.1616,-2.67391 3.99571,-2.70858 2.94612,-0.0246 3.06072,-0.0193 3.40591,0.15583 0.19661,0.0997 0.45959,0.30186 0.58461,0.44927 0.21293,0.25079 0.22726,1.10904 0.22726,13.36445 0,7.20304 -0.0464,13.23675 -0.10258,13.40825 -0.0566,0.17148 -0.27256,0.42895 -0.47983,0.57217 l -0.3771,0.26037 -3.13413,-0.003 c -1.89117,-0.002 -3.22573,-0.0369 -3.36505,-0.0893 z m 7.13032,-18.50124 c 0,-0.0161 -0.13294,-0.10191 -0.29556,-0.19073 l -0.29556,-0.16146 0.25025,0.19072 c 0.23524,0.17924 0.34104,0.22932 0.34104,0.16148 z m -6.81692,-0.20387 c 0.1636,-0.13444 0.15893,-0.13743 -0.0496,-0.032 -0.12662,0.0639 -0.22992,0.13073 -0.22992,0.14835 0,0.0697 0.10792,0.0248 0.27958,-0.11634 z m 5.76559,-0.47426 c 0,-0.0161 -0.13294,-0.10191 -0.29556,-0.19072 l -0.29556,-0.16149 0.25024,0.19074 c 0.23525,0.17921 0.34105,0.22931 0.34105,0.16147 z M 256.87,126.30373 c 0.16362,-0.13444 0.15896,-0.13744 -0.0496,-0.0321 -0.12662,0.0639 -0.22993,0.13074 -0.22993,0.14834 0,0.0697 0.10792,0.0248 0.27957,-0.11635 z m 3.66292,-0.47426 c 0,-0.0161 -0.13294,-0.10192 -0.29556,-0.19073 l -0.29556,-0.16147 0.25024,0.19072 c 0.23525,0.17922 0.34102,0.22932 0.34102,0.16148 z m -2.61159,-0.20385 c 0.16362,-0.13447 0.15895,-0.13746 -0.0496,-0.0321 -0.12661,0.0639 -0.22991,0.13073 -0.22991,0.14834 0,0.0697 0.10792,0.0248 0.27955,-0.11632 z m 1.46039,-0.54713 -0.28956,-0.18687 0.29324,-0.21578 0.29323,-0.21577 -0.33508,0.18953 c -0.27224,0.15393 -0.37087,0.16986 -0.52565,0.0848 -0.15929,-0.0876 -0.16396,-0.0847 -0.0299,0.0177 0.12957,0.0982 0.11663,0.15679 -0.0657,0.29669 -0.22358,0.17147 -0.22291,0.17189 0.0469,0.0252 0.26291,-0.14283 0.28422,-0.14195 0.51313,0.0213 0.13126,0.0936 0.27224,0.1702 0.31324,0.1702 0.0411,0 -0.0559,-0.0841 -0.21526,-0.18685 z m -0.95149,-0.60529 c 0,-0.0161 -0.13293,-0.10192 -0.29556,-0.19073 l -0.29557,-0.16148 0.25025,0.19073 c 0.23525,0.17922 0.34101,0.22932 0.34101,0.16148 z m 1.59381,-0.20385 c 0.16327,-0.13447 0.15895,-0.13746 -0.0496,-0.032 -0.12662,0.0639 -0.22992,0.13075 -0.22992,0.14836 0,0.0697 0.10791,0.0248 0.27957,-0.11634 z m -2.64514,-0.47428 c 0,-0.0162 -0.13294,-0.10192 -0.29556,-0.19073 l -0.29556,-0.16148 0.25024,0.19073 c 0.23525,0.17923 0.34102,0.22931 0.34102,0.16148 z m 3.69646,-0.20388 c 0.16328,-0.13444 0.15895,-0.13743 -0.0496,-0.032 -0.12662,0.064 -0.22992,0.13073 -0.22992,0.14832 0,0.0698 0.10793,0.0249 0.27956,-0.11633 z m -4.74779,-0.47426 c 0,-0.0162 -0.13294,-0.10192 -0.29556,-0.19073 l -0.29558,-0.16148 0.25026,0.19073 c 0.23524,0.17924 0.34101,0.22932 0.34101,0.16148 z m 5.79913,-0.20387 c 0.1636,-0.13444 0.15893,-0.13744 -0.0496,-0.032 -0.12661,0.064 -0.22993,0.13073 -0.22993,0.14835 0,0.0698 0.10793,0.0249 0.27958,-0.11634 z m 5.07901,22.71747 c -0.11102,-0.0816 -0.31222,-0.28186 -0.44749,-0.44503 -0.23391,-0.28253 -0.24757,-0.65829 -0.28156,-7.87686 l -0.0357,-7.58016 0.29857,0.16249 0.29854,0.16248 -0.29555,-0.21677 -0.29556,-0.21677 v -4.7348 c 0,-4.38624 0.0166,-4.74766 0.22992,-4.90954 0.21892,-0.16642 0.21892,-0.16928 0,-0.0599 -0.21793,0.10886 -0.22992,-0.0247 -0.22992,-2.55027 0,-2.89572 0.0882,-3.35402 0.72657,-3.76564 0.31156,-0.20087 0.32622,-0.20178 3.35003,-0.20178 1.83899,0 3.13729,0.0346 3.29096,0.0876 0.1397,0.0481 0.38705,0.24844 0.54988,0.44502 l 0.29623,0.35744 0.0403,15.04606 c 0.0299,10.95534 -1e-4,15.16734 -0.10835,15.49209 -0.0816,0.2453 -0.29724,0.56 -0.47902,0.69933 l -0.33053,0.25332 h -3.18769 c -2.87146,0 -3.20765,-0.0147 -3.38931,-0.14835 z m 5.81184,-11.74824 c 0,-0.0161 -0.13292,-0.1019 -0.29555,-0.19071 l -0.29556,-0.16149 0.25024,0.19073 c 0.23525,0.17923 0.34105,0.22931 0.34105,0.16147 z m -0.9199,-0.59338 c 0,-0.0161 -0.13294,-0.10189 -0.29556,-0.19071 l -0.29557,-0.16147 0.25025,0.19071 c 0.23526,0.17924 0.34104,0.22932 0.34104,0.16147 z m -1.05133,-0.67811 c 0,-0.0161 -0.13293,-0.1019 -0.29556,-0.19073 l -0.29557,-0.16147 0.25025,0.19072 c 0.23525,0.17923 0.34105,0.22931 0.34105,0.16148 z m -1.05137,-0.67814 c 0,-0.0161 -0.13293,-0.1019 -0.29556,-0.19072 l -0.29555,-0.16147 0.25023,0.19072 c 0.23524,0.17922 0.34103,0.2293 0.34103,0.16149 z m -1.05132,-0.67815 c 0,-0.0161 -0.13294,-0.1019 -0.29556,-0.19071 l -0.29557,-0.16146 0.25025,0.19072 c 0.23525,0.17922 0.341,0.22932 0.341,0.16145 z m -1.05133,-0.67812 c 0,-0.0161 -0.13294,-0.1019 -0.29557,-0.19072 l -0.29555,-0.16147 0.25023,0.19072 c 0.23526,0.17923 0.34105,0.22931 0.34105,0.16148 z m -0.50893,-11.05398 c 0.16361,-0.13444 0.15895,-0.13744 -0.0496,-0.032 -0.12662,0.064 -0.22992,0.13075 -0.22992,0.14832 0,0.0698 0.10793,0.0249 0.27956,-0.11632 z m 1.05134,-0.67814 c 0.16362,-0.13443 0.15895,-0.13743 -0.0496,-0.032 -0.12661,0.064 -0.22992,0.13074 -0.22992,0.14834 0,0.0698 0.10791,0.0249 0.27957,-0.11633 z m 1.05137,-0.67812 c 0.1636,-0.13446 0.15893,-0.13744 -0.0496,-0.032 -0.12662,0.064 -0.22993,0.13075 -0.22993,0.14835 0,0.0698 0.10792,0.0249 0.27958,-0.11634 z m 1.05132,-0.67815 c 0.16361,-0.13443 0.15895,-0.13743 -0.0496,-0.032 -0.12662,0.0639 -0.22991,0.13074 -0.22991,0.14832 0,0.0698 0.10791,0.0248 0.27955,-0.11634 z m 1.05134,-0.67812 c 0.16359,-0.13444 0.15893,-0.13744 -0.0496,-0.032 -0.1266,0.064 -0.22992,0.13075 -0.22992,0.14835 0,0.0698 0.10793,0.0249 0.27957,-0.11634 z m 7.76568,28.91199 c -0.0926,-0.0239 -0.32921,-0.24031 -0.52567,-0.48072 l -0.35737,-0.4371 -0.0403,-16.65664 c -0.0299,-12.24599 -5.3e-4,-16.7759 0.11003,-17.107 0.0933,-0.28045 0.29957,-0.56027 0.54654,-0.7417 l 0.39661,-0.29136 h 3.06011 c 3.52979,0 3.44775,-0.0165 3.8787,0.78197 0.25824,0.47835 0.26191,0.72388 0.26191,17.14087 0,16.63219 -5.3e-4,16.65623 -0.2719,17.12425 -0.42565,0.73381 -0.3805,0.72544 -3.86417,0.71774 -1.66442,-0.005 -3.10195,-0.0263 -3.19449,-0.0503 z m -45.03924,-20.03269 c 0.13097,-0.0932 0.26757,-0.16954 0.30356,-0.16954 0.0364,0 -0.0413,0.0762 -0.17227,0.16954 -0.13097,0.0932 -0.26757,0.16954 -0.30356,0.16954 -0.0363,0 0.0413,-0.0763 0.17227,-0.16954 z m 0.45998,-0.20211 c 0,-0.0231 0.8427,-0.52648 1.87266,-1.11867 1.03001,-0.59218 2.13882,-1.22992 2.46411,-1.41718 3.889,-2.23901 8.36158,-4.79763 8.61302,-4.92723 0.30891,-0.15918 0.3239,-0.15933 0.58618,-0.006 0.14794,0.0864 0.2529,0.1852 0.23324,0.21947 -0.02,0.0343 -0.72083,0.4185 -1.55782,0.85385 -0.83696,0.43535 -2.46325,1.28709 -3.61396,1.89276 -1.15071,0.60566 -3.27497,1.72275 -4.72057,2.48243 -1.44558,0.75967 -2.90923,1.53456 -3.25259,1.72198 -0.34331,0.18743 -0.62421,0.32188 -0.62421,0.29878 z m 13.59694,-7.51502 c -0.23759,-0.1693 -0.23458,-0.17787 0.14396,-0.40966 0.3498,-0.21427 4.32921,-2.48465 5.44191,-3.10479 0.2509,-0.13987 0.78332,-0.44849 1.18297,-0.68584 0.56804,-0.33733 4.74744,-2.73443 8.61178,-4.9393 2.21556,-1.26415 6.32214,-3.61922 6.37372,-3.65525 0.0363,-0.0252 0.82222,-0.47933 1.74689,-1.00906 0.92464,-0.52974 1.66386,-0.97347 1.64269,-0.98609 -0.02,-0.0126 -0.95506,0.084 -2.0754,0.21472 -6.48921,0.75707 -8.95886,1.02973 -9.01265,0.99504 -0.0333,-0.0214 3.11941,-1.00486 7.00588,-2.18539 3.88648,-1.18053 8.98008,-2.733123 11.31913,-3.450203 2.33903,-0.71706 4.27919,-1.28673 4.31144,-1.26593 0.0539,0.0347 -0.13392,0.23938 -1.3351,1.45501 -0.23025,0.2331 -1.50312,1.530033 -2.8284,2.882073 -1.32524,1.35202 -3.36462,3.43091 -4.53197,4.61976 -1.16732,1.18886 -2.73201,2.78274 -3.47704,3.54194 -0.74504,0.75922 -1.37485,1.36733 -1.39957,1.35139 -0.0233,-0.016 0.28156,-0.63711 0.68093,-1.38038 0.39925,-0.74327 0.89444,-1.67563 1.10047,-2.07191 0.5823,-1.12005 1.83712,-3.39702 1.91946,-3.48294 0.23658,-0.24676 -0.76736,0.22576 -2.71321,1.27718 -0.47637,0.25744 -1.57043,0.83782 -2.43121,1.28977 -0.86078,0.45194 -2.48171,1.30427 -3.60203,1.89408 -1.12032,0.58981 -2.8649,1.50531 -3.87681,2.03447 -1.01192,0.52914 -2.40502,1.25981 -3.09578,1.62371 -0.69079,0.3639 -1.54785,0.81424 -1.90467,1.00071 -0.35677,0.18649 -1.00857,0.5298 -1.44848,0.76291 -0.43988,0.23309 -1.50477,0.79393 -2.36641,1.24627 -0.86163,0.45234 -2.33301,1.22478 -3.26968,1.71653 -0.93669,0.49174 -1.74068,0.89408 -1.78663,0.89408 -0.0459,0 -0.1926,-0.0778 -0.32622,-0.17292 z m 22.67422,-15.62294 c 0,-0.0161 -0.13293,-0.10191 -0.29556,-0.19072 l -0.29557,-0.16148 0.25025,0.19072 c 0.23525,0.17924 0.34105,0.22931 0.34105,0.16148 z M 261.8471,79.915177 c 0,-1.2244 0.0299,-1.44102 0.19724,-1.44102 0.10962,0 0.19728,0.0754 0.19728,0.16952 0,0.0932 0.059,0.16955 0.13124,0.16955 0.0723,0 0.13169,-0.032 0.13169,-0.0712 0,-0.0391 0.1506,-0.11543 0.33471,-0.16953 1.32763,-0.39018 2.43861,0.51163 1.79193,1.45457 -0.20359,0.29705 -0.3596,0.39904 -0.73077,0.47805 -0.50825,0.1082 -0.93154,0.0603 -1.29732,-0.14691 -0.21625,-0.12246 -0.2299,-0.0965 -0.2299,0.43387 0,0.5076 -0.0267,0.56412 -0.26292,0.56412 -0.25258,0 -0.2629,-0.0566 -0.2629,-1.44104 z m 2.09072,0.22013 c 0.21992,-0.15109 0.29657,-0.30539 0.29657,-0.59746 0,-0.52909 -0.2949,-0.81021 -0.84631,-0.8067 -0.69143,0.004 -0.92514,0.18173 -0.98887,0.75038 -0.0477,0.42412 -0.0126,0.52641 0.22157,0.67845 0.37275,0.24043 0.94651,0.22968 1.31695,-0.0246 z m -19.13373,0.2927 c -0.76486,-0.30084 -0.98853,-0.84109 -0.5758,-1.39101 0.30657,-0.40835 0.69939,-0.56284 1.43143,-0.56284 1.11432,0 1.79727,0.78476 1.30591,1.50061 -0.22725,0.33091 -0.42769,0.44852 -0.92027,0.53965 -0.6026,0.11147 -0.76727,0.10002 -1.24127,-0.0864 z m 1.28436,-0.19764 c 0.55819,-0.27644 0.66243,-0.79315 0.24824,-1.23122 -0.24158,-0.25542 -0.31422,-0.27797 -0.82085,-0.2543 -0.499,0.0233 -0.58126,0.0594 -0.80288,0.35214 -0.21093,0.27841 -0.22459,0.37413 -0.0946,0.65388 0.23492,0.50561 0.9478,0.73815 1.47012,0.4795 z m 4.62174,0.27193 c -1.07739,-0.21003 -1.27102,-1.41096 -0.29958,-1.85718 0.87293,-0.40094 2.1058,-0.0333 2.1058,0.6278 v 0.3032 h -1.17132 -1.17136 l 0.15295,0.26282 c 0.19827,0.34113 0.76894,0.53164 1.4227,0.47508 0.47284,-0.041 0.77949,0.0425 0.52675,0.14318 -0.24458,0.0975 -1.16163,0.1239 -1.56592,0.0451 z m 1.25765,-1.44083 c -0.25391,-0.46969 -1.14055,-0.51252 -1.49358,-0.0722 -0.10567,0.13163 -0.19193,0.26027 -0.19193,0.2859 0,0.0256 0.41089,0.0466 0.91308,0.0466 h 0.91308 z m 13.72324,1.47569 c -0.16261,-0.0222 -0.29558,-0.0963 -0.29558,-0.16457 0,-0.0996 0.12732,-0.11329 0.64431,-0.0691 0.56327,0.0482 0.66236,0.0333 0.78803,-0.11809 0.20592,-0.24833 0.0892,-0.36516 -0.64784,-0.64804 -0.53457,-0.20515 -0.65307,-0.2936 -0.65307,-0.48741 0,-0.36615 0.43317,-0.59025 1.0812,-0.5593 0.76958,0.0368 0.82107,0.23775 0.061,0.23775 -0.41522,0 -0.61174,0.0394 -0.66807,0.13409 -0.14024,0.23581 -0.0899,0.2895 0.41307,0.43911 0.64585,0.19219 0.95276,0.41706 0.95276,0.69813 0,0.40462 -0.7908,0.65824 -1.67554,0.53737 z m 3.28217,-0.004 c -0.52618,-0.0652 -0.73701,-0.40064 -0.79572,-1.26609 l -0.0537,-0.79298 h 0.34422 0.34421 v 0.79214 c 0,0.68844 0.0349,0.81254 0.26691,0.9479 0.21059,0.12295 0.34151,0.13881 0.62144,0.0753 0.52462,-0.119 0.69675,-0.41145 0.66931,-1.13721 -0.0233,-0.5928 -0.003,-0.63757 0.26057,-0.66283 0.27856,-0.0265 0.28457,-0.005 0.28457,0.99601 0,0.96659 -0.0126,1.02309 -0.26291,1.02309 -0.1836,0 -0.26424,-0.0574 -0.2669,-0.19072 -0.003,-0.16715 -0.0233,-0.17409 -0.16429,-0.0563 -0.17726,0.14895 -0.6745,0.33814 -0.84139,0.32017 -0.0591,-0.006 -0.2416,-0.0282 -0.40613,-0.0486 z m -27.75866,-0.73204 c 0,-0.59973 0.0401,-0.73074 0.26291,-0.86081 0.26091,-0.15231 0.2629,-0.14804 0.2629,0.58023 v 0.73365 h 0.98562 c 0.78853,0 0.98566,0.0254 0.98566,0.12714 0,0.1041 -0.22626,0.12715 -1.2485,0.12715 h -1.24846 z m 6.70227,-0.3098 c 0,-0.84767 0.0333,-1.0172 0.19726,-1.0172 0.12563,0 0.19728,0.0814 0.19728,0.2243 v 0.22429 l 0.32221,-0.22429 c 0.35097,-0.2443 0.86046,-0.30182 0.86046,-0.0971 0,0.07 -0.0807,0.12714 -0.17927,0.12714 -0.0987,0 -0.33521,0.0791 -0.52568,0.17569 -0.32521,0.16497 -0.34625,0.21927 -0.34625,0.89005 0,0.65786 -0.02,0.71436 -0.2629,0.71436 -0.24824,0 -0.2629,-0.0565 -0.2629,-1.0172 z m 5.3881,0 c 0,-0.8264 0.0353,-1.0172 0.18828,-1.0172 0.10357,0 0.22558,0.0756 0.2709,0.16797 0.0824,0.16744 0.0836,0.16744 0.36217,0 0.39512,-0.23744 1.06661,-0.22063 1.37771,0.0344 l 0.24692,0.20246 0.30222,-0.20246 c 0.33585,-0.22508 0.99833,-0.27185 1.36692,-0.0965 0.32289,0.15359 0.46441,0.56047 0.44018,1.26502 -0.0167,0.51544 -0.0595,0.6236 -0.25124,0.64735 -0.20295,0.0251 -0.23025,-0.049 -0.23193,-0.63465 -0.003,-0.84483 -0.17759,-1.08699 -0.78654,-1.08699 -0.6079,0 -0.7841,0.24211 -0.78656,1.08077 -0.002,0.52689 -0.0411,0.65695 -0.19893,0.65695 -0.15828,0 -0.19761,-0.13007 -0.19894,-0.65695 -0.003,-0.8049 -0.18127,-1.07123 -0.74409,-1.10672 -0.63509,-0.0401 -0.83099,0.2103 -0.83099,1.06201 0,0.64515 -0.02,0.70166 -0.2629,0.70166 -0.24825,0 -0.26291,-0.0565 -0.26291,-1.0172 z m 6.96512,0 c 0,-0.96069 0.0126,-1.0172 0.26291,-1.0172 0.24824,0 0.26291,0.0565 0.26291,1.0172 0,0.9607 -0.0126,1.0172 -0.26291,1.0172 -0.24825,0 -0.26291,-0.0565 -0.26291,-1.0172 z m 11.69615,0.13409 c 0,-0.48572 -0.036,-0.94346 -0.0797,-1.0172 -0.0574,-0.0961 -0.002,-0.13409 0.19693,-0.13409 0.1966,0 0.27691,0.0534 0.27691,0.18431 v 0.18431 l 0.30422,-0.18431 c 0.3877,-0.23494 1.00338,-0.23749 1.38902,-0.006 l 0.29723,0.17855 0.29455,-0.17855 c 0.29124,-0.17651 0.77907,-0.22804 1.19175,-0.12588 0.40604,0.10051 0.59726,0.50299 0.59726,1.25702 0,0.66821 -0.02,0.72473 -0.26291,0.72473 -0.24091,0 -0.26291,-0.0565 -0.26291,-0.67415 0,-0.82935 -0.16727,-1.10595 -0.66876,-1.10595 -0.37057,0 -0.76932,0.18583 -0.78609,0.36631 -0.003,0.055 -0.002,0.39553 0.007,0.75684 0.0167,0.61085 -0.002,0.65695 -0.25358,0.65695 -0.25224,0 -0.27122,-0.0494 -0.27122,-0.70166 0,-0.79472 -0.1946,-1.07844 -0.73964,-1.07844 -0.59916,0 -0.76724,0.21221 -0.81762,1.03221 -0.035,0.57056 -0.0897,0.74789 -0.22992,0.74789 -0.14595,0 -0.18394,-0.18252 -0.18394,-0.88311 z m -30.75164,-1.43654 c 0,-0.42114 0.0299,-0.47765 0.26291,-0.47765 0.20626,0 0.2629,0.0565 0.2629,0.26212 0,0.14417 -0.11832,0.35911 -0.2629,0.47765 l -0.26291,0.21553 z m 19.14587,-0.10849 c -0.2026,-0.13058 -0.085,-0.36908 0.18159,-0.36908 0.20458,0 0.26158,0.0457 0.22992,0.18408 -0.0437,0.19118 -0.25491,0.28612 -0.41159,0.185 z"
         id="path2964" />
    </g>
  </g>
</svg>
