<?xml version="1.0" encoding="UTF-8" standalone="no"?>
<svg
   xmlns:dc="http://purl.org/dc/elements/1.1/"
   xmlns:cc="http://creativecommons.org/ns#"
   xmlns:rdf="http://www.w3.org/1999/02/22-rdf-syntax-ns#"
   xmlns:svg="http://www.w3.org/2000/svg"
   xmlns="http://www.w3.org/2000/svg"
   xmlns:sodipodi="http://sodipodi.sourceforge.net/DTD/sodipodi-0.dtd"
   xmlns:inkscape="http://www.inkscape.org/namespaces/inkscape"
   width="59mm"
   height="83mm"
   viewBox="0 0 59 83"
   version="1.1"
   id="svg8"
   inkscape:version="1.0.1 (3bc2e813f5, 2020-09-07)"
   sodipodi:docname="diseñar.svg">
  <defs
     id="defs2" />
  <sodipodi:namedview
     id="base"
     pagecolor="#ffffff"
     bordercolor="#666666"
     borderopacity="1.0"
     inkscape:pageopacity="0.0"
     inkscape:pageshadow="2"
     inkscape:zoom="0.35"
     inkscape:cx="400"
     inkscape:cy="560"
     inkscape:document-units="mm"
     inkscape:current-layer="g243"
     inkscape:document-rotation="0"
     showgrid="false"
     inkscape:window-width="1258"
     inkscape:window-height="728"
     inkscape:window-x="92"
     inkscape:window-y="0"
     inkscape:window-maximized="0" />
  <metadata
     id="metadata5">
    <rdf:RDF>
      <cc:Work
         rdf:about="">
        <dc:format>image/svg+xml</dc:format>
        <dc:type
           rdf:resource="http://purl.org/dc/dcmitype/StillImage" />
        <dc:title></dc:title>
      </cc:Work>
    </rdf:RDF>
  </metadata>
  <g
     inkscape:label="Capa 1"
     inkscape:groupmode="layer"
     id="layer1">
    <g
       id="g243"
       transform="translate(-228.58641,-82.587305)">
      <path
         style="opacity:1;fill:#ffcc00;stroke-width:0.174807"
         d="m 256.3644,161.92182 c -1.80562,-0.47155 -3.16061,-1.26701 -4.62145,-2.71309 l -1.37357,-1.35968 -1.5267,-2.6e-4 c -2.59811,-5.3e-4 -3.37075,-0.70347 -3.37126,-3.06748 l -2.7e-4,-1.2415 -0.61281,-0.1138 c -0.96151,-0.17855 -1.29376,-1.1682 -0.61708,-1.83805 0.19327,-0.1913 0.54906,-0.34784 0.79064,-0.34784 0.42348,0 0.43925,-0.0406 0.43925,-1.13049 0,-1.12646 -0.002,-1.13048 -0.49987,-1.13048 -0.27492,0 -0.63071,-0.14312 -0.79063,-0.31806 -0.63987,-0.69989 -0.1436,-1.769 0.82116,-1.769 h 0.46934 v -4.69587 c 0,-2.58273 -0.0652,-4.69588 -0.14484,-4.69588 -0.0797,0 -0.85054,-0.46044 -1.71306,-1.02321 -10.51473,-6.86056 -15.0287,-19.76756 -11.05536,-31.61121 3.20978,-9.567693 11.76869,-16.770843 21.87904,-18.413343 1.13917,-0.18507 2.80965,-0.29886 4.38723,-0.29886 4.55135,0 8.12432,0.82638 12.21099,2.82421 5.51312,2.69518 9.82054,6.93818 12.59052,12.402223 5.58992,11.02659 2.89838,24.61808 -6.48388,32.74159 -1.4232,1.23226 -4.48502,3.37851 -4.81977,3.37851 -0.0797,0 -0.14484,2.11315 -0.14484,4.69588 v 4.69587 h 0.40015 c 0.63114,0 1.18113,0.47795 1.18113,1.02643 0,0.5966 -0.48648,1.06063 -1.11194,1.06063 -0.46052,0 -0.46934,0.0212 -0.46934,1.13048 0,1.08992 0.0157,1.13049 0.43924,1.13049 0.24159,0 0.59738,0.15654 0.79065,0.34784 0.67667,0.66985 0.34443,1.6595 -0.61708,1.83805 l -0.61281,0.1138 -2.7e-4,1.24158 c -5.3e-4,2.364 -0.77315,3.06702 -3.37126,3.06748 l -1.5267,2.6e-4 -1.37357,1.35969 c -1.48581,1.47078 -2.83356,2.25146 -4.70229,2.7237 -1.2998,0.3285 -3.55921,0.32355 -4.83869,-0.0106 z m 3.78914,-1.99969 c 1.21514,-0.21899 3.03651,-1.0549 3.60596,-1.65493 l 0.39684,-0.41815 h -5.33218 -5.33218 l 0.38895,0.40983 c 0.79816,0.84101 3.26115,1.7875 4.77918,1.83657 0.248,0.008 0.92005,-0.07 1.49343,-0.17332 z m 9.73957,-5.37759 v -1.04353 h -11.06895 -11.06894 v 1.04353 1.04353 h 11.06894 11.06895 z m 0,-4.435 v -1.13048 h -11.06895 -11.06894 v 1.13048 1.13049 h 11.06894 11.06895 z m 0,-4.34803 v -1.13048 h -11.06895 -11.06894 v 1.13048 1.13049 h 11.06894 11.06895 z m -16.69127,-7.67461 v -4.28313 l -0.6803,-1.23887 c -0.37417,-0.68137 -1.09597,-2.0215 -1.60401,-2.97807 -0.50803,-0.95657 -1.14181,-2.13053 -1.40839,-2.60882 -0.26658,-0.47828 -1.52139,-2.80668 -2.78845,-5.1742 l -2.30374,-4.30461 v -2.43485 c 0,-2.20296 0.0335,-2.46797 0.35139,-2.78269 0.19328,-0.19131 0.51313,-0.34784 0.71079,-0.34784 0.52199,0 1.22168,0.76659 1.22306,1.33998 0.001,0.58457 0.52772,1.42237 1.08636,1.72922 1.12361,0.61721 2.67546,-0.0183 3.11856,-1.2771 l 0.25288,-0.71843 1.05437,0.0364 c 0.96369,0.0333 1.06453,0.074 1.17243,0.47336 0.20455,0.75713 0.51164,1.18717 1.04142,1.45836 1.33283,0.68226 2.99445,-0.0926 3.19371,-1.48929 0.0567,-0.39738 0.12695,-0.42205 1.20224,-0.42205 1.07528,0 1.14555,0.0247 1.20224,0.42205 0.20624,1.44558 1.98308,2.21419 3.29205,1.42405 0.47888,-0.28906 0.70636,-0.64972 1.0037,-1.59129 0.0612,-0.19374 0.36805,-0.27804 1.11893,-0.30739 l 1.03465,-0.0404 0.25917,0.73654 c 0.44945,1.27718 1.99299,1.91698 3.12487,1.29523 0.55863,-0.30686 1.08498,-1.14467 1.08637,-1.72924 10e-4,-0.57338 0.70107,-1.33997 1.22306,-1.33997 0.19766,0 0.51751,0.15653 0.71077,0.34784 0.31793,0.31472 0.35139,0.57974 0.35139,2.7827 v 2.43485 l -2.30373,4.30459 c -1.26706,2.36754 -2.5225,4.69592 -2.78988,5.1742 -0.26735,0.47829 -0.90049,1.65226 -1.40698,2.60883 -0.50646,0.95656 -1.22763,2.29669 -1.60257,2.97808 l -0.68171,1.23885 v 4.28315 4.28313 h 2.7233 2.72332 v -3.0279 -3.02791 l 1.28275,-0.69688 c 2.78712,-1.5142 5.6596,-3.92998 7.58418,-6.37836 2.66797,-3.3941 4.10355,-6.45296 5.05219,-10.76502 0.55847,-2.53853 0.54553,-7.38755 -0.0268,-10.01858 -1.08262,-4.97742 -3.34484,-9.066743 -7.02776,-12.703743 -3.77315,-3.72611 -7.77851,-5.86257 -13.08361,-6.97881 -2.53459,-0.5333 -7.16533,-0.5333 -9.69992,0 -5.30509,1.11624 -9.31046,3.2527 -13.08361,6.97881 -4.74404,4.684903 -7.20833,10.238773 -7.48882,16.877843 -0.28975,6.8585 2.18935,13.29704 7.10664,18.45692 1.38423,1.45254 4.0981,3.5172 5.93458,4.51492 l 1.31222,0.7129 v 3.02791 3.0279 h 2.72331 2.72332 z m 8.96057,-0.26087 V 133.282 l 0.68079,-1.23886 c 0.91989,-1.67399 1.66641,-3.062 4.50151,-8.36964 1.32848,-2.48707 2.68856,-5.00973 3.0224,-5.60593 l 0.607,-1.08398 -0.73829,0.25785 c -1.38628,0.48418 -2.89914,0.23502 -4.10607,-0.67623 l -0.60008,-0.45308 -0.89512,0.59628 c -1.55128,1.0334 -3.38757,1.03699 -4.92977,0.01 l -0.88062,-0.58662 -0.88062,0.58663 c -1.54219,1.02732 -3.37848,1.02371 -4.92977,-0.01 l -0.89512,-0.59629 -0.60008,0.45307 c -1.20579,0.91041 -2.71982,1.16042 -4.10261,0.67748 l -0.73481,-0.25666 0.69295,1.2567 c 0.38114,0.69117 2.3622,4.36246 4.40239,8.15841 l 3.70942,6.90172 v 4.53361 4.53359 h 3.33825 3.33825 z"
         id="path2898" />
    </g>
  </g>
</svg>
