<?xml version="1.0" encoding="UTF-8" standalone="no"?>
<svg
   xmlns:dc="http://purl.org/dc/elements/1.1/"
   xmlns:cc="http://creativecommons.org/ns#"
   xmlns:rdf="http://www.w3.org/1999/02/22-rdf-syntax-ns#"
   xmlns:svg="http://www.w3.org/2000/svg"
   xmlns="http://www.w3.org/2000/svg"
   xmlns:sodipodi="http://sodipodi.sourceforge.net/DTD/sodipodi-0.dtd"
   xmlns:inkscape="http://www.inkscape.org/namespaces/inkscape"
   width="64mm"
   height="83mm"
   viewBox="0 0 64 83"
   version="1.1"
   id="svg8"
   inkscape:version="1.0.1 (3bc2e813f5, 2020-09-07)"
   sodipodi:docname="editar.svg">
  <defs
     id="defs2" />
  <sodipodi:namedview
     id="base"
     pagecolor="#ffffff"
     bordercolor="#666666"
     borderopacity="1.0"
     inkscape:pageopacity="0.0"
     inkscape:pageshadow="2"
     inkscape:zoom="0.35"
     inkscape:cx="400"
     inkscape:cy="560"
     inkscape:document-units="mm"
     inkscape:current-layer="g243"
     inkscape:document-rotation="0"
     showgrid="false"
     inkscape:window-width="1258"
     inkscape:window-height="728"
     inkscape:window-x="92"
     inkscape:window-y="0"
     inkscape:window-maximized="0" />
  <metadata
     id="metadata5">
    <rdf:RDF>
      <cc:Work
         rdf:about="">
        <dc:format>image/svg+xml</dc:format>
        <dc:type
           rdf:resource="http://purl.org/dc/dcmitype/StillImage" />
        <dc:title></dc:title>
      </cc:Work>
    </rdf:RDF>
  </metadata>
  <g
     inkscape:label="Capa 1"
     inkscape:groupmode="layer"
     id="layer1">
    <g
       id="g243"
       transform="translate(-228.58641,-82.587305)">
      <path
         style="opacity:1;fill:#000080;stroke-width:0.264583"
         d="m 230.18589,158.67922 c -0.65118,-0.82783 -0.64328,-0.72357 -0.17908,-2.36369 0.20311,-0.71763 0.69129,-2.67401 1.08484,-4.3475 0.39355,-1.67349 0.81306,-3.14619 0.93223,-3.27267 0.28125,-0.29848 2.90881,0.32812 3.06322,0.73049 0.0645,0.16814 -0.1761,1.49024 -0.53472,2.938 -0.35862,1.44776 -0.60836,2.67596 -0.55499,2.72933 0.0534,0.0534 1.029,-0.10779 2.16807,-0.35815 3.70961,-0.81532 3.68114,-0.81644 4.02083,0.15799 0.16453,0.47198 0.29915,1.19297 0.29915,1.60221 0,0.8436 0.26888,0.73898 -5.34341,2.07907 -1.84747,0.44113 -3.595,0.80206 -3.88341,0.80206 -0.2884,0 -0.77113,-0.31371 -1.07273,-0.69714 z m 12.55068,-3.06325 c -0.51623,-3.25362 -2.42051,-6.1727 -5.09748,-7.81393 -1.28098,-0.78536 -3.20175,-1.39026 -4.41457,-1.39026 -0.84597,0 -0.84794,-0.21726 -0.0308,-3.40021 0.36481,-1.42102 0.86851,-2.72254 1.18334,-3.05765 0.30148,-0.32092 7.3866,-7.46875 15.7447,-15.88407 l 15.19654,-15.30059 0.74658,0.63116 c 0.41063,0.34714 3.78121,3.69811 7.4902,7.44661 l 6.74361,6.81546 -15.84848,15.85013 -15.84848,15.85013 -2.40451,0.56329 c -1.32248,0.3098 -2.60164,0.62202 -2.84259,0.6938 -0.3433,0.10228 -0.47703,-0.11492 -0.61807,-1.00387 z m 18.3174,-17.62029 c 7.74744,-7.81318 14.08751,-14.32605 14.08907,-14.47304 0.002,-0.147 -2.17087,-2.43857 -4.8276,-5.09239 l -4.83041,-4.82511 -14.1879,14.22051 c -13.54414,13.57526 -14.78044,14.93401 -14.78044,16.24436 0,0.12381 0.1752,0.2251 0.38933,0.2251 0.21413,0 1.0178,0.28288 1.78594,0.62861 1.44904,0.65222 4.70221,3.43002 4.3866,3.74562 -0.0989,0.0989 0.0995,0.45914 0.44092,0.80053 0.34139,0.3414 0.76653,1.07291 0.94475,1.62559 0.46774,1.45053 0.48632,1.46593 1.54161,1.27763 0.83861,-0.14964 2.76726,-1.99233 15.04813,-14.37741 z m -14.54926,4.76122 c -0.54571,-0.5454 -0.99219,-1.12477 -0.99219,-1.28749 0,-0.31897 20.64577,-21.25587 20.95754,-21.25307 0.2617,0.002 2.32579,2.05026 2.32579,2.30756 0,0.22902 -20.95374,21.24756 -21.16789,21.23334 -0.0721,-0.005 -0.57755,-0.45494 -1.12325,-1.00034 z m -4.0279,8.46848 c -0.0815,-0.0815 -0.29495,-1.7e-4 -0.47443,0.18065 -0.25936,0.26131 -0.22897,0.2917 0.14811,0.14811 0.26094,-0.0994 0.40778,-0.2473 0.32632,-0.32876 z m -0.83209,-3.10755 c 0.0904,-0.23546 0.046,-0.34166 -0.10398,-0.24897 -0.14385,0.0889 -0.26155,0.27369 -0.26155,0.41062 0,0.38058 0.18964,0.29672 0.36553,-0.16165 z m -1.26574,-1.9007 c -0.15684,-0.15684 -0.95188,0.25225 -0.95188,0.48978 0,0.13119 0.23271,0.0932 0.51714,-0.0844 0.28442,-0.17762 0.48006,-0.36003 0.43474,-0.40534 z m 39.1325,-28.00265 c -1.60073,-1.66961 -4.55903,-4.67004 -6.57401,-6.66761 -2.01497,-1.99758 -4.00765,-3.98912 -4.42818,-4.42564 l -0.76459,-0.79367 3.35128,-3.35874 c 3.88751,-3.896154 5.19299,-4.658384 8.39302,-4.900394 3.47976,-0.26318 5.94064,0.64105 8.37802,3.078434 2.41144,2.41144 3.32061,4.85679 3.09761,8.33152 -0.20097,3.13165 -0.99025,4.48532 -4.91202,8.42454 -1.84717,1.85539 -3.41975,3.36754 -3.49461,3.36033 -0.0749,-0.007 -1.44579,-1.37915 -3.04652,-3.04877 z m 5.06447,-3.82583 c 2.43141,-2.49295 2.86155,-3.3511 2.84563,-5.67717 -0.0148,-2.16659 -0.45632,-3.34817 -1.81155,-4.84824 -1.52422,-1.68713 -2.83636,-2.26214 -5.17251,-2.26668 -2.73476,-0.005 -3.60584,0.48115 -6.72503,3.75576 l -1.03649,1.08813 2.02868,2.12339 c 1.11577,1.16787 2.02867,2.26361 2.02867,2.43498 0,0.17137 0.0672,0.24441 0.14927,0.16231 0.0821,-0.0821 0.58812,0.30387 1.12448,0.85771 1.37726,1.42211 1.62914,1.76852 1.43039,1.96727 -0.096,0.096 0.003,0.1063 0.22029,0.023 0.24639,-0.0945 0.83586,0.29797 1.56838,1.04435 0.64549,0.65771 1.25495,1.19584 1.35436,1.19584 0.0994,0 0.99735,-0.83729 1.99543,-1.86063 z"
         id="path3018" />
    </g>
  </g>
</svg>
