<?xml version="1.0" encoding="UTF-8" standalone="no"?>
<svg
   xmlns:dc="http://purl.org/dc/elements/1.1/"
   xmlns:cc="http://creativecommons.org/ns#"
   xmlns:rdf="http://www.w3.org/1999/02/22-rdf-syntax-ns#"
   xmlns:svg="http://www.w3.org/2000/svg"
   xmlns="http://www.w3.org/2000/svg"
   xmlns:sodipodi="http://sodipodi.sourceforge.net/DTD/sodipodi-0.dtd"
   xmlns:inkscape="http://www.inkscape.org/namespaces/inkscape"
   width="31mm"
   height="28mm"
   viewBox="0 0 31 28"
   version="1.1"
   id="svg8"
   inkscape:version="1.0.1 (3bc2e813f5, 2020-09-07)"
   sodipodi:docname="educacion.svg"
   inkscape:export-filename="C:\Users\Rosio\Documents\Portafolio web\images\home.png"
   inkscape:export-xdpi="94.342857"
   inkscape:export-ydpi="94.342857">
  <defs
     id="defs2" />
  <sodipodi:namedview
     id="base"
     pagecolor="#ffffff"
     bordercolor="#666666"
     borderopacity="1.0"
     inkscape:pageopacity="0.0"
     inkscape:pageshadow="2"
     inkscape:zoom="3.9943548"
     inkscape:cx="58.582677"
     inkscape:cy="52.913386"
     inkscape:document-units="mm"
     inkscape:current-layer="layer1"
     inkscape:document-rotation="0"
     showgrid="false"
     inkscape:window-width="1104"
     inkscape:window-height="623"
     inkscape:window-x="54"
     inkscape:window-y="46"
     inkscape:window-maximized="0" />
  <metadata
     id="metadata5">
    <rdf:RDF>
      <cc:Work
         rdf:about="">
        <dc:format>image/svg+xml</dc:format>
        <dc:type
           rdf:resource="http://purl.org/dc/dcmitype/StillImage" />
        <dc:title></dc:title>
      </cc:Work>
    </rdf:RDF>
  </metadata>
  <g
     inkscape:label="Capa 1"
     inkscape:groupmode="layer"
     id="layer1">
    <g
       id="g1173"
       transform="translate(-14.473945,-52.38723)">
      <ellipse
         style="fill:none;stroke:#800080;stroke-width:0.301913"
         id="ellipse18"
         cx="29.973946"
         cy="65.635094"
         rx="12.09059"
         ry="9.5611315" />
      <path
         style="fill:#441650;stroke-width:0.0448973"
         d="m 37.634553,72.28045 -0.41309,-0.418114 -0.513863,0.143978 c -0.581497,0.162918 -0.585344,0.163551 -0.585344,0.09565 0,-0.08184 0.436481,-1.279477 0.482199,-1.32309 0.02649,-0.02527 0.161208,-0.0058 0.361108,0.05168 0.175365,0.05059 0.3246,0.08691 0.331632,0.08068 0.034,-0.03013 1.032066,-2.905864 1.014024,-2.921676 -0.01863,-0.01633 -1.972809,0.304579 -2.296178,0.377065 -0.07672,0.01714 -0.131047,0.01206 -0.131047,-0.01228 0,-0.02292 0.06498,-0.220111 0.144393,-0.438175 l 0.144391,-0.396471 -0.346913,-0.29272 c -0.948689,-0.800494 -2.542592,-1.807131 -3.730213,-2.355839 -1.377358,-0.636367 -2.333878,-0.917626 -3.788346,-1.113899 -1.346847,-0.18175 -3.616633,-0.139331 -5.167222,0.09657 -0.176323,0.02686 -0.193002,0.04245 -0.278024,0.260914 -0.04975,0.127811 -0.09743,0.238596 -0.105971,0.246204 -0.02659,0.02366 -3.192152,-2.492383 -3.206969,-2.549 -0.0093,-0.03555 0.110869,-0.0767 0.35739,-0.122378 0.204277,-0.03786 0.961106,-0.18549 1.681846,-0.328096 0.720738,-0.14259 1.406929,-0.276206 1.524867,-0.296916 0.117939,-0.02064 0.493202,-0.09447 0.833913,-0.163925 0.340713,-0.06944 0.973293,-0.194439 1.405738,-0.277744 0.432444,-0.08331 1.558226,-0.303706 2.501736,-0.489767 0.943515,-0.186064 1.811973,-0.355637 1.929914,-0.37682 0.117938,-0.02119 0.546807,-0.105723 0.95304,-0.187873 l 0.738609,-0.149364 0.424161,0.391265 c 0.233289,0.215206 0.6412,0.591144 0.906474,0.835433 0.265271,0.24429 0.920348,0.853429 1.455723,1.35364 1.256173,1.17367 2.62016,2.443311 3.196623,2.975514 0.413073,0.381358 0.464749,0.415906 0.556781,0.372183 0.05579,-0.02651 0.307424,-0.04819 0.559173,-0.04819 0.486427,0 0.711364,0.06206 0.901661,0.24888 0.14779,0.145068 0.151143,0.445622 0.0087,0.777897 -0.06756,0.157566 -0.122843,0.317044 -0.122843,0.354381 0,0.03731 0.206187,0.258584 0.458194,0.491663 0.33442,0.309293 0.44062,0.432498 0.39313,0.45609 -0.03579,0.01774 -0.322387,0.07348 -0.636891,0.123777 -0.314503,0.05033 -0.596208,0.113885 -0.62601,0.141294 -0.02979,0.02743 -0.107965,0.211647 -0.173698,0.409403 -0.06573,0.197762 -0.304031,0.881789 -0.529553,1.52007 -0.225523,0.63828 -0.410041,1.181744 -0.410041,1.20769 0,0.02591 0.160825,0.08917 0.357391,0.140513 0.196564,0.05137 0.35739,0.109266 0.35739,0.128734 0,0.05215 -0.455864,1.355787 -0.482313,1.379266 -0.0124,0.01102 -0.208445,-0.168129 -0.435648,-0.398094 z m 1.000016,-4.725744 c 0.480652,-0.202476 0.286009,-0.838734 -0.256583,-0.838734 -0.182067,0 -0.235533,0.02089 -0.353554,0.138149 -0.203614,0.202295 -0.195138,0.433885 0.02298,0.627506 0.184034,0.163366 0.329768,0.181508 0.587164,0.07307 z m 0.385142,-1.616059 c -0.01354,-0.103699 -0.03252,-0.11184 -0.2885,-0.123686 -0.342653,-0.01592 -0.349386,0.02634 -0.04766,0.298682 l 0.22635,0.204312 0.06214,-0.13416 c 0.03417,-0.07379 0.05561,-0.184101 0.04766,-0.245148 z m -5.446844,3.570995 c -3.445349,-1.553153 -5.862748,-2.227613 -9.649555,-2.692231 -0.615905,-0.07556 -1.137621,-0.150806 -1.159371,-0.167207 -0.02174,-0.01638 0.03594,-0.236745 0.128169,-0.489641 0.09224,-0.252903 0.275805,-0.765416 0.407922,-1.138917 l 0.240208,-0.679101 0.608492,-0.07214 c 2.406714,-0.285395 4.429941,-0.160213 6.124632,0.378923 1.45725,0.46359 3.218995,1.436402 4.644317,2.564531 0.365244,0.289089 0.437003,0.366083 0.423001,0.453899 -0.02185,0.13707 -0.748247,2.212851 -0.78602,2.24617 -0.01582,0.01398 -0.45762,-0.167977 -0.981795,-0.404279 z"
         id="path1123" />
    </g>
  </g>
</svg>
