<?xml version="1.0" encoding="UTF-8" standalone="no"?>
<svg
   xmlns:dc="http://purl.org/dc/elements/1.1/"
   xmlns:cc="http://creativecommons.org/ns#"
   xmlns:rdf="http://www.w3.org/1999/02/22-rdf-syntax-ns#"
   xmlns:svg="http://www.w3.org/2000/svg"
   xmlns="http://www.w3.org/2000/svg"
   xmlns:sodipodi="http://sodipodi.sourceforge.net/DTD/sodipodi-0.dtd"
   xmlns:inkscape="http://www.inkscape.org/namespaces/inkscape"
   width="488mm"
   height="235mm"
   viewBox="0 0 488 235"
   version="1.1"
   id="svg8"
   inkscape:version="1.0.1 (3bc2e813f5, 2020-09-07)"
   sodipodi:docname="educacion1.svg">
  <defs
     id="defs2" />
  <sodipodi:namedview
     id="base"
     pagecolor="#ffffff"
     bordercolor="#666666"
     borderopacity="1.0"
     inkscape:pageopacity="0.0"
     inkscape:pageshadow="2"
     inkscape:zoom="0.35"
     inkscape:cx="400"
     inkscape:cy="560"
     inkscape:document-units="mm"
     inkscape:current-layer="g243"
     inkscape:document-rotation="0"
     showgrid="false"
     inkscape:window-width="1258"
     inkscape:window-height="728"
     inkscape:window-x="92"
     inkscape:window-y="0"
     inkscape:window-maximized="0" />
  <metadata
     id="metadata5">
    <rdf:RDF>
      <cc:Work
         rdf:about="">
        <dc:format>image/svg+xml</dc:format>
        <dc:type
           rdf:resource="http://purl.org/dc/dcmitype/StillImage" />
        <dc:title></dc:title>
      </cc:Work>
    </rdf:RDF>
  </metadata>
  <g
     inkscape:label="Capa 1"
     inkscape:groupmode="layer"
     id="layer1">
    <g
       id="g243"
       transform="translate(-228.58641,-82.587305)">
      <g
         id="g284"
         style="opacity:1"
         transform="translate(182.08931,-19.536593)">
        <path
           style="fill:#2b0022;stroke-width:0.106576"
           d="m 78.243141,164.35835 c -1.9465,-0.17928 -4.25533,-0.81852 -5.83282,-1.61488 -0.85231,-0.43028 -0.87503,-0.45182 -0.87529,-0.82933 -3.7e-4,-0.51814 0.49791,-2.86658 0.63728,-3.00374 0.0819,-0.0806 0.25806,-0.0568 0.68449,0.0929 0.49346,0.17315 0.79184,0.20147 2.12323,0.20147 1.42712,0 1.57921,-0.0169 1.93168,-0.21481 0.46605,-0.26166 0.64028,-0.2291 2.63427,0.4922 2.23449,0.80828 2.83017,1.25401 3.24538,2.42844 0.29556,0.83601 0.2061,1.51383 -0.24294,1.8405 -0.68931,0.50151 -2.5714,0.76698 -4.30528,0.60728 z m 3.50424,-0.60284 c 0.60291,-0.22892 0.74079,-0.32483 0.77297,-0.53769 l 0.0391,-0.25908 -0.45719,0.18607 c -0.73921,0.30086 -1.69474,0.40671 -3.16786,0.35089 -1.99261,-0.0755 -4.06666,-0.58752 -6.14559,-1.51715 l -0.88668,-0.39648 v 0.23209 c 0,0.32622 0.45095,0.60834 1.81654,1.13643 2.1693,0.83888 3.72259,1.13314 5.82724,1.10391 1.35822,-0.0188 1.5223,-0.0412 2.2014,-0.29899 z m -0.33633,-2.43791 c 0.0667,-0.15196 -0.41737,-0.48759 -0.70323,-0.48759 -0.4036,0 -0.28934,0.33571 0.18345,0.53897 0.27693,0.11905 0.45259,0.10169 0.51978,-0.0514 z m -3.86061,-1.20479 c 0.22567,-0.1646 0.6294,-0.363 0.89717,-0.44088 l 0.48686,-0.14162 -0.42805,0.0573 c -0.97439,0.13057 -1.84112,0.71805 -1.82911,1.23978 0.005,0.22043 0.0194,0.21494 0.23411,-0.0903 0.12578,-0.17877 0.41334,-0.45973 0.63902,-0.62433 z m -0.59906,-0.59153 c 0.5771,-0.31745 0.43592,-0.36735 -0.16675,-0.0589 -0.51807,0.26513 -0.96882,0.76508 -0.96882,1.07458 0,0.18929 0.0645,0.13835 0.32227,-0.25443 0.19459,-0.29652 0.51682,-0.59811 0.8133,-0.76121 z m -15.23259,4.73686 c -0.5875,-0.1051 -1.31415,-0.38617 -1.58377,-0.61259 -0.43906,-0.3687 -0.25302,-1.83366 0.32807,-2.58335 0.56344,-0.72694 1.68639,-1.30552 3.78205,-1.94868 l 1.1755,-0.36077 0.5196,0.226 c 0.46991,0.20439 0.65405,0.22556 1.92604,0.22157 1.15231,-0.004 1.52722,-0.0412 2.07477,-0.20761 0.36758,-0.11176 0.70353,-0.17247 0.74657,-0.13491 0.1126,0.0983 0.60398,2.50625 0.60146,2.94738 -0.003,0.45276 -0.0401,0.49653 -0.7322,0.85295 -1.34435,0.69245 -3.35996,1.3179 -5.01564,1.55642 -1.07775,0.15525 -3.07126,0.17798 -3.82245,0.0436 z m 4.57213,-0.48546 c 1.33879,-0.26456 2.75307,-0.73483 3.86849,-1.28633 0.65138,-0.32207 0.76438,-0.41828 0.76438,-0.65091 v -0.27297 l -0.51977,0.24185 c -2.16704,1.00828 -4.44564,1.60015 -6.5125,1.6916 -1.43921,0.0637 -2.40958,-0.0769 -3.51614,-0.50945 -0.0505,-0.0198 -0.0917,0.044 -0.0917,0.14143 0,0.27214 0.51124,0.57651 1.3019,0.77511 0.99886,0.25091 3.06582,0.19367 4.70537,-0.13033 z m -4.2504,-2.48504 c 0.40207,-0.24018 0.41891,-0.45763 0.0354,-0.45763 -0.34959,0 -0.7481,0.31147 -0.64913,0.50735 0.0964,0.19075 0.22909,0.18 0.61368,-0.0498 z m 4.06974,-0.6704 c -0.16844,-0.50968 -1.17013,-1.09283 -1.85184,-1.07809 -0.17476,0.004 -0.13984,0.0331 0.12229,0.10269 0.54975,0.14593 1.06448,0.47142 1.40646,0.88935 0.33172,0.4054 0.438,0.43371 0.32309,0.0861 z m 0.63376,-0.64176 c -0.28248,-0.3874 -0.73897,-0.65085 -1.32375,-0.76396 -0.21813,-0.0422 -0.17857,-0.006 0.13807,0.12602 0.52579,0.21934 1.06603,0.68338 1.24956,1.07329 0.096,0.204 0.14375,0.23576 0.17602,0.11715 0.0244,-0.0895 -0.0836,-0.33813 -0.2399,-0.5525 z m -1.36451,-3.29379 c -0.0448,-0.0341 -0.0815,-0.32581 -0.0815,-0.64835 0,-0.56373 -0.013,-0.58867 -0.33633,-0.64455 -1.94577,-0.33634 -3.50462,-0.70972 -3.63575,-0.87085 -0.0347,-0.0427 0.57098,-3.95653 1.346,-8.69752 0.77502,-4.74099 1.38692,-8.6639 1.35978,-8.7176 -0.0271,-0.0537 -0.37246,-0.19775 -0.7674,-0.32012 -1.8004,-0.55778 -5.51293,-1.93189 -7.46458,-2.76283 l -2.14307,-0.91244 0.0756,-0.57819 c 0.2152,-1.64474 1.60768,-4.06333 3.18717,-5.53577 l 0.56316,-0.52499 1.24766,0.72659 c 0.6862,0.39962 1.31066,0.75429 1.3877,0.78815 0.0988,0.0434 0.13807,-0.0985 0.13331,-0.48158 -0.008,-0.64482 0.3651,-1.31271 0.90154,-1.61389 0.19333,-0.10854 0.52029,-0.47123 0.72657,-0.80598 0.20628,-0.33475 0.466,-0.68494 0.57716,-0.77822 0.28826,-0.24188 0.22843,-0.88399 -0.13286,-1.42597 -1.18812,-1.78234 -1.34754,-3.4813 -0.46153,-4.91907 0.46065,-0.74753 1.12658,-1.24241 2.16714,-1.61046 1.3514,-0.47799 1.42235,-0.50811 1.54141,-0.65432 0.0815,-0.10003 -0.0447,-0.35595 -0.44711,-0.90757 -1.32367,-1.8141 -2.77453,-4.221 -2.61666,-4.34088 0.20822,-0.15812 6.12934,-0.77005 9.94561,-1.02785 2.47437,-0.16716 11.18748,-0.28056 12.342,-0.16064 l 0.72346,0.0751 0.79292,1.06804 c 1.20579,1.62416 4.15629,6.09004 5.0928,7.70846 1.72106,2.97423 3.36447,6.35688 3.16197,6.50832 -0.0545,0.0407 -1.79335,0.10398 -3.86414,0.14051 -2.07078,0.0365 -3.78788,0.0944 -3.81577,0.12872 -0.0279,0.0343 0.0616,0.33087 0.19887,0.65914 0.39733,0.95016 0.34503,1.57149 -0.2066,2.45429 -0.39403,0.6306 -0.46569,0.8414 -0.47376,1.39363 -0.009,0.6202 0.0176,0.6838 0.57104,1.35882 0.77583,0.94639 1.2892,1.79705 1.46194,2.42245 0.12195,0.4415 0.11175,0.57508 -0.0717,0.93994 -0.25919,0.51538 -0.65468,0.71963 -1.90145,0.98199 -0.96311,0.20267 -1.15097,0.31227 -1.04836,0.61162 0.035,0.10217 0.0989,0.42831 0.14201,0.7248 0.0666,0.45873 0.0403,0.57809 -0.17701,0.80129 l -0.25534,0.26228 1.06508,0.77753 c 1.19967,0.87579 2.6697,1.88073 3.34965,2.2899 0.25009,0.1505 0.4152,0.30608 0.3669,0.34572 -0.0483,0.0396 0.13234,0.0429 0.40139,0.007 0.99106,-0.13146 3.37757,-0.16645 3.94555,-0.0578 0.6877,0.13152 1.29164,0.44173 1.20267,0.61779 -0.0358,0.0709 -0.01,0.12878 0.0575,0.12878 0.0674,0 0.10234,0.11494 0.0775,0.25541 -0.0396,0.22405 -0.10046,0.25658 -0.4958,0.26497 -0.57796,0.0123 -0.62012,0.0523 -0.316,0.30022 0.13725,0.11189 0.21072,0.25112 0.16326,0.30943 -0.0505,0.0621 -0.0323,0.0807 0.0438,0.045 0.0745,-0.035 0.2402,0.11164 0.38761,0.34286 0.14161,0.22216 0.39507,0.45153 0.56323,0.50971 0.62497,0.21624 0.7081,0.89058 0.13833,1.12214 -0.47845,0.19446 -0.96683,0.16399 -1.97645,-0.12328 -0.26906,-0.0765 -0.8665,-0.14103 -1.32766,-0.14328 l -0.83846,-0.004 0.38915,0.27606 c 0.21403,0.15183 0.35419,0.31899 0.31147,0.37149 -0.0427,0.0525 -0.0194,0.0954 0.0518,0.0954 0.23649,0 0.1509,0.79235 -0.10455,0.96792 -0.21386,0.14696 -0.26405,0.14852 -0.58094,0.0181 -0.19077,-0.0785 -0.29182,-0.14452 -0.22456,-0.14667 0.28559,-0.009 -1.29234,-0.54833 -2.05344,-0.70166 -0.86684,-0.17464 -1.8259,-0.69183 -1.98389,-1.06985 -0.0419,-0.1004 -0.1814,-0.22526 -0.30986,-0.27746 -0.18113,-0.0736 -0.21926,-0.0666 -0.16981,0.0312 0.0607,0.12013 -0.72536,0.71399 -0.94507,0.71399 -0.0564,0 -0.0888,0.0385 -0.0721,0.0856 0.0316,0.0884 -1.21982,0.84314 -1.39796,0.84314 -0.0551,0 -0.12773,0 -0.16136,0 -0.0336,0 -0.075,-0.0308 -0.0917,-0.0685 -0.0169,-0.0376 -0.38086,-0.31977 -0.809,-0.62689 -0.42814,-0.30713 -1.41877,-1.09643 -2.20141,-1.754 -0.82971,-0.69713 -1.43786,-1.13908 -1.45866,-1.06003 -0.0293,0.11126 0.51624,3.58611 1.8232,11.6131 0.0811,0.49832 0.11443,0.93116 0.074,0.96187 -0.10585,0.0804 -2.59573,0.55286 -3.58789,0.68084 l -0.84193,0.10861 -0.0202,0.51626 c -0.0111,0.28396 -0.0845,0.5637 -0.16317,0.62166 -0.10876,0.0802 -0.13319,-0.0354 -0.10209,-0.48276 l 0.0408,-0.58815 -0.48919,0.0452 c -0.26906,0.0249 -1.38353,0.0989 -2.47659,0.16456 l -1.98739,0.11932 v 0.40586 c 0,0.27014 -0.0448,0.38485 -0.13378,0.34307 -0.0736,-0.0345 -0.11341,-0.22496 -0.0885,-0.42341 l 0.0453,-0.36062 h -0.76761 c -0.81752,0 -0.84863,0.0233 -0.774,0.58044 0.012,0.0894 -0.0368,0.16254 -0.10822,0.16254 -0.0715,0 -0.12999,-0.16386 -0.12999,-0.36411 v -0.36409 l -0.82553,-0.0553 c -0.45404,-0.0304 -1.53572,-0.11787 -2.40374,-0.19428 -0.86801,-0.0764 -1.59523,-0.12603 -1.61602,-0.11024 -0.0208,0.0158 -0.0481,0.28796 -0.0606,0.60482 -0.0125,0.31684 -0.0329,0.5761 -0.0452,0.5761 -0.0123,0 -0.0592,-0.0278 -0.10399,-0.0619 z m 27.10329,-11.08488 c -0.0352,-0.54196 -0.0747,-0.74109 -0.13756,-0.69337 -0.0281,0.0213 -0.16609,-0.0225 -0.30676,-0.0973 -0.14066,-0.0748 -0.35357,-0.13603 -0.47313,-0.13603 -0.11957,0 -0.21739,-0.0671 -0.21739,-0.14925 0,-0.0967 0.0668,-0.12978 0.18981,-0.0939 0.10438,0.0304 0.16031,0.0191 0.12427,-0.0252 -0.0361,-0.0443 0.10558,-0.10648 0.31469,-0.13824 0.57192,-0.0869 0.86404,-0.071 0.7721,0.042 -0.0502,0.0617 0.007,0.0578 0.15042,-0.0101 0.18258,-0.0866 0.38582,-0.0772 0.96062,0.0446 1.75204,0.37101 1.73329,0.36911 2.05655,0.20827 0.33733,-0.16785 0.32314,-0.41565 -0.038,-0.66385 -0.31294,-0.21506 -1.55195,-0.52483 -2.32903,-0.58229 -0.36996,-0.0273 -0.75521,-0.0847 -0.8561,-0.12743 -0.27186,-0.11516 1.06832,-0.10204 1.62777,0.016 1.18794,0.25051 0.40651,-0.26021 -0.87396,-0.57119 -0.43159,-0.10481 -0.57742,-0.16927 -0.38692,-0.17099 0.46211,-0.004 1.27451,0.15654 1.32047,0.26127 0.0224,0.0509 0.12263,0.0687 0.22283,0.0395 0.27346,-0.0797 -0.24123,-0.46617 -0.99294,-0.74562 l -0.61151,-0.22732 0.55036,0.0564 c 0.30269,0.031 0.71545,0.0711 0.91725,0.0892 0.2018,0.018 0.49073,0.0563 0.64208,0.085 0.22338,0.0424 0.27517,0.0134 0.27517,-0.15396 0,-0.31305 -0.31687,-0.59142 -0.82591,-0.72554 -0.57288,-0.15095 -3.44817,-0.12385 -4.17188,0.0393 -0.45518,0.10263 -0.5731,0.19918 -1.21641,0.99594 -0.3918,0.48526 -0.78151,0.87081 -0.86603,0.85677 -0.0845,-0.014 -0.11668,0.02 -0.0714,0.0755 0.0452,0.0555 -0.0194,0.18636 -0.14379,0.29065 -0.18992,0.15936 -0.373,1.0093 -0.18696,0.86802 0.032,-0.0243 0.21122,0.11177 0.39833,0.30233 0.1871,0.19056 0.38538,0.35009 0.44061,0.35449 0.0552,0.004 0.18297,0.0346 0.28388,0.0672 0.10089,0.0326 0.62605,0.16383 1.167,0.29176 0.54096,0.12793 1.20139,0.35835 1.46761,0.51203 0.66338,0.38297 0.85796,0.33941 0.82393,-0.18448 z m -6.95683,-0.47332 c 0.0742,-0.006 0.1763,-0.006 0.22674,0 0.0505,0.006 0.078,-0.0412 0.0612,-0.10511 -0.0169,-0.0638 0.052,-0.10215 0.15287,-0.0851 0.10089,0.017 0.14649,0.003 0.1013,-0.0314 -0.0452,-0.0343 0.22181,-0.30651 0.59329,-0.6049 0.47252,-0.37952 0.73603,-0.52529 0.87711,-0.4852 0.17533,0.0498 0.17973,0.0369 0.0338,-0.0994 -0.15279,-0.14262 -0.10818,-0.19713 0.13726,-0.1677 0.0505,0.006 0.0806,-0.0203 0.067,-0.0587 -0.0136,-0.0383 0.27958,-0.42489 0.65151,-0.85908 0.37193,-0.43418 0.8233,-0.98491 1.00308,-1.22384 l 0.32686,-0.43443 -0.30158,-0.18014 c -0.16586,-0.0991 -0.26216,-0.21328 -0.21399,-0.25379 0.0481,-0.0405 0.0226,-0.0454 -0.0568,-0.0108 -0.0794,0.0346 -0.179,0.0204 -0.22124,-0.0316 -0.15173,-0.18643 -0.28197,-0.085 -0.65735,0.51172 -0.45417,0.72203 -1.16723,1.5477 -1.28084,1.48314 -0.0445,-0.0254 -0.0549,-0.0193 -0.0229,0.0135 0.0586,0.06 -0.89072,0.98042 -1.07386,1.04115 -0.0542,0.018 -0.16427,0.0935 -0.2446,0.16794 -0.2661,0.24642 -1.57603,0.96021 -1.67604,0.91327 -0.054,-0.0254 -0.0672,0.0441 -0.0292,0.15429 0.0473,0.13732 0.0245,0.17948 -0.0726,0.13395 -0.2145,-0.10067 -0.16933,-0.002 0.0654,0.14211 0.17833,0.10985 0.19287,0.10821 0.10521,-0.0118 -0.056,-0.0766 0.0844,0.007 0.31178,0.18574 l 0.4135,0.32506 0.2941,-0.20896 c 0.16176,-0.11494 0.35487,-0.21391 0.42912,-0.21996 z m -12.70844,-8.02253 c 2.23682,-1.69662 4.05836,-3.29146 3.76888,-3.29981 -0.0539,-0.001 -0.002,-0.0454 0.11607,-0.0975 0.11772,-0.052 0.21404,-0.15179 0.21404,-0.22162 0,-0.0698 0.0437,-0.14088 0.0969,-0.15791 0.12726,-0.0406 0.63686,-0.67665 0.63686,-0.79483 0,-0.0505 -0.47785,-0.23213 -1.0619,-0.4036 -0.65748,-0.19302 -1.18068,-0.41299 -1.37379,-0.57757 -0.27517,-0.23453 -0.37324,-0.26012 -0.83296,-0.21736 -1.73614,0.16146 -3.21002,0.16553 -4.55858,0.0126 -0.77354,-0.0877 -1.51651,-0.17029 -1.65105,-0.18346 -0.21711,-0.0213 -0.95398,-0.15981 -1.55933,-0.29322 -0.16527,-0.0364 -0.21403,0.008 -0.21403,0.19676 0,0.13416 0.0412,0.22488 0.0917,0.20161 0.0505,-0.0233 0.0992,0.131 0.10842,0.3428 0.009,0.2118 0.16048,0.83364 0.33622,1.38185 0.64768,2.02042 1.59531,3.85575 2.73405,5.29518 l 0.56923,0.71956 0.37129,-0.2552 c 0.2042,-0.14035 1.19776,-0.88207 2.20792,-1.64828 z m -2.58069,-0.66847 c -0.17173,-0.29638 -0.39013,-0.66467 -0.48531,-0.81842 -0.16144,-0.26077 -0.1448,-0.32893 0.24743,-1.01411 0.39075,-0.68257 0.40806,-0.75282 0.24461,-0.99284 -0.0967,-0.14205 -0.17588,-0.29452 -0.17588,-0.33881 0,-0.0443 0.30733,-0.15409 0.68295,-0.244 l 0.68295,-0.16349 0.47615,0.25058 c 0.74252,0.39075 0.80767,0.48186 0.50016,0.69942 -0.30562,0.21621 -0.31675,0.37876 -0.0822,1.20051 l 0.17228,0.60367 -0.7575,0.58709 c -1.12136,0.86912 -1.13435,0.87111 -1.5056,0.2304 z m 5.70127,-5.49491 c 1.66119,-0.26917 3.44285,-0.70079 4.23727,-1.02652 0.44484,-0.1824 0.68768,-0.23332 0.8281,-0.17364 0.10928,0.0464 0.17406,0.1147 0.14394,0.1517 -0.0863,0.10605 1.34283,0.17757 1.47919,0.074 0.0411,-0.0312 0.0233,-0.1932 -0.0395,-0.36009 -0.0834,-0.22174 -0.19531,-0.31179 -0.41577,-0.3345 -0.16592,-0.0171 -0.35671,-0.0723 -0.42397,-0.12272 -0.0815,-0.0611 -0.0815,-0.0858 0,-0.074 0.59367,0.0856 0.55045,-0.0726 -0.23335,-0.85378 -0.93523,-0.93218 -1.17439,-1.46103 -1.29582,-2.86551 -0.1152,-1.33221 -0.18598,-1.48928 -1.31253,-2.91278 -0.91491,-1.15605 -1.13384,-1.62425 -1.13116,-2.41897 0.002,-0.50838 0.204,-1.35709 0.41152,-1.72661 0.0687,-0.12249 -0.50134,-0.13906 -4.72329,-0.13725 -4.24836,0.001 -4.89311,0.0214 -5.59647,0.16973 -1.32634,0.27973 -2.31672,0.69788 -3.13488,1.32359 -0.91223,0.69767 -1.45194,1.49101 -1.72171,2.5309 -0.124,0.47796 -0.2358,0.71936 -0.29843,0.64438 -0.0709,-0.0848 -0.1007,-0.0875 -0.10203,-0.009 -7.7e-4,0.0608 0.046,0.1331 0.10461,0.16059 0.0586,0.0275 0.11441,0.32792 0.12411,0.66763 0.0168,0.59013 -0.13394,0.92852 -0.36535,0.81991 -0.0589,-0.0276 -0.0743,0.0146 -0.0342,0.0939 0.0401,0.0793 0.0119,0.14414 -0.0626,0.14414 -0.0745,0 -0.12448,0.0314 -0.11115,0.0696 0.0466,0.13401 -0.16506,0.48985 -0.26383,0.4435 -0.0548,-0.0257 -0.0972,0.005 -0.0942,0.0683 0.0149,0.31464 -0.043,0.53929 -0.12877,0.49907 -0.0526,-0.0247 -0.0921,0.31961 -0.0876,0.76512 0.007,0.68596 0.0592,0.88932 0.34158,1.32769 0.43258,0.67142 1.12014,1.2579 2.00567,1.71079 0.39057,0.19976 0.73765,0.38574 0.77127,0.4133 0.23147,0.18963 2.71992,0.86482 3.60787,0.97889 0.26906,0.0346 0.56983,0.0955 0.66838,0.13548 0.0986,0.0399 1.39188,0.0633 2.87406,0.052 2.25648,-0.0173 2.90379,-0.0545 3.97904,-0.22866 z m -6.64143,-0.93935 c -0.51763,-0.24929 -0.6341,-0.36452 -0.58878,-0.5825 0.008,-0.0383 -0.0346,-0.0696 -0.0947,-0.0696 -0.17906,0 -0.28436,-0.28583 -0.36855,-1.00043 -0.0689,-0.58483 -0.0545,-0.66719 0.10739,-0.61435 0.61544,0.2009 1.08288,0.3069 1.36917,0.31048 0.17937,0.002 0.34448,0.0391 0.3669,0.0819 0.0906,0.17286 3.15943,-0.19038 3.15943,-0.37396 0,-0.0414 -0.055,-0.0753 -0.12231,-0.0753 -0.0673,0 -0.12229,-0.0418 -0.12229,-0.0929 0,-0.0511 0.074,-0.0929 0.1645,-0.0929 0.22172,0 0.61467,0.33923 0.47103,0.40665 -0.0628,0.0295 -0.14934,0.21124 -0.19228,0.40392 -0.11646,0.52253 -0.53389,1.16559 -0.7046,1.08547 -0.0922,-0.0433 -0.11053,-0.027 -0.0513,0.0458 0.12077,0.1484 -0.2431,0.44733 -0.81374,0.66849 -0.30415,0.11788 -0.70958,0.17587 -1.22964,0.17587 -0.65071,0 -0.86852,-0.0446 -1.35017,-0.27658 z m 2.27147,-1.24472 c 0.61259,-0.14 1.31245,-0.47727 1.31245,-0.63248 0,-0.0593 -0.0749,-0.0507 -0.18994,0.0218 -0.1162,0.0732 -0.67407,0.13565 -1.43704,0.16079 -1.01666,0.0335 -1.37701,0.008 -1.95032,-0.14037 -0.71099,-0.18343 -0.80492,-0.1566 -0.57811,0.16522 0.33216,0.47129 1.72767,0.67995 2.84296,0.42506 z m -4.24321,-2.18039 c -0.24352,-0.35762 -0.2435,-0.58005 6e-5,-0.80812 0.10588,-0.0992 0.15684,-0.11759 0.11323,-0.0409 -0.0519,0.0911 -0.0187,0.0831 0.0961,-0.0232 0.21513,-0.19931 0.33191,-0.20749 0.33191,-0.0232 0,0.0766 -0.051,0.13931 -0.11335,0.13931 -0.0623,0 -0.19617,0.12608 -0.2974,0.28018 -0.10124,0.1541 -0.13907,0.25907 -0.0841,0.23326 0.0951,-0.0446 0.27396,0.4268 0.1873,0.49357 -0.0227,0.0175 -0.12794,-0.0953 -0.2338,-0.25078 z m 8.61317,-0.15931 c -0.63902,-0.17024 -1.28568,-0.3115 -1.43704,-0.31391 -0.15134,-0.002 -0.27515,-0.0357 -0.27511,-0.074 2e-5,-0.0383 -0.20635,-0.0665 -0.45863,-0.0626 -0.25228,0.004 -0.62378,-0.0225 -0.82558,-0.0587 -0.31698,-0.0568 -0.28653,-0.0672 0.22374,-0.0767 0.58825,-0.011 0.59032,-0.0121 0.51138,-0.28502 -0.12238,-0.42315 0.29492,-1.0504 0.82618,-1.24184 0.54486,-0.19634 0.85765,-0.19634 1.4025,0 0.80447,0.28989 1.07815,1.16106 0.55517,1.76718 -0.16999,0.197 -0.1567,0.21571 0.26064,0.36683 0.24186,0.0876 0.43975,0.1933 0.43975,0.23492 0,0.0417 -0.0138,0.0706 -0.0306,0.0646 -0.0169,-0.006 -0.5534,-0.15043 -1.19242,-0.32068 z m -0.9741,-1.29515 c 0.35662,-0.14004 0.58104,-0.50158 0.42804,-0.68958 -0.13679,-0.16808 -0.51997,-0.10831 -0.91217,0.14229 -0.40463,0.25855 -0.46125,0.40085 -0.22952,0.57684 0.19005,0.14432 0.2804,0.14058 0.71365,-0.0296 z m 2.1799,0.62765 c -0.0481,-0.80365 -0.21019,-1.07292 -0.87196,-1.44812 -0.3452,-0.19573 -1.44002,-0.31159 -1.97701,-0.20926 -0.67291,0.12827 -1.75936,1.16056 -1.7909,1.70166 -0.005,0.0942 -0.0359,0.11632 -0.0705,0.0514 -0.11704,-0.21964 0.33465,-1.1416 0.72447,-1.47876 1.21054,-1.04699 3.63966,-0.83385 4.24142,0.37216 0.11338,0.22722 0.18009,0.25693 0.46677,0.20783 l 0.33449,-0.0573 -0.36157,0.22888 c -0.37189,0.23541 -0.34932,0.26899 0.23927,0.35585 0.21101,0.0311 0.19421,0.0536 -0.1223,0.16356 -0.20179,0.0701 -0.39283,0.14216 -0.42451,0.16014 -0.11095,0.0629 0.30509,0.2055 0.60796,0.20832 0.43389,0.004 0.0551,0.1824 -0.3914,0.18433 -0.18164,7.1e-4 -0.38177,0.0713 -0.44472,0.15674 -0.0806,0.10943 -0.12777,-0.0671 -0.15948,-0.5974 z m -9.15533,-0.11697 c 0,-0.0501 0.1541,-0.0911 0.34244,-0.0911 0.18834,0 0.40848,-0.0502 0.4892,-0.11146 0.10571,-0.0803 0.14676,-0.0818 0.14676,-0.006 0,0.0583 -0.063,0.13551 -0.13989,0.17162 -0.23011,0.108 -0.83851,0.13438 -0.83851,0.0364 z m -0.64208,-0.52657 c -0.11771,-0.0234 -0.21402,-0.0837 -0.21402,-0.13402 0,-0.0503 -0.055,-0.0657 -0.12231,-0.0341 -0.0673,0.0316 -0.12229,0.0107 -0.12229,-0.0464 0,-0.0571 -0.0423,-0.084 -0.0941,-0.0597 -0.0517,0.0243 -0.55333,-0.0568 -1.11457,-0.18026 -0.56123,-0.12344 -1.21599,-0.22445 -1.455,-0.22445 -0.6932,0 -0.35851,-0.13801 0.43172,-0.178 0.098,-0.005 0.15287,-0.15672 0.15287,-0.42243 0,-0.57859 0.55578,-1.07128 1.20847,-1.07128 0.24711,0 0.58539,0.0664 0.75169,0.14763 0.21433,0.10463 0.18607,0.0641 -0.097,-0.13931 -0.32326,-0.23223 -0.50316,-0.28694 -0.94357,-0.28694 -0.85669,0 -1.56145,0.54779 -1.97151,1.53241 l -0.15472,0.37149 -0.008,-0.3063 c -0.005,-0.21175 -0.11198,-0.3768 -0.3445,-0.53476 l -0.33633,-0.22847 0.34429,0.0936 c 0.45021,0.12242 0.45066,0.12234 0.45066,-0.0808 0,-0.0959 -0.0826,-0.2264 -0.18345,-0.29 -0.26913,-0.1696 -0.22367,-0.30149 0.0637,-0.18471 0.38717,0.15735 0.49067,0.0294 0.28431,-0.35133 l -0.18764,-0.34624 0.262,0.20985 c 0.20647,0.16536 0.31117,0.18987 0.49394,0.11558 0.12757,-0.0518 0.26485,-0.13468 0.30507,-0.1841 0.14184,-0.17428 0.96811,-0.28101 1.42838,-0.18449 1.18393,0.24824 1.80826,1.1933 1.54343,2.33631 -0.0628,0.27117 -0.11933,0.54528 -0.12555,0.60913 -0.006,0.0638 -0.0159,0.11124 -0.0215,0.10531 -0.005,-0.006 -0.10651,-0.0299 -0.22422,-0.0533 z m 0.14967,-0.60931 -0.003,-0.48758 -0.22436,0.37148 c -0.15256,0.25261 -0.18588,0.40865 -0.10412,0.48759 0.23304,0.225 0.33487,0.11096 0.33169,-0.37149 z m -1.26636,-1.04746 c 0.33534,-0.25465 0.33388,-0.44346 -0.004,-0.49318 -0.56842,-0.0837 -1.16626,0.27173 -1.00242,0.59594 0.10648,0.21072 0.6691,0.15326 1.00626,-0.10276 z m 11.78741,-0.70635 c -0.86599,-0.55338 -2.75208,-0.70149 -4.12764,-0.32414 -0.28588,0.0784 -0.51978,0.12531 -0.51978,0.10419 0,-0.0972 1.18364,-0.54967 1.84978,-0.70711 1.02855,-0.2431 1.91905,-0.23057 2.43661,0.0343 0.47782,0.24452 0.8852,0.72942 0.82866,0.98638 -0.0363,0.16493 -0.0752,0.15715 -0.46763,-0.0936 z m -9.97022,-1.01146 c -0.12324,-0.10341 -0.57534,-0.31935 -1.00465,-0.47983 -0.9142,-0.34177 -1.91125,-0.39383 -2.5699,-0.13416 -0.51773,0.20408 -0.50777,0.059 0.0201,-0.29299 0.9347,-0.62322 1.88213,-0.58406 2.86841,0.11855 0.31156,0.22196 0.66591,0.53247 0.78743,0.69001 0.25531,0.33102 0.21846,0.36679 -0.10137,0.0984 z m -18.05012,7.08386 c -0.0531,-0.27312 0.28579,-3.18202 0.3698,-3.17437 0.0395,0.004 0.18186,0.04 0.31639,0.081 0.37225,0.11333 0.91725,-0.13322 0.91725,-0.41499 0,-0.12637 0.0413,-0.23058 0.0917,-0.23155 0.26847,-0.005 3.0887,0.97577 3.05166,1.06147 -0.024,0.0557 -0.27336,0.11406 -0.55401,0.12976 -0.54961,0.0308 -0.57787,0.0723 -0.38915,0.57199 0.0666,0.17638 0.0776,0.35372 0.0245,0.39407 -0.0532,0.0404 -0.61056,-0.24686 -1.2387,-0.63826 l -1.14207,-0.71164 0.078,0.43305 c 0.0429,0.23817 0.11202,0.62227 0.15357,0.85355 0.0515,0.28656 0.15358,0.45223 0.32051,0.52007 0.16328,0.0663 0.21877,0.0674 0.16641,0.003 -0.1308,-0.16072 0.44982,-0.088 0.81486,0.10207 0.18576,0.0967 0.30674,0.21398 0.26882,0.26057 -0.0379,0.0466 0.0109,0.0614 0.10849,0.033 0.19581,-0.057 0.39148,0.1043 0.22259,0.18356 -0.0582,0.0273 -0.32481,-0.0726 -0.5924,-0.22202 -0.39461,-0.22038 -0.55319,-0.25817 -0.83939,-0.20004 -0.33264,0.0676 -0.35085,0.0966 -0.31762,0.50705 0.0194,0.23947 -0.0138,0.43539 -0.0738,0.43539 -0.06,0 -0.23182,-0.16592 -0.38191,-0.36872 -0.15009,-0.20279 -0.31973,-0.3907 -0.37697,-0.41756 -0.0572,-0.0268 -0.28053,0.15995 -0.49618,0.41515 -0.38876,0.46006 -0.47631,0.52877 -0.50244,0.39436 z m -1.39292,-2.85505 c -0.0673,-0.017 -0.26939,-0.0555 -0.44918,-0.0855 -0.52078,-0.0869 -1.07958,-0.57208 -1.07958,-0.9374 0,-0.1712 0.0804,-0.37235 0.17871,-0.44699 0.0983,-0.0746 0.18983,-0.29703 0.20342,-0.49422 0.0159,-0.23109 0.13049,-0.44616 0.32237,-0.60519 0.19843,-0.16444 0.27229,-0.30742 0.22153,-0.42887 -0.12262,-0.29337 0.1415,-0.67772 0.5452,-0.79344 0.20907,-0.0599 0.34299,-0.15535 0.30991,-0.22081 -0.032,-0.0634 -0.005,-0.14038 0.0607,-0.1711 0.0654,-0.0307 0.0904,-0.0909 0.0555,-0.13381 -0.0926,-0.11376 0.64814,-0.55929 0.92985,-0.55929 0.34449,0 1.10333,0.31442 1.41012,0.58427 0.24163,0.21253 0.30135,0.22305 0.75021,0.13206 0.60873,-0.12338 1.82602,0.0915 1.75941,0.31052 -0.0224,0.0737 -10e-4,0.10419 0.0467,0.0677 0.12225,-0.0928 0.56736,0.10242 0.47951,0.21034 -0.0395,0.0485 -0.0107,0.0882 0.064,0.0882 0.39708,0 0.79352,1.98428 0.48415,2.42326 -0.12926,0.18341 0.0275,0.35439 0.60764,0.66299 0.15456,0.0822 0.24343,0.19565 0.19749,0.25208 -0.0544,0.0668 -0.2513,10e-4 -0.56419,-0.18648 -0.26437,-0.159 -0.44965,-0.32722 -0.41172,-0.37381 0.0379,-0.0466 0.0244,-0.0846 -0.03,-0.0845 -0.0544,9e-5 -0.081,-0.33411 -0.0591,-0.74272 0.0256,-0.47652 -0.0268,-0.9157 -0.14612,-1.22473 -0.10229,-0.26501 -0.15269,-0.52634 -0.11199,-0.58073 0.0407,-0.0544 0.0343,-0.0719 -0.0143,-0.039 -0.0486,0.0329 -0.23094,-0.0405 -0.40527,-0.16316 -0.17433,-0.12269 -0.58907,-0.28444 -0.92166,-0.35943 -0.66641,-0.15029 -1.02158,-0.0764 -1.47925,0.3076 -0.12713,0.10668 -0.31344,0.16766 -0.42776,0.14005 -0.16011,-0.0386 -0.16723,-0.0299 -0.034,0.0423 0.19409,0.10508 0.0656,0.33251 -0.13474,0.23848 -0.078,-0.0366 -0.0977,-0.0192 -0.0477,0.0422 0.0468,0.0575 0.002,0.22673 -0.0999,0.3761 -0.10172,0.14938 -0.23358,0.43596 -0.29302,0.63686 l -0.10807,0.36526 0.5632,0.0152 c 0.6074,0.0164 0.82556,-0.072 1.16987,-0.47368 0.33025,-0.38527 0.36204,-0.24216 0.0815,0.36671 -0.13728,0.29793 -0.27776,0.62528 -0.31217,0.72745 -0.0344,0.10216 -0.0394,0.0253 -0.0112,-0.17074 0.0445,-0.30901 0.0237,-0.34685 -0.15671,-0.28416 -0.25479,0.0885 -0.8366,0.0865 -1.24764,-0.004 -0.21311,-0.0471 -0.25469,-0.0402 -0.13721,0.0229 0.18944,0.10178 0.085,0.29706 -0.15881,0.29706 -0.10394,0 -0.13896,0.0807 -0.10082,0.23219 0.0479,0.19011 0.0102,0.23218 -0.20763,0.23218 -0.14781,0 -0.23218,0.0417 -0.18981,0.0937 0.14509,0.17828 -0.0725,0.44621 -0.48228,0.59388 -0.22631,0.0815 -0.43067,0.14498 -0.45413,0.14094 -0.0235,-0.004 -0.0977,-0.0213 -0.16497,-0.0383 z m 0.67265,-0.33133 c 0,-0.0541 0.0451,-0.0772 0.10017,-0.0513 0.0551,0.0258 0.0764,-0.0762 0.0473,-0.2267 -0.0291,-0.15054 -0.10494,-0.27371 -0.16854,-0.27371 -0.0636,0 -0.0848,-0.0379 -0.0471,-0.0842 0.0377,-0.0463 -0.0436,-0.0619 -0.18078,-0.0347 -0.15488,0.0308 -0.48068,-0.0597 -0.86011,-0.23883 l -0.61079,-0.28833 -0.13399,0.2233 c -0.0797,0.13287 -0.0948,0.32955 -0.0373,0.48557 0.0532,0.14424 0.0863,0.29671 0.0737,0.33881 -0.0127,0.0421 0.032,0.0507 0.0993,0.0191 0.0673,-0.0316 0.27509,0.006 0.46166,0.0823 0.39083,0.16096 1.25648,0.19457 1.25648,0.0488 z m 0.54466,-0.97862 c 0.27492,-0.20878 0.21898,-0.76903 -0.071,-0.71143 -0.21142,0.042 -1.45203,-0.41316 -1.45203,-0.5327 0,-0.0344 -0.0795,-0.0626 -0.17665,-0.0626 -0.0972,0 -0.16596,0.0453 -0.15288,0.10061 0.0131,0.0553 -0.0366,0.0923 -0.11028,0.0822 -0.0777,-0.0107 -0.13313,0.12585 -0.13185,0.32506 0.002,0.25442 0.0919,0.40878 0.34809,0.59522 0.19023,0.13846 0.34587,0.23384 0.34587,0.21197 0,-0.0219 0.12383,-0.002 0.27518,0.0442 0.43187,0.13182 0.91238,0.10941 1.12558,-0.0525 z m 0.39795,-1.05806 c 0.035,-0.10158 0.10858,-0.1636 0.16355,-0.13779 0.055,0.0258 0.13977,-0.002 0.18844,-0.0618 0.0593,-0.0729 0.0351,-0.0837 -0.0735,-0.0327 -0.1166,0.0547 -0.14076,0.034 -0.0862,-0.0739 0.0534,-0.1057 -0.0576,-0.21102 -0.3767,-0.35733 -0.24883,-0.11409 -0.63968,-0.32947 -0.86854,-0.47862 -0.3647,-0.23767 -0.42986,-0.25254 -0.5273,-0.12032 -0.0611,0.083 -0.15226,0.13157 -0.20248,0.10801 -0.0502,-0.0236 -0.10384,0.11855 -0.11917,0.31583 -0.024,0.30886 0.0285,0.39129 0.37765,0.59356 0.76309,0.44199 1.42008,0.54762 1.52427,0.24506 z m 0.83075,-1.2084 c 0.24798,-0.28093 0.41724,-0.48568 0.37613,-0.45496 -0.0411,0.0307 -0.25702,-0.0738 -0.47979,-0.23218 -0.41902,-0.29797 -1.1805,-0.56841 -1.1805,-0.41926 0,0.0467 -0.0627,0.0848 -0.13939,0.0848 -0.20558,0 -0.46376,0.29447 -0.46822,0.53401 -0.002,0.11494 0.10159,0.28907 0.23052,0.38698 0.12892,0.0979 0.19772,0.20908 0.15288,0.24707 -0.0448,0.038 -0.0265,0.0464 0.0408,0.0186 0.0673,-0.0278 0.31492,0.0443 0.55035,0.16011 0.23543,0.11582 0.43667,0.20496 0.44721,0.1981 0.0105,-0.007 0.22206,-0.24232 0.47004,-0.52326 z m 11.06819,-5.94387 c -0.24654,-0.18722 -0.31709,-0.51698 -0.15101,-0.70587 0.15217,-0.17304 0.6121,-0.3181 0.8182,-0.25804 0.45134,0.13152 0.5799,0.74164 0.20986,0.99594 -0.29722,0.20427 -0.57945,0.19395 -0.87705,-0.0321 z m 0.48476,-0.41387 c 0.18122,-0.16581 0.0625,-0.34021 -0.18292,-0.26869 -0.19105,0.0557 -0.25331,0.40394 -0.0722,0.40394 0.059,0 0.17384,-0.0608 0.25513,-0.13525 z"
           id="path55" />
        <path
           style="fill:#000080;fill-opacity:1;stroke:url(#meshgradient2367);stroke-width:0.139188"
           d="m 51.214514,279.50673 c 0.0574,-8.15014 1.05405,-15.57849 2.50644,-18.68075 0.45472,-0.97125 0.6892,-1.21795 1.65013,-1.73608 0.49912,-0.26912 0.58989,-0.36671 0.39001,-0.41928 -0.14327,-0.0377 -0.34176,-0.2283 -0.44108,-0.4236 -0.1465,-0.28802 -0.096,-0.59644 0.26716,-1.63284 0.41928,-1.19648 0.43543,-1.34006 0.25376,-2.25725 -0.10674,-0.53871 -0.34432,-1.44618 -0.52803,-2.01658 -0.40664,-1.2626 -0.35004,-1.53119 0.61918,-2.93848 1.26052,-1.83022 1.25266,-1.80467 1.23407,-4.00961 -0.0204,-2.42947 0.0465,-2.56361 1.98172,-3.97184 0.75998,-0.55302 1.40782,-1.13341 1.46806,-1.3152 0.23118,-0.69778 1.13855,-2.65483 1.69052,-3.64625 0.46958,-0.84342 0.53879,-1.06824 0.3638,-1.18164 -0.11887,-0.077 -2.0126,-0.97982 -4.2083,-2.00624 -2.19572,-1.0264 -4.02878,-1.90674 -4.07346,-1.9563 -0.0446,-0.0496 2.76013,-0.1285 6.23291,-0.17542 l 6.31417,-0.0853 0.25504,0.24958 c 0.37113,0.36317 1.11303,0.9008 0.96309,0.6979 -0.0703,-0.0951 -0.31385,-0.34275 -0.54127,-0.55041 l -0.41353,-0.37756 0.49048,0.0256 c 0.26977,0.0141 0.58289,-0.0135 0.69583,-0.0613 0.23974,-0.10155 0.26485,0.0294 0.0502,0.26188 -0.20283,0.21959 -0.0405,0.47138 0.30387,0.47138 0.41124,0 0.87495,-0.40458 0.64464,-0.56244 -0.27214,-0.18654 -0.031,-0.281 0.35551,-0.13922 0.20087,0.0737 0.35954,0.08 0.39267,0.0157 0.0308,-0.0597 1.23453,-0.11776 2.69121,-0.12981 l 2.6356,-0.0218 3.50082,1.64504 c 1.92545,0.90475 5.82662,2.7368 8.66926,4.07122 3.38229,1.58772 5.09628,2.45761 4.95957,2.51712 -0.11486,0.05 -1.0756,0.0917 -2.13495,0.0927 l -1.9261,0.002 -4.85003,-1.34327 c -2.66751,-0.73881 -4.76415,-1.37967 -4.6592,-1.42413 0.32632,-0.13823 0.12482,-0.74216 -0.25642,-0.76844 -0.26209,-0.0181 -0.27135,-0.0101 -0.042,0.0363 0.35515,0.0717 0.39229,0.27302 0.0503,0.27302 -0.1341,0 -0.31521,0.0874 -0.40247,0.19432 -0.14366,0.17595 -0.30742,0.15249 -1.73161,-0.248 -0.86512,-0.24328 -1.93855,-0.56712 -2.38541,-0.71964 -0.44685,-0.15253 -0.97642,-0.25856 -1.17684,-0.23563 -0.47983,0.0549 -0.65008,0.005 7.72337,2.29082 l 6.91088,1.88706 -2.70368,0.0932 c -1.487,0.0513 -2.71772,0.10309 -2.73488,0.11524 -0.0171,0.0121 -0.30773,0.95547 -0.64572,2.09627 -0.33797,1.14082 -0.72926,2.19562 -0.86951,2.34399 -0.19572,0.20705 -0.26157,0.67594 -0.28313,2.0166 l -0.0281,1.74682 0.988,1.4156 c 0.5434,0.77858 1.02475,1.63909 1.06968,1.91224 0.0499,0.30347 -0.0892,1.04184 -0.35756,1.89838 -0.45113,1.43978 -0.55826,2.75458 -0.28304,3.47394 0.0848,0.22182 0.20335,0.66716 0.26329,0.98964 0.0978,0.52645 0.0624,0.62424 -0.34664,0.95747 l -0.45562,0.37113 0.40154,0.18719 c 1.09957,0.51261 1.79393,1.13068 2.14466,1.909 1.03687,2.30096 1.96373,7.47365 2.31022,12.89296 l 0.11562,1.80844 -0.40326,0.058 c -0.87358,0.12571 -6.20344,0.15161 -6.20344,0.0302 0,-0.0754 -0.0763,-0.0691 -0.20175,0.017 -0.11095,0.0761 -0.54597,0.13146 -0.96669,0.12311 l -0.76496,-0.0151 0.58844,-0.0914 c 0.53683,-0.0834 0.51472,-0.0897 -0.2522,-0.0712 l -0.8406,0.0202 0.0519,-2.76561 c 0.0683,-3.63312 -0.24282,-10.51139 -0.54496,-12.05074 -0.56351,-2.8711 -1.57758,-4.27184 -3.22143,-4.44985 -0.80141,-0.0868 -0.90306,-0.18123 -0.90622,-0.8421 -0.002,-0.49303 0.0509,-0.55126 1.08182,-1.18317 1.50784,-0.92422 3.12923,-2.31396 3.29798,-2.82681 0.26437,-0.80343 -0.25736,-2.69748 -1.10484,-4.01096 -0.60299,-0.93456 -1.28053,-1.05 -3.3101,-0.56399 -1.44481,0.34599 -1.64875,0.35439 -1.64875,0.0679 0,-0.53453 2.75706,-1.04711 3.72413,-0.69237 0.18678,0.0685 0.38013,0.0968 0.42967,0.0628 0.16381,-0.11228 -0.74975,-1.04118 -1.6722,-1.70026 -0.83292,-0.59513 -1.00861,-0.66435 -2.12972,-0.83912 -0.67206,-0.10477 -1.93653,-0.34739 -2.80995,-0.53916 l -1.58803,-0.34868 -0.62486,0.34379 c -0.34366,0.18907 -1.18877,0.73545 -1.87803,1.21416 -0.86307,0.59944 -1.29403,0.8263 -1.38442,0.72877 -0.0786,-0.0848 -0.13228,0.009 -0.13382,0.23291 -0.002,0.39435 -0.14072,0.4642 -0.47052,0.23814 -0.10937,-0.075 -0.25631,-0.097 -0.32643,-0.049 -0.0701,0.0481 0.004,0.13793 0.16532,0.1997 0.30102,0.11548 0.40874,0.44658 0.14527,0.44658 -0.0811,0 -0.24171,-0.0778 -0.35682,-0.17285 -0.30299,-0.25025 -0.50965,-0.21511 -1.24587,0.21181 l -0.65745,0.38125 0.39485,0.36607 c 0.52853,0.48998 0.7877,0.46853 0.33985,-0.0281 -0.46376,-0.51432 -0.15423,-0.66668 0.49212,-0.24223 l 0.47302,0.31062 -0.38753,0.65371 c -0.70844,1.19503 -0.96181,2.07939 -0.88599,3.09252 0.0588,0.7857 0.14497,1.01649 0.51689,1.38435 0.81919,0.81022 2.21,1.85414 3.27177,2.45573 0.83706,0.47426 1.05076,0.66171 1.05076,0.92165 0,0.50342 -0.1668,0.69085 -0.61476,0.69085 -1.45833,0 -2.64601,1.18871 -3.25086,3.25366 -0.54592,1.86374 -0.7129,4.11134 -0.84551,11.38104 -0.14557,7.98035 -0.19037,8.31807 -1.13954,8.59163 -0.29587,0.0853 -0.53793,0.20983 -0.53793,0.2768 0,0.078 0.12297,0.0695 0.34137,-0.0232 0.28227,-0.11991 0.36914,-0.1151 0.50179,0.0278 0.21965,0.23668 0.2066,0.57617 -0.0222,0.57617 -0.10969,0 -0.14818,-0.10364 -0.0927,-0.24929 0.0899,-0.23577 0.0796,-0.23851 -0.19054,-0.0501 -0.26899,0.1875 -0.26488,0.21079 0.0708,0.39966 0.25171,0.14164 0.44044,0.48482 0.64252,1.16839 0.15737,0.53231 0.39416,1.14509 0.52623,1.36173 0.13207,0.21666 0.24012,0.4135 0.24012,0.43745 0,0.0239 -0.69061,0.0435 -1.53469,0.0435 h -1.53469 l 0.0779,-0.92303 c 0.0639,-0.75624 0.14695,-0.9734 0.45975,-1.20162 l 0.3818,-0.27855 -0.43815,-0.39375 c -0.39982,-0.3593 -0.56221,-0.66008 -0.35636,-0.66008 0.0449,0 0.34555,0.19447 0.66793,0.43214 0.75712,0.55818 0.76197,0.43546 0.009,-0.21425 l -0.58679,-0.50596 -0.0322,-3.16894 -0.0322,-3.16892 -0.0977,3.41772 c -0.0864,3.02491 -0.13124,3.44314 -0.38975,3.63893 -0.33829,0.25621 -0.39463,0.46247 -0.077,0.28178 0.1724,-0.0981 0.22432,0.16228 0.26146,1.31107 l 0.0463,1.43346 0.28889,-6.91404 -6.95108,6.91404 z m 27.93469,-10.90337 c -0.0361,-0.25317 -0.1501,-0.37066 -0.38732,-0.39896 l -0.33623,-0.0401 0.33623,0.17954 c 0.30554,0.16314 0.3089,0.17988 0.0369,0.18321 -0.37474,0.005 -0.58163,0.34061 -0.28666,0.46556 0.39818,0.16869 0.69116,-0.0102 0.63722,-0.38924 z m -0.55542,0.15781 c 0.0572,-0.0634 0.17509,-0.11523 0.26208,-0.11523 0.0871,0 0.15821,0.0519 0.15821,0.11523 0,0.0634 -0.11794,0.11523 -0.26212,0.11523 -0.14414,0 -0.21535,-0.0519 -0.15817,-0.11523 z m -17.63084,-10.86079 c -0.0557,-0.1426 -0.10244,-0.3241 -0.10365,-0.40333 -9.7e-4,-0.0792 -0.17251,-0.13801 -0.38057,-0.13066 -0.28465,0.0101 -0.30545,0.0264 -0.0841,0.066 0.38646,0.0692 0.37175,0.17764 -0.0486,0.35755 -0.42699,0.18277 -0.28127,0.36966 0.28825,0.36966 0.36386,0 0.4144,-0.0398 0.32861,-0.25928 z m -0.61032,0.0289 c 0,-0.0634 0.0756,-0.11524 0.16812,-0.11524 0.0925,0 0.16811,0.0519 0.16811,0.11524 0,0.0634 -0.0756,0.11523 -0.16811,0.11523 -0.0924,0 -0.16812,-0.0519 -0.16812,-0.11523 z m 18.4619,-0.3169 c -0.0336,-0.12085 -0.22378,-0.20922 -0.47465,-0.22053 -0.37117,-0.0166 -0.37573,-0.0125 -0.0402,0.0369 0.41406,0.0609 0.4992,0.21749 0.16812,0.30905 -0.12108,0.0335 -0.0802,0.062 0.0964,0.0673 0.2046,0.007 0.28791,-0.058 0.25048,-0.19256 z m -20.21163,-8.88961 0.40482,-0.21825 -0.48779,-0.35792 c -0.57286,-0.42033 -0.70296,-0.43528 -1.10942,-0.12744 -0.32083,0.24299 -0.12567,0.32812 0.21576,0.0941 0.29239,-0.20043 0.4293,-0.0379 0.18966,0.2251 -0.22425,0.24612 -0.10992,0.60266 0.19323,0.60266 0.10388,0 0.37108,-0.0982 0.59374,-0.21827 z m -0.77208,-0.11333 c 0,-0.0556 0.10672,-0.16185 0.2372,-0.23606 0.26346,-0.14987 0.53293,0.0204 0.35122,0.22195 -0.12804,0.142 -0.58842,0.15304 -0.58842,0.0141 z m 0.91413,-0.99489 c -0.84107,-0.70352 -0.94866,-0.56449 -0.14433,0.18652 0.35305,0.32967 0.67067,0.54026 0.70581,0.46799 0.0352,-0.0723 -0.21753,-0.36678 -0.56148,-0.65451 z m 1.57758,0.17403 c 0.38267,-0.21862 0.3843,-0.22851 0.084,-0.51183 -0.16838,-0.15888 -0.44217,-0.32042 -0.60842,-0.35893 -0.3201,-0.0742 -0.79052,0.12332 -0.79052,0.33186 0,0.0809 0.0704,0.076 0.20176,-0.0141 0.11095,-0.0761 0.30184,-0.13828 0.42417,-0.13828 0.17026,0 0.15771,0.0677 -0.0536,0.28865 -0.22238,0.23262 -0.23544,0.32212 -0.0674,0.46095 0.26451,0.21845 0.33413,0.21343 0.80982,-0.0584 z m -0.61641,-0.17873 c 0.0319,-0.11295 0.15987,-0.2286 0.28429,-0.257 0.14469,-0.033 0.20527,0.0223 0.16812,0.15375 -0.0319,0.11296 -0.15988,0.22861 -0.28429,0.25701 -0.14469,0.033 -0.20527,-0.0223 -0.16812,-0.15376 z m 18.3953,-0.51091 c 0,-0.13533 -0.0616,-0.18652 -0.15106,-0.12528 -0.0831,0.057 -0.10024,0.15993 -0.0381,0.22883 0.15807,0.17531 0.18916,0.15829 0.18916,-0.10355 z m 0.74453,-0.0938 c 0,-0.33007 -0.26471,-0.60197 -0.58002,-0.5957 -0.097,0.002 -0.044,0.0564 0.11769,0.12095 0.33827,0.13506 0.39651,0.63468 0.0841,0.72109 -0.12553,0.0347 -0.0917,0.0618 0.0841,0.0673 0.21332,0.007 0.29422,-0.0796 0.29422,-0.31356 z m -11.30963,-14.53538 c 0.1636,-0.17954 0.13808,-0.27235 -0.14191,-0.51633 -0.41593,-0.36242 -0.67056,-0.37391 -1.08946,-0.0491 l -0.32026,0.24831 0.44677,-0.19695 c 0.48209,-0.21253 0.8113,-0.0762 0.39197,0.16232 -0.30459,0.17329 -0.32871,0.53717 -0.0401,0.60616 0.30085,0.072 0.52465,-0.003 0.75307,-0.25437 z m -0.79509,0.007 c 0,-0.14525 0.49352,-0.40566 0.61326,-0.32359 0.17216,0.11801 -0.0847,0.42471 -0.35581,0.42471 -0.1416,0 -0.25745,-0.0455 -0.25745,-0.10112 z m 15.00857,48.61459 c 0,-0.28522 0.0327,-0.40188 0.0729,-0.25929 0.0401,0.14262 0.0401,0.37596 0,0.51857 -0.0401,0.14259 -0.0729,0.0259 -0.0729,-0.25928 z m -23.74829,0.0289 c 0.007,-0.20486 0.29364,-0.39689 0.40663,-0.27158 0.0632,0.0702 0.0682,0.1794 0.0111,0.24276 -0.12119,0.13442 -0.42148,0.15512 -0.41772,0.0289 z m 22.90714,-1.9524 c 0.16356,-0.0292 0.39054,-0.0274 0.50436,0.005 0.11381,0.0316 -0.02,0.0554 -0.2974,0.0532 -0.27741,-0.002 -0.37056,-0.0282 -0.20696,-0.0574 z m -1.84935,-0.11524 c 0.16358,-0.0292 0.39054,-0.0274 0.50437,0.005 0.11381,0.0316 -0.02,0.0554 -0.2974,0.0532 -0.27741,-0.002 -0.37054,-0.0282 -0.20697,-0.0574 z m 2.48987,-0.56353 c 0.008,-0.13424 0.048,-0.16155 0.10157,-0.0696 0.0485,0.0832 0.0426,0.18257 -0.0133,0.22085 -0.0558,0.0383 -0.0956,-0.0298 -0.0883,-0.15123 z m -4.97977,-0.40139 c -0.0609,-0.0675 -0.0748,-0.14761 -0.0307,-0.17781 0.044,-0.0302 0.12492,0.0251 0.17968,0.12289 0.11369,0.20305 0.0168,0.23876 -0.149,0.0549 z m 8.91734,-0.10755 c 0.16736,-0.12677 0.34213,-0.23049 0.38835,-0.23049 0.0463,0 -0.0529,0.10372 -0.22022,0.23049 -0.16737,0.12674 -0.34213,0.23045 -0.38836,0.23045 -0.0463,0 0.0529,-0.10371 0.22023,-0.23045 z m -8.98121,-0.41294 c 0.008,-0.13423 0.048,-0.16154 0.10157,-0.0696 0.0486,0.0832 0.0426,0.18256 -0.0133,0.22085 -0.0558,0.0382 -0.0956,-0.0298 -0.0883,-0.15124 z m 0.15485,-0.32199 c 0,-0.0239 0.13239,-0.11467 0.29421,-0.20165 0.26664,-0.14334 0.27261,-0.13926 0.0634,0.0435 -0.21962,0.19195 -0.35769,0.25299 -0.35769,0.15813 z m 2.3537,-0.0717 c -0.15154,-0.0672 -0.17226,-0.11241 -0.052,-0.11347 0.1101,-7.9e-4 0.24698,0.0501 0.30413,0.11347 0.12899,0.14307 0.0708,0.14307 -0.25218,0 z m 4.70739,-0.61967 c 0,-0.0239 0.13239,-0.11468 0.29422,-0.20167 0.26664,-0.14334 0.2726,-0.13926 0.0634,0.0435 -0.21961,0.19196 -0.35768,0.25299 -0.35768,0.15815 z m -16.44602,-1.22962 c -0.862,-0.0483 -1.60368,-0.11289 -1.64818,-0.1434 -0.27708,-0.18991 -1.4055,-9.86305 -1.66967,-14.3129 l -0.10947,-1.84374 1.50182,1.01507 c 1.31135,0.88633 1.5294,0.99229 1.71931,0.83545 0.31481,-0.26 0.55634,-0.22357 1.10099,0.16608 0.60026,0.42942 0.74365,0.43019 1.33511,0.007 0.43904,-0.31411 0.50068,-0.32639 0.8502,-0.16942 0.36247,0.16279 0.43873,0.12461 2.00145,-1.00191 0.89356,-0.64412 1.66658,-1.14237 1.71786,-1.10722 0.0512,0.0351 0.008,1.29953 -0.0956,2.80978 -0.27718,4.03026 -0.62732,7.19208 -1.38557,12.51195 l -0.19298,1.354 -1.77899,-0.0164 c -0.97843,-0.009 -2.48425,-0.056 -3.34626,-0.10437 z m 0.11253,-10.23497 c 0.45147,-0.26838 0.4511,-0.33874 -0.004,-0.67045 -0.4538,-0.3311 -0.67135,-0.3348 -1.07945,-0.0184 l -0.32027,0.2483 0.46232,-0.20394 c 0.40296,-0.17775 0.46235,-0.18091 0.46235,-0.0247 0,0.0986 -0.0757,0.21135 -0.16814,0.25052 -0.23807,0.10085 -0.20888,0.48808 0.042,0.55746 0.11559,0.032 0.21749,0.0622 0.22647,0.0673 0.009,0.005 0.17919,-0.0877 0.37827,-0.20608 z m -0.64675,-0.11642 c 0,-0.14525 0.49352,-0.40565 0.61326,-0.32358 0.17216,0.11801 -0.0847,0.42471 -0.35581,0.42471 -0.1416,0 -0.25745,-0.0455 -0.25745,-0.10113 z m 0.86099,-1.06102 c -0.38107,-0.32806 -0.69287,-0.5302 -0.69287,-0.44923 0,0.18174 1.18169,1.18554 1.3001,1.10438 0.0471,-0.0323 -0.22615,-0.3271 -0.60723,-0.65515 z m 1.69745,0.1318 c 0.26187,-0.20964 0.25817,-0.24226 -0.0589,-0.51856 -0.3644,-0.31752 -0.79779,-0.37805 -1.12093,-0.15655 -0.34399,0.23577 -0.22147,0.3706 0.13552,0.14917 0.43532,-0.27003 0.65078,-0.12919 0.25775,0.16849 -0.16475,0.12478 -0.25494,0.3066 -0.20038,0.40403 0.1376,0.24578 0.65207,0.2215 0.98695,-0.0467 z m -0.68313,-0.0704 c 0.0319,-0.11296 0.15987,-0.22862 0.28429,-0.25702 0.14469,-0.033 0.20528,0.0223 0.16811,0.15376 -0.0319,0.11296 -0.15986,0.22862 -0.28428,0.25702 -0.1447,0.033 -0.20528,-0.0223 -0.16812,-0.15376 z m 1.48711,-0.35036 c 0,-0.0376 -0.1513,-0.20008 -0.33624,-0.36123 -0.18494,-0.16115 -0.33624,-0.33786 -0.33624,-0.39267 0,-0.1978 0.66482,-0.0944 0.8406,0.13076 0.0989,0.12675 0.25724,0.23047 0.35169,0.23047 0.0944,0 0.054,-0.11525 -0.09,-0.25612 -0.26739,-0.26166 -0.3553,-0.66575 -0.14483,-0.66575 0.0643,0 0.3291,0.13934 0.58844,0.30964 0.25933,0.1703 0.47153,0.2578 0.47153,0.19441 0,-0.0634 -0.22071,-0.26017 -0.49047,-0.43731 l -0.49048,-0.32208 -0.30343,0.2429 c -0.1669,0.13359 -0.38191,0.2429 -0.47782,0.2429 -0.0959,0 -0.27106,0.10613 -0.38925,0.23583 -0.18477,0.20281 -0.16102,0.2826 0.16971,0.5698 0.36071,0.31323 0.63677,0.43395 0.63677,0.27845 z m 2.05216,-1.57317 c -0.28571,-0.56135 -0.34663,-0.62372 -0.27535,-0.2818 l 0.0916,0.43906 -0.43506,-0.1954 c -0.23929,-0.10746 -0.47769,-0.16619 -0.52976,-0.13048 -0.0521,0.0357 0.21906,0.20067 0.60254,0.3666 0.57497,0.24879 0.67765,0.34622 0.58542,0.55568 -0.0909,0.20654 -0.0708,0.22719 0.10783,0.1106 0.18028,-0.11768 0.15388,-0.27271 -0.1472,-0.86426 z m -21.21797,-2.11047 c 0,-0.0988 0.0769,-0.14709 0.17087,-0.10727 0.094,0.0398 0.12733,0.12065 0.0742,0.17966 -0.14412,0.15983 -0.245,0.13003 -0.245,-0.0724 z m 16.89619,-6.14374 c -0.40614,-0.1274 -0.84885,-0.39726 -1.11778,-0.68136 -0.46511,-0.49137 -0.4531,-0.72438 0.0221,-0.42959 0.24604,0.15263 0.34904,0.14629 0.93182,-0.0574 0.79738,-0.27865 1.88302,-0.29587 2.41935,-0.0383 0.31505,0.15125 0.46157,0.16295 0.70991,0.0566 0.79352,-0.33968 -0.0311,0.72237 -0.85937,1.10676 -0.67353,0.31259 -1.2122,0.32366 -2.10608,0.0433 z m -3.51855,-4.68967 c -0.31139,-0.21344 -0.35202,-0.9802 -0.0624,-1.17869 0.15692,-0.10754 0.12087,-0.13827 -0.16227,-0.13827 -0.2002,0 -0.63438,0.16271 -0.96483,0.36157 l -0.60081,0.36158 -0.41375,-0.26643 c -0.46154,-0.29719 -0.54285,-0.48343 -0.16804,-0.38485 0.13517,0.0355 0.64583,-0.0693 1.13482,-0.23311 0.75557,-0.25302 0.97888,-0.28069 1.48707,-0.18421 0.59237,0.11245 1.76007,0.80638 1.35694,0.80638 -0.11522,0 -0.16666,0.0475 -0.11432,0.10556 0.12255,0.13592 -0.20401,0.72765 -0.46412,0.84102 -0.32305,0.14079 -0.74493,0.10364 -1.02824,-0.0906 z m 1.12607,-0.53913 c 0.10761,-0.2115 -0.0484,-0.43212 -0.30553,-0.43212 -0.29537,0 -0.46547,0.19964 -0.34835,0.40883 0.1148,0.20506 0.55342,0.22068 0.65388,0.0233 z m 6.6443,0.51855 c -0.14052,-0.11092 -0.29841,-0.39447 -0.35087,-0.63013 -0.0828,-0.37217 -0.031,-0.46555 0.39353,-0.71046 0.78802,-0.45448 1.3865,-0.48553 2.42394,-0.12576 0.4949,0.17163 0.98251,0.27702 1.08357,0.23421 0.2273,-0.0963 0.23449,0.002 0.0203,0.27548 -0.29076,0.37237 -0.67891,0.3745 -1.28941,0.007 -0.31697,-0.19075 -0.72672,-0.34683 -0.91057,-0.34683 -0.31644,0 -0.31981,0.0151 -0.0633,0.28341 0.66596,0.69664 -0.53187,1.6249 -1.30715,1.01298 z m 0.70774,-0.67105 c 0,-0.37822 -0.56243,-0.34457 -0.64215,0.0384 -0.0408,0.19603 0.0299,0.2581 0.29422,0.2581 0.2617,0 0.34793,-0.0735 0.34793,-0.29653 z m -7.85759,-1.59801 c -1.19105,-0.30317 -1.38522,-0.39022 -1.387,-0.62192 -0.002,-0.25306 0.0412,-0.26444 0.71244,-0.18771 1.05185,0.12026 2.31167,0.58653 2.31167,0.85558 0,0.12195 -0.0567,0.24081 -0.1261,0.26413 -0.0694,0.0234 -0.7493,-0.11621 -1.51101,-0.31008 z m -3.3729,-0.2027 c -0.23892,-0.16377 -0.26604,-0.51229 -0.0471,-0.60504 0.19294,-0.0818 0.88311,0.50264 0.7578,0.64162 -0.12966,0.1438 -0.47337,0.12611 -0.71071,-0.0366 z m 1.01705,-0.23624 c 0.10596,-0.21805 0.63053,-0.24903 0.63053,-0.0373 0,0.1069 -0.14374,0.1813 -0.35024,0.1813 -0.20545,0 -0.32133,-0.0595 -0.28029,-0.14404 z m 16.01364,-10.11177 c 0.0572,-0.0634 0.17509,-0.11523 0.26208,-0.11523 0.0871,0 0.15821,0.0519 0.15821,0.11523 0,0.0634 -0.11794,0.11523 -0.26212,0.11523 -0.14414,0 -0.21535,-0.0519 -0.15817,-0.11523 z m -10.00323,-4.7585 c 0,-0.0926 0.12075,-0.23702 0.26834,-0.32097 0.23427,-0.13327 0.26094,-0.11792 0.21014,0.1209 -0.0635,0.29895 -0.47848,0.47244 -0.47848,0.20007 z"
           id="path2365"
           sodipodi:nodetypes="csssssssssssssscscsssccccssssccsssccsscsssssscccsssscsscssscssscsssccssccsscsssssssssscsscccccscscssscssssssssssscsccssssscsscssscccccssscccccscscsccsssssccssssccsssssccsscccscssssssssssssssscscsssscccscscssssssccssscccsscsscccssssscsssscssccccccccccscssssscsssssssscssscscccccccccsccccsscssscssscsccccccscsssssccsssssssscsssssccscscscsssscsssscssssccsccssssssscsccccssssssccsssscsscssssssssssscscssccssccssssssssscsssssscssccssssssscs" />
        <path
           style="fill:#000000;stroke-width:0.244478"
           d="m 315.01326,239.70844 c -0.91439,-0.41529 -1.70229,-0.79679 -1.75088,-0.8478 -0.0486,-0.051 1.71565,-3.39852 3.92055,-7.43891 2.20489,-4.0404 4.9605,-9.09323 6.12358,-11.2285 1.16307,-2.13528 2.18723,-3.96043 2.27591,-4.05589 0.0887,-0.0955 1.39162,2.04606 2.89544,4.75896 1.50382,2.71289 3.397,6.11603 4.20706,7.5625 0.81005,1.44647 2.44771,4.37636 3.63923,6.51085 l 2.1664,3.88089 -2.04103,0.81561 c -1.12258,0.44859 -2.11658,0.76661 -2.20892,0.70671 -0.0923,-0.0599 -1.82714,-2.99966 -3.85516,-6.5328 -2.40669,-4.19288 -3.89547,-6.53884 -4.28672,-6.75484 -1.14404,-0.63161 -1.55856,-0.0974 -5.32357,6.86033 -1.9452,3.59474 -3.66332,6.53185 -3.81804,6.52691 -0.15473,-0.005 -1.02946,-0.34875 -1.94385,-0.76402 z m 19.06043,-13.82302 c -3.51695,-6.36806 -6.59895,-11.94459 -6.8489,-12.39232 l -0.45447,-0.81402 h 13.38674 13.38674 v 2.25424 2.25425 l -8.17301,0.004 c -9.13514,0.004 -9.31892,0.0334 -9.43462,1.50489 -0.0577,0.73461 0.56734,2.0272 3.99444,8.25982 2.2346,4.0639 4.06407,7.44882 4.06549,7.52203 0.002,0.0732 -0.7918,0.77495 -1.76269,1.5594 l -1.76528,1.42627 -6.39444,-11.57826 z m -24.91468,10.04702 c -0.8531,-0.69505 -1.53681,-1.41706 -1.51937,-1.60447 0.0174,-0.18741 0.77809,-1.66918 1.69033,-3.29281 3.63233,-6.46493 5.9284,-10.7344 6.20805,-11.5437 0.35298,-1.02149 0.0852,-1.71162 -0.8013,-2.06541 -0.33575,-0.13399 -4.14579,-0.23848 -8.69541,-0.23848 h -8.09783 v -2.25425 -2.25424 h 13.38586 13.38583 l -0.58895,1.0645 c -0.32392,0.58547 -2.57502,4.6713 -5.00243,9.0796 -2.42741,4.40831 -5.20614,9.45009 -6.17496,11.20396 -0.96882,1.75388 -1.86887,3.18441 -2.00011,3.17895 -0.13125,-0.006 -0.93662,-0.57859 -1.78971,-1.27365 z m -5.79168,-24.74906 c -1.41457,-0.27035 -2.5878,-0.97112 -2.97024,-1.77415 l -0.29168,-0.61247 1.92788,-0.0732 c 1.61464,-0.0613 1.97765,-0.002 2.23416,0.36648 0.43654,0.62662 3.02877,0.64081 3.62117,0.0198 0.66859,-0.70086 0.003,-1.11663 -2.30902,-1.44192 -3.3916,-0.47723 -4.2491,-0.73427 -4.77046,-1.42994 -0.70449,-0.94008 -0.61836,-1.98816 0.2319,-2.82184 2.15474,-2.11273 10.26562,-1.29404 10.26562,1.03617 0,0.40783 -0.20887,0.46213 -1.77785,0.46213 -1.4161,0 -1.82345,-0.0855 -2.00197,-0.42034 -0.34099,-0.63956 -2.91213,-0.78537 -3.47273,-0.19693 -0.69443,0.7289 -0.0324,1.05597 2.96699,1.46585 3.99175,0.54549 4.76281,0.96109 4.76281,2.56714 0,1.26313 -0.3759,1.8253 -1.60081,2.39403 -1.23703,0.57436 -4.9162,0.82223 -6.81577,0.45918 z m 9.76881,-0.17412 c -0.0875,-0.0918 -0.15908,-2.0643 -0.15908,-4.38326 v -4.21627 h 4.89187 4.89187 v 0.87665 0.87665 h -3.34079 -3.34079 v 0.87666 0.87665 h 3.10216 3.10216 v 0.87665 0.87665 h -3.10216 -3.10216 v 0.87665 0.87665 h 3.34079 3.34079 v 0.87665 0.87665 h -4.73278 c -2.60304,0 -4.80438,-0.0752 -4.89188,-0.16698 z m 10.8178,-4.21627 v -4.38326 h 2.36549 2.36551 l 1.94082,3.00566 c 1.06744,1.65311 2.0184,3.00566 2.11325,3.00566 0.0948,0 0.17044,-1.32436 0.16797,-2.94304 l -0.005,-2.94305 1.49141,-0.0746 1.49143,-0.0746 v 4.35075 4.35074 l -1.73006,0.0497 c -2.80101,0.0805 -2.79166,0.0862 -4.92852,-3.08772 -1.05277,-1.56375 -2.02554,-2.91545 -2.16171,-3.00378 -0.16598,-0.10769 -0.24758,0.87593 -0.24758,2.98507 v 3.14568 h -1.43176 -1.43177 z m 13.60179,4.22991 c 0,-0.0988 0.99183,-2.0772 2.20408,-4.39641 l 2.20407,-4.21676 h 2.06201 c 1.36715,0 2.13996,0.1055 2.29332,0.31309 0.12724,0.1722 0.77385,1.38385 1.43694,2.69257 0.66309,1.30872 1.58209,3.07585 2.04223,3.92695 0.46013,0.85111 0.7752,1.61191 0.70015,1.69068 -0.17589,0.18464 -2.40839,0.17979 -3.07031,-0.007 -0.27931,-0.0787 -0.626,-0.41527 -0.77043,-0.74799 -0.25191,-0.58033 -0.35878,-0.60495 -2.62505,-0.60495 h -2.36243 l -0.28226,0.71525 c -0.27179,0.68872 -0.34814,0.71709 -2.05729,0.76458 -0.97627,0.0271 -1.77503,-0.0315 -1.77503,-0.13034 z m 7.34402,-4.73086 c -0.42068,-0.89543 -0.82236,-1.62614 -0.89263,-1.62379 -0.10064,0.004 -0.88092,1.70042 -1.40044,3.04586 -0.0437,0.1133 0.62638,0.206 1.4892,0.206 h 1.56875 z m -21.38185,-6.59879 c -1.4807,-0.55417 -3.01086,-1.99036 -3.64384,-3.42008 -0.5436,-1.22783 -0.60947,-4.25939 -0.1193,-5.49076 0.50613,-1.27144 2.04152,-2.92005 3.23909,-3.47795 1.43888,-0.6703 3.82046,-0.67049 5.26364,-4.1e-4 1.28314,0.59576 2.44536,1.76382 3.15875,3.17459 0.68981,1.36419 0.72436,4.35544 0.0655,5.6693 -1.64106,3.27225 -4.86204,4.70616 -7.96379,3.5453 z"
           id="path30-8" />
        <path
           style="fill:#000000;stroke-width:0.244478"
           d="m 315.01325,157.4089 c -0.91439,-0.41529 -1.70229,-0.79678 -1.75088,-0.84779 -0.0486,-0.051 1.71565,-3.39852 3.92055,-7.43891 2.20489,-4.04041 4.9605,-9.09324 6.12358,-11.2285 1.16307,-2.13528 2.18723,-3.96043 2.27591,-4.0559 0.0887,-0.0955 1.39163,2.04606 2.89545,4.75896 1.50381,2.7129 3.39699,6.11604 4.20705,7.56251 0.81005,1.44646 2.44771,4.37635 3.63924,6.51085 l 2.16639,3.88089 -2.04103,0.81561 c -1.12258,0.44859 -2.11658,0.7666 -2.20892,0.70671 -0.0923,-0.0599 -1.82714,-2.99966 -3.85515,-6.5328 -2.40669,-4.19289 -3.89548,-6.53885 -4.28673,-6.75484 -1.14404,-0.63161 -1.55856,-0.0974 -5.32357,6.86032 -1.9452,3.59475 -3.66332,6.53186 -3.81804,6.52692 -0.15473,-0.005 -1.02946,-0.34875 -1.94385,-0.76403 z m 19.06044,-13.82301 c -3.51696,-6.36806 -6.59895,-11.9446 -6.84891,-12.39233 l -0.45447,-0.81401 h 13.38674 13.38675 v 2.25424 2.25425 l -8.17302,0.004 c -9.13513,0.004 -9.31891,0.0334 -9.43462,1.50489 -0.0577,0.73461 0.56734,2.0272 3.99444,8.25982 2.2346,4.0639 4.06407,7.44882 4.06549,7.52203 0.002,0.0732 -0.7918,0.77495 -1.76268,1.5594 l -1.76529,1.42627 -6.39443,-11.57826 z M 309.159,153.63291 c -0.8531,-0.69505 -1.53681,-1.41706 -1.51937,-1.60447 0.0174,-0.18741 0.77809,-1.66918 1.69033,-3.29282 3.63233,-6.46493 5.9284,-10.7344 6.20805,-11.54369 0.35298,-1.02149 0.0852,-1.71162 -0.8013,-2.06541 -0.33575,-0.13399 -4.14579,-0.23848 -8.69541,-0.23848 h -8.09782 v -2.25425 -2.25424 h 13.38585 13.38583 l -0.58895,1.0645 c -0.32392,0.58547 -2.57502,4.6713 -5.00243,9.0796 -2.42741,4.40831 -5.20614,9.45008 -6.17496,11.20395 -0.96882,1.75388 -1.86887,3.18442 -2.00011,3.17895 -0.13125,-0.006 -0.93662,-0.57858 -1.78971,-1.27364 z m -5.79168,-24.74906 c -1.41457,-0.27035 -2.58779,-0.97112 -2.97023,-1.77415 l -0.29168,-0.61247 1.92787,-0.0732 c 1.61464,-0.0613 1.97765,-0.002 2.23416,0.36648 0.43654,0.62662 3.02877,0.64081 3.62117,0.0198 0.66859,-0.70087 0.003,-1.11663 -2.30902,-1.44193 -3.3916,-0.47722 -4.2491,-0.73426 -4.77045,-1.42993 -0.70449,-0.94008 -0.61836,-1.98816 0.23189,-2.82184 2.15474,-2.11273 10.26562,-1.29404 10.26562,1.03617 0,0.40783 -0.20887,0.46213 -1.77785,0.46213 -1.4161,0 -1.82345,-0.0855 -2.00197,-0.42034 -0.34099,-0.63956 -2.91213,-0.78537 -3.47273,-0.19693 -0.69443,0.7289 -0.0324,1.05597 2.96699,1.46585 3.99175,0.54549 4.76281,0.96109 4.76281,2.56714 0,1.26313 -0.3759,1.8253 -1.60081,2.39403 -1.23703,0.57436 -4.9162,0.82223 -6.81577,0.45918 z m 9.76881,-0.17412 c -0.0875,-0.0918 -0.15908,-2.0643 -0.15908,-4.38326 v -4.21627 h 4.89187 4.89187 v 0.87665 0.87665 H 319.42 316.07921 v 0.87666 0.87665 h 3.10216 3.10216 v 0.87665 0.87665 h -3.10216 -3.10216 v 0.87665 0.87665 h 3.34079 3.34079 v 0.87665 0.87665 h -4.73278 c -2.60304,0 -4.80438,-0.0752 -4.89188,-0.16698 z m 10.8178,-4.21627 v -4.38326 h 2.36549 2.36551 l 1.94082,3.00566 c 1.06744,1.65311 2.0184,3.00566 2.11325,3.00566 0.0948,0 0.17044,-1.32436 0.16798,-2.94304 l -0.005,-2.94305 1.4914,-0.0746 1.49144,-0.0746 v 4.35075 4.35074 l -1.73006,0.0497 c -2.80102,0.0805 -2.79167,0.0862 -4.92852,-3.08772 -1.05277,-1.56375 -2.02555,-2.91545 -2.16171,-3.00378 -0.16599,-0.10769 -0.24759,0.87593 -0.24759,2.98507 v 3.14568 h -1.43176 -1.43177 z m 13.6018,4.22991 c 0,-0.0988 0.99182,-2.0772 2.20408,-4.39641 l 2.20406,-4.21676 h 2.06201 c 1.36716,0 2.13996,0.1055 2.29332,0.31309 0.12725,0.1722 0.77386,1.38385 1.43694,2.69257 0.66309,1.30872 1.5821,3.07585 2.04224,3.92695 0.46012,0.85111 0.7752,1.61191 0.70015,1.69068 -0.1759,0.18464 -2.40839,0.17979 -3.07032,-0.007 -0.27931,-0.0787 -0.62599,-0.41527 -0.77043,-0.74799 -0.25191,-0.58033 -0.35878,-0.60495 -2.62505,-0.60495 h -2.36243 l -0.28226,0.71525 c -0.27178,0.68872 -0.34814,0.71709 -2.05729,0.76458 -0.97627,0.0271 -1.77502,-0.0315 -1.77502,-0.13034 z m 7.34401,-4.73086 c -0.42068,-0.89543 -0.82235,-1.62614 -0.89263,-1.62379 -0.10064,0.004 -0.88092,1.70042 -1.40044,3.04586 -0.0437,0.1133 0.62638,0.206 1.4892,0.206 h 1.56876 z m -21.38185,-6.59878 c -1.4807,-0.55417 -3.01086,-1.99036 -3.64384,-3.42008 -0.5436,-1.22783 -0.60947,-4.25939 -0.1193,-5.49076 0.50613,-1.27144 2.04152,-2.92005 3.23909,-3.47795 1.43889,-0.6703 3.82046,-0.67049 5.26364,-4.1e-4 1.28314,0.59576 2.44537,1.76382 3.15875,3.17459 0.68981,1.36419 0.72436,4.35544 0.0655,5.6693 -1.64106,3.27225 -4.86204,4.70615 -7.96379,3.5453 z"
           id="path30-2" />
        <path
           style="fill:#4d4d4d;fill-opacity:1;stroke-width:0.207754"
           d="m 326.06285,312.2182 c -4.07346,-0.5378 -9.24563,-2.97778 -14.77017,-6.96787 -4.15229,-2.99899 -9.52542,-7.67932 -13.48504,-11.74631 l -1.94792,-2.00073 2.25694,-2.22341 c 9.34747,-9.20858 17.69926,-15.2197 24.18579,-17.40747 4.53113,-1.52827 10.5898,-1.50243 15.20062,0.0648 3.5543,1.20812 6.49971,3.03858 9.03038,5.61202 2.62174,2.66605 4.16356,5.24762 5.16239,8.64372 0.7861,2.67282 0.92402,6.93518 0.30913,9.55406 -1.47487,6.28174 -5.47022,11.23929 -11.42817,14.18045 -4.43097,2.18736 -9.38021,2.96849 -14.51395,2.29073 z m 8.43575,-4.15546 c 7.7214,-2.02891 13.4468,-8.51994 13.90795,-15.76781 0.28568,-4.49016 -1.1177,-8.39613 -4.21704,-11.73712 -2.37683,-2.56217 -5.39332,-4.38629 -9.00223,-5.44383 -1.42573,-0.41778 -2.1102,-0.48216 -5.14676,-0.48406 -3.04748,-0.002 -3.72978,0.0618 -5.25352,0.49053 -7.0029,1.97036 -11.79073,6.88163 -13.09366,13.43125 -1.11897,5.62482 1.57651,12.14462 6.60874,15.98521 2.97011,2.26677 5.37402,3.27495 9.57522,4.01574 1.13564,0.20024 5.11542,-0.0942 6.6213,-0.48991 z m -8.16645,-4.19846 c -6.81244,-1.92106 -11.49133,-8.4249 -10.40735,-14.46664 0.872,-4.86022 4.56516,-8.64176 9.86273,-10.09876 1.85793,-0.51098 5.86139,-0.62097 7.62438,-0.20946 4.86522,1.13562 8.74805,4.42407 10.16561,8.60946 0.68491,2.02224 0.6471,5.22003 -0.0851,7.19642 -0.77478,2.09135 -1.74288,3.58107 -3.35692,5.16566 -1.68398,1.65326 -3.45921,2.76182 -5.6457,3.52551 -2.15595,0.75303 -6.00733,0.88419 -8.15765,0.27781 z m 5.84795,-3.16607 c 4.51332,-1.0581 7.83338,-5.93657 7.08078,-10.40446 -0.78933,-4.68594 -4.75401,-8.03471 -9.48804,-8.01407 -2.39314,0.0105 -4.5147,0.86291 -6.31759,2.53849 -3.15446,2.93174 -3.89322,7.45047 -1.844,11.27919 0.65645,1.22652 2.59868,3.15537 3.81004,3.7838 1.82934,0.94904 4.71028,1.2973 6.75881,0.81705 z m -4.09677,-4.36488 c -3.69613,-1.33154 -4.42643,-6.31126 -1.28313,-8.74924 3.68411,-2.85747 9.15182,0.62976 8.08407,5.1559 -0.70463,2.98686 -3.85863,4.65331 -6.80094,3.59334 z"
           id="path1127" />
        <text
           xml:space="preserve"
           style="font-style:normal;font-variant:normal;font-weight:400;font-size:12.6734px;line-height:180.191%;font-family:'Roboto Th';text-align:start;letter-spacing:0px;word-spacing:0px;text-anchor:start;fill:#000000;fill-opacity:1;stroke:none;stroke-width:0.596394"
           x="101.35018"
           y="115.89038"
           id="text1152"><tspan
             sodipodi:role="line"
             x="101.35018"
             y="115.89038"
             id="tspan1136"
             style="stroke-width:0.596394"><tspan
               dx="0 0"
               dy="0 0"
               style="font-style:normal;font-variant:normal;font-weight:400;font-size:12.6734px;font-family:'Roboto Th';fill:#000000;stroke-width:0.596394"
               id="tspan1132">*Primaria </tspan><tspan
               dx="0"
               dy="0"
               style="font-style:normal;font-variant:normal;font-weight:400;font-size:12.6734px;font-family:'Roboto Th';fill:#000000;stroke-width:0.596394"
               id="tspan1134"> </tspan></tspan><tspan
             sodipodi:role="line"
             x="101.35018"
             y="138.7267"
             id="tspan1142"
             style="stroke-width:0.596394"><tspan
               dx="0 0"
               dy="0 0"
               style="font-style:normal;font-variant:normal;font-weight:400;font-size:12.6734px;font-family:'Roboto Th';fill:#000000;stroke-width:0.596394"
               id="tspan1138"> Colegio Reina De Gales</tspan><tspan
               dx="0.53111053"
               dy="0"
               style="font-style:normal;font-variant:normal;font-weight:400;font-size:12.6734px;font-family:'Roboto Th';fill:#000000;stroke-width:0.596394"
               id="tspan1140"> </tspan></tspan><tspan
             sodipodi:role="line"
             x="101.35018"
             y="161.56303"
             id="tspan1150"
             style="stroke-width:0.596394"><tspan
               dx="0 0"
               dy="0 0"
               style="font-style:normal;font-variant:normal;font-weight:400;font-size:12.6734px;font-family:'Roboto Th';fill:#000000;stroke-width:0.596394"
               id="tspan1144"> Grado 0 a 5</tspan><tspan
               dx="0.32841736"
               dy="0"
               style="font-style:normal;font-variant:normal;font-weight:400;font-size:12.6734px;font-family:'Roboto Th';fill:#000000;stroke-width:0.596394"
               id="tspan1146"> </tspan><tspan
               dx="0"
               dy="0"
               style="font-style:normal;font-variant:normal;font-weight:400;font-size:12.6734px;font-family:'Roboto Th';fill:#000000;stroke-width:0.596394"
               id="tspan1148"> </tspan></tspan></text>
        <text
           xml:space="preserve"
           style="font-style:normal;font-variant:normal;font-weight:400;font-size:12.6734px;line-height:180.191%;font-family:'Roboto Th';text-align:start;letter-spacing:0px;word-spacing:0px;text-anchor:start;fill:#000000;fill-opacity:1;stroke:none;stroke-width:0.596394"
           x="101.35018"
           y="241.62799"
           id="text1214"><tspan
             sodipodi:role="line"
             x="101.35018"
             y="241.62799"
             id="tspan1198"
             style="stroke-width:0.596394"><tspan
               dx="0 0 0 0 0 0 0 0 0 0 0 0 0 0"
               dy="0 0 0 0 0 0 0 0 0 0 0 0 0 0"
               style="font-style:normal;font-variant:normal;font-weight:400;font-size:12.6734px;font-family:'Roboto Th';fill:#000000;stroke-width:0.596394"
               id="tspan1194">*Bachillerato </tspan></tspan><tspan
             sodipodi:role="line"
             x="101.35018"
             y="264.46432"
             id="tspan1204"
             style="stroke-width:0.596394"><tspan
               dx="0 0 0"
               dy="0 0 0"
               style="font-style:normal;font-variant:normal;font-weight:400;font-size:12.6734px;font-family:'Roboto Th';fill:#000000;stroke-width:0.596394"
               id="tspan1200"> Colegio Reina De Gales</tspan><tspan
               dx="0.53111053"
               dy="0"
               style="font-style:normal;font-variant:normal;font-weight:400;font-size:12.6734px;font-family:'Roboto Th';fill:#000000;stroke-width:0.596394"
               id="tspan1202"> </tspan></tspan><tspan
             sodipodi:role="line"
             x="101.35018"
             y="287.30063"
             id="tspan1212"
             style="stroke-width:0.596394"><tspan
               dx="0 0 0 0"
               dy="0 0 0 0"
               style="font-style:normal;font-variant:normal;font-weight:400;font-size:12.6734px;font-family:'Roboto Th';fill:#000000;stroke-width:0.596394"
               id="tspan1206">   Grado 6 y 7</tspan><tspan
               dx="0.32841736"
               dy="0"
               style="font-style:normal;font-variant:normal;font-weight:400;font-size:12.6734px;font-family:'Roboto Th';fill:#000000;stroke-width:0.596394"
               id="tspan1208"> </tspan><tspan
               style="font-style:normal;font-variant:normal;font-weight:400;font-size:12.6734px;font-family:'Roboto Th';fill:#000000;stroke-width:0.596394"
               id="tspan1210" /></tspan><tspan
             sodipodi:role="line"
             x="101.35018"
             y="310.13696"
             style="stroke-width:0.596394"
             id="tspan1216"><tspan
               style="font-style:normal;font-variant:normal;font-weight:400;font-size:12.6734px;font-family:'Roboto Th';fill:#000000;stroke-width:0.596394"
               id="tspan1218"> Colegio Alberto Lleras Camargo</tspan></tspan><tspan
             sodipodi:role="line"
             x="101.35018"
             y="332.9733"
             style="stroke-width:0.596394"
             id="tspan1220"><tspan
               dx="0 0 0 0 0 0 0 0 0 0 0 0 0 0 0 0 0 0"
               dy="0 0 0 0 0 0 0 0 0 0 0 0 0 0 0 0 0 0"
               style="font-style:normal;font-variant:normal;font-weight:400;font-size:12.6734px;font-family:'Roboto Th';fill:#000000;stroke-width:0.596394"
               id="tspan1222">   Grado 8 a 11 </tspan></tspan></text>
        <text
           xml:space="preserve"
           style="font-style:normal;font-variant:normal;font-weight:400;font-size:12.067px;line-height:180.191%;font-family:'Roboto Th';text-align:start;letter-spacing:0px;word-spacing:0px;text-anchor:start;fill:#000000;fill-opacity:1;stroke:none;stroke-width:0.56786"
           x="357.13083"
           y="113.16955"
           id="text1341"><tspan
             sodipodi:role="line"
             x="357.13083"
             y="113.16955"
             id="tspan1313"
             style="stroke-width:0.56786"><tspan
               dx="0 0 0 0 0 0 0 0 0.70845193"
               dy="0 0 0 0 0 0 0 0 0"
               style="font-style:normal;font-variant:normal;font-weight:400;font-size:12.067px;font-family:'Roboto Th';fill:#000000;stroke-width:0.56786"
               id="tspan1307">*Tcnico </tspan></tspan><tspan
             sodipodi:role="line"
             x="357.13083"
             y="134.91319"
             id="tspan1321"
             style="stroke-width:0.56786"><tspan
               dx="0 0 0 0 0 0 0 0 0 0 0 0.237332 0 0 0 0 0 0 0 0 0 0 0 0 0 0 0 0 0 0 0 0 0 0.53050733"
               dy="0 0 0 0 0 0 0 0 0 0 0 0 0 0 0 0 0 0 0 0 0 0 0 0 0 0 0 0 0 0 0 0 0 0"
               style="font-style:normal;font-variant:normal;font-weight:400;font-size:12.067px;font-family:'Roboto Th';fill:#000000;stroke-width:0.56786"
               id="tspan1315">  Colegio Alberto Lleras Camargo </tspan></tspan><tspan
             sodipodi:role="line"
             x="357.13083"
             y="156.65685"
             style="stroke-width:0.56786"
             id="tspan1368"><tspan
               dx="0 0 0 0 0 0 0 0 0 0 0 0 0 0 0.27465343 0 0 0 0 0 0 0 0 0 0 0"
               dy="0 0 0 0 0 0 0 0 0 0 0 0 0 0 0 0 0 0 0 0 0 0 0 0 0 0"
               style="font-style:normal;font-variant:normal;font-weight:400;font-size:12.067px;font-family:'Roboto Th';fill:#000000;stroke-width:0.56786"
               id="tspan1370">     Impresin Serigrafa </tspan></tspan></text>
        <g
           id="g1504"
           transform="matrix(2.304866,0,0,2.304866,-610.82841,-254.00885)">
          <text
             xml:space="preserve"
             style="font-style:normal;font-variant:normal;font-weight:400;font-size:5.67835px;line-height:180.567%;font-family:'Roboto Th';text-align:start;letter-spacing:0px;word-spacing:0px;text-anchor:start;fill:#000000;fill-opacity:1;stroke:none;stroke-width:0.267216"
             x="419.96335"
             y="192.31674"
             id="text1399"><tspan
               sodipodi:role="line"
               x="419.96335"
               y="192.31674"
               id="tspan1393"
               style="stroke-width:0.267216"><tspan
                 dx="0"
                 dy="0"
                 style="font-style:normal;font-variant:normal;font-weight:400;font-size:5.67835px;font-family:'Roboto Th';fill:#000000;stroke-width:0.267216"
                 id="tspan1385">*</tspan><tspan
                 dx="0"
                 dy="0"
                 style="font-style:normal;font-variant:normal;font-weight:400;font-size:5.67835px;font-family:'Roboto Th';fill:#000000;stroke-width:0.267216"
                 id="tspan1387">Tecnlogo</tspan><tspan
                 dx="0.34077904"
                 dy="0"
                 style="font-style:normal;font-variant:normal;font-weight:400;font-size:5.67835px;font-family:'Roboto Th';fill:#000000;stroke-width:0.267216"
                 id="tspan1389"> </tspan><tspan
                 dx="0"
                 dy="0"
                 style="font-style:normal;font-variant:normal;font-weight:400;font-size:5.67835px;font-family:'Roboto Th';fill:#000000;stroke-width:0.267216"
                 id="tspan1391"> </tspan></tspan><tspan
               sodipodi:role="line"
               x="419.96335"
               y="202.56996"
               id="tspan1397"
               style="stroke-width:0.267216"><tspan
                 dx="0"
                 dy="0"
                 style="font-style:normal;font-variant:normal;font-weight:400;font-size:5.67835px;font-family:'Roboto Th';fill:#000000;stroke-width:0.267216"
                 id="tspan1395"> </tspan></tspan></text>
          <text
             xml:space="preserve"
             style="font-style:normal;font-variant:normal;font-weight:400;font-size:5.67835px;line-height:125%;font-family:'Roboto Th';text-align:start;letter-spacing:0px;word-spacing:0px;text-anchor:start;fill:#000000;fill-opacity:1;stroke:none;stroke-width:0.267216"
             x="421.33041"
             y="202.56996"
             id="text1423"><tspan
               sodipodi:role="line"
               x="421.33041"
               y="202.56996"
               id="tspan1421"
               style="stroke-width:0.267216"><tspan
                 dx="0"
                 dy="0"
                 style="font-style:normal;font-variant:normal;font-weight:400;font-size:5.67835px;font-family:'Roboto Th';fill:#000000;stroke-width:0.267216"
                 id="tspan1401"></tspan><tspan
                 dx="0"
                 dy="0"
                 style="font-style:normal;font-variant:normal;font-weight:400;font-size:5.67835px;font-family:'Roboto Th';fill:#000000;stroke-width:0.267216"
                 id="tspan1403">Centro </tspan><tspan
                 dx="0.12398584"
                 dy="0"
                 style="font-style:normal;font-variant:normal;font-weight:400;font-size:5.67835px;font-family:'Roboto Th';fill:#000000;stroke-width:0.267216"
                 id="tspan1405">P</tspan><tspan
                 dx="0"
                 dy="0"
                 style="font-style:normal;font-variant:normal;font-weight:400;font-size:5.67835px;font-family:'Roboto Th';fill:#000000;stroke-width:0.267216"
                 id="tspan1407">ara</tspan><tspan
                 dx="0"
                 dy="0"
                 style="font-style:normal;font-variant:normal;font-weight:400;font-size:5.67835px;font-family:'Roboto Th';fill:#000000;stroke-width:0.267216"
                 id="tspan1409"> </tspan><tspan
                 dx="0"
                 dy="0"
                 style="font-style:normal;font-variant:normal;font-weight:400;font-size:5.67835px;font-family:'Roboto Th';fill:#000000;stroke-width:0.267216"
                 id="tspan1411">La Industria De </tspan><tspan
                 style="font-style:normal;font-variant:normal;font-weight:400;font-size:5.67835px;font-family:'Roboto Th';fill:#000000;stroke-width:0.267216"
                 id="tspan1413" /></tspan><tspan
               sodipodi:role="line"
               x="421.33041"
               y="209.66789"
               style="stroke-width:0.267216"
               id="tspan1506"><tspan
                 dx="0 0 0.15521887"
                 dy="0 0 0"
                 style="font-style:normal;font-variant:normal;font-weight:400;font-size:5.67835px;font-family:'Roboto Th';fill:#000000;stroke-width:0.267216"
                 id="tspan1508">  Comunicacin</tspan><tspan
                 dx="0.1353094"
                 dy="0"
                 style="font-style:normal;font-variant:normal;font-weight:400;font-size:5.67835px;font-family:'Roboto Th';fill:#000000;stroke-width:0.267216"
                 id="tspan1415"> </tspan><tspan
                 dx="0"
                 dy="0"
                 style="font-style:normal;font-variant:normal;font-weight:400;font-size:5.67835px;font-family:'Roboto Th';fill:#000000;stroke-width:0.267216"
                 id="tspan1417">Grafica</tspan><tspan
                 dx="0"
                 dy="0"
                 style="font-style:normal;font-variant:normal;font-weight:400;font-size:5.67835px;font-family:'Roboto Th';fill:#000000;stroke-width:0.267216"
                 id="tspan1419"> </tspan></tspan></text>
          <text
             xml:space="preserve"
             style="font-style:normal;font-variant:normal;font-weight:400;font-size:5.67835px;line-height:125%;font-family:'Roboto Th';text-align:start;letter-spacing:0px;word-spacing:0px;text-anchor:start;fill:#000000;fill-opacity:1;stroke:none;stroke-width:0.267216"
             x="421.16809"
             y="218.20181"
             id="text1439"><tspan
               sodipodi:role="line"
               x="421.16809"
               y="218.20181"
               id="tspan1437"
               style="stroke-width:0.267216"><tspan
                 dx="0"
                 dy="0"
                 style="font-style:normal;font-variant:normal;font-weight:400;font-size:5.67835px;font-family:'Roboto Th';fill:#000000;stroke-width:0.267216"
                 id="tspan1425">  </tspan><tspan
                 dx="0"
                 dy="0"
                 style="font-style:normal;font-variant:normal;font-weight:400;font-size:5.67835px;font-family:'Roboto Th';fill:#000000;stroke-width:0.267216"
                 id="tspan1427"> </tspan><tspan
                 dx="0"
                 dy="0"
                 style="font-style:normal;font-variant:normal;font-weight:400;font-size:5.67835px;font-family:'Roboto Th';fill:#000000;stroke-width:0.267216"
                 id="tspan1429">Produccin</tspan><tspan
                 dx="0.17105862"
                 dy="0"
                 style="font-style:normal;font-variant:normal;font-weight:400;font-size:5.67835px;font-family:'Roboto Th';fill:#000000;stroke-width:0.267216"
                 id="tspan1431"> </tspan><tspan
                 dx="0"
                 dy="0"
                 style="font-style:normal;font-variant:normal;font-weight:400;font-size:5.67835px;font-family:'Roboto Th';fill:#000000;stroke-width:0.267216"
                 id="tspan1433">Multimedia</tspan><tspan
                 dx="0.10869494"
                 dy="0"
                 style="font-style:normal;font-variant:normal;font-weight:400;font-size:5.67835px;font-family:'Roboto Th';fill:#000000;stroke-width:0.267216"
                 id="tspan1435"> </tspan></tspan></text>
        </g>
        <g
           id="g1627"
           transform="matrix(2.3929902,0,0,2.041262,-681.22748,-217.07553)">
          <text
             xml:space="preserve"
             style="font-style:normal;font-variant:normal;font-weight:400;font-size:5.6224px;line-height:180.567%;font-family:'Roboto Th';text-align:start;letter-spacing:0px;word-spacing:0px;text-anchor:start;fill:#000000;fill-opacity:1;stroke:none;stroke-width:0.264583"
             x="433.91666"
             y="243.12151"
             id="text1530"><tspan
               sodipodi:role="line"
               x="433.91666"
               y="243.12151"
               id="tspan1524"
               style="stroke-width:0.264583"><tspan
                 dx="0"
                 dy="0"
                 style="font-style:normal;font-variant:normal;font-weight:400;font-size:5.6224px;font-family:'Roboto Th';fill:#000000;stroke-width:0.264583"
                 id="tspan1516">*</tspan><tspan
                 dx="0"
                 dy="0"
                 style="font-style:normal;font-variant:normal;font-weight:400;font-size:5.6224px;font-family:'Roboto Th';fill:#000000;stroke-width:0.264583"
                 id="tspan1518">Cursos Virtuale</tspan><tspan
                 dx="0.11518054"
                 dy="0"
                 style="font-style:normal;font-variant:normal;font-weight:400;font-size:5.6224px;font-family:'Roboto Th';fill:#000000;stroke-width:0.264583"
                 id="tspan1520">s</tspan><tspan
                 dx="0"
                 dy="0"
                 style="font-style:normal;font-variant:normal;font-weight:400;font-size:5.6224px;font-family:'Roboto Th';fill:#000000;stroke-width:0.264583"
                 id="tspan1522"> </tspan></tspan><tspan
               sodipodi:role="line"
               x="433.91666"
               y="253.2737"
               id="tspan1528"
               style="stroke-width:0.264583"><tspan
                 dx="0"
                 dy="0"
                 style="font-style:normal;font-variant:normal;font-weight:400;font-size:5.6224px;font-family:'Roboto Th';fill:#000000;stroke-width:0.264583"
                 id="tspan1526">  </tspan></tspan></text>
          <text
             xml:space="preserve"
             style="font-style:normal;font-variant:normal;font-weight:400;font-size:5.6224px;line-height:125%;font-family:'Roboto Th';text-align:start;letter-spacing:0px;word-spacing:0px;text-anchor:start;fill:#000000;fill-opacity:1;stroke:none;stroke-width:0.264583"
             x="436.62393"
             y="253.27373"
             id="text1536"><tspan
               sodipodi:role="line"
               x="436.62393"
               y="253.27373"
               id="tspan1534"
               style="stroke-width:0.264583"><tspan
                 dx="0"
                 dy="0"
                 style="font-style:normal;font-variant:normal;font-weight:400;font-size:5.6224px;font-family:'Roboto Th';fill:#000000;stroke-width:0.264583"
                 id="tspan1532"></tspan></tspan></text>
          <text
             xml:space="preserve"
             style="font-style:normal;font-variant:normal;font-weight:400;font-size:5.6224px;line-height:125%;font-family:'Roboto Th';text-align:start;letter-spacing:0px;word-spacing:0px;text-anchor:start;fill:#000000;fill-opacity:1;stroke:none;stroke-width:0.264583"
             x="438.78128"
             y="253.27373"
             id="text1550"><tspan
               sodipodi:role="line"
               x="438.78128"
               y="253.27373"
               id="tspan1548"
               style="stroke-width:0.264583"><tspan
                 dx="0"
                 dy="0"
                 style="font-style:normal;font-variant:normal;font-weight:400;font-size:5.6224px;font-family:'Roboto Th';fill:#000000;stroke-width:0.264583"
                 id="tspan1538"> </tspan><tspan
                 dx="0"
                 dy="0"
                 style="font-style:normal;font-variant:normal;font-weight:400;font-size:5.6224px;font-family:'Roboto Th';fill:#000000;stroke-width:0.264583"
                 id="tspan1540">English d</tspan><tspan
                 dx="0"
                 dy="0"
                 style="font-style:normal;font-variant:normal;font-weight:400;font-size:5.6224px;font-family:'Roboto Th';fill:#000000;stroke-width:0.264583"
                 id="tspan1542">o w</tspan><tspan
                 dx="0"
                 dy="0"
                 style="font-style:normal;font-variant:normal;font-weight:400;font-size:5.6224px;font-family:'Roboto Th';fill:#000000;stroke-width:0.264583"
                 id="tspan1544">ork 1</tspan><tspan
                 dx="0"
                 dy="0"
                 style="font-style:normal;font-variant:normal;font-weight:400;font-size:5.6224px;font-family:'Roboto Th';fill:#000000;stroke-width:0.264583"
                 id="tspan1546"> </tspan></tspan></text>
          <text
             xml:space="preserve"
             style="font-style:normal;font-variant:normal;font-weight:400;font-size:5.6224px;line-height:125%;font-family:'Roboto Th';text-align:start;letter-spacing:0px;word-spacing:0px;text-anchor:start;fill:#000000;fill-opacity:1;stroke:none;stroke-width:0.264583"
             x="433.91666"
             y="263.38364"
             id="text1566"><tspan
               sodipodi:role="line"
               x="433.91666"
               y="263.38364"
               id="tspan1564"
               style="stroke-width:0.264583"><tspan
                 dx="0"
                 dy="0"
                 style="font-style:normal;font-variant:normal;font-weight:400;font-size:5.6224px;font-family:'Roboto Th';fill:#000000;stroke-width:0.264583"
                 id="tspan1552">  </tspan><tspan
                 dx="0"
                 dy="0"
                 style="font-style:normal;font-variant:normal;font-weight:400;font-size:5.6224px;font-family:'Roboto Th';fill:#000000;stroke-width:0.264583"
                 id="tspan1554">English d</tspan><tspan
                 dx="0"
                 dy="0"
                 style="font-style:normal;font-variant:normal;font-weight:400;font-size:5.6224px;font-family:'Roboto Th';fill:#000000;stroke-width:0.264583"
                 id="tspan1556">o w</tspan><tspan
                 dx="0"
                 dy="0"
                 style="font-style:normal;font-variant:normal;font-weight:400;font-size:5.6224px;font-family:'Roboto Th';fill:#000000;stroke-width:0.264583"
                 id="tspan1558">ork </tspan><tspan
                 dx="0"
                 dy="0"
                 style="font-style:normal;font-variant:normal;font-weight:400;font-size:5.6224px;font-family:'Roboto Th';fill:#000000;stroke-width:0.264583"
                 id="tspan1560">2</tspan><tspan
                 dx="0"
                 dy="0"
                 style="font-style:normal;font-variant:normal;font-weight:400;font-size:5.6224px;font-family:'Roboto Th';fill:#000000;stroke-width:0.264583"
                 id="tspan1562"> </tspan></tspan></text>
        </g>
      </g>
    </g>
  </g>
</svg>
