<?xml version="1.0" encoding="UTF-8" standalone="no"?>
<svg
   xmlns:dc="http://purl.org/dc/elements/1.1/"
   xmlns:cc="http://creativecommons.org/ns#"
   xmlns:rdf="http://www.w3.org/1999/02/22-rdf-syntax-ns#"
   xmlns:svg="http://www.w3.org/2000/svg"
   xmlns="http://www.w3.org/2000/svg"
   xmlns:sodipodi="http://sodipodi.sourceforge.net/DTD/sodipodi-0.dtd"
   xmlns:inkscape="http://www.inkscape.org/namespaces/inkscape"
   width="32mm"
   height="28mm"
   viewBox="0 0 32 28"
   version="1.1"
   id="svg8"
   inkscape:version="1.0.1 (3bc2e813f5, 2020-09-07)"
   sodipodi:docname="fluidez.svg">
  <defs
     id="defs2" />
  <sodipodi:namedview
     id="base"
     pagecolor="#ffffff"
     bordercolor="#666666"
     borderopacity="1.0"
     inkscape:pageopacity="0.0"
     inkscape:pageshadow="2"
     inkscape:zoom="0.35"
     inkscape:cx="400"
     inkscape:cy="560"
     inkscape:document-units="mm"
     inkscape:current-layer="layer1"
     inkscape:document-rotation="0"
     showgrid="false"
     inkscape:window-width="1258"
     inkscape:window-height="728"
     inkscape:window-x="92"
     inkscape:window-y="0"
     inkscape:window-maximized="0" />
  <metadata
     id="metadata5">
    <rdf:RDF>
      <cc:Work
         rdf:about="">
        <dc:format>image/svg+xml</dc:format>
        <dc:type
           rdf:resource="http://purl.org/dc/dcmitype/StillImage" />
        <dc:title></dc:title>
      </cc:Work>
    </rdf:RDF>
  </metadata>
  <g
     inkscape:label="Capa 1"
     inkscape:groupmode="layer"
     id="layer1">
    <path
       style="fill:#000000;stroke-width:0.0595085"
       d="m 9.787677,25.69981 c 2.563011,-0.0172 4.34215,-0.0498 4.10608,-0.0754 -0.56895,-0.0616 -1.2483,-0.24014 -1.89684,-0.49867 -3.1684,-1.26307 -5.63013,-4.48425 -6.31524,-8.26354 -0.13535,-0.74665 -0.18334,-2.47306 -0.0921,-3.31167 0.22795,-2.09421 0.75048,-3.8274396 1.61662,-5.3623096 0.96833,-1.71594 2.51711,-3.23575 4.11738,-4.04035 0.94109,-0.47318 2.21832,-0.88334 2.75063,-0.88334 0.49994,0 0.85245,0.51286 0.66343,0.96524 -0.12228,0.29266 -0.28223,0.38304 -0.97458,0.55068 -3.424929,0.8293 -5.78245,3.56372 -6.55838,7.6068496 -0.0641,0.33377 -0.14958,1.03678 -0.19008,1.56224 -0.0866,1.12424 -0.0163,2.16946 0.21383,3.18045 0.74604,3.27666 3.16327,6.06279 5.96552,6.87592 1.33032,0.38601 2.78572,0.31412 3.41555,-0.16872 0.48975,-0.37545 0.62521,-0.96566 0.43807,-1.90872 -0.0569,-0.28736 -0.0901,-0.62096 -0.0733,-0.74134 0.0166,-0.12035 0.16985,-0.45498 0.34041,-0.7436 0.17056,-0.28862 0.29577,-0.5391 0.27825,-0.55661 -0.0176,-0.0176 -0.70508,-0.3221 -1.52792,-0.67682 -0.82284,-0.35474 -1.538309,-0.68 -1.589949,-0.72282 -0.156531,-0.12981 -0.261581,-0.45277 -0.219771,-0.67565 0.0544,-0.29017 0.37831,-0.56262 0.66884,-0.56262 0.15093,0 0.71182,0.20897 1.73855,0.64771 2.42679,1.03704 2.51787,1.08337 2.64143,1.34378 0.1493,0.31461 0.10335,0.46433 -0.41877,1.36347 l -0.45341,0.78088 0.0667,0.40279 c 0.0936,0.56571 0.0828,1.32495 -0.0245,1.73743 -0.30256,1.16162 -1.28589,1.93059 -2.70568,2.11583 -0.17999,0.0235 2.47779,0.0462 5.90622,0.0505 l 6.23352,0.007 V 14.39221 3.0856004 l -5.96573,0.002 c -5.35065,8.4e-4 -5.94703,0.0105 -5.78442,0.0908 0.12559,0.062 0.28027,0.25815 0.50334,0.63835 1.06575,1.81655 1.87291,2.73974 3.48094,3.98138 1.52086,1.17433 1.84308,1.62028 1.84113,2.5481096 -8.47e-4,0.43197 -0.0256,0.5565 -0.16902,0.85294 -0.32664,0.67506 -1.08867,1.34226 -2.11841,1.85478 -0.24547,0.12219 -0.45736,0.23228 -0.47085,0.24466 -0.0136,0.0124 0.0234,0.30226 0.082,0.64417 0.1045,0.60986 0.10429,0.62589 -0.0105,0.84639 -0.14018,0.27014 -0.14698,0.2737 -2.32527,1.22073 -3.3799,1.46942 -3.16057,1.38681 -3.43113,1.2925 -0.33635,-0.11724 -0.52935,-0.41536 -0.49164,-0.75942 0.0495,-0.4512 -0.071,-0.38545 3.58228,-1.95537 0.65459,-0.28129 1.19858,-0.51778 1.20886,-0.52554 0.0105,-0.007 -0.0269,-0.29446 -0.0828,-0.63711 -0.0559,-0.34266 -0.0828,-0.69762 -0.0599,-0.78879 0.0566,-0.22566 0.32925,-0.4671 0.62874,-0.55682 0.45016,-0.13488 1.40616,-0.66249 1.74078,-0.96073 0.53168,-0.47389 0.62339,-0.91331 0.27018,-1.2945596 -0.0744,-0.0803 -0.55038,-0.46964 -1.0577,-0.86514 -1.75205,-1.36584 -2.80266,-2.55782 -3.81253,-4.32551 -0.26395,-0.46201 -0.323,-0.61611 -0.32314,-0.8432 -1.69e-4,-0.29242 0.15983,-0.54112 0.4164,-0.64724 0.0655,-0.027 -2.21744,-0.0509 -5.0731,-0.0529 -3.41922,-0.002 -5.19211,-0.0241 -5.19211,-0.0632 0,-0.0395 3.81846,-0.0596 11.33636,-0.0596 h 11.33637 V 14.36304 25.75891 l -11.35124,-0.0143 c -7.56472,-0.009 -9.84259,-0.0244 -6.828589,-0.0446 z m 13.15389,-1.79457 c -0.22388,-0.0599 -0.43134,-0.26374 -0.50955,-0.50071 -0.0859,-0.26023 0.0416,-0.56418 0.38531,-0.91874 0.61523,-0.63464 1.20015,-1.63074 1.54055,-2.62351 0.46814,-1.36538 0.46824,-3.16024 2.2e-4,-4.5594 -0.31703,-0.94785 -0.75733,-1.70845 -1.45909,-2.52056 -0.22977,-0.26588 -0.43994,-0.56079 -0.46706,-0.65534 -0.12527,-0.43684 0.22616,-0.88829 0.6915,-0.88829 0.22848,0 0.302,0.0344 0.53919,0.25291 0.5476,0.50425 1.32787,1.61573 1.68599,2.4016 1.35672,2.97733 0.99061,6.4098 -0.95457,8.94964 -0.71981,0.93988 -1.03864,1.17309 -1.4525,1.0624 z m -2.3293,-2.75244 c -0.16535,-0.16534 -0.20233,-0.24765 -0.20233,-0.45023 0,-0.29418 0.0601,-0.41948 0.37112,-0.77466 1.13942,-1.30093 1.16064,-3.43617 0.0469,-4.71966 -0.35561,-0.40981 -0.41803,-0.53003 -0.41803,-0.80504 0,-0.21692 0.0339,-0.29436 0.20233,-0.46283 0.23874,-0.23873 0.4615,-0.27486 0.82291,-0.13346 0.38853,0.152 1.18051,1.37178 1.45616,2.24267 0.17697,0.5592 0.24562,1.66502 0.14378,2.31599 -0.13746,0.8785 -0.5452,1.76655 -1.13747,2.47736 -0.33365,0.40043 -0.51549,0.51219 -0.83337,0.51219 -0.20461,0 -0.28621,-0.0365 -0.45201,-0.20233 z m 3.62802,-10.96434 c -0.23264,-0.0502 -0.60997,-0.4287696 -0.67758,-0.6798696 -0.12571,-0.46683 0.0819,-0.94168 0.49335,-1.12846 0.31614,-0.14351 0.54227,-0.14443 0.85265,-0.003 0.86544,0.39304 0.64585,1.7044896 -0.30342,1.8121796 -0.13093,0.0148 -0.29517,0.0147 -0.365,-4.5e-4 z m 1.05508,-2.3574996 c -0.24279,-0.12478 -0.39343,-0.38273 -0.38435,-0.65812 0.006,-0.19638 0.15484,-0.51688 0.70742,-1.52794 0.38458,-0.70369 0.75305,-1.33891 0.81881,-1.4116 0.29262,-0.32346 0.78921,-0.29652 1.0884,0.059 0.26998,0.32086 0.20311,0.53707 -0.63759,2.06152 -0.77357,1.40275 -0.89639,1.55263 -1.27113,1.55126 -0.0982,-4.5e-4 -0.24289,-0.0338 -0.32156,-0.0742 z"
       id="path2142" />
  </g>
</svg>
