<?xml version="1.0" encoding="UTF-8" standalone="no"?>
<svg
   xmlns:dc="http://purl.org/dc/elements/1.1/"
   xmlns:cc="http://creativecommons.org/ns#"
   xmlns:rdf="http://www.w3.org/1999/02/22-rdf-syntax-ns#"
   xmlns:svg="http://www.w3.org/2000/svg"
   xmlns="http://www.w3.org/2000/svg"
   xmlns:sodipodi="http://sodipodi.sourceforge.net/DTD/sodipodi-0.dtd"
   xmlns:inkscape="http://www.inkscape.org/namespaces/inkscape"
   width="342mm"
   height="390mm"
   viewBox="0 0 342 390"
   version="1.1"
   id="svg8"
   inkscape:version="1.0.1 (3bc2e813f5, 2020-09-07)"
   sodipodi:docname="fondo1.svg">
  <defs
     id="defs2" />
  <sodipodi:namedview
     id="base"
     pagecolor="#ffffff"
     bordercolor="#666666"
     borderopacity="1.0"
     inkscape:pageopacity="0.0"
     inkscape:pageshadow="2"
     inkscape:zoom="0.35"
     inkscape:cx="400"
     inkscape:cy="674.28571"
     inkscape:document-units="mm"
     inkscape:current-layer="layer1"
     inkscape:document-rotation="0"
     showgrid="false"
     inkscape:window-width="1258"
     inkscape:window-height="728"
     inkscape:window-x="26"
     inkscape:window-y="0"
     inkscape:window-maximized="0" />
  <metadata
     id="metadata5">
    <rdf:RDF>
      <cc:Work
         rdf:about="">
        <dc:format>image/svg+xml</dc:format>
        <dc:type
           rdf:resource="http://purl.org/dc/dcmitype/StillImage" />
        <dc:title></dc:title>
      </cc:Work>
    </rdf:RDF>
  </metadata>
  <g
     inkscape:label="Capa 1"
     inkscape:groupmode="layer"
     id="layer1">
    <g
       id="g992"
       transform="translate(-246.86449,3.4082084)"
       style="opacity:0.33871"
       inkscape:export-xdpi="96.099998"
       inkscape:export-ydpi="96.099998">
      <path
         style="fill:#c7009f;fill-opacity:1;stroke:none;stroke-width:0.264583px;stroke-linecap:butt;stroke-linejoin:miter;stroke-opacity:1"
         d="m 532.25319,338.51251 -3.56365,48.53171 61.35309,0.30498 -0.7583,-66.20182 z"
         id="path2823"
         sodipodi:nodetypes="ccccc" />
      <path
         style="fill:#b023af;fill-opacity:1;stroke:none;stroke-width:0.264583px;stroke-linecap:butt;stroke-linejoin:miter;stroke-opacity:1"
         d="m 429.46558,326.44942 28.78251,62.10967 75.02117,-1.51487 1.47976,-46.20353 -45.4461,-29.53996 z"
         id="path2825"
         sodipodi:nodetypes="cccccc" />
      <path
         style="fill:#a269ea;fill-opacity:1;stroke:none;stroke-width:0.264583px;stroke-linecap:butt;stroke-linejoin:miter;stroke-opacity:1"
         d="M 368.26678,270.08131 C 346.53721,156.77705 348.08931,159.88128 346.53721,157.55311 344.98508,155.22494 296.09353,362.13718 296.09353,362.13718 Z"
         id="path2690"
         sodipodi:nodetypes="cscc" />
      <path
         style="fill:#6c1cd3;fill-opacity:1;stroke:none;stroke-width:0.264583px;stroke-linecap:butt;stroke-linejoin:miter;stroke-opacity:1"
         d="m 368.26678,263.19206 c 139.69018,36.47467 144.26488,43.35032 144.26488,43.35032 l -216.43813,55.11363 z"
         id="path2692"
         sodipodi:nodetypes="cccc" />
      <path
         style="fill:#a136e8;fill-opacity:1;stroke:none;stroke-width:0.264583px;stroke-linecap:butt;stroke-linejoin:miter;stroke-opacity:1"
         d="M 346.82851,157.07193 510.24431,305.00387 366.62655,264.95741 Z"
         id="path2694"
         sodipodi:nodetypes="cccc" />
      <path
         style="fill:#de7ddf;fill-opacity:1;stroke:none;stroke-width:0.264583px;stroke-linecap:butt;stroke-linejoin:miter;stroke-opacity:1"
         d="m 256.18269,255.09529 c 32.3069,22.56615 30.11128,23.78612 30.11128,23.78612 l 33.95959,-17.84089 1.72012,-7.08686 z"
         id="path2696"
         sodipodi:nodetypes="ccccc" />
      <path
         style="fill:#e631ca;fill-opacity:1;stroke:none;stroke-width:0.264583px;stroke-linecap:butt;stroke-linejoin:miter;stroke-opacity:1"
         d="m 256.50738,255.25764 c 34.7421,65.2632 34.7421,65.42555 34.7421,65.42555 l -2.75989,-42.53471 z"
         id="path2698" />
      <path
         style="fill:#d400a8;fill-opacity:1;stroke:none;stroke-width:0.264583px;stroke-linecap:butt;stroke-linejoin:miter;stroke-opacity:1"
         d="m 286.23767,277.07315 34.07339,-16.29731 -6.9809,29.14035 -22.08068,30.92934 z"
         id="path2700"
         sodipodi:nodetypes="ccccc" />
      <path
         style="fill:#c783f4;fill-opacity:1;stroke:none;stroke-width:0.264583px;stroke-linecap:butt;stroke-linejoin:miter;stroke-opacity:1"
         d="m 255.50967,102.42507 73.55417,41.27499 -13.22917,92.60416 z"
         id="path2702" />
      <path
         style="fill:#b336e8;fill-opacity:1;stroke:none;stroke-width:0.264583px;stroke-linecap:butt;stroke-linejoin:miter;stroke-opacity:1"
         d="m 256.568,102.95424 71.4375,40.21665 40.74583,-13.75833 -10.58333,-15.87499 z"
         id="path2704" />
      <path
         style="fill:#8521d9;fill-opacity:1;stroke:none;stroke-width:0.264583px;stroke-linecap:butt;stroke-linejoin:miter;stroke-opacity:1"
         d="m 380.92217,147.13964 -9.69176,-19.37327 -42.69574,14.61077 -12.7,94.19167 14.20413,-14.24325 16.93333,-65.57754 13.84171,15.79162 z"
         id="path2706"
         sodipodi:nodetypes="cccccccc" />
      <path
         style="fill:#d400a3;fill-opacity:1;stroke:none;stroke-width:0.264583px;stroke-linecap:butt;stroke-linejoin:miter;stroke-opacity:1"
         d="m 398.91384,165.92506 c -8.46667,-39.68749 -8.99583,-41.275 -8.99583,-41.275 l 39.15833,-24.34166 z"
         id="path2708" />
      <path
         style="fill:#ed8bcd;fill-opacity:1;stroke:none;stroke-width:0.264583px;stroke-linecap:butt;stroke-linejoin:miter;stroke-opacity:1"
         d="m 352.34717,108.54962 37.85499,19.7408 39.40334,-28.775765 z"
         id="path2710"
         sodipodi:nodetypes="cccc" />
      <path
         style="fill:#df2ed0;fill-opacity:1;stroke:none;stroke-width:0.264583px;stroke-linecap:butt;stroke-linejoin:miter;stroke-opacity:1"
         d="m 353.84078,109.30424 c 20.20222,29.36873 27.86285,39.68676 45.03001,57.05999 l -6.99262,-39.3016 z"
         id="path2712"
         sodipodi:nodetypes="cccc" />
      <g
         id="g4087"
         transform="translate(109.16541,38.0217)">
        <path
           style="fill:#d327bd;fill-opacity:1;stroke:none;stroke-width:0.264583px;stroke-linecap:butt;stroke-linejoin:miter;stroke-opacity:1"
           d="m 227.10124,30.031934 19.30799,-11.068522 23.28992,37.262272 -5.02708,3.704167 z"
           id="path2740"
           sodipodi:nodetypes="ccccc" />
        <path
           style="fill:#e72fca;fill-opacity:1;stroke:none;stroke-width:0.262506px;stroke-linecap:butt;stroke-linejoin:miter;stroke-opacity:1"
           d="M 136.81931,-40.721298 185.6078,-2.0776606 183.03998,-16.569025 240.55903,8.656684 220.01651,-25.156498 Z"
           id="path2742" />
        <path
           style="fill:#e876e3;fill-opacity:1;stroke:none;stroke-width:0.263817px;stroke-linecap:butt;stroke-linejoin:miter;stroke-opacity:1"
           d="m 183.46624,-16.827448 17.91055,34.677989 51.36428,-2.070497 C 237.29082,4.7671926 207.34296,-5.3462746 183.46624,-16.827448 Z"
           id="path2744"
           sodipodi:nodetypes="cccc" />
        <path
           style="fill:#e729c8;fill-opacity:1;stroke:none;stroke-width:0.264583px;stroke-linecap:butt;stroke-linejoin:miter;stroke-opacity:1"
           d="m 183.00889,-17.944679 2.50807,71.834323 15.66539,-36.315219 z"
           id="path2746"
           sodipodi:nodetypes="cccc" />
        <path
           style="fill:#dd00a9;fill-opacity:1;stroke:none;stroke-width:0.264583px;stroke-linecap:butt;stroke-linejoin:miter;stroke-opacity:1"
           d="M 185.7034,53.448732 252.40053,15.743408 200.69041,17.67615 Z"
           id="path2748"
           sodipodi:nodetypes="cccc" />
        <path
           style="fill:#e27cdf;fill-opacity:1;stroke:none;stroke-width:0.264583px;stroke-linecap:butt;stroke-linejoin:miter;stroke-opacity:1"
           d="m 220.1136,-25.120131 10.22714,-15.172863 -93.49979,-0.108474 z"
           id="path2750"
           sodipodi:nodetypes="cccc" />
        <path
           style="fill:#d700a5;fill-opacity:1;stroke:none;stroke-width:0.264583px;stroke-linecap:butt;stroke-linejoin:miter;stroke-opacity:1"
           d="m 229.97986,-40.688696 -10.20064,16.064393 20.39295,33.224474 11.45672,6.874029 -7.3323,5.27009 25.40256,35.481394 10.80066,-96.889388 z"
           id="path2763"
           sodipodi:nodetypes="cccccccc" />
      </g>
      <g
         id="g4092"
         transform="translate(250.30403,113.31247)"
         style="stroke:none">
        <path
           style="fill:#b574e8;fill-opacity:1;stroke:none;stroke-width:0.264583px;stroke-linecap:butt;stroke-linejoin:miter;stroke-opacity:1"
           d="M 191.09801,-2.1372556 156.72786,49.87623 224.87774,19.45298 223.9612,-2.5955242 Z"
           id="path2765"
           sodipodi:nodetypes="ccccc" />
        <path
           style="fill:#b337e7;fill-opacity:1;stroke:none;stroke-width:0.264583px;stroke-linecap:butt;stroke-linejoin:miter;stroke-opacity:1"
           d="m 221.57287,-2.3663899 1.14567,22.2260269 c 0.0746,1.447255 46.66835,33.911876 45.06442,33.911876 -1.60395,0 -29.48329,-56.1379029 -29.48329,-56.1379029 z"
           id="path2767"
           sodipodi:nodetypes="csscc" />
        <path
           style="fill:#5013ab;fill-opacity:1;stroke:none;stroke-width:0.264583px;stroke-linecap:butt;stroke-linejoin:miter;stroke-opacity:1"
           d="m 157.07156,49.87623 26.12131,8.248835 31.3914,-22.455161 3.43701,30.93313 49.26388,-13.060656 -45.59773,-33.682741 z"
           id="path2769" />
      </g>
      <path
         style="fill:#f4a3d3;fill-opacity:1;stroke:none;stroke-width:0.267996px;stroke-linecap:butt;stroke-linejoin:miter;stroke-opacity:1"
         d="M 393.59917,201.02494 558.60821,56.999286 576.78665,49.228267 524.52363,165.01645 Z"
         id="path2771"
         sodipodi:nodetypes="ccccc" />
      <path
         style="fill:#d800a5;fill-opacity:1;stroke:none;stroke-width:0.264583px;stroke-linecap:butt;stroke-linejoin:miter;stroke-opacity:1"
         d="m 517.92567,167.52494 70.97995,74.84921 V 46.198526 l -11.36154,2.272307 z"
         id="path2773"
         sodipodi:nodetypes="ccccc" />
      <path
         style="fill:#9f67ed;fill-opacity:1;stroke:none;stroke-width:0.264583px;stroke-linecap:butt;stroke-linejoin:miter;stroke-opacity:1"
         d="m 503.1882,269.23515 c 0,0 37.99902,-5.65281 38.75645,-8.68255 0.75742,-3.02974 16.83121,-36.41276 16.83121,-36.41276 z"
         id="path2797"
         sodipodi:nodetypes="cscc" />
      <path
         style="fill:#a136ea;fill-opacity:1;stroke:none;stroke-width:0.264583px;stroke-linecap:butt;stroke-linejoin:miter;stroke-opacity:1"
         d="m 542.00053,260.03418 32.63058,46.01967 -17.13611,-80.59732 -10.87294,24.1616 z"
         id="path2799"
         sodipodi:nodetypes="ccccc" />
      <path
         style="fill:#5113ad;fill-opacity:1;stroke:#000000;stroke-width:0.264583px;stroke-linecap:butt;stroke-linejoin:miter;stroke-opacity:1"
         d="m 503.31548,269.64181 c 3.78717,0 66.65426,28.02508 66.65426,28.02508 l -28.02509,-37.1143 z"
         id="path2801" />
      <path
         style="fill:#be25b9;fill-opacity:1;stroke:none;stroke-width:0.264583px;stroke-linecap:butt;stroke-linejoin:miter;stroke-opacity:1"
         d="m 413.93815,219.65111 c 3.02974,0.75743 -20.45073,-18.93587 -20.45073,-18.93587 l 125.91732,-34.78613 68.74846,72.62778 -0.005,42.44645 -20.45075,-6.81691 -10.60408,-47.71841 -39.38662,30.70407 z"
         id="path2803"
         sodipodi:nodetypes="ccccccccc" />
      <path
         style="fill:#e980dd;fill-opacity:1;stroke:none;stroke-width:0.264583px;stroke-linecap:butt;stroke-linejoin:miter;stroke-opacity:1"
         d="M 391.2151,-3.7921743 454.61612,32.676457 503.8339,-3.0347394 Z"
         id="path2805"
         sodipodi:nodetypes="cccc" />
      <path
         style="fill:#e92cc6;fill-opacity:1;stroke:none;stroke-width:0.264583px;stroke-linecap:butt;stroke-linejoin:miter;stroke-opacity:1"
         d="M 456.35451,31.807265 476.80524,110.5805 393.48742,-3.0347394 Z"
         id="path2807" />
      <path
         style="fill:#d700a4;fill-opacity:1;stroke:none;stroke-width:0.264583px;stroke-linecap:butt;stroke-linejoin:miter;stroke-opacity:1"
         d="m 454.92131,31.395594 47.63672,-33.6728986 21.20818,0.757435 -46.96097,110.5854996 z"
         id="path2809"
         sodipodi:nodetypes="ccccc" />
      <path
         style="fill:#a06aed;fill-opacity:1;stroke:none;stroke-width:0.264583px;stroke-linecap:butt;stroke-linejoin:miter;stroke-opacity:1"
         d="M 538.15748,-1.5198696 548.76156,31.807265 526.44517,69.439988 Z"
         id="path2811"
         sodipodi:nodetypes="cccc" />
      <path
         style="fill:#6817cc;fill-opacity:1;stroke:none;stroke-width:0.264583px;stroke-linecap:butt;stroke-linejoin:miter;stroke-opacity:1"
         d="m 548.76156,31.807265 43.18383,12.901468 -65.1036,23.053763 z"
         id="path2813"
         sodipodi:nodetypes="cccc" />
      <path
         style="fill:#af39e8;fill-opacity:1;stroke:none;stroke-width:0.264583px;stroke-linecap:butt;stroke-linejoin:miter;stroke-opacity:1"
         d="m 537.63906,-1.982406 8.06267,35.319584 46.7568,10.984957 z"
         id="path2815"
         sodipodi:nodetypes="cccc" />
      <path
         style="fill:#f522cc;fill-opacity:1;stroke:none;stroke-width:0.264583px;stroke-linecap:butt;stroke-linejoin:miter;stroke-opacity:1"
         d="m 475.64654,107.55326 -8.50491,30.40414 93.75143,-83.045865 -33.56329,11.974245 11.97639,-69.9180116 -18.20853,0.3586579 z"
         id="path2817"
         sodipodi:nodetypes="ccccccc" />
      <path
         style="fill:#f127cb;fill-opacity:1;stroke:none;stroke-width:0.264583px;stroke-linecap:butt;stroke-linejoin:miter;stroke-opacity:1"
         d="m 563.85439,21.398753 -7.51847,-23.6760576 -25.7528,0.1893588 z"
         id="path2819"
         sodipodi:nodetypes="cccc" />
      <path
         style="fill:#d1019b;fill-opacity:1;stroke:none;stroke-width:0.264583px;stroke-linecap:butt;stroke-linejoin:miter;stroke-opacity:1"
         d="m 562.63441,20.178782 27.49116,22.93367 -1.2191,-45.4379832 -32.94927,0.6163025 z"
         id="path2821"
         sodipodi:nodetypes="ccccc" />
      <path
         style="fill:#b477b9;fill-opacity:1;stroke:none;stroke-width:0.264583px;stroke-linecap:butt;stroke-linejoin:miter;stroke-opacity:1"
         d="m 490.43908,312.05817 43.17378,28.02508 53.77788,-17.66001 0.0559,-39.14759 -17.8556,-1.13618 1.87354,15.51239 c 0,0 -47.69835,-19.67827 -50.72809,-20.4357 -3.02972,-0.75745 -45.44607,-3.78716 -45.44607,-3.78716 l 35.59942,33.32712 z"
         id="path2827"
         sodipodi:nodetypes="ccccccsccc" />
    </g>
  </g>
</svg>
