<?xml version="1.0" encoding="UTF-8" standalone="no"?>
<svg
   xmlns:dc="http://purl.org/dc/elements/1.1/"
   xmlns:cc="http://creativecommons.org/ns#"
   xmlns:rdf="http://www.w3.org/1999/02/22-rdf-syntax-ns#"
   xmlns:svg="http://www.w3.org/2000/svg"
   xmlns="http://www.w3.org/2000/svg"
   xmlns:sodipodi="http://sodipodi.sourceforge.net/DTD/sodipodi-0.dtd"
   xmlns:inkscape="http://www.inkscape.org/namespaces/inkscape"
   width="89mm"
   height="85mm"
   viewBox="0 0 89 85"
   version="1.1"
   id="svg8"
   inkscape:version="1.0.1 (3bc2e813f5, 2020-09-07)"
   sodipodi:docname="fotografiar.svg">
  <defs
     id="defs2" />
  <sodipodi:namedview
     id="base"
     pagecolor="#ffffff"
     bordercolor="#666666"
     borderopacity="1.0"
     inkscape:pageopacity="0.0"
     inkscape:pageshadow="2"
     inkscape:zoom="0.35"
     inkscape:cx="400"
     inkscape:cy="560"
     inkscape:document-units="mm"
     inkscape:current-layer="g243"
     inkscape:document-rotation="0"
     showgrid="false"
     inkscape:window-width="1258"
     inkscape:window-height="728"
     inkscape:window-x="92"
     inkscape:window-y="0"
     inkscape:window-maximized="0" />
  <metadata
     id="metadata5">
    <rdf:RDF>
      <cc:Work
         rdf:about="">
        <dc:format>image/svg+xml</dc:format>
        <dc:type
           rdf:resource="http://purl.org/dc/dcmitype/StillImage" />
        <dc:title></dc:title>
      </cc:Work>
    </rdf:RDF>
  </metadata>
  <g
     inkscape:label="Capa 1"
     inkscape:groupmode="layer"
     id="layer1">
    <g
       id="g243"
       transform="translate(-228.58641,-82.587305)">
      <path
         style="opacity:1;fill:#000080;stroke-width:0.0788667"
         d="m 241.76992,150.54853 c -0.13359,-0.0185 -0.28081,-0.0634 -0.32717,-0.0998 -0.0464,-0.0364 -0.20221,-0.0858 -0.34634,-0.1099 -0.37249,-0.0622 -0.90534,-0.27474 -0.90534,-0.36102 0,-0.0402 -0.032,-0.0543 -0.0712,-0.0313 -0.0958,0.0562 -1.10908,-0.66473 -1.48938,-1.0597 -0.42229,-0.4386 -0.68289,-0.78037 -0.54032,-0.70862 0.0645,0.0324 0.0371,-0.005 -0.0606,-0.0821 -0.18657,-0.14808 -0.69774,-1.1029 -0.62658,-1.17041 0.0227,-0.0215 0.85968,0.73679 1.85997,1.68517 1.00031,0.94835 1.81873,1.70579 1.81873,1.68316 0,-0.0226 -0.85592,-0.85199 -1.90204,-1.84305 -1.88462,-1.78543 -1.9028,-1.80576 -1.98457,-2.22009 -0.0516,-0.26102 -0.0826,-2.6426 -0.0828,-6.337 l -3.3e-4,-5.91885 4.02929,-3.82215 c 2.2161,-2.10218 4.0605,-3.82231 4.09867,-3.82253 0.0381,-2.3e-4 0.0477,0.0533 0.0211,0.11883 -0.0265,0.0656 -0.0139,0.0991 0.0281,0.0744 0.042,-0.0246 1.81189,1.60106 3.9331,3.61261 2.1212,2.01159 3.87521,3.6399 3.89781,3.61845 0.0226,-0.0214 -1.73474,-1.72201 -3.90519,-3.77907 l -3.94627,-3.7401 4.00351,-3.79621 c 2.20192,-2.08792 3.99362,-3.80558 3.98156,-3.81703 -0.0121,-0.0114 -1.82221,1.68826 -4.02252,3.77715 l -4.00058,3.79797 -4.10446,-3.89708 c -2.66792,-2.53313 -4.08899,-3.93533 -4.06026,-4.00637 0.0243,-0.0601 0.0472,-1.58031 0.051,-3.37823 0.006,-2.91637 0.023,-3.32891 0.15667,-3.82494 0.18766,-0.69616 0.63158,-1.60465 0.75012,-1.53513 0.0497,0.0292 0.0639,0.0153 0.033,-0.0321 -0.0298,-0.0458 0.12397,-0.28449 0.34179,-0.53041 0.57064,-0.64429 0.87181,-0.89639 0.98884,-0.82777 0.0627,0.0368 0.0795,0.027 0.0448,-0.0262 -0.0775,-0.11894 0.8267,-0.65444 1.1063,-0.65519 0.12421,-3.1e-4 0.18429,-0.025 0.1335,-0.0548 -0.0528,-0.0309 0.0732,-0.10765 0.29393,-0.17903 0.21245,-0.0687 0.4031,-0.10891 0.42367,-0.0894 0.0206,0.0195 0.11459,-0.006 0.20893,-0.0578 0.13001,-0.0708 2.0889,-0.10263 8.09193,-0.13173 l 7.9204,-0.0384 0.22549,-0.38411 c 0.12403,-0.21125 0.3025,-0.50509 0.3966,-0.65298 0.0941,-0.14787 0.22662,-0.38499 0.29449,-0.52691 0.0935,-0.19554 0.15782,-0.24561 0.26553,-0.20671 0.10408,0.0376 0.1182,0.0285 0.0528,-0.0341 -0.0652,-0.0624 -0.0557,-0.15591 0.0351,-0.34606 0.0685,-0.14331 0.15011,-0.24554 0.18144,-0.22716 0.0313,0.0183 0.0519,-0.0268 0.0459,-0.10022 -0.006,-0.0739 0.0368,-0.12418 0.0961,-0.1125 0.059,0.0116 0.0848,-0.0133 0.0574,-0.0554 -0.048,-0.0736 -0.01,-0.15089 0.32609,-0.65704 0.0841,-0.12676 0.15379,-0.24955 0.15495,-0.27287 0.008,-0.16276 0.85874,-1.39587 1.12789,-1.63498 0.48698,-0.43262 0.91658,-0.69021 1.06253,-0.63707 0.0839,0.0306 0.10776,0.016 0.0697,-0.0425 -0.039,-0.06 -0.0126,-0.0725 0.081,-0.0384 0.0764,0.0279 0.11929,0.0204 0.0953,-0.0165 -0.12661,-0.19441 0.82138,-0.23846 5.13161,-0.23846 2.4518,0 4.45781,0.022 4.45781,0.0487 0,0.0269 -1.27523,1.25869 -2.83384,2.73748 -1.55862,1.47881 -2.83274,2.72729 -2.83139,2.77441 0.001,0.0471 0.041,0.0228 0.0882,-0.0542 0.0806,-0.13146 0.0917,-0.13193 0.1873,-0.008 0.0914,0.11862 0.10016,0.11339 0.0872,-0.0523 -0.0142,-0.18021 0.387,-0.63513 0.56603,-0.64194 0.0446,-0.002 0.0815,-0.0377 0.0822,-0.0799 0.002,-0.0999 0.46028,-0.53507 0.56555,-0.53659 0.0446,-6e-4 0.0815,-0.0358 0.0822,-0.0779 0.002,-0.0999 0.46027,-0.53506 0.56554,-0.53657 0.0446,-6.1e-4 0.0815,-0.0358 0.0823,-0.0779 0.002,-0.0999 0.46027,-0.53508 0.56554,-0.53658 0.0446,-6.1e-4 0.0816,-0.0358 0.0822,-0.078 0.002,-0.0999 0.46028,-0.53507 0.56555,-0.53659 0.0446,-6.1e-4 0.0815,-0.0358 0.0822,-0.0779 0.002,-0.0999 0.46027,-0.53506 0.56554,-0.53658 0.0446,-6.1e-4 0.0815,-0.0358 0.0822,-0.078 0.002,-0.0999 0.46026,-0.53507 0.56554,-0.53658 0.0446,-6.1e-4 0.0815,-0.0358 0.0822,-0.0779 0.002,-0.0999 0.46028,-0.53507 0.56555,-0.53658 0.0446,-6.1e-4 0.081,-0.0413 0.081,-0.0902 0,-0.049 0.0968,-0.16134 0.2152,-0.24967 0.20839,-0.15553 0.29931,-0.1606 2.87943,-0.1606 h 2.66425 l 0.66287,0.60084 c 0.36458,0.33046 0.66288,0.62854 0.66288,0.66238 0,0.0338 -0.0638,0.0141 -0.14169,-0.0439 -0.12822,-0.0954 -0.1312,-0.0927 -0.0313,0.0281 0.0607,0.0735 0.13856,0.11708 0.17298,0.0969 0.0693,-0.0406 0.64776,0.43564 0.64776,0.5334 0,0.0338 -0.0638,0.0142 -0.14169,-0.0438 -0.12823,-0.0954 -0.1312,-0.0927 -0.0313,0.0281 0.0607,0.0735 0.13855,0.11707 0.17298,0.0969 0.0693,-0.0406 0.64776,0.43564 0.64776,0.53339 0,0.0338 -0.0638,0.0142 -0.1417,-0.0438 -0.12822,-0.0954 -0.13119,-0.0927 -0.0313,0.0281 0.0607,0.0735 0.13855,0.11706 0.17299,0.0969 0.0693,-0.0406 0.64775,0.43564 0.64775,0.53339 0,0.0338 -0.0638,0.0142 -0.14169,-0.0438 -0.12823,-0.0954 -0.1312,-0.0927 -0.0313,0.0281 0.0607,0.0735 0.13856,0.11708 0.17299,0.0969 0.0693,-0.0406 0.64775,0.43564 0.64775,0.5334 0,0.0338 -0.0638,0.0142 -0.14168,-0.0438 -0.12823,-0.0954 -0.13121,-0.0927 -0.0313,0.0281 0.0607,0.0735 0.13855,0.11707 0.17297,0.0969 0.0693,-0.0406 0.64777,0.43563 0.64777,0.53339 0,0.0338 -0.0638,0.0142 -0.1417,-0.0438 -0.12822,-0.0954 -0.1312,-0.0927 -0.0313,0.0281 0.0607,0.0735 0.14371,0.11404 0.18444,0.0902 0.0407,-0.0239 0.14278,0.037 0.22675,0.13528 0.084,0.0983 0.18211,0.1509 0.21807,0.11691 0.036,-0.0339 0.0118,-0.0932 -0.0537,-0.13162 -0.0655,-0.0384 -0.12076,-0.11432 -0.12279,-0.16868 -0.002,-0.0543 -0.043,-0.0916 -0.0912,-0.0828 -0.0862,0.0158 -0.64534,-0.51681 -0.62164,-0.59206 0.007,-0.0212 -0.0162,-0.0313 -0.0508,-0.0225 -0.0685,0.0175 -0.5205,-0.42926 -0.5603,-0.55379 -0.0135,-0.0423 -0.0529,-0.0696 -0.0874,-0.0608 -0.0676,0.0172 -0.61722,-0.52786 -0.59699,-0.59206 0.007,-0.0212 -0.0162,-0.0313 -0.0508,-0.0225 -0.0685,0.0175 -0.5205,-0.42926 -0.5603,-0.55379 -0.0135,-0.0423 -0.0529,-0.0696 -0.0874,-0.0608 -0.0685,0.0175 -0.52049,-0.42926 -0.5603,-0.55379 -0.0135,-0.0423 -0.0529,-0.0696 -0.0874,-0.0608 -0.0685,0.0175 -0.52049,-0.42927 -0.56029,-0.5538 -0.0135,-0.0423 -0.0529,-0.0696 -0.0874,-0.0608 -0.0639,0.0163 -0.56866,-0.4756 -0.56866,-0.55417 0,-0.0236 2.06771,-0.0331 4.5949,-0.0212 l 4.59488,0.0216 0.53454,0.25052 c 0.29399,0.13779 0.67172,0.36171 0.83939,0.49759 0.3001,0.24321 0.78956,0.87442 1.02827,1.32605 0.067,0.12676 0.20063,0.3601 0.29697,0.51854 0.0963,0.15845 0.25192,0.41772 0.34572,0.57616 0.0938,0.15844 0.19909,0.32264 0.23394,0.3649 0.0349,0.0423 0.23593,0.37065 0.44684,0.72979 0.21091,0.35914 0.50789,0.8604 0.65995,1.11391 0.15207,0.25351 0.3173,0.5387 0.3672,0.63377 l 0.0908,0.17284 h 7.71225 c 8.43583,0 8.4055,-0.002 9.4504,0.44808 0.29317,0.12613 0.70838,0.34118 0.92268,0.4779 0.53222,0.33953 1.58154,1.37737 1.52755,1.51084 -0.0236,0.0584 -0.009,0.0861 0.0336,0.0614 0.0988,-0.0579 0.58914,0.87591 0.53293,1.01491 -0.0234,0.058 -0.009,0.0853 0.0336,0.0607 0.074,-0.0434 0.14948,0.16396 0.32109,0.88177 0.0491,0.20575 0.0835,1.69961 0.0846,3.69017 l 0.002,3.34449 -0.3175,0.34291 c -0.17463,0.18861 -0.3568,0.34291 -0.40483,0.34291 -0.048,0 -0.0868,0.0263 -0.0863,0.0585 0.002,0.0888 -0.49786,0.59041 -0.56973,0.57208 -0.0346,-0.009 -0.0661,0.0103 -0.0699,0.0425 -0.0116,0.0962 -0.50978,0.58943 -0.57784,0.57206 -0.0346,-0.009 -0.0661,0.0102 -0.0699,0.0425 -0.0116,0.0962 -0.50977,0.58944 -0.57782,0.57207 -0.0346,-0.009 -0.0661,0.0102 -0.0699,0.0425 -0.0116,0.0962 -0.50978,0.58944 -0.57783,0.57207 -0.0346,-0.009 -0.0661,0.0102 -0.0699,0.0425 -0.0116,0.0962 -0.50977,0.58943 -0.57783,0.57207 -0.0346,-0.009 -0.0661,0.0103 -0.0699,0.0425 -0.0116,0.0962 -0.50978,0.58944 -0.57783,0.57208 -0.0346,-0.009 -0.0661,0.0104 -0.0699,0.0425 -0.0116,0.0962 -0.50978,0.58943 -0.57783,0.57206 -0.0346,-0.009 -0.0661,0.0102 -0.0699,0.0425 -0.0116,0.0962 -0.50976,0.58945 -0.57782,0.57208 -0.0346,-0.009 -0.0661,0.0103 -0.0699,0.0425 -0.0116,0.0962 -0.50978,0.58945 -0.57783,0.57207 -0.0346,-0.009 -0.0661,0.0103 -0.0699,0.0425 -0.0116,0.0962 -0.50978,0.58943 -0.57783,0.57208 -0.0346,-0.009 -0.0696,0.0185 -0.0779,0.0608 -0.0277,0.1422 -0.1808,0.26759 -0.26579,0.21775 -0.0528,-0.0309 -0.0596,-0.0114 -0.0181,0.0523 0.0477,0.0732 0.0297,0.0884 -0.0644,0.0542 -0.0893,-0.0325 -0.11711,-0.0142 -0.088,0.0579 0.0234,0.0581 -0.033,0.14381 -0.12557,0.19084 -0.18714,0.095 -0.22272,0.0151 -0.067,-0.15059 0.0861,-0.0916 0.08,-0.0925 -0.0405,-0.006 -0.1134,0.0814 -0.16592,0.0827 -0.26313,0.006 -0.17134,-0.13492 -0.15205,-0.27203 0.0203,-0.14385 0.12822,0.0954 0.13121,0.0927 0.0313,-0.0281 -0.0607,-0.0735 -0.13855,-0.11707 -0.17298,-0.0969 -0.0693,0.0406 -0.64776,-0.43563 -0.64776,-0.5334 0,-0.0338 0.0638,-0.0142 0.1417,0.0438 0.12822,0.0954 0.13119,0.0927 0.0313,-0.0281 -0.0607,-0.0735 -0.13855,-0.11707 -0.17299,-0.0969 -0.0693,0.0406 -0.64775,-0.43563 -0.64775,-0.5334 0,-0.0338 0.0638,-0.0142 0.1417,0.0438 0.12822,0.0954 0.13119,0.0927 0.0313,-0.0281 -0.0607,-0.0735 -0.13856,-0.11708 -0.17299,-0.0969 -0.0693,0.0406 -0.64772,-0.43564 -0.64772,-0.53339 0,-0.0338 0.0638,-0.0142 0.14169,0.0438 0.12822,0.0954 0.1312,0.0927 0.0313,-0.0281 -0.0607,-0.0735 -0.13856,-0.11708 -0.17298,-0.0969 -0.0693,0.0406 -0.64776,-0.43565 -0.64776,-0.5334 0,-0.0339 0.0638,-0.0142 0.14169,0.0438 0.12822,0.0954 0.13121,0.0927 0.0313,-0.0281 -0.0607,-0.0735 -0.13855,-0.11706 -0.17298,-0.0969 -0.0693,0.0406 -0.64776,-0.43564 -0.64776,-0.53339 0,-0.0338 0.0638,-0.0142 0.1417,0.0438 0.12822,0.0954 0.13119,0.0927 0.0313,-0.0281 -0.0607,-0.0735 -0.13856,-0.11706 -0.17299,-0.0969 -0.0693,0.0406 -0.64775,-0.43565 -0.64775,-0.5334 0,-0.0338 0.0638,-0.0142 0.1417,0.0438 0.12822,0.0954 0.13119,0.0927 0.0313,-0.0281 -0.0607,-0.0735 -0.13856,-0.11707 -0.17299,-0.0969 -0.0693,0.0407 -0.64775,-0.43562 -0.64775,-0.53339 0,-0.0338 0.0638,-0.0142 0.14168,0.0438 0.12823,0.0954 0.13121,0.0927 0.0313,-0.0281 -0.0607,-0.0735 -0.13854,-0.11709 -0.17298,-0.0969 -0.0693,0.0406 -0.64775,-0.43562 -0.64775,-0.53338 0,-0.0338 0.0638,-0.0142 0.14169,0.0438 0.12822,0.0954 0.1312,0.0927 0.0313,-0.0281 -0.0607,-0.0735 -0.13856,-0.11708 -0.17298,-0.0969 -0.0693,0.0406 -0.64776,-0.43564 -0.64776,-0.53339 0,-0.0339 0.0638,-0.0142 0.1417,0.0438 0.12822,0.0954 0.13119,0.0927 0.0313,-0.0281 -0.0607,-0.0735 -0.13856,-0.11708 -0.17299,-0.0969 -0.0693,0.0406 -0.64775,-0.43564 -0.64775,-0.53339 0,-0.0339 0.0638,-0.0142 0.14169,0.0438 0.12822,0.0954 0.1312,0.0927 0.0313,-0.0281 -0.0607,-0.0735 -0.13855,-0.11708 -0.17299,-0.0969 -0.0693,0.0406 -0.64775,-0.43564 -0.64775,-0.5334 0,-0.0338 0.0638,-0.0142 0.14169,0.0438 0.12823,0.0954 0.1312,0.0927 0.0313,-0.0281 -0.0607,-0.0735 -0.13856,-0.11706 -0.17299,-0.0969 -0.0344,0.0201 -0.20021,-0.0829 -0.36842,-0.22907 l -0.3058,-0.26578 5.05344,-0.0214 5.05344,-0.0215 0.45504,-0.20245 c 0.61877,-0.27527 1.08687,-0.69599 1.39356,-1.25254 l 0.25654,-0.46554 v -2.22779 c 0,-2.13623 -0.008,-2.24043 -0.17476,-2.5351 -0.30989,-0.54482 -0.6474,-0.92818 -1.02751,-1.16706 -0.20428,-0.12838 -0.34525,-0.2609 -0.31328,-0.29449 0.032,-0.0336 0.0193,-0.0402 -0.0281,-0.0146 -0.0474,0.0256 -0.26919,-0.005 -0.4928,-0.0666 -0.34377,-0.0956 -1.25018,-0.10979 -5.86794,-0.0918 l -5.46137,0.0213 -0.50079,0.23555 -0.50079,0.23555 -1.11866,-1.06137 c -1.11056,-1.0537 -1.12131,-1.06138 -1.48796,-1.06138 -0.20312,0 -0.48076,0.0368 -0.61697,0.0819 -0.20301,0.0671 -0.31384,0.0533 -0.61489,-0.0769 -0.43056,-0.1861 -0.86331,-0.20349 -1.16958,-0.047 -0.31647,0.16168 -2.88069,2.65187 -2.99805,2.91149 -0.0942,0.2083 -0.0558,0.73002 0.0601,0.81785 0.0279,0.0211 0.0958,0.13576 0.15097,0.25475 0.0818,0.17646 0.0779,0.28973 -0.021,0.61456 -0.0753,0.24719 -0.0979,0.48033 -0.0596,0.61471 0.0378,0.13238 0.56244,0.69166 1.3506,1.43966 1.3799,1.30958 1.60068,1.44068 2.04652,1.21512 0.11495,-0.0582 0.89282,-0.75389 1.72859,-1.5461 0.83578,-0.79221 1.5366,-1.44039 1.55738,-1.44039 0.0208,0 0.0517,0.68275 0.0689,1.51721 0.0305,1.4895 0.0355,1.52632 0.27146,2.01654 0.44556,0.92564 1.34004,1.52437 2.38317,1.59519 0.50519,0.0343 0.58399,0.063 0.82725,0.30111 0.14789,0.14476 0.26342,0.28721 0.25674,0.31656 -0.007,0.0293 0.0162,0.0461 0.0508,0.0373 0.0685,-0.0175 0.52049,0.42926 0.56029,0.55379 0.0135,0.0423 0.0529,0.0696 0.0874,0.0608 0.0685,-0.0175 0.52049,0.42927 0.5603,0.55379 0.0135,0.0423 0.0529,0.0696 0.0874,0.0608 0.0685,-0.0175 0.5205,0.42927 0.5603,0.5538 0.0135,0.0423 0.0529,0.0696 0.0874,0.0608 0.0676,-0.0172 0.61722,0.52785 0.59699,0.59205 -0.007,0.0212 0.0162,0.0313 0.0508,0.0225 0.0685,-0.0175 0.5205,0.42926 0.5603,0.55379 0.0135,0.0423 0.0529,0.0696 0.0874,0.0608 0.0685,-0.0175 0.52049,0.42927 0.56029,0.5538 0.0135,0.0423 0.0529,0.0696 0.0874,0.0608 0.0676,-0.0172 0.61722,0.52785 0.59699,0.59205 -0.007,0.0212 0.0162,0.0313 0.0508,0.0225 0.0685,-0.0175 0.5205,0.42927 0.5603,0.55379 0.0135,0.0423 0.0529,0.0696 0.0874,0.0608 0.0685,-0.0175 0.5205,0.42927 0.5603,0.5538 0.0135,0.0423 0.0529,0.0696 0.0874,0.0608 0.0685,-0.0175 0.5205,0.42926 0.5603,0.55379 0.0135,0.0423 0.0529,0.0696 0.0874,0.0608 0.0634,-0.0161 0.5216,0.42745 0.5522,0.5346 0.009,0.0317 0.0318,0.049 0.0504,0.0384 0.0733,-0.0415 0.45184,0.36071 0.45184,0.48013 0,0.11942 -0.37849,0.52161 -0.45184,0.48012 -0.0186,-0.0105 -0.0249,-0.0105 -0.0137,1.6e-4 0.0394,0.0376 -0.52699,0.58866 -0.5889,0.57285 -0.0346,-0.009 -0.0575,9e-4 -0.0508,0.0225 0.0202,0.0642 -0.52942,0.60931 -0.59699,0.59207 -0.0346,-0.009 -0.0575,7.9e-4 -0.0508,0.0225 0.0202,0.0642 -0.52942,0.60929 -0.59701,0.59206 -0.0346,-0.009 -0.0739,0.0185 -0.0874,0.0608 -0.0367,0.11472 -0.4896,0.57231 -0.54816,0.55378 -0.0279,-0.009 -0.0508,8e-4 -0.0508,0.0225 0,0.0686 -0.54457,0.60864 -0.59699,0.59206 -0.0279,-0.009 -0.0594,0.0102 -0.0699,0.0425 -0.0335,0.10225 -0.52493,0.58881 -0.57784,0.57208 -0.0279,-0.009 -0.0594,0.0102 -0.0699,0.0425 -0.0335,0.10225 -0.52492,0.58881 -0.57782,0.57207 -0.0279,-0.009 -0.0594,0.0104 -0.0699,0.0425 -0.0335,0.10225 -0.52494,0.5888 -0.57783,0.57209 -0.0279,-0.009 -0.0594,0.0102 -0.0699,0.0425 -0.0335,0.10224 -0.52492,0.58879 -0.57782,0.57206 -0.0279,-0.009 -0.0594,0.0104 -0.0699,0.0425 -0.0335,0.10224 -0.52494,0.58881 -0.57783,0.57208 -0.0279,-0.009 -0.0594,0.0102 -0.0699,0.0425 -0.0427,0.13056 -0.53316,0.58701 -0.61464,0.57207 -0.0481,-0.009 -0.0898,0.0185 -0.0925,0.0608 -0.0115,0.17902 -0.13704,0.27731 -0.24534,0.19204 -0.0759,-0.0598 -0.12264,-0.0603 -0.16074,-0.002 -0.0295,0.0454 -0.0237,0.0775 0.013,0.0715 0.17876,-0.0295 0.20038,0.0207 0.0685,0.15901 -0.0797,0.0835 -0.17032,0.13688 -0.20148,0.11862 -0.0312,-0.0182 -0.0566,0.0172 -0.0566,0.0789 0,0.0942 0.023,0.0925 0.14334,-0.0109 0.0794,-0.0681 0.1873,-0.0973 0.24192,-0.0652 0.0608,0.0357 0.0777,0.0258 0.0441,-0.026 -0.0629,-0.0966 0.33044,-0.50028 0.43041,-0.44166 0.0366,0.0215 0.11623,-0.0211 0.17695,-0.0946 0.0999,-0.12088 0.0969,-0.12356 -0.0313,-0.0281 -0.0779,0.058 -0.1417,0.0778 -0.1417,0.0438 0,-0.0978 0.57842,-0.57405 0.64776,-0.5334 0.0344,0.0202 0.11228,-0.0234 0.17298,-0.0969 0.0999,-0.1209 0.0969,-0.12357 -0.0313,-0.0281 -0.0779,0.058 -0.14168,0.0778 -0.14168,0.0438 0,-0.0977 0.57841,-0.57405 0.64775,-0.53339 0.0344,0.0202 0.11227,-0.0234 0.17298,-0.0969 0.0999,-0.1209 0.0969,-0.12357 -0.0313,-0.0281 -0.0779,0.058 -0.14169,0.0778 -0.14169,0.0438 0,-0.0977 0.57841,-0.57405 0.64775,-0.53339 0.0344,0.0202 0.11227,-0.0234 0.17299,-0.0969 0.0999,-0.12088 0.0969,-0.12356 -0.0313,-0.0281 -0.0779,0.058 -0.1417,0.0778 -0.1417,0.0438 0,-0.0978 0.57842,-0.57405 0.64775,-0.53339 0.0344,0.0201 0.11228,-0.0234 0.17299,-0.0969 0.0999,-0.12089 0.0969,-0.12357 -0.0313,-0.0281 -0.0779,0.058 -0.14169,0.0778 -0.14169,0.0438 0,-0.0978 0.57841,-0.57405 0.64775,-0.5334 0.0344,0.0202 0.11227,-0.0234 0.17299,-0.0969 0.0999,-0.12089 0.0969,-0.12357 -0.0313,-0.0281 -0.0779,0.058 -0.1417,0.0778 -0.1417,0.0438 0,-0.0978 0.57842,-0.57405 0.64776,-0.5334 0.0344,0.0202 0.11227,-0.0234 0.17298,-0.0969 0.0999,-0.12088 0.0969,-0.12356 -0.0313,-0.0281 -0.0779,0.058 -0.14169,0.0778 -0.14169,0.0438 0,-0.0978 0.57842,-0.57405 0.64775,-0.5334 0.0344,0.0202 0.11228,-0.0234 0.17299,-0.0969 0.0999,-0.12088 0.0969,-0.12356 -0.0313,-0.0281 -0.0779,0.058 -0.14168,0.0778 -0.14168,0.0438 0,-0.0978 0.57841,-0.57405 0.64775,-0.5334 0.0344,0.0202 0.11227,-0.0234 0.17299,-0.0969 0.0999,-0.12089 0.0969,-0.12356 -0.0313,-0.0281 -0.0779,0.058 -0.1417,0.0778 -0.1417,0.0438 0,-0.0978 0.57841,-0.57404 0.64775,-0.53338 0.0344,0.0201 0.11227,-0.0234 0.17299,-0.0969 0.0999,-0.12088 0.0969,-0.12356 -0.0313,-0.0281 -0.0779,0.058 -0.1417,0.0778 -0.1417,0.0438 0,-0.0978 0.57841,-0.57405 0.64776,-0.53339 0.0344,0.0202 0.11228,-0.0234 0.17298,-0.0969 0.0999,-0.12089 0.0969,-0.12357 -0.0313,-0.0281 -0.0779,0.058 -0.14169,0.0777 -0.14169,0.0438 0,-0.0978 0.57842,-0.57405 0.64776,-0.53339 0.0344,0.0202 0.11227,-0.0234 0.17298,-0.0969 0.0999,-0.12089 0.0969,-0.12357 -0.0313,-0.0281 -0.17229,0.1282 -0.19157,-0.009 -0.0203,-0.14384 0.0972,-0.0766 0.14973,-0.0753 0.26315,0.006 0.12054,0.0866 0.12657,0.0857 0.0404,-0.006 -0.15571,-0.16566 -0.12013,-0.2456 0.067,-0.15058 0.0926,0.047 0.14904,0.13279 0.12558,0.19084 -0.0292,0.072 -10e-4,0.0904 0.088,0.0579 0.094,-0.0342 0.11203,-0.0191 0.0644,0.0542 -0.0415,0.0638 -0.0348,0.0833 0.0181,0.0523 0.085,-0.0498 0.23807,0.0756 0.26581,0.21775 0.009,0.0423 0.0433,0.0696 0.0778,0.0608 0.0681,-0.0173 0.5663,0.47592 0.57784,0.57208 0.004,0.0322 0.0353,0.0513 0.0699,0.0425 0.0681,-0.0173 0.56629,0.47591 0.57784,0.57207 0.004,0.0322 0.0353,0.0514 0.0699,0.0425 0.0681,-0.0173 0.56628,0.47592 0.57781,0.57208 0.004,0.0322 0.0353,0.0513 0.0699,0.0425 0.0681,-0.0173 0.56631,0.47591 0.57784,0.57207 0.004,0.0322 0.0353,0.0514 0.0699,0.0425 0.0676,-0.0172 0.61722,0.52785 0.59701,0.59206 -0.007,0.0212 0.0162,0.0313 0.0508,0.0225 0.0685,-0.0175 0.52049,0.42926 0.5603,0.55379 0.0135,0.0423 0.0529,0.0696 0.0874,0.0608 0.0685,-0.0175 0.5205,0.42927 0.5603,0.55379 0.0135,0.0423 0.0529,0.0696 0.0874,0.0608 0.0632,-0.0161 0.50384,0.41018 0.57244,0.5538 0.0202,0.0423 0.0595,0.0696 0.0874,0.0608 0.0524,-0.0166 0.59699,0.5235 0.59699,0.59205 0,0.0212 0.0229,0.0313 0.0508,0.0225 0.0621,-0.0196 0.51719,0.44699 0.54007,0.55379 0.009,0.0423 0.0558,0.0768 0.10379,0.0768 0.048,0 0.2302,0.15431 0.40483,0.3429 l 0.31751,0.3429 v 6.00925 c 0,5.18089 -0.0175,6.08071 -0.12674,6.52773 -0.1387,0.5674 -0.39541,0.98333 -0.56808,0.92046 -0.0603,-0.022 -0.13469,-0.002 -0.16527,0.0454 -0.0337,0.0517 -0.0187,0.0637 0.0379,0.0305 0.16859,-0.0989 0.0978,0.048 -0.11201,0.23255 -0.11301,0.0994 -0.24794,0.17249 -0.29985,0.16246 -0.0519,-0.0101 -0.0961,0.0337 -0.0981,0.097 -0.005,0.14375 -0.43569,0.55468 -0.52613,0.50165 -0.0366,-0.0215 -0.11623,0.0211 -0.17694,0.0946 -0.0999,0.12089 -0.0969,0.12356 0.0313,0.0281 0.0779,-0.058 0.14169,-0.0778 0.14169,-0.0438 0,0.0978 -0.57841,0.57404 -0.64776,0.53337 -0.0344,-0.0201 -0.11227,0.0234 -0.17298,0.0969 -0.0999,0.1209 -0.0969,0.12357 0.0313,0.0281 0.26942,-0.20045 0.14037,0.004 -0.21627,0.34198 -0.35663,0.33836 -0.57171,0.4608 -0.36041,0.20519 0.0999,-0.12082 0.0973,-0.12413 -0.0257,-0.0328 -0.0753,0.0559 -0.11984,0.14378 -0.099,0.19528 0.0553,0.13661 -0.40535,0.43264 -0.61388,0.39454 -0.14657,-0.0268 -0.16012,-0.0132 -0.0794,0.079 0.0536,0.0613 0.13876,0.0893 0.18939,0.0624 0.0654,-0.0348 0.0649,-0.021 -0.002,0.0477 -0.24651,0.25338 -0.99146,0.30765 -4.23967,0.30887 l -3.20009,7.9e-4 -2.28715,-2.17495 c -1.25795,-1.19622 -2.29768,-2.16497 -2.31052,-2.15278 -0.0128,0.0122 0.999,0.99069 2.24857,2.17445 l 2.27193,2.15228 -26.14551,-2.3e-4 -26.14551,-2.3e-4 0.19022,-0.19211 c 0.14147,-0.14287 0.20683,-0.16729 0.25502,-0.0953 0.0632,0.0944 0.072,0.0766 0.0662,-0.13453 -0.002,-0.0749 0.50707,-0.56887 0.56972,-0.55287 0.0346,0.009 0.0739,-0.0185 0.0874,-0.0608 0.0398,-0.12453 0.49179,-0.57127 0.5603,-0.5538 0.0346,0.009 0.0661,-0.0102 0.0699,-0.0425 0.0116,-0.0962 0.50978,-0.58944 0.57783,-0.57208 0.0346,0.009 0.0661,-0.0103 0.0699,-0.0425 0.0116,-0.0962 0.50978,-0.58943 0.57783,-0.57206 0.0346,0.009 0.0739,-0.0185 0.0874,-0.0608 0.0366,-0.11474 0.48959,-0.57232 0.54816,-0.5538 0.0279,0.009 0.0672,-0.0185 0.0874,-0.0608 0.0789,-0.16515 0.5143,-0.56897 0.5971,-0.55379 0.0481,0.009 0.0892,-0.0284 0.0912,-0.0828 0.002,-0.0543 0.0573,-0.13027 0.12279,-0.16868 0.0655,-0.0384 0.0897,-0.0976 0.0537,-0.13163 -0.036,-0.034 -0.13407,0.0186 -0.21806,0.11692 -0.084,0.0983 -0.18603,0.15916 -0.22676,0.13527 -0.0407,-0.0239 -0.12373,0.0167 -0.18443,0.0902 -0.0999,0.12089 -0.0969,0.12357 0.0313,0.0281 0.0779,-0.058 0.14169,-0.0778 0.14169,-0.0438 0,0.0978 -0.57842,0.57405 -0.64776,0.5334 -0.0344,-0.0202 -0.11227,0.0234 -0.17298,0.0969 -0.0999,0.1209 -0.0969,0.12357 0.0313,0.0281 0.0779,-0.058 0.14169,-0.0778 0.14169,-0.0438 0,0.0977 -0.57841,0.57405 -0.64775,0.53339 -0.0344,-0.0201 -0.11227,0.0234 -0.17299,0.0969 -0.0999,0.12089 -0.0969,0.12356 0.0313,0.0281 0.0779,-0.058 0.1417,-0.0778 0.1417,-0.0438 0,0.0978 -0.57842,0.57405 -0.64775,0.53339 -0.0344,-0.0202 -0.11228,0.0234 -0.17299,0.0969 -0.0999,0.12089 -0.0969,0.12356 0.0313,0.0281 0.0779,-0.058 0.14169,-0.0778 0.14169,-0.0438 0,0.0977 -0.57841,0.57405 -0.64775,0.5334 -0.0344,-0.0202 -0.11227,0.0234 -0.17299,0.0969 -0.0999,0.12089 -0.0969,0.12357 0.0313,0.0281 0.0779,-0.058 0.1417,-0.0778 0.1417,-0.0438 0,0.0978 -0.57842,0.57405 -0.64776,0.53339 -0.0344,-0.0202 -0.11227,0.0234 -0.17298,0.0969 -0.0999,0.12088 -0.0969,0.12356 0.0313,0.0281 0.31395,-0.23361 0.11137,0.0332 -0.3771,0.49664 l -0.51879,0.49216 -3.26642,-0.0115 c -1.79653,-0.006 -3.37574,-0.0267 -3.50933,-0.0452 z m 29.38348,-0.14422 c 0.0263,-0.0651 -0.005,-0.0823 -0.0915,-0.0507 -0.0993,0.0361 -0.11836,0.0156 -0.0781,-0.0838 0.0419,-0.10356 0.0257,-0.1171 -0.0754,-0.0633 -0.0931,0.0494 -0.18778,0.013 -0.34161,-0.13129 -0.11708,-0.1098 -0.21343,-0.23422 -0.21411,-0.27647 -5.3e-4,-0.0423 -0.0377,-0.0774 -0.0822,-0.0779 -0.0446,-5.3e-4 -0.18972,-0.10436 -0.32264,-0.23046 -0.13293,-0.12613 -0.24223,-0.26388 -0.2429,-0.30613 -5.3e-4,-0.0423 -0.0377,-0.0773 -0.0822,-0.0779 -0.0446,-5.3e-4 -0.18972,-0.10433 -0.32265,-0.23046 -0.13292,-0.12611 -0.24222,-0.26386 -0.2429,-0.30612 -5.3e-4,-0.0423 -0.0377,-0.0774 -0.0822,-0.0779 -0.0446,-5.2e-4 -0.18972,-0.10434 -0.32264,-0.23046 -0.13292,-0.12611 -0.24223,-0.26386 -0.2429,-0.3061 -5.3e-4,-0.0423 -0.0377,-0.0774 -0.0822,-0.0779 -0.0446,-5.3e-4 -0.18972,-0.10436 -0.32263,-0.23047 -0.13293,-0.1261 -0.24224,-0.26386 -0.2429,-0.30612 -5.3e-4,-0.0423 -0.0377,-0.0773 -0.0822,-0.0779 -0.0446,-5.2e-4 -0.18972,-0.10433 -0.32266,-0.23046 -0.1329,-0.1261 -0.24221,-0.26385 -0.24289,-0.30612 -5.3e-4,-0.0423 -0.0463,-0.0768 -0.10145,-0.0768 -0.0552,0 -0.195,-0.13232 -0.31083,-0.29405 -0.11582,-0.16174 -0.23133,-0.27437 -0.25668,-0.25033 -0.0253,0.024 -0.10407,7.9e-4 -0.17498,-0.0516 -0.31543,-0.23334 0.52104,0.58978 2.48575,2.44614 1.16639,1.10206 2.17406,2.00375 2.23928,2.00375 0.0652,0 0.13651,-0.0444 0.15843,-0.0985 z m 9.94974,-1.97779 c 1.10523,-1.05043 1.98653,-1.93165 1.95846,-1.9583 -0.0281,-0.0267 -0.087,0.0125 -0.13092,0.087 -0.0439,0.0745 -0.11497,0.11484 -0.15787,0.0896 -0.0429,-0.0251 -0.0728,-0.0172 -0.0664,0.0176 0.0291,0.15895 -0.0186,0.18948 -0.14927,0.0957 -0.1043,-0.0749 -0.1176,-0.0759 -0.0504,-0.004 0.0696,0.0749 0.0408,0.14659 -0.12145,0.30232 -0.117,0.11225 -0.24005,0.19599 -0.27345,0.18611 -0.0334,-0.01 -0.0564,0.008 -0.0512,0.0396 0.0256,0.15415 -0.0222,0.18259 -0.15128,0.0899 -0.1043,-0.0749 -0.11762,-0.0758 -0.0504,-0.004 0.0696,0.0749 0.0408,0.1466 -0.12145,0.30233 -0.11699,0.11224 -0.24005,0.19599 -0.27344,0.18611 -0.0334,-0.01 -0.0564,0.008 -0.0512,0.0396 0.0256,0.15416 -0.0222,0.1826 -0.15127,0.0899 -0.10431,-0.0749 -0.11761,-0.0758 -0.0504,-0.004 0.0696,0.075 0.0408,0.1466 -0.12145,0.30233 -0.11701,0.11224 -0.24004,0.196 -0.27345,0.18611 -0.0334,-0.01 -0.0564,0.008 -0.0512,0.0396 0.0256,0.15416 -0.0222,0.18261 -0.15128,0.0899 -0.10429,-0.0748 -0.1176,-0.0758 -0.0504,-0.004 0.0696,0.075 0.0409,0.1466 -0.12146,0.30233 -0.11699,0.11224 -0.24004,0.196 -0.27343,0.18612 -0.0334,-0.01 -0.0564,0.008 -0.0512,0.0397 0.0256,0.15415 -0.0222,0.1826 -0.15128,0.0899 -0.10431,-0.0748 -0.11762,-0.0758 -0.0504,-0.004 0.0696,0.075 0.0409,0.1466 -0.12145,0.30234 -0.11699,0.11223 -0.24005,0.19599 -0.27345,0.18612 -0.0334,-0.01 -0.0564,0.008 -0.0512,0.0396 0.0256,0.15414 -0.0222,0.18259 -0.15128,0.0899 -0.1043,-0.0748 -0.1176,-0.0758 -0.0504,-0.004 0.0696,0.075 0.0408,0.1466 -0.12145,0.30234 -0.11701,0.11224 -0.23398,0.19791 -0.25996,0.19038 -0.026,-0.007 -0.0472,0.0357 -0.0472,0.096 0,0.16011 0.0232,0.13966 2.26375,-1.98972 z m -32.23825,1.73701 c 0.1007,-0.12183 0.0978,-0.12455 -0.0306,-0.029 -0.0779,0.058 -0.14169,0.11847 -0.14169,0.13443 0,0.0632 0.0665,0.0225 0.17227,-0.10543 z m 28.85446,-3.51144 c 0.44532,-0.0673 1.29493,-0.24302 1.88803,-0.39049 0.5931,-0.14749 1.11793,-0.24496 1.16629,-0.21659 0.0525,0.0308 0.0646,0.0158 0.0301,-0.0371 -0.0317,-0.0488 -0.0192,-0.093 0.028,-0.0983 0.11353,-0.0127 0.17588,-0.0302 0.36913,-0.10351 0.089,-0.0337 0.39877,-0.14836 0.68823,-0.25461 0.69454,-0.25497 2.4308,-1.07004 2.6141,-1.22717 0.13535,-0.11605 0.1795,-0.0911 0.69025,0.38976 0.3001,0.28256 0.61035,0.51375 0.68942,0.51375 0.0791,0 0.58231,-0.41253 1.11831,-0.91674 1.06958,-1.00612 1.04335,-0.93482 0.53538,-1.45461 -0.167,-0.17087 -0.30363,-0.32774 -0.30363,-0.34856 0,-0.0597 0.51923,-0.50581 0.58922,-0.50621 0.0346,-2.2e-4 0.22102,0.16067 0.41423,0.35751 0.24442,0.24898 0.39211,0.343 0.48543,0.30902 0.28441,-0.10355 0.23721,-0.28408 -0.17016,-0.65096 l -0.40156,-0.36162 0.18916,-0.18502 c 0.13296,-0.13004 0.18916,-0.15127 0.18916,-0.0714 0,0.14164 0.54614,0.75578 0.67211,0.75578 0.12191,0 1.10916,-0.92983 1.10916,-1.04464 0,-0.0489 -0.0564,-0.1333 -0.12546,-0.18764 -0.10652,-0.0838 -0.18295,-0.0461 -0.50605,0.25034 -0.58244,0.53432 -0.75386,0.32966 -0.40754,-0.4866 0.20285,-0.47807 0.53681,-0.8585 0.70114,-0.79867 0.0625,0.0228 0.258,-0.0824 0.43461,-0.23379 0.2936,-0.25168 0.33563,-0.26596 0.49231,-0.16726 0.27668,0.17431 0.25502,0.26156 -0.17109,0.68902 -0.35134,0.35249 -0.39063,0.4229 -0.30088,0.53936 0.0568,0.0737 0.13209,0.13394 0.16738,0.13394 0.0353,0 0.27721,-0.20722 0.53761,-0.46049 0.38466,-0.37415 0.47345,-0.50831 0.47345,-0.71543 0,-0.27839 -0.31461,-0.63077 -0.60726,-0.68017 -0.18216,-0.0308 -0.25427,-0.33811 -0.12326,-0.52536 0.066,-0.0943 0.17842,-0.0211 0.61921,0.40331 0.29622,0.2852 0.57256,0.51855 0.6141,0.51855 0.0846,0 0.30688,-0.19348 0.30688,-0.26719 0,-0.0262 -0.12885,-0.17359 -0.28634,-0.32744 l -0.28632,-0.27972 0.19426,-0.18433 0.19427,-0.18432 0.33174,0.16057 c 0.3765,0.18224 0.58605,0.20196 0.72684,0.0684 0.1727,-0.16385 0.1051,-0.25037 -0.32543,-0.41658 -0.35776,-0.13813 -0.43284,-0.20281 -0.49037,-0.42252 -0.0374,-0.14268 -0.19441,-0.36549 -0.34897,-0.4951 -0.2783,-0.23339 -0.27987,-0.23825 -0.16046,-0.49934 0.0663,-0.14501 0.12199,-0.20396 0.12374,-0.13099 0.002,0.073 0.35016,0.46084 0.77428,0.86192 0.74365,0.70328 0.77681,0.72461 0.93112,0.59926 0.088,-0.0715 0.16001,-0.1556 0.16001,-0.18689 0,-0.0313 -0.15329,-0.19664 -0.34064,-0.36745 l -0.34063,-0.31055 0.39437,-0.37987 c 0.33527,-0.32296 0.37875,-0.39772 0.29024,-0.49892 -0.1594,-0.18221 -0.27485,-0.14605 -0.60085,0.18825 -0.3145,0.3225 -0.44018,0.3675 -0.6008,0.21509 -0.1655,-0.15703 -0.11033,-0.28415 0.26719,-0.61562 0.39282,-0.34491 0.4337,-0.4479 0.23874,-0.60142 -0.10699,-0.0842 -0.19274,-0.0372 -0.57827,0.31708 -0.2524,0.23196 -0.4256,0.34803 -0.39149,0.26235 0.0337,-0.0845 0.0794,-0.21374 0.10167,-0.2872 0.0223,-0.0735 0.0784,-0.11135 0.12478,-0.0841 0.0464,0.0272 0.0609,0.0135 0.0324,-0.0302 -0.0476,-0.0731 0.16478,-0.7694 0.3462,-1.13479 0.14318,-0.28838 0.55445,-1.99553 0.70327,-2.91919 0.1815,-1.12653 0.20695,-3.92642 0.0454,-4.99334 -0.23386,-1.54435 -0.80636,-3.54079 -1.34062,-4.67513 -0.11658,-0.24749 -0.18816,-0.48948 -0.15909,-0.53775 0.0291,-0.0483 0.0221,-0.0612 -0.0154,-0.0289 -0.0816,0.0703 -0.30106,-0.38928 -0.23464,-0.49125 0.0253,-0.0389 -0.002,-0.0613 -0.0611,-0.0497 -0.0645,0.0127 -0.10484,-0.0462 -0.10123,-0.14791 0.003,-0.093 -0.0249,-0.15092 -0.0626,-0.12878 -0.0378,0.0221 -0.1436,-0.10923 -0.2352,-0.2919 -0.27012,-0.53863 -0.54037,-0.97328 -0.717,-1.15315 -0.0908,-0.0925 -0.16519,-0.21356 -0.16519,-0.26897 0,-0.0554 -0.0273,-0.10081 -0.0607,-0.10089 -0.0334,-7e-5 -0.17003,-0.16427 -0.30362,-0.36489 -0.13359,-0.20063 -0.29755,-0.4196 -0.36435,-0.48661 -0.0668,-0.067 -0.32856,-0.36085 -0.58167,-0.65297 -0.74511,-0.85995 -2.01266,-1.99151 -2.9995,-2.6777 -0.11803,-0.0821 -0.19797,-0.17474 -0.17765,-0.20594 0.0204,-0.0312 -0.006,-0.0817 -0.0578,-0.11233 -0.0592,-0.0347 -0.0732,-0.0223 -0.037,0.0331 0.10122,0.1554 -0.0283,0.0967 -0.4613,-0.20892 -0.23189,-0.16368 -0.80418,-0.50453 -1.27176,-0.75744 -2.09736,-1.13444 -3.90653,-1.74795 -6.3494,-2.15316 -1.08623,-0.18017 -1.4311,-0.20255 -3.12376,-0.20268 -1.59487,-1.6e-4 -2.07303,0.0274 -2.9553,0.17017 -0.9802,0.15861 -3.03243,0.63144 -3.40062,0.78349 -0.76676,0.31665 -1.37197,0.52466 -1.4291,0.49116 -0.0379,-0.0222 -0.0688,-0.006 -0.0688,0.0354 0,0.10524 -0.88849,0.48141 -0.99272,0.42031 -0.0467,-0.0274 -0.0632,-0.0166 -0.0368,0.0239 0.0264,0.0406 -0.0864,0.14035 -0.25063,0.22176 -0.16427,0.0814 -0.54461,0.29531 -0.84521,0.47536 -0.30059,0.18004 -0.54653,0.30999 -0.54653,0.28877 0,-0.0212 -0.11606,0.0667 -0.25793,0.19531 -0.14187,0.12863 -0.30771,0.21574 -0.36856,0.19359 -0.0608,-0.0221 -0.0916,-0.0112 -0.0685,0.0244 0.0231,0.0356 -0.12979,0.1816 -0.33991,0.32451 -0.21011,0.14291 -0.51729,0.37554 -0.6826,0.51693 -0.18514,0.15836 -0.34062,0.23518 -0.40484,0.20004 -0.0574,-0.0314 -0.0762,-0.0278 -0.0419,0.008 0.0838,0.0875 -0.51014,0.65744 -0.62206,0.59701 -0.0484,-0.0261 -0.0597,-0.018 -0.0251,0.0181 0.0813,0.0847 -0.91546,1.04215 -1.02067,0.98046 -0.0461,-0.027 -0.0535,-0.006 -0.0176,0.0484 0.0372,0.0571 -0.0196,0.17675 -0.14218,0.29994 -0.28493,0.28634 -1.35206,1.64809 -1.35206,1.72535 0,0.0349 -0.0421,0.0389 -0.0934,0.009 -0.0579,-0.0339 -0.0715,-0.0211 -0.0358,0.0337 0.0732,0.11235 -0.14352,0.41461 -0.24234,0.33802 -0.0405,-0.0314 -0.0485,-0.0274 -0.0176,0.009 0.0309,0.0363 -0.0283,0.19297 -0.13153,0.3481 -0.25122,0.37758 -1.39526,2.6239 -1.47142,2.88914 -0.0121,0.0423 -0.15037,0.46569 -0.3072,0.94099 -0.57709,1.74891 -0.85665,3.50262 -0.85771,5.38054 -9.6e-4,2.04811 0.31303,3.94479 0.93786,5.66149 0.11446,0.31446 0.1811,0.61618 0.1481,0.67048 -0.033,0.0543 -0.0286,0.0716 0.01,0.0384 0.0882,-0.0762 0.38205,0.61883 0.30903,0.73092 -0.0321,0.0494 -0.0162,0.0607 0.0395,0.0281 0.0868,-0.0509 0.12535,0.0555 0.11538,0.31833 -0.002,0.0523 0.0196,0.0817 0.048,0.0651 0.0284,-0.0165 0.20421,0.25906 0.39076,0.61239 l 0.33917,0.64242 -0.80738,0.75198 c -0.44406,0.4136 -0.85843,0.84779 -0.92083,0.96486 -0.13449,0.25237 -0.0853,0.66228 0.12814,1.06682 0.13787,0.26137 0.13953,0.30879 0.0239,0.67824 -0.0684,0.21847 -0.10186,0.49429 -0.0744,0.61293 0.033,0.14242 0.49286,0.63589 1.35347,1.45229 1.36708,1.29684 1.55916,1.41533 2.02292,1.24805 0.11899,-0.0429 0.67489,-0.51531 1.23531,-1.04975 l 1.01895,-0.97169 0.54512,0.41179 c 1.04415,0.78879 1.44742,1.05964 2.30631,1.54907 0.47538,0.27089 0.83833,0.51986 0.80656,0.55326 -0.0317,0.0334 -0.0174,0.0389 0.0318,0.0123 0.0494,-0.0267 0.37755,0.0854 0.72939,0.24903 0.77194,0.35898 1.9538,0.80642 2.48036,0.93899 0.21153,0.0533 0.38459,0.11689 0.38459,0.14139 0,0.0245 0.0652,0.0492 0.14503,0.0549 0.0798,0.005 0.47072,0.0851 0.86878,0.17638 1.50224,0.34455 2.76712,0.45802 4.73486,0.42473 1.11245,-0.0188 2.13701,-0.0785 2.63144,-0.15316 z m -5.16937,-1.22315 c -0.39389,-0.0473 -0.698,-0.10319 -0.67578,-0.12432 0.0222,-0.0211 -0.11095,-0.0456 -0.29592,-0.0544 -0.18497,-0.009 -0.60957,-0.0878 -0.94356,-0.17559 -0.33399,-0.0877 -0.68012,-0.17229 -0.76919,-0.18782 -0.14063,-0.0245 -0.95445,-0.28714 -1.80142,-0.58127 -0.14468,-0.0503 -0.24298,-0.12215 -0.21845,-0.1598 0.0245,-0.0376 -0.008,-0.0494 -0.0721,-0.0259 -0.34584,0.12591 -3.36917,-1.62731 -4.45433,-2.58306 l -0.23086,-0.20333 0.73447,-0.71705 0.73449,-0.71706 0.38701,0.30876 c 0.58027,0.46292 1.76325,1.1857 2.66346,1.62733 0.82634,0.40538 2.11042,0.91989 2.45244,0.98263 0.10709,0.0196 0.25282,0.0652 0.32385,0.1013 0.0711,0.0361 0.30224,0.0902 0.51377,0.1203 0.21152,0.0301 0.38458,0.0874 0.38458,0.12735 0,0.0399 0.0293,0.0555 0.0649,0.0346 0.0357,-0.021 0.48202,0.0322 0.99185,0.11807 1.70557,0.28728 4.05495,0.20485 5.9874,-0.21005 0.68881,-0.14789 1.97918,-0.55093 2.38852,-0.74605 0.17814,-0.0849 0.33396,-0.14742 0.34631,-0.13893 0.0367,0.0253 1.49732,-0.69107 1.7386,-0.8527 0.12246,-0.082 0.22322,-0.12087 0.2239,-0.0863 5.3e-4,0.0346 0.028,0.0273 0.0607,-0.0162 0.0618,-0.0821 0.88536,-0.65073 0.94251,-0.65073 0.0315,0 0.20418,-0.13774 1.03754,-0.82757 0.21811,-0.18053 0.43646,-0.30482 0.48524,-0.2762 0.0488,0.0286 0.0661,0.0172 0.0383,-0.0253 -0.0277,-0.0426 0.15174,-0.28122 0.39876,-0.53041 0.24702,-0.24918 0.61558,-0.65183 0.81901,-0.89478 0.20342,-0.24296 0.40307,-0.44172 0.44366,-0.44172 0.0406,0 0.0512,-0.0346 0.0238,-0.0769 -0.0275,-0.0423 -0.0115,-0.0768 0.0357,-0.0768 0.0471,0 0.0858,-0.033 0.0858,-0.0734 0,-0.0969 0.38799,-0.63699 0.51091,-0.71115 0.053,-0.0319 0.0666,-0.0586 0.0301,-0.0593 -0.0364,-5.3e-4 0.009,-0.10145 0.10097,-0.22398 0.60584,-0.80726 1.47296,-2.83225 1.81858,-4.24694 0.51687,-2.11569 0.48703,-4.9785 -0.0724,-6.94128 -0.10888,-0.382 -0.21153,-0.76226 -0.22813,-0.84503 -0.0166,-0.0827 -0.0757,-0.2542 -0.13141,-0.38096 -0.0557,-0.12675 -0.1068,-0.30492 -0.11359,-0.39593 -0.007,-0.091 -0.035,-0.1522 -0.0627,-0.13599 -0.0277,0.0162 -0.11508,-0.13401 -0.19418,-0.33385 -0.39709,-1.00316 -1.4771,-2.73389 -2.24013,-3.58983 -0.38233,-0.42888 -0.51627,-0.57081 -0.90197,-0.95568 -0.23035,-0.22986 -0.40669,-0.45457 -0.39183,-0.49934 0.0148,-0.0448 5.3e-4,-0.0563 -0.0318,-0.0256 -0.0323,0.0307 -0.29953,-0.14221 -0.59376,-0.38422 -0.65741,-0.54073 -1.12412,-0.88459 -1.36713,-1.00732 -0.10204,-0.0515 -0.15976,-0.13105 -0.12919,-0.17799 0.0357,-0.0547 0.0177,-0.0628 -0.0505,-0.0228 -0.0643,0.0378 -0.14063,0.0168 -0.1947,-0.0533 -0.0489,-0.0634 -0.12535,-0.12923 -0.16989,-0.14616 -0.0446,-0.017 -0.0709,-0.0592 -0.0587,-0.0941 0.0122,-0.0348 -0.0133,-0.0425 -0.0567,-0.017 -0.0434,0.0255 -0.36316,-0.10027 -0.71047,-0.27943 -0.34731,-0.17916 -0.95037,-0.45087 -1.34013,-0.60379 -0.38975,-0.15292 -0.68123,-0.30671 -0.64773,-0.34175 0.0335,-0.035 0.0179,-0.0403 -0.0347,-0.0117 -0.0526,0.0286 -0.36229,-0.0321 -0.68823,-0.13493 -2.10451,-0.66374 -4.82831,-0.83781 -7.39386,-0.47252 -0.54987,0.0783 -2.15465,0.51007 -2.85768,0.76888 -0.41389,0.15237 -0.79299,0.25331 -0.84243,0.22432 -0.0513,-0.03 -0.0673,-0.0181 -0.0374,0.0279 0.0438,0.0673 -0.0455,0.13744 -0.27041,0.21215 -0.0223,0.007 -0.16764,0.0678 -0.32306,0.1342 -0.15542,0.0664 -0.3159,0.10122 -0.35662,0.0773 -0.0407,-0.0239 -0.0532,-0.0113 -0.0275,0.0279 0.0255,0.0392 -0.30486,0.27542 -0.73424,0.52488 -0.77845,0.45225 -1.66831,1.05873 -1.76002,1.19953 -0.0266,0.0408 -0.0913,0.0508 -0.14396,0.0222 -0.0526,-0.0286 -0.069,-0.024 -0.0363,0.0102 0.0326,0.0342 -0.0221,0.12689 -0.12146,0.20603 -0.36964,0.29437 -1.35471,1.2437 -1.35471,1.30557 0,0.0353 -0.0403,0.0641 -0.0896,0.0641 -0.0493,0 -0.0679,-0.0536 -0.0414,-0.11923 0.0294,-0.0726 0.0147,-0.0996 -0.0374,-0.069 -0.047,0.0276 -0.0643,0.10291 -0.0382,0.16736 0.0551,0.13615 -0.10083,0.34693 -0.20948,0.28323 -0.0405,-0.0238 -0.0651,-0.0148 -0.0546,0.02 0.0388,0.12788 -0.19207,0.42001 -0.30068,0.38048 -0.0759,-0.0277 -0.0952,-9e-4 -0.061,0.0835 0.0361,0.0892 0.0201,0.1063 -0.0571,0.0611 -0.0678,-0.0397 -0.0878,-0.033 -0.0544,0.0182 0.0636,0.0976 -0.50003,0.91186 -0.61031,0.88174 -0.0425,-0.0116 -0.0545,0.0138 -0.0268,0.0565 0.0581,0.0893 -0.34071,0.77118 -0.45107,0.77118 -0.0403,0 -0.0651,0.0259 -0.0551,0.0576 0.01,0.0317 -0.11238,0.31689 -0.27197,0.63377 -0.15959,0.31689 -0.3728,0.79155 -0.47378,1.05479 -0.101,0.26326 -0.20633,0.46533 -0.23408,0.44906 -0.0277,-0.0162 -0.0544,0.0449 -0.0592,0.13593 -0.005,0.091 -0.12322,0.56567 -0.26316,1.05477 -0.13992,0.48909 -0.3084,1.24961 -0.37437,1.69005 -0.13725,0.91624 -0.16095,3.01746 -0.0434,3.84888 0.0437,0.30937 0.0935,0.68349 0.11063,0.83137 0.0171,0.14788 0.0504,0.32073 0.074,0.38411 0.0236,0.0633 0.14176,0.4782 0.2625,0.92184 0.12074,0.44364 0.35993,1.13182 0.53154,1.52929 0.17161,0.39746 0.28955,0.75714 0.26211,0.79928 -0.0304,0.0466 -0.008,0.0521 0.0573,0.0137 0.0803,-0.0471 0.0926,-0.0266 0.0487,0.0818 -0.0322,0.0796 -0.0316,0.11915 9.5e-4,0.0879 0.0329,-0.0312 0.21579,0.22738 0.40639,0.57469 0.34395,0.62673 0.35782,0.68719 0.16748,0.72956 -0.0544,0.0121 -0.19748,0.0436 -0.31803,0.0701 -0.15269,0.0335 -0.30763,-0.004 -0.51092,-0.12297 -0.23724,-0.13913 -0.37549,-0.16451 -0.73967,-0.13586 -0.24633,0.0194 -0.47507,0.0769 -0.5083,0.12801 -0.0466,0.0715 -0.0798,0.07 -0.14483,-0.007 -0.10052,-0.11868 -0.4637,-0.86786 -0.68139,-1.4056 -0.0855,-0.21127 -0.1883,-0.45325 -0.22839,-0.53775 -0.13533,-0.28523 -0.40338,-1.14762 -0.60791,-1.95578 -0.3092,-1.22181 -0.4675,-2.73916 -0.41932,-4.01945 0.0226,-0.60075 0.0424,-1.19532 0.0438,-1.32126 0.007,-0.5814 0.4368,-2.69057 0.57754,-2.83401 0.0362,-0.0368 0.0465,-0.11462 0.0229,-0.17284 -0.0235,-0.0583 -3.4e-4,-0.10588 0.0515,-0.10588 0.0519,0 0.0746,-0.0304 0.0503,-0.0676 -0.0471,-0.0723 0.17707,-0.77093 0.40966,-1.27673 0.0777,-0.16901 0.1435,-0.32569 0.14621,-0.34819 0.0191,-0.15876 0.32432,-0.67684 0.37965,-0.6444 0.0378,0.0221 0.0484,-0.01 0.0235,-0.0715 -0.0249,-0.0615 0.0354,-0.26205 0.13382,-0.44571 0.2658,-0.49581 1.05289,-1.70963 1.14366,-1.76371 0.0434,-0.0259 0.0745,-0.07 0.0691,-0.0981 -0.0162,-0.0839 0.87641,-1.17675 1.40918,-1.72537 0.9911,-1.02056 0.90425,-0.95353 1.11147,-0.85796 0.1684,0.0777 0.17315,0.0754 0.046,-0.0221 -0.1755,-0.13467 -0.18493,-0.2392 -0.0161,-0.17771 0.0691,0.0251 0.10457,0.0133 0.0788,-0.0262 -0.0569,-0.0874 0.98621,-0.94292 1.81971,-1.49257 0.81253,-0.53581 1.83034,-1.1044 2.42902,-1.35694 0.20039,-0.0846 0.47366,-0.20207 0.60725,-0.2612 0.86505,-0.38288 1.98915,-0.75003 2.16372,-0.70671 0.0793,0.0197 0.12669,0.009 0.10544,-0.0236 -0.0647,-0.0992 1.71139,-0.45695 2.87225,-0.57858 0.60118,-0.063 1.45741,-0.11449 1.90273,-0.11444 0.80998,7e-5 2.67396,0.16225 3.36014,0.29234 0.84684,0.16054 1.85033,0.43045 1.81306,0.48766 -0.0221,0.0339 0.0138,0.0421 0.0797,0.0181 0.24482,-0.0891 3.41046,1.22735 3.31261,1.3776 -0.0266,0.0408 -0.008,0.0504 0.0421,0.0212 0.0497,-0.0292 0.24667,0.0421 0.43759,0.15844 0.19092,0.11631 0.44446,0.26447 0.56343,0.32925 0.54934,0.2991 1.8427,1.28027 1.82609,1.38531 -0.0108,0.0682 0.0351,0.107 0.11247,0.0951 0.2788,-0.043 2.98867,2.78805 2.85909,2.98699 -0.0358,0.0549 -0.025,0.0711 0.0271,0.0405 0.10619,-0.0622 0.45615,0.45363 0.38345,0.56526 -0.0287,0.0441 -0.006,0.0706 0.0501,0.0591 0.0562,-0.0116 0.20165,0.15173 0.32308,0.363 0.12142,0.21125 0.25116,0.4197 0.28829,0.46322 0.20684,0.24232 0.44894,0.79353 0.39051,0.88912 -0.0369,0.0603 -0.0346,0.0806 0.005,0.0462 0.0792,-0.0685 0.61316,0.96742 0.63166,1.22526 0.007,0.091 0.0338,0.15264 0.0605,0.13696 0.073,-0.0427 0.57677,1.5664 0.51842,1.65597 -0.0277,0.0426 -0.008,0.0774 0.044,0.0774 0.0519,0 0.0752,0.0476 0.0515,0.10587 -0.0235,0.0583 -0.0129,0.13601 0.0237,0.17285 0.0366,0.0368 0.14976,0.51638 0.25147,1.06564 0.14933,0.80647 0.18595,1.29437 0.19026,2.53509 0.006,1.67932 -0.0351,2.16755 -0.28491,3.39566 -0.29675,1.45897 -1.2252,4.00853 -1.44238,3.96085 -0.0458,-0.0101 -0.0653,0.0261 -0.0434,0.0804 0.0381,0.0941 -0.0633,0.30053 -0.57263,1.167 -0.25962,0.44163 -1.2156,1.77163 -1.43225,1.99261 -0.0803,0.0819 -0.146,0.18068 -0.146,0.21949 0,0.0388 -0.0528,0.0513 -0.11733,0.0279 -0.0711,-0.0259 -0.10239,-0.005 -0.0795,0.0509 0.0578,0.14279 -1.62048,1.77772 -1.74802,1.70293 -0.0664,-0.0389 -0.0845,-0.0307 -0.0498,0.0225 0.063,0.0967 -1.06971,1.03183 -1.175,0.97009 -0.038,-0.0222 -0.069,-0.005 -0.069,0.0397 0,0.0441 -0.12221,0.15852 -0.27157,0.25419 -0.14937,0.0957 -0.42237,0.27347 -0.60668,0.39508 -0.28937,0.19092 -0.35455,0.20716 -0.47738,0.11894 -0.12017,-0.0863 -0.12686,-0.0857 -0.0431,0.004 0.0805,0.0859 0.0502,0.13692 -0.16193,0.27188 -0.47264,0.30071 -1.62508,0.81192 -1.73783,0.77086 -0.0608,-0.0221 -0.0899,-0.008 -0.0646,0.0301 0.0252,0.0387 -0.0366,0.0947 -0.13749,0.12438 -0.10084,0.0297 -0.3291,0.11797 -0.50723,0.1962 -0.48902,0.21477 -1.09315,0.37061 -1.23565,0.31873 -0.0813,-0.0296 -0.10668,-0.0152 -0.0707,0.0401 0.0354,0.0543 -0.057,0.11502 -0.24986,0.16391 -0.60104,0.15243 -1.36329,0.30717 -1.645,0.33394 -0.15749,0.015 -0.32377,0.0492 -0.3695,0.076 -0.33415,0.19595 -3.73578,0.26617 -5.08028,0.10489 z m -7.7449,-2.9957 c 0,-0.016 -0.0638,-0.0764 -0.14169,-0.13443 -0.12841,-0.0956 -0.13128,-0.0928 -0.0306,0.029 0.10576,0.12797 0.17226,0.16866 0.17226,0.10542 z m 23.26552,-5.39016 c -0.0264,-0.0652 -0.0653,-0.10209 -0.0865,-0.0819 -0.0212,0.0201 -0.0145,0.0735 0.0148,0.11854 0.0799,0.12256 0.1265,0.0987 0.0717,-0.0366 z m 1.53838,-16.59328 c -0.0264,-0.0652 -0.0653,-0.10207 -0.0866,-0.0819 -0.0212,0.0201 -0.0145,0.0735 0.0148,0.11854 0.0799,0.12257 0.1265,0.0988 0.0717,-0.0366 z m -22.53681,-4.61135 c 0,-0.0211 -0.0729,-0.002 -0.16194,0.0438 -0.089,0.0452 -0.16193,0.0995 -0.16193,0.12064 0,0.0211 0.0729,0.002 0.16193,-0.0438 0.089,-0.0452 0.16194,-0.0995 0.16194,-0.12064 z m 18.29664,28.80518 c -0.26613,-0.24084 -0.48309,-0.45856 -0.48214,-0.48382 0.001,-0.0252 0.13823,-0.13745 0.30508,-0.24933 l 0.30335,-0.20343 0.22609,0.18452 c 0.2417,0.19726 0.5463,0.19077 0.77905,-0.0166 0.14375,-0.12807 0.15534,-0.63264 0.0164,-0.71412 -0.0782,-0.0459 -0.0735,-0.0808 0.0208,-0.15507 0.0669,-0.0527 0.15935,-0.0738 0.20532,-0.0468 0.049,0.0287 0.0645,0.002 0.0378,-0.0643 -0.0272,-0.0673 0.0226,-0.14809 0.12279,-0.19896 0.14716,-0.0748 0.20969,-0.0436 0.49108,0.24377 0.17734,0.18117 0.32289,0.3657 0.32345,0.41007 0.002,0.14931 -0.19156,0.26503 -0.44303,0.26503 -0.36119,0 -1.09434,0.70745 -1.09434,1.056 0,0.16688 -0.052,0.27097 -0.16387,0.32775 -0.14196,0.072 -0.22857,0.0247 -0.64774,-0.35468 z m -26.02901,-0.72018 c -0.21714,-0.0878 -2.45248,-2.23682 -2.47879,-2.38304 -0.0114,-0.0634 0.0293,-0.31811 0.0903,-0.56603 0.10417,-0.42306 0.10039,-0.47036 -0.0615,-0.76822 -0.15943,-0.29342 -0.21424,-0.49707 -0.19078,-0.70888 0.005,-0.0463 0.35851,-0.42533 0.7853,-0.8423 l 0.77598,-0.7581 0.15439,0.18932 c 0.0849,0.10412 0.2277,0.32022 0.31731,0.4802 l 0.16294,0.29088 -0.17356,0.22272 c -0.21044,0.27005 -0.28661,0.87924 -0.15665,1.25285 0.18321,0.52672 0.82035,0.97708 1.3823,0.97708 0.13645,0 0.38013,-0.0524 0.54149,-0.1163 0.26678,-0.10577 0.30694,-0.10468 0.44273,0.0119 0.0821,0.0705 0.14931,0.15074 0.14931,0.17827 0,0.0275 -0.16308,0.21621 -0.36239,0.41929 -0.39397,0.40138 -0.49239,0.68713 -0.42682,1.23912 0.0383,0.32222 0.022,0.35597 -0.3121,0.64818 -0.37566,0.32855 -0.3902,0.33385 -0.63948,0.23305 z m 2.4347,-3.78024 c -0.15899,-0.17209 -0.28907,-0.37329 -0.28907,-0.44713 0,-0.24987 -0.2357,-0.67135 -0.4881,-0.87287 -0.15307,-0.12219 -0.22864,-0.23829 -0.19351,-0.29727 0.0437,-0.0734 0.0334,-0.0756 -0.0428,-0.009 -0.18246,0.15961 -0.48251,-0.0824 -0.89974,-0.72563 -0.22006,-0.33928 -0.40012,-0.65432 -0.40012,-0.7001 0,-0.0457 -0.0377,-0.0832 -0.0838,-0.0832 -0.0568,0 -0.0559,-0.0495 0.003,-0.15365 0.11736,-0.20806 0.58422,-0.20341 0.94717,0.009 0.22771,0.13352 0.34678,0.15326 0.6573,0.109 0.75308,-0.10736 0.82235,-0.0968 0.9702,0.14812 0.0757,0.12546 0.18382,0.27537 0.24016,0.33312 0.0563,0.0578 0.20175,0.23167 0.32314,0.38644 0.23758,0.30294 0.81737,0.9129 1.3843,1.45633 l 0.35246,0.33786 -0.26714,0.26149 c -0.25406,0.24872 -0.29508,0.26152 -0.83827,0.2618 -0.42222,2.2e-4 -0.63824,0.0391 -0.82859,0.14922 l -0.25746,0.14895 -0.28906,-0.31287 z m 29.54799,-2.13457 c -0.067,-0.20046 0.1842,-0.69338 0.35345,-0.69338 0.20171,0 0.35608,0.27842 0.25437,0.45876 -0.0836,0.14816 -0.39154,0.38627 -0.49959,0.38627 -0.0317,0 -0.0803,-0.0682 -0.10823,-0.15165 z m 2.38787,-2.84436 c 0,-0.0423 -0.0385,-0.0769 -0.0858,-0.0769 -0.0471,0 -0.0632,0.0346 -0.0357,0.0769 0.0275,0.0423 0.0661,0.0768 0.0858,0.0768 0.0196,0 0.0357,-0.0346 0.0357,-0.0768 z m 0.022,-0.38951 c -0.0225,-0.0815 -0.0701,-0.14822 -0.10573,-0.14822 -0.14332,0 -0.32106,0.0981 -0.32106,0.17722 0,0.0562 0.0321,0.0534 0.0972,-0.008 0.13085,-0.12414 0.2692,-0.11809 0.15978,0.007 -0.0653,0.0747 -0.0499,0.1018 0.062,0.10981 0.10918,0.008 0.13788,-0.0288 0.10788,-0.13759 z m 2.36311,-16.19846 c 0.0256,-0.0393 0.0156,-0.0897 -0.0222,-0.11185 -0.0379,-0.0222 -0.0687,0.01 -0.0687,0.0715 0,0.12953 0.0255,0.14085 0.091,0.0404 z m -38.8405,-2.50232 c 0.50099,-0.47893 0.91088,-0.91407 0.91088,-0.967 0,-0.0529 -0.25343,-0.33669 -0.56318,-0.63058 -0.46002,-0.43645 -0.59723,-0.52589 -0.74894,-0.48816 -0.10218,0.0254 -0.30483,0.005 -0.45035,-0.0445 -0.26224,-0.0898 -0.26996,-0.0856 -0.87087,0.48072 -0.64209,0.60514 -0.75661,0.78551 -0.60721,0.95631 0.0551,0.063 0.0715,0.21185 0.0406,0.36805 -0.0487,0.24624 -0.0183,0.29375 0.49612,0.77465 0.42417,0.39655 0.58574,0.50203 0.71503,0.46679 0.0919,-0.025 0.57693,-0.43738 1.07791,-0.9163 z m -1.66301,0.33146 c -0.44279,-0.41366 -0.50262,-0.50298 -0.46004,-0.68688 0.0269,-0.11626 0.008,-0.28391 -0.042,-0.37254 -0.0806,-0.14298 -0.0299,-0.22105 0.44961,-0.69236 l 0.54053,-0.53121 0.48817,0.0296 c 0.46469,0.0282 0.50901,0.0492 0.92143,0.43556 0.56986,0.53397 0.5664,0.77008 -0.012,0.8236 -0.34453,0.0319 -0.9947,0.64706 -1.06259,1.00541 -0.0506,0.26717 -0.16236,0.46431 -0.26318,0.46431 -0.028,0 -0.27998,-0.21397 -0.55991,-0.47549 z m 1.09848,-0.71959 c 0.12391,-0.0824 0.17994,-0.19824 0.17994,-0.3722 0,-0.46302 -0.53338,-0.71317 -0.91439,-0.42883 -0.59395,0.44328 0.11282,1.21414 0.73445,0.80103 z m 5.72833,-0.78742 c -0.025,-0.0237 -0.0903,-5e-5 -0.14518,0.0524 -0.0794,0.0759 -0.0701,0.0846 0.0453,0.043 0.0799,-0.0288 0.12479,-0.0718 0.0999,-0.0954 z m -3.32842,-0.57571 c 0.0714,-0.1075 -0.0497,-0.25843 -0.7214,-0.89807 -0.44402,-0.42287 -0.84789,-0.76886 -0.89749,-0.76886 -0.0496,0 -0.15806,0.0711 -0.24102,0.15814 -0.11713,0.12281 -0.131,0.18718 -0.0621,0.28808 0.0489,0.0715 0.14314,0.12583 0.20959,0.1208 0.0665,-0.005 0.42414,0.28068 0.79486,0.63491 0.37073,0.35423 0.70951,0.63283 0.75283,0.61913 0.0433,-0.0137 0.11744,-0.0831 0.16469,-0.15413 z m 0.97211,-0.89286 c 0.50645,-0.48423 0.54488,-0.54275 0.4287,-0.65298 -0.18206,-0.17273 -0.23123,-0.15707 -0.58451,0.1862 -0.51829,0.5036 -0.75036,0.34848 -0.4546,-0.30385 0.23612,-0.52074 0.21996,-0.71907 -0.0779,-0.95687 -0.39437,-0.31484 -0.66056,-0.26833 -1.18119,0.20636 -0.43399,0.39569 -0.44077,0.40839 -0.28822,0.53939 0.15047,0.1292 0.17037,0.12131 0.53833,-0.21318 0.43029,-0.39117 0.49114,-0.41048 0.61297,-0.19449 0.0663,0.11743 0.0495,0.22931 -0.0722,0.48279 -0.29735,0.61932 -0.29312,0.68035 0.075,1.07704 0.18445,0.19882 0.36056,0.36147 0.39137,0.36147 0.0308,0 0.30635,-0.23934 0.61232,-0.53188 z m 24.13434,-0.69724 c -0.0275,-0.0423 -0.0934,-0.0763 -0.14648,-0.0757 -0.058,6.9e-4 -0.0479,0.0308 0.0251,0.0757 0.15554,0.0954 0.18357,0.0954 0.12145,0 z m -22.35504,-1.24622 c 0,-0.29382 -0.27644,-0.63865 -0.56758,-0.70798 -0.10643,-0.0253 -0.19351,-0.0969 -0.19351,-0.15896 0,-0.15573 -0.24608,-0.42206 -0.46556,-0.50386 -0.27017,-0.10071 -0.57106,0.0379 -1.04832,0.48292 -0.3461,0.32275 -0.4067,0.41744 -0.34126,0.53345 0.1189,0.21078 0.22,0.17593 0.60999,-0.21025 0.57821,-0.57258 0.95414,-0.30261 0.39552,0.28405 -0.27758,0.29151 -0.28686,0.31714 -0.14939,0.41251 0.15663,0.10867 0.37198,0.0458 0.48951,-0.14293 0.0958,-0.15376 0.39967,-0.28484 0.54105,-0.23337 0.29085,0.10589 0.23844,0.34538 -0.15945,0.72865 -0.38318,0.3691 -0.38577,0.37496 -0.23539,0.53261 l 0.15204,0.15941 0.48618,-0.46128 c 0.39797,-0.37758 0.48617,-0.50731 0.48617,-0.71497 z m 0.72616,-0.46071 c 0.0709,-0.10693 0.038,-0.1808 -0.1735,-0.38776 -0.30438,-0.29796 -0.31734,-0.36837 -0.10188,-0.55336 0.15306,-0.13143 0.17362,-0.13039 0.5254,0.0265 0.45762,0.20408 0.62498,0.20555 0.75594,0.006 0.096,-0.14586 0.0695,-0.17113 -0.38268,-0.3649 -0.35229,-0.15097 -0.48735,-0.25043 -0.49137,-0.36184 -0.0125,-0.34724 -0.4876,-0.80492 -0.83673,-0.80611 -0.15512,-5.3e-4 -1.18726,0.88842 -1.18726,1.02255 0,0.13093 1.57215,1.58949 1.69163,1.5694 0.0621,-0.0104 0.15223,-0.0784 0.20045,-0.15105 z m -1.08292,-1.25119 -0.19067,-0.19257 0.23219,-0.22995 c 0.24695,-0.24455 0.43238,-0.28781 0.59054,-0.13776 0.15576,0.1478 0.11362,0.32503 -0.12994,0.54642 -0.12489,0.11354 -0.24606,0.20643 -0.26926,0.20643 -0.0232,0 -0.128,-0.0866 -0.23286,-0.19257 z m 46.00019,0.51905 c 0.10071,-0.12184 0.0978,-0.12455 -0.0306,-0.029 -0.0779,0.058 -0.1417,0.11849 -0.1417,0.13444 0,0.0632 0.0665,0.0225 0.17227,-0.10543 z m -43.37869,-0.72778 c 0.0718,-0.10823 0.0327,-0.18605 -0.21398,-0.42576 -0.16604,-0.16132 -0.30188,-0.32186 -0.30188,-0.35674 0,-0.0348 0.14574,-0.20169 0.32387,-0.3707 0.35491,-0.33673 0.36938,-0.36893 0.2267,-0.5043 -0.14179,-0.13454 -0.17289,-0.12239 -0.55057,0.2151 -0.18914,0.169 -0.37017,0.30728 -0.40229,0.30728 -0.0321,0 -0.12542,-0.0702 -0.20732,-0.15611 -0.14632,-0.15339 -0.1414,-0.16333 0.2825,-0.57057 0.39234,-0.37693 0.41988,-0.42541 0.30407,-0.53528 -0.07,-0.0664 -0.16219,-0.12082 -0.20479,-0.12082 -0.12847,0 -1.06765,0.99468 -1.06765,1.13074 0,0.16545 1.46406,1.56446 1.61066,1.5391 0.0621,-0.0107 0.15233,-0.0791 0.20068,-0.15194 z m -0.16271,-2.63313 c -0.0508,-0.12554 -0.19122,-0.15845 -0.19122,-0.0448 0,0.0583 0.0567,0.098 0.22012,0.15398 0.01,0.004 -0.003,-0.0458 -0.0289,-0.10917 z m -0.12904,-0.34569 c 0.06,-0.0911 0.0679,-0.15364 0.0195,-0.15364 -0.0449,0 -0.0817,0.0346 -0.0817,0.0769 0,0.0423 -0.0547,0.0769 -0.12145,0.0769 -0.0668,0 -0.12146,0.0346 -0.12146,0.0768 0,0.13348 0.19978,0.0832 0.30508,-0.0768 z m 14.26901,-5.09917 c 0,-0.016 -0.0638,-0.0765 -0.14169,-0.13444 -0.12842,-0.0956 -0.13128,-0.0928 -0.0306,0.029 0.10577,0.12796 0.17226,0.16866 0.17226,0.10543 z m 30.64922,48.65322 c 0.0789,-0.0827 0.1924,-0.15032 0.2523,-0.15032 0.19515,0 0.11479,0.11785 -0.14339,0.21031 -0.24734,0.0885 -0.24948,0.0874 -0.10891,-0.06 z m 0.37069,-0.17789 c -0.0679,-0.0777 -0.0537,-0.1338 0.0581,-0.22982 0.0814,-0.0699 0.17539,-0.10104 0.20887,-0.0693 0.0335,0.0318 0.0488,0.0201 0.034,-0.026 -0.0335,-0.10381 1.14412,-1.25659 1.26317,-1.2366 0.0474,0.008 0.079,-0.0236 0.07,-0.0701 -0.0167,-0.0872 0.4388,-0.54348 0.58301,-0.584 0.0446,-0.0125 0.0736,-0.0436 0.0647,-0.069 -0.009,-0.0254 0.11367,-0.1637 0.27245,-0.30727 0.26203,-0.23695 0.28328,-0.24415 0.23,-0.0779 -0.11189,0.34911 -0.61596,1.08859 -0.70605,1.03578 -0.0543,-0.0319 -0.0653,-0.0163 -0.0286,0.0402 0.0743,0.11411 -0.52034,0.71552 -0.65834,0.66581 -0.0547,-0.0197 -0.0793,0.009 -0.0562,0.066 0.0572,0.14136 -0.42462,0.50963 -0.59779,0.45695 -0.10688,-0.0325 -0.11381,-0.025 -0.0296,0.032 0.13448,0.0912 -0.0192,0.20894 -0.16285,0.12474 -0.0516,-0.0302 -0.0717,-0.0214 -0.0448,0.0198 0.0267,0.041 -0.0546,0.13241 -0.18071,0.2031 -0.18991,0.10642 -0.24474,0.11086 -0.31918,0.0258 z m -71.98855,-16.18161 c -9e-5,-0.0634 -0.01,-3.49229 -0.0208,-7.61982 l -0.0205,-7.50459 0.19606,0.16821 c 0.10782,0.0925 1.92428,1.80527 4.03657,3.80612 l 3.84053,3.63791 -4.01588,3.81371 c -2.20873,2.09753 -4.01595,3.76183 -4.01605,3.69846 z m 74.8534,-0.56975 c -0.17813,-0.1431 -0.35078,-0.2445 -0.38367,-0.22532 -0.0329,0.0191 -0.041,-0.0116 -0.0181,-0.0684 0.0232,-0.0573 -0.0672,-0.17967 -0.20334,-0.27517 -0.1348,-0.0946 -0.2451,-0.20969 -0.2451,-0.25586 0,-0.0525 0.0531,-0.0445 0.14169,0.0215 0.12804,0.0953 0.13113,0.0926 0.032,-0.0274 -0.0834,-0.10089 -0.14615,-0.11431 -0.26133,-0.0558 -0.11835,0.0601 -0.14198,0.0533 -0.1078,-0.0313 0.0259,-0.0641 -0.0574,-0.17666 -0.20424,-0.2759 -0.13642,-0.0922 -0.24804,-0.20402 -0.24804,-0.24856 0,-0.0474 0.0586,-0.0374 0.14169,0.0244 0.12804,0.0953 0.13113,0.0926 0.0319,-0.0274 -0.0834,-0.1009 -0.14614,-0.11432 -0.26132,-0.0558 -0.11835,0.0601 -0.142,0.0533 -0.1078,-0.0313 0.0259,-0.0641 -0.0574,-0.17665 -0.20424,-0.27587 -0.13642,-0.0922 -0.24804,-0.20403 -0.24804,-0.24857 0,-0.0475 0.0586,-0.0374 0.14169,0.0244 0.12804,0.0953 0.13112,0.0926 0.0319,-0.0274 -0.0834,-0.10091 -0.14614,-0.11433 -0.26132,-0.0558 -0.11836,0.0601 -0.142,0.0533 -0.10781,-0.0313 0.0259,-0.0641 -0.0574,-0.17665 -0.20424,-0.27589 -0.13642,-0.0922 -0.24804,-0.20402 -0.24804,-0.24857 0,-0.0474 0.0586,-0.0374 0.14169,0.0244 0.12804,0.0953 0.13113,0.0926 0.032,-0.0274 -0.0834,-0.10091 -0.14616,-0.11433 -0.26133,-0.0558 -0.11835,0.0601 -0.142,0.0533 -0.10781,-0.0313 0.0259,-0.0641 -0.0574,-0.17664 -0.20424,-0.27588 -0.13642,-0.0922 -0.24804,-0.20402 -0.24804,-0.24857 0,-0.0475 0.0586,-0.0374 0.14169,0.0244 0.12804,0.0953 0.13113,0.0926 0.0319,-0.0274 -0.0833,-0.10088 -0.14614,-0.11431 -0.26132,-0.0558 -0.11835,0.0601 -0.142,0.0533 -0.1078,-0.0313 0.0259,-0.0641 -0.0574,-0.17665 -0.20424,-0.27586 -0.13642,-0.0922 -0.24804,-0.20405 -0.24804,-0.24859 0,-0.0474 0.0586,-0.0374 0.14169,0.0244 0.12804,0.0953 0.13112,0.0926 0.0319,-0.0274 -0.0834,-0.10091 -0.14615,-0.11433 -0.26132,-0.0558 -0.11835,0.0601 -0.142,0.0533 -0.10781,-0.0313 0.0259,-0.0641 -0.0574,-0.17663 -0.20424,-0.27587 -0.13642,-0.0922 -0.24804,-0.20402 -0.24804,-0.24858 0,-0.0475 0.0586,-0.0374 0.14168,0.0244 0.12805,0.0953 0.13114,0.0926 0.032,-0.0274 -0.0834,-0.1009 -0.14616,-0.11432 -0.26132,-0.0558 -0.11836,0.0601 -0.14201,0.0533 -0.10782,-0.0313 0.0259,-0.0641 -0.0574,-0.17664 -0.20424,-0.27587 -0.13642,-0.0922 -0.24804,-0.20403 -0.24804,-0.24858 0,-0.0474 0.0586,-0.0374 0.14169,0.0244 0.12804,0.0953 0.13113,0.0926 0.0319,-0.0274 -0.0833,-0.10089 -0.14614,-0.11431 -0.26132,-0.0558 -0.11835,0.0601 -0.142,0.0533 -0.1078,-0.0313 0.0259,-0.0641 -0.0574,-0.17666 -0.20424,-0.27589 -0.13642,-0.0922 -0.24804,-0.20403 -0.24804,-0.24857 0,-0.0474 0.0586,-0.0374 0.14169,0.0244 0.12804,0.0953 0.13112,0.0926 0.0319,-0.0274 -0.0834,-0.10091 -0.14614,-0.11433 -0.26131,-0.0558 -0.11835,0.0601 -0.14201,0.0533 -0.10781,-0.0313 0.0259,-0.0641 -0.0574,-0.17665 -0.20425,-0.27588 -0.13642,-0.0922 -0.24804,-0.20402 -0.24804,-0.24857 0,-0.0475 0.0586,-0.0374 0.14169,0.0244 0.12804,0.0953 0.13113,0.0926 0.032,-0.0274 -0.0834,-0.1009 -0.14616,-0.11432 -0.26133,-0.0558 -0.11941,0.0606 -0.14206,0.0533 -0.10667,-0.0341 0.0264,-0.0653 -0.0269,-0.14761 -0.12955,-0.19972 -0.0971,-0.0493 -0.15558,-0.13536 -0.13186,-0.19403 0.0259,-0.0642 0.002,-0.0906 -0.0617,-0.0674 -0.0574,0.0209 -0.15109,-0.0154 -0.2082,-0.0808 -0.0845,-0.0966 -0.0845,-0.14086 0,-0.23746 0.0571,-0.0653 0.1508,-0.10162 0.2082,-0.0807 0.0635,0.0231 0.0877,-0.004 0.0617,-0.0674 -0.0237,-0.0587 0.0347,-0.14473 0.13186,-0.19404 0.10264,-0.0521 0.15598,-0.13436 0.12955,-0.19972 -0.0354,-0.0875 -0.0127,-0.0948 0.10667,-0.0341 0.11517,0.0585 0.17798,0.0451 0.26133,-0.0558 0.0991,-0.12003 0.096,-0.12267 -0.032,-0.0274 -0.083,0.0618 -0.14169,0.072 -0.14169,0.0244 0,-0.0446 0.11162,-0.1564 0.24804,-0.24857 0.1469,-0.0992 0.23019,-0.21174 0.20425,-0.27587 -0.0342,-0.0846 -0.0105,-0.0914 0.10781,-0.0313 0.11517,0.0584 0.17797,0.0451 0.26131,-0.0558 0.0991,-0.12003 0.0961,-0.12267 -0.0319,-0.0274 -0.0831,0.0618 -0.14169,0.072 -0.14169,0.0244 0,-0.0446 0.11162,-0.15641 0.24804,-0.24858 0.14688,-0.0992 0.23017,-0.21175 0.20424,-0.27588 -0.0342,-0.0846 -0.0105,-0.0914 0.1078,-0.0313 0.11518,0.0585 0.17798,0.0451 0.26132,-0.0558 0.0992,-0.12002 0.0961,-0.12267 -0.0319,-0.0274 -0.083,0.0618 -0.14169,0.072 -0.14169,0.0244 0,-0.0446 0.11162,-0.1564 0.24804,-0.24857 0.14688,-0.0992 0.23019,-0.21175 0.20424,-0.27588 -0.0342,-0.0846 -0.0105,-0.0914 0.10782,-0.0313 0.11516,0.0584 0.17796,0.0451 0.26132,-0.0558 0.0991,-0.12003 0.096,-0.12266 -0.032,-0.0274 -0.083,0.0618 -0.14168,0.072 -0.14168,0.0244 0,-0.0446 0.11162,-0.15641 0.24804,-0.24857 0.14689,-0.0992 0.23018,-0.21175 0.20424,-0.27588 -0.0342,-0.0846 -0.0105,-0.0914 0.10781,-0.0313 0.11517,0.0585 0.17797,0.0451 0.26132,-0.0558 0.0991,-0.12003 0.0961,-0.12267 -0.0319,-0.0274 -0.083,0.0618 -0.14169,0.072 -0.14169,0.0244 0,-0.0446 0.11162,-0.1564 0.24804,-0.24857 0.14688,-0.0992 0.23018,-0.21175 0.20424,-0.27588 -0.0342,-0.0846 -0.0105,-0.0914 0.1078,-0.0313 0.11518,0.0585 0.17798,0.0451 0.26132,-0.0558 0.0992,-0.12002 0.0961,-0.12266 -0.0319,-0.0274 -0.083,0.0618 -0.14169,0.072 -0.14169,0.0244 0,-0.0446 0.11162,-0.15641 0.24804,-0.24857 0.14688,-0.0992 0.23019,-0.21176 0.20424,-0.27589 -0.0342,-0.0846 -0.0105,-0.0914 0.10781,-0.0313 0.11517,0.0584 0.17797,0.0451 0.26133,-0.0558 0.0991,-0.12003 0.096,-0.12266 -0.032,-0.0274 -0.083,0.0618 -0.14169,0.072 -0.14169,0.0244 0,-0.0446 0.11162,-0.15641 0.24804,-0.24858 0.14688,-0.0992 0.23018,-0.21174 0.20424,-0.27586 -0.0342,-0.0846 -0.0105,-0.0914 0.10781,-0.0313 0.11518,0.0584 0.17797,0.0451 0.26132,-0.0558 0.0991,-0.12004 0.0961,-0.12268 -0.0319,-0.0274 -0.0831,0.0618 -0.14169,0.072 -0.14169,0.0244 0,-0.0446 0.11162,-0.1564 0.24804,-0.24857 0.14688,-0.0992 0.23018,-0.21175 0.20424,-0.27588 -0.0342,-0.0846 -0.0105,-0.0914 0.1078,-0.0313 0.11518,0.0585 0.17798,0.0451 0.26132,-0.0558 0.0992,-0.12002 0.0961,-0.12266 -0.0319,-0.0274 -0.083,0.0618 -0.14169,0.0719 -0.14169,0.0244 0,-0.0446 0.11162,-0.15641 0.24804,-0.24858 0.14688,-0.0992 0.23019,-0.21175 0.20424,-0.27588 -0.0342,-0.0846 -0.0105,-0.0914 0.1078,-0.0313 0.11518,0.0584 0.17798,0.0451 0.26133,-0.0558 0.0991,-0.12003 0.096,-0.12267 -0.032,-0.0274 -0.0887,0.066 -0.14169,0.074 -0.14169,0.0215 0,-0.0462 0.1103,-0.1613 0.2451,-0.25585 0.1544,-0.10832 0.22772,-0.2149 0.19814,-0.28804 -0.0258,-0.0639 -0.0221,-0.0926 0.009,-0.0638 0.0303,0.0288 0.21443,-0.0715 0.40912,-0.22286 l 0.35395,-0.27518 v 7.38404 c 0,4.06122 -0.01,7.38354 -0.0203,7.3829 -0.0111,-5.3e-4 -0.16599,-0.11822 -0.34411,-0.26133 z m 0.0404,-0.15063 c 0,-0.016 -0.0638,-0.0765 -0.1417,-0.13444 -0.12841,-0.0956 -0.13128,-0.0928 -0.0306,0.029 0.10578,0.12796 0.17227,0.16865 0.17227,0.10542 z m -0.0707,-13.85636 c 0.1007,-0.12183 0.0978,-0.12456 -0.0306,-0.029 -0.13487,0.10035 -0.17777,0.16344 -0.11113,0.16344 0.0168,0 0.0805,-0.0605 0.1417,-0.13444 z m -22.88356,-3.47326 c -0.25024,-0.0992 -2.42281,-2.20573 -2.47752,-2.4022 -0.0267,-0.0958 5.3e-4,-0.29074 0.0607,-0.43322 0.1389,-0.32943 0.13907,-0.62547 5.3e-4,-0.81856 -0.23196,-0.3231 -0.30515,-0.66466 -0.18092,-0.84453 0.15934,-0.23075 2.67844,-2.62284 2.85822,-2.71413 0.14238,-0.0723 0.28497,-0.039 0.97231,0.22719 0.21014,0.0814 0.33393,0.083 0.62866,0.008 0.20184,-0.0513 0.43649,-0.0931 0.52143,-0.0931 0.22919,0 2.28746,1.94718 2.22404,2.10402 -0.0274,0.0676 -0.088,0.10047 -0.13471,0.073 -0.0468,-0.0274 -0.0627,-0.0157 -0.0356,0.026 0.0272,0.0417 -0.0382,0.19818 -0.14528,0.34769 -0.10708,0.1495 -0.21871,0.36269 -0.2481,0.47375 -0.0294,0.11107 -0.095,0.20431 -0.14586,0.20723 -0.71959,0.0412 -0.82961,0.10612 -1.8857,1.1125 -1.0678,1.01753 -1.14321,1.14818 -1.0612,1.83853 0.0371,0.31216 0.017,0.35605 -0.29673,0.64818 -0.3529,0.32862 -0.39259,0.34314 -0.65424,0.2394 z m 1.19687,-2.71982 c 1.01216,-0.40809 1.27424,-1.67243 0.48983,-2.36304 -0.34745,-0.30591 -0.58544,-0.39624 -1.04389,-0.39624 -0.8278,0 -1.41623,0.52702 -1.4769,1.32277 -0.0381,0.49905 0.0769,0.77969 0.45979,1.12256 0.45239,0.40513 1.04921,0.52438 1.57117,0.31395 z m -46.80321,-8.4402 c 0.0238,-0.7919 0.0767,-1.3338 0.14444,-1.47987 0.0587,-0.12676 0.10986,-0.25481 0.11359,-0.28457 0.004,-0.0298 0.1465,-0.2127 0.31728,-0.40653 0.37488,-0.42551 0.8925,-0.76545 1.06815,-0.7015 0.0839,0.0305 0.10775,0.0159 0.0697,-0.0426 -0.0387,-0.0594 -0.0132,-0.0727 0.0768,-0.0399 0.0741,0.0269 0.13474,0.0156 0.13474,-0.0253 0,-0.0459 0.73716,-0.0744 1.92483,-0.0744 h 1.92483 l 2.14038,2.03575 c 1.17721,1.11967 2.15709,2.03575 2.17751,2.03575 0.0491,0 0.20238,0.14885 -2.15797,-2.09596 l -2.08268,-1.98072 2.4695,0.0218 2.4695,0.0218 0.40483,0.20369 c 0.58058,0.29214 1.03467,0.80726 1.24341,1.41058 0.1439,0.41591 0.17352,0.68483 0.17352,1.5754 v 1.07388 h -1.21929 c -0.95387,0 -1.20604,-0.0209 -1.15848,-0.096 0.0482,-0.076 0.0354,-0.0765 -0.0614,-0.002 -0.0931,0.0715 -1.32019,0.0946 -5.1665,0.0971 l -5.04428,0.004 0.0377,-1.24941 z"
         id="path3341" />
    </g>
  </g>
</svg>
