<?xml version="1.0" encoding="UTF-8" standalone="no"?>
<svg
   xmlns:dc="http://purl.org/dc/elements/1.1/"
   xmlns:cc="http://creativecommons.org/ns#"
   xmlns:rdf="http://www.w3.org/1999/02/22-rdf-syntax-ns#"
   xmlns:svg="http://www.w3.org/2000/svg"
   xmlns="http://www.w3.org/2000/svg"
   xmlns:sodipodi="http://sodipodi.sourceforge.net/DTD/sodipodi-0.dtd"
   xmlns:inkscape="http://www.inkscape.org/namespaces/inkscape"
   width="31mm"
   height="28mm"
   viewBox="0 0 31 28"
   version="1.1"
   id="svg8"
   inkscape:version="1.0.1 (3bc2e813f5, 2020-09-07)"
   sodipodi:docname="galeria.svg"
   inkscape:export-filename="C:\Users\Rosio\Documents\Portafolio web\images\home.png"
   inkscape:export-xdpi="94.342857"
   inkscape:export-ydpi="94.342857">
  <defs
     id="defs2" />
  <sodipodi:namedview
     id="base"
     pagecolor="#ffffff"
     bordercolor="#666666"
     borderopacity="1.0"
     inkscape:pageopacity="0.0"
     inkscape:pageshadow="2"
     inkscape:zoom="3.9943548"
     inkscape:cx="113.28488"
     inkscape:cy="52.913386"
     inkscape:document-units="mm"
     inkscape:current-layer="layer1"
     inkscape:document-rotation="0"
     showgrid="false"
     inkscape:window-width="1104"
     inkscape:window-height="623"
     inkscape:window-x="54"
     inkscape:window-y="46"
     inkscape:window-maximized="0" />
  <metadata
     id="metadata5">
    <rdf:RDF>
      <cc:Work
         rdf:about="">
        <dc:format>image/svg+xml</dc:format>
        <dc:type
           rdf:resource="http://purl.org/dc/dcmitype/StillImage" />
        <dc:title></dc:title>
      </cc:Work>
    </rdf:RDF>
  </metadata>
  <g
     inkscape:label="Capa 1"
     inkscape:groupmode="layer"
     id="layer1">
    <g
       id="g2024"
       style="opacity:1"
       transform="translate(-120.86544,-13.45857)">
      <ellipse
         style="opacity:1;fill:none;stroke:#800080;stroke-width:0.301913"
         id="ellipse14-0"
         cx="29.973946"
         cy="106.79459"
         rx="12.09059"
         ry="9.5611315"
         transform="translate(106.0603,-80.286879)" />
      <path
         style="fill:#000000;stroke-width:0.0137008"
         d="m 130.06264,32.830416 c -0.41778,-0.08658 -0.74995,-0.367401 -0.89189,-0.754017 l -0.0388,-0.105686 v -5.541889 c 0,-5.268774 0.001,-5.54612 0.0252,-5.627758 0.10917,-0.371372 0.41571,-0.66326 0.82069,-0.781492 l 0.10606,-0.03096 h 5.96779 5.9678 l 0.11366,0.03608 c 0.3914,0.124211 0.69345,0.417751 0.79888,0.776383 0.024,0.08164 0.0252,0.358708 0.0252,5.621153 v 5.535284 l -0.0334,0.09908 c -0.0183,0.0545 -0.0595,0.145343 -0.0915,0.201885 -0.0564,0.09963 -0.17295,0.247434 -0.20216,0.256248 -0.008,0.0024 -0.1025,-0.07776 -0.21018,-0.178086 l -0.19583,-0.182419 0.0623,-0.08627 c 0.10929,-0.151521 0.10951,-0.153349 0.10951,-1.024063 v -0.762877 l 0.0461,-0.04684 0.0461,-0.04684 -0.0461,0.03877 -0.0461,0.03877 v -1.352555 -1.352553 l 0.0533,0.04551 0.0532,0.04551 -0.0532,-0.05338 -0.0533,-0.05338 v -1.049151 -1.049137 l 0.0533,-0.05338 0.0532,-0.05338 -0.0532,0.04551 -0.0533,0.04551 V 24.011268 22.59254 l 0.0533,0.04551 0.0532,0.04551 -0.0532,-0.05338 -0.0533,-0.05338 v -0.77916 c 0,-0.87421 -0.001,-0.884418 -0.1035,-1.027879 l -0.0504,-0.07045 0.0663,-0.06455 0.0663,-0.06455 -0.071,0.06157 -0.071,0.06157 -0.0542,-0.04414 c -0.0653,-0.05301 -0.17792,-0.105886 -0.26542,-0.124526 -0.0399,-0.0085 -0.37831,-0.01374 -0.90115,-0.01394 -0.77641,-3.07e-4 -0.83934,-0.002 -0.8665,-0.02344 -0.0279,-0.02202 -0.0283,-0.02202 -0.01,0 0.0183,0.02199 -0.0504,0.02312 -1.39802,0.02312 -1.34765,0 -1.41633,-0.0011 -1.39802,-0.02312 0.0183,-0.02202 0.0179,-0.02202 -0.01,0 -0.0277,0.02183 -0.17665,0.02312 -2.69055,0.02312 -2.5324,0 -2.66033,-0.0011 -2.64201,-0.02312 0.0182,-0.02193 0.0178,-0.02196 -0.01,-3.79e-4 -0.0265,0.02088 -0.10095,0.02303 -0.91624,0.02642 -0.87386,0.0036 -0.88866,0.0041 -0.96981,0.03264 -0.0454,0.01592 -0.11495,0.05069 -0.15472,0.07725 l -0.0723,0.0483 -0.20051,-0.182943 -0.20051,-0.182942 0.19678,0.186419 0.19676,0.186418 -0.0499,0.06466 c -0.0275,0.03557 -0.0649,0.09732 -0.083,0.137243 l -0.0331,0.07258 -0.004,0.83193 -0.004,0.831929 -0.0315,0.03327 -0.0315,0.03328 0.032,-0.02507 0.032,-0.02507 v 1.392328 1.392328 l -0.24511,-0.224436 -0.24511,-0.224436 0.24511,0.231324 0.24511,0.231325 v 1.0896 1.089599 l -0.2309,0.218122 -0.23089,0.218123 0.23089,-0.211217 0.2309,-0.211217 v 1.300935 1.300934 l -0.21669,-0.197996 -0.21668,-0.197994 0.21668,0.204921 0.21669,0.20492 1.6e-4,0.785882 c 1.9e-4,0.84095 0.001,0.858387 0.073,0.987843 0.0172,0.03115 0.052,0.07871 0.0775,0.105685 l 0.0461,0.04905 -0.0664,0.06606 -0.0664,0.06606 0.071,-0.06172 0.071,-0.06172 0.0616,0.04012 c 0.0339,0.02206 0.0663,0.03497 0.072,0.0287 0.006,-0.0062 0.049,-0.05303 0.0963,-0.103892 0.10851,-0.116884 0.26579,-0.316098 0.38512,-0.487791 0.0509,-0.07321 0.14419,-0.182173 0.20737,-0.242138 l 0.11485,-0.109027 0.15657,0.142054 0.15658,0.142052 -0.15298,-0.145756 c -0.12825,-0.122179 -0.15011,-0.148889 -0.13516,-0.165133 0.01,-0.01066 -0.0325,0.02521 -0.0941,0.0797 -0.0616,0.0545 -0.10662,0.09016 -0.10006,0.07926 0.0229,-0.0385 0.11051,-0.165222 0.11876,-0.171738 0.004,-0.0036 0.01,-0.01369 0.0116,-0.02235 0.002,-0.0086 0.0315,-0.05919 0.066,-0.11229 0.0345,-0.05311 0.12801,-0.200586 0.20778,-0.32774 0.57066,-0.909664 0.80858,-1.227705 1.17183,-1.566456 0.23059,-0.215039 0.38691,-0.325862 0.60788,-0.430931 0.32877,-0.156341 0.72829,-0.217563 1.06379,-0.163018 0.13654,0.0222 0.40753,0.102068 0.57377,0.169112 0.28275,0.114028 0.68915,0.344391 1.03621,0.587358 l 0.16945,0.118632 0.28608,-0.529797 c 0.30757,-0.569608 0.45853,-0.831114 0.6719,-1.163913 0.114,-0.177812 0.31967,-0.479243 0.36024,-0.527977 0.007,-0.0075 0.0804,-0.09976 0.16465,-0.204995 0.16995,-0.212145 0.49941,-0.531772 0.6648,-0.644963 0.1363,-0.09328 0.33391,-0.19265 0.46179,-0.232219 0.48369,-0.149663 0.86208,-0.03006 1.34986,0.426659 0.20399,0.191003 0.51319,0.546532 0.63088,0.725401 0.008,0.01109 -7.4e-4,0.03043 -0.0219,0.05285 l -0.0335,0.03536 0.0376,-0.03076 0.0376,-0.03076 0.0419,0.05718 c 0.0755,0.102826 0.24932,0.372355 0.41178,0.638454 0.0955,0.156439 0.31429,0.570441 0.43338,0.820138 0.25865,0.542292 0.47459,1.113126 0.61295,1.620321 l 0.0623,0.228102 -0.0301,0.03293 -0.0301,0.03293 0.0314,-0.02451 c 0.0368,-0.02884 0.0282,-0.05105 0.0811,0.209645 0.0515,0.253993 0.0798,0.497525 0.0859,0.73763 0.004,0.193883 -0.008,0.431392 -0.0277,0.507479 -0.0122,0.04738 0.0352,0.03739 0.1437,-0.03028 l 0.0963,-0.06 0.19616,0.182024 c 0.10785,0.100114 0.19616,0.186293 0.19616,0.191509 0,0.0052 -0.0399,0.03958 -0.0888,0.07634 -0.10384,0.07817 -0.26114,0.156763 -0.4014,0.200539 l -0.0995,0.03103 -5.93936,0.002 c -4.64407,0.0016 -5.95642,-0.0015 -6.01752,-0.01419 z m 4.44924,-0.03073 c 0.0177,-0.02095 0.0171,-0.02142 -0.006,-0.005 -0.0137,0.01 -0.0249,0.02038 -0.0249,0.02312 0,0.01088 0.0117,0.0039 0.0302,-0.01813 z m 5.22892,-0.05285 c 0.0177,-0.02095 0.0171,-0.02142 -0.006,-0.005 -0.0137,0.01 -0.0249,0.02038 -0.0249,0.02312 0,0.01088 0.0117,0.0039 0.0302,-0.01812 z m -5.11525,-0.05285 c 0.0177,-0.02095 0.0171,-0.02142 -0.006,-0.005 -0.0237,0.01726 -0.0312,0.02811 -0.0195,0.02811 0.003,0 0.0141,-0.0104 0.0249,-0.02312 z m 2.93946,0.01856 c 0,-0.0025 -0.0143,-0.01588 -0.032,-0.02973 l -0.032,-0.02517 0.027,0.02973 c 0.0255,0.02794 0.0369,0.03574 0.0369,0.02517 z m 2.25923,-0.04168 c 0.0266,-0.02543 0.045,-0.04624 0.0411,-0.04624 -0.004,0 -0.0288,0.02081 -0.0554,0.04624 -0.0265,0.02543 -0.045,0.04624 -0.0411,0.04624 0.004,0 0.0288,-0.02081 0.0553,-0.04624 z m -7.68708,-0.171739 -0.19142,-0.178344 h 1.08323 c 0.59578,0 1.08325,-0.0048 1.08325,-0.01077 0,-0.0059 0.0425,-0.0728 0.0944,-0.148621 0.11665,-0.170385 0.30347,-0.459567 0.30347,-0.469729 0,-0.0041 0.012,-0.0233 0.0267,-0.04258 0.0405,-0.05324 0.3352,-0.569189 0.49798,-0.87175 0.12875,-0.239306 0.14703,-0.266699 0.16746,-0.251003 0.0205,0.01574 0.021,0.0148 0.006,-0.0089 -0.0156,-0.02321 -0.002,-0.05597 0.10495,-0.262517 0.11936,-0.22961 0.122,-0.23671 0.0972,-0.262538 -0.0407,-0.04234 -0.39349,-0.285798 -0.57965,-0.399993 -0.30121,-0.184752 -0.67157,-0.35068 -0.90938,-0.407403 -0.32042,-0.07643 -0.67808,-0.0056 -0.97979,0.193925 -0.36301,0.240116 -0.69023,0.618542 -1.13306,1.310369 -0.22353,0.349218 -0.32098,0.502776 -0.35321,0.556606 -0.0168,0.0281 -0.0792,0.126719 -0.13854,0.219161 -0.10595,0.165011 -0.10851,0.16766 -0.13706,0.145318 -0.0288,-0.02253 -0.0289,-0.02248 -0.003,0.0059 0.0257,0.02831 0.0247,0.03062 -0.0848,0.191555 -0.10384,0.152715 -0.19677,0.280099 -0.32354,0.443625 l -0.0538,0.06935 h 0.60897 0.60897 l 0.19143,0.178343 c 0.10528,0.09809 0.19462,0.178345 0.19852,0.178345 0.004,0 -0.079,-0.08026 -0.18432,-0.178345 z m 2.60207,0.08918 c 0.0177,-0.02095 0.0171,-0.02142 -0.006,-0.005 -0.0237,0.01726 -0.0312,0.02811 -0.0195,0.02811 0.003,0 0.0141,-0.0104 0.0249,-0.02312 z m 2.7121,0.01856 c 0,-0.0025 -0.0143,-0.01588 -0.032,-0.02972 l -0.032,-0.02516 0.027,0.02973 c 0.0255,0.02794 0.0369,0.03574 0.0369,0.02516 z m 2.48659,-0.04168 c 0.0266,-0.02543 0.045,-0.04624 0.0411,-0.04624 -0.004,0 -0.0288,0.02081 -0.0554,0.04624 -0.0265,0.02543 -0.045,0.04624 -0.0411,0.04624 0.004,0 0.0288,-0.02081 0.0553,-0.04624 z m -10.36549,-0.08587 c 0.0385,-0.03633 0.0668,-0.06606 0.0629,-0.06606 -0.004,0 -0.0386,0.02972 -0.077,0.06606 -0.0385,0.03633 -0.0668,0.06606 -0.0629,0.06606 0.004,0 0.0386,-0.02972 0.077,-0.06606 z m 5.28047,0.0033 c 0.0177,-0.02095 0.0171,-0.02142 -0.006,-0.005 -0.0137,0.01 -0.0249,0.02038 -0.0249,0.02312 0,0.01088 0.0117,0.0039 0.0302,-0.01813 z m 2.48477,0.01856 c 0,-0.0025 -0.0144,-0.01588 -0.032,-0.02973 l -0.032,-0.02517 0.027,0.02973 c 0.0255,0.02794 0.0369,0.03574 0.0369,0.02516 z m 2.71392,-0.04168 c 0.0265,-0.02543 0.045,-0.04624 0.0411,-0.04624 -0.004,0 -0.0288,0.02081 -0.0554,0.04624 -0.0265,0.02543 -0.045,0.04624 -0.0411,0.04624 0.004,0 0.0288,-0.02081 0.0554,-0.04624 z m -10.34417,-0.105683 c 0.0265,-0.02543 0.045,-0.04624 0.0411,-0.04624 -0.004,0 -0.0288,0.02081 -0.0554,0.04624 -0.0265,0.02543 -0.045,0.04623 -0.0411,0.04623 0.004,0 0.0288,-0.02081 0.0554,-0.04623 z m 5.25915,0.02312 c 0.0177,-0.02096 0.0171,-0.02142 -0.006,-0.005 -0.0237,0.01726 -0.0312,0.02811 -0.0195,0.02811 0.003,0 0.0141,-0.0104 0.0249,-0.02312 z m 2.25742,0.01856 c 0,-0.0025 -0.0143,-0.01588 -0.032,-0.02973 l -0.032,-0.02517 0.027,0.02973 c 0.0255,0.02794 0.0369,0.03574 0.0369,0.02516 z m 3.56634,-0.07786 0.58853,-0.0034 0.0209,-0.08587 c 0.023,-0.09474 0.0318,-0.640078 0.0121,-0.759615 l -0.0111,-0.06606 0.29503,0.27082 0.29502,0.270819 -0.2947,-0.277424 -0.29469,-0.277424 -0.009,-0.08354 -0.009,-0.08354 0.0981,-0.09481 0.0981,-0.09481 -0.10084,0.09012 -0.10083,0.09012 -0.0325,-0.162782 c -0.20913,-1.050135 -0.86371,-2.486114 -1.56768,-3.439037 -0.33219,-0.44967 -0.60363,-0.717416 -0.87085,-0.858998 -0.13519,-0.07164 -0.20441,-0.08279 -0.34169,-0.05509 -0.3362,0.06784 -0.68245,0.350976 -1.07744,0.881064 -0.0298,0.03996 -0.0563,0.07499 -0.0589,0.07785 -0.002,0.0028 -0.0156,-0.0031 -0.0287,-0.01321 -0.0218,-0.01676 -0.0223,-0.01595 -0.006,0.009 0.0164,0.02455 0.009,0.04056 -0.0663,0.151923 -0.332,0.488323 -0.63016,1.01654 -1.33235,2.360366 -0.33657,0.644107 -0.38405,0.727929 -0.40412,0.713378 -0.0199,-0.01446 -0.0205,-0.01375 -0.004,0.0057 0.0161,0.0191 0.004,0.04845 -0.0839,0.211372 -0.20372,0.375528 -0.59409,1.037395 -0.7057,1.196511 l -0.0209,0.02972 h 2.704 2.70402 l -0.0417,0.04293 -0.0417,0.04293 0.0503,-0.04278 0.0503,-0.04278 z m -9.78278,-1.172598 c 0.0621,-0.05812 0.10984,-0.105686 0.10584,-0.105686 -0.004,0 -0.0579,0.04756 -0.12012,0.105686 -0.0622,0.05812 -0.10984,0.105686 -0.10584,0.105686 0.004,0 0.0579,-0.04756 0.12012,-0.105686 z m 0.1776,-0.165133 c 0.0265,-0.02543 0.045,-0.04624 0.0411,-0.04624 -0.004,0 -0.0288,0.02081 -0.0554,0.04624 -0.0265,0.02543 -0.045,0.04624 -0.0411,0.04624 0.004,0 0.0288,-0.02081 0.0554,-0.04624 z m 10.45785,0 c 0.0265,-0.02543 0.045,-0.04624 0.0411,-0.04624 -0.004,0 -0.0288,0.02081 -0.0553,0.04624 -0.0265,0.02543 -0.045,0.04624 -0.0411,0.04624 0.004,0 0.0288,-0.02081 0.0554,-0.04624 z m -10.34417,-0.105686 c 0.0265,-0.02543 0.045,-0.04624 0.0411,-0.04624 -0.004,0 -0.0288,0.02081 -0.0554,0.04624 -0.0265,0.02543 -0.045,0.04624 -0.0411,0.04624 0.004,0 0.0288,-0.02081 0.0554,-0.04624 z m 10.45784,0 c 0.0265,-0.02543 0.045,-0.04624 0.0411,-0.04624 -0.004,0 -0.0288,0.02081 -0.0554,0.04624 -0.0265,0.02543 -0.045,0.04624 -0.0411,0.04624 0.004,0 0.0288,-0.02081 0.0554,-0.04624 z M 131.4125,30.768531 c 0.0265,-0.02543 0.045,-0.04623 0.0411,-0.04623 -0.004,0 -0.0288,0.02081 -0.0554,0.04623 -0.0265,0.02543 -0.045,0.04624 -0.0411,0.04624 0.004,0 0.0288,-0.02081 0.0554,-0.04624 z m 4.1064,0.04168 c 0,-0.0025 -0.0143,-0.01588 -0.032,-0.02973 l -0.032,-0.02517 0.027,0.02973 c 0.0255,0.02794 0.0369,0.03574 0.0369,0.02516 z m -3.99272,-0.147364 c 0.0265,-0.02543 0.045,-0.04623 0.0411,-0.04623 -0.003,0 -0.0288,0.02081 -0.0553,0.04623 -0.0266,0.02543 -0.045,0.04623 -0.0411,0.04623 0.004,0 0.0288,-0.02081 0.0554,-0.04623 z m 3.87906,0.04168 c 0,-0.0025 -0.0143,-0.01588 -0.032,-0.02972 l -0.032,-0.02516 0.027,0.02972 c 0.0255,0.02794 0.0369,0.03574 0.0369,0.02516 z m -3.76539,-0.147365 c 0.0265,-0.02543 0.045,-0.04623 0.0411,-0.04623 -0.004,0 -0.0288,0.02081 -0.0554,0.04623 -0.0265,0.02543 -0.045,0.04624 -0.0411,0.04624 0.004,0 0.0288,-0.02081 0.0554,-0.04624 z m 3.65172,0.04168 c 0,-0.0025 -0.0143,-0.01588 -0.032,-0.02973 l -0.032,-0.02516 0.027,0.02973 c 0.0255,0.02794 0.0369,0.03574 0.0369,0.02517 z m -3.53806,-0.147366 c 0.0265,-0.02543 0.045,-0.04624 0.0411,-0.04624 -0.004,0 -0.0288,0.02081 -0.0554,0.04624 -0.0265,0.02543 -0.045,0.04624 -0.0411,0.04624 0.004,0 0.0288,-0.02081 0.0554,-0.04624 z m 0.11368,-0.105685 c 0.0265,-0.02543 0.045,-0.04624 0.0411,-0.04624 -0.004,0 -0.0288,0.02081 -0.0553,0.04624 -0.0266,0.02543 -0.045,0.04624 -0.0411,0.04624 0.004,0 0.0288,-0.02081 0.0554,-0.04624 z m 0.11367,-0.105686 c 0.0266,-0.02543 0.045,-0.04624 0.0411,-0.04624 -0.004,0 -0.0288,0.02081 -0.0554,0.04624 -0.0265,0.02543 -0.045,0.04624 -0.0411,0.04624 0.003,0 0.0288,-0.02081 0.0553,-0.04624 z m 10.57152,-0.105686 c 0.0265,-0.02543 0.045,-0.04623 0.0411,-0.04623 -0.004,0 -0.0288,0.02081 -0.0554,0.04623 -0.0265,0.02543 -0.045,0.04624 -0.0411,0.04624 0.004,0 0.0288,-0.02081 0.0554,-0.04624 z m -10.44985,-0.01 0.0417,-0.04293 -0.0461,0.0388 c -0.043,0.03617 -0.0527,0.04707 -0.0417,0.04707 0.002,0 0.0232,-0.01932 0.0461,-0.04293 z m 0.10573,-0.09578 c 0.0266,-0.02543 0.045,-0.04624 0.0411,-0.04624 -0.004,0 -0.0288,0.02081 -0.0553,0.04624 -0.0266,0.02543 -0.045,0.04623 -0.0411,0.04623 0.004,0 0.0288,-0.02081 0.0554,-0.04623 z m 10.45784,0 c 0.0265,-0.02543 0.045,-0.04624 0.0411,-0.04624 -0.004,0 -0.0288,0.02081 -0.0553,0.04624 -0.0266,0.02543 -0.045,0.04623 -0.0411,0.04623 0.004,0 0.0288,-0.02081 0.0554,-0.04623 z m 0.0568,-2.177174 c 0,-0.0022 -0.024,-0.0245 -0.0533,-0.04954 l -0.0533,-0.04553 0.0489,0.04954 c 0.0456,0.04611 0.0576,0.05561 0.0576,0.04553 z m -2.77075,-0.134699 c 0.0265,-0.02543 0.045,-0.04623 0.0411,-0.04623 -0.004,0 -0.0288,0.02081 -0.0554,0.04623 -0.0265,0.02543 -0.045,0.04624 -0.0411,0.04624 0.004,0 0.0288,-0.02081 0.0554,-0.04624 z m 2.65708,0.02901 c 0,-0.0022 -0.024,-0.0245 -0.0532,-0.04954 l -0.0533,-0.04553 0.0489,0.04954 c 0.0456,0.04611 0.0576,0.05561 0.0576,0.04553 z m -2.54341,-0.134654 c 0.0266,-0.02543 0.045,-0.04623 0.0411,-0.04623 -0.004,0 -0.0288,0.02081 -0.0553,0.04623 -0.0266,0.02543 -0.045,0.04624 -0.0411,0.04624 0.003,0 0.0288,-0.02081 0.0553,-0.04624 z m -2.69971,0.002 c 0,-0.0025 -0.0143,-0.01588 -0.032,-0.02972 l -0.032,-0.02517 0.027,0.02973 c 0.0255,0.02794 0.0369,0.03574 0.0369,0.02517 z m 2.81339,-0.107725 c 0.0266,-0.02543 0.045,-0.04623 0.0411,-0.04623 -0.004,0 -0.0288,0.02081 -0.0553,0.04623 -0.0266,0.02543 -0.045,0.04624 -0.0411,0.04624 0.003,0 0.0288,-0.02081 0.0553,-0.04624 z m -2.92707,0.002 c 0,-0.0025 -0.0143,-0.01588 -0.032,-0.02973 l -0.032,-0.02516 0.027,0.02973 c 0.0255,0.02794 0.0369,0.03574 0.0369,0.02517 z m -0.11367,-0.105687 c 0,-0.0025 -0.0143,-0.01588 -0.032,-0.02972 l -0.032,-0.02517 0.027,0.02973 c 0.0255,0.02794 0.0369,0.03574 0.0369,0.02516 z m 5.42785,-2.115759 c 0.0266,-0.02543 0.045,-0.04623 0.0411,-0.04623 -0.004,0 -0.0288,0.02081 -0.0553,0.04623 -0.0266,0.02543 -0.045,0.04624 -0.0411,0.04624 0.003,0 0.0288,-0.02081 0.0553,-0.04624 z m 0.11367,-0.105685 c 0.0266,-0.02543 0.045,-0.04624 0.0411,-0.04624 -0.004,0 -0.0288,0.02081 -0.0553,0.04624 -0.0266,0.02543 -0.045,0.04623 -0.0411,0.04623 0.004,0 0.0288,-0.02081 0.0553,-0.04623 z m 0.10751,-0.102383 0.0417,-0.04293 -0.0461,0.0388 c -0.043,0.03617 -0.0527,0.04707 -0.0417,0.04707 0.002,0 0.0232,-0.01932 0.0461,-0.04293 z m -13.42843,-2.136821 c 0.0141,-0.01454 0.0226,-0.02642 0.0186,-0.02642 -0.004,0 -0.0187,0.01189 -0.0328,0.02642 -0.0141,0.01454 -0.0226,0.02642 -0.0186,0.02642 0.004,0 0.0187,-0.01189 0.0328,-0.02642 z m 13.42043,-0.005 c 0,-0.0027 -0.0112,-0.01315 -0.0249,-0.02312 -0.0226,-0.01644 -0.023,-0.01596 -0.006,0.005 0.0186,0.02201 0.0302,0.029 0.0302,0.01813 z m -0.0568,-0.05187 c 0,-0.0022 -0.024,-0.0245 -0.0533,-0.04954 l -0.0533,-0.04553 0.0489,0.04954 c 0.0456,0.04611 0.0576,0.05561 0.0576,0.04553 z m -13.24991,-0.04883 c 0.0141,-0.01454 0.0226,-0.02642 0.0186,-0.02642 -0.004,0 -0.0187,0.01189 -0.0328,0.02642 -0.0141,0.01454 -0.0226,0.02642 -0.0186,0.02642 0.004,0 0.0187,-0.01189 0.0328,-0.02642 z m 13.13624,-0.05686 c 0,-0.0022 -0.024,-0.0245 -0.0532,-0.04954 l -0.0533,-0.04553 0.0489,0.04954 c 0.0456,0.04611 0.0576,0.05561 0.0576,0.04553 z m -13.02258,-0.04883 c 0.0141,-0.01454 0.0226,-0.02642 0.0186,-0.02642 -0.004,0 -0.0187,0.01189 -0.0328,0.02642 -0.0141,0.01454 -0.0226,0.02642 -0.0186,0.02642 0.003,0 0.0187,-0.01189 0.0328,-0.02642 z m 12.85207,-2.212792 c 0.0266,-0.02543 0.045,-0.04623 0.0411,-0.04623 -0.004,0 -0.0288,0.02081 -0.0553,0.04623 -0.0265,0.02543 -0.045,0.04624 -0.0411,0.04624 0.004,0 0.0288,-0.02081 0.0553,-0.04624 z m -7.68709,-0.05025 c 0,-0.0022 -0.024,-0.0245 -0.0532,-0.04954 l -0.0533,-0.04553 0.0489,0.04954 c 0.0456,0.04611 0.0576,0.05561 0.0576,0.04553 z m 5.35681,-0.01321 c 0,-0.0022 -0.024,-0.0245 -0.0532,-0.04954 l -0.0533,-0.04553 0.0489,0.04954 c 0.0456,0.04611 0.0576,0.05561 0.0576,0.04553 z m 2.46526,-0.06203 c 0.0385,-0.03633 0.0668,-0.06606 0.0628,-0.06606 -0.004,0 -0.0386,0.02972 -0.077,0.06606 -0.0385,0.03633 -0.0668,0.06605 -0.0628,0.06605 0.004,0 0.0386,-0.02972 0.0771,-0.06605 z m -10.48625,0.01321 c 0.0141,-0.01454 0.0226,-0.02642 0.0186,-0.02642 -0.003,0 -0.0187,0.01189 -0.0328,0.02642 -0.0141,0.01454 -0.0226,0.02642 -0.0186,0.02642 0.003,0 0.0187,-0.01189 0.0328,-0.02642 z m 5.34259,0 c 0.0141,-0.01454 0.0226,-0.02642 0.0186,-0.02642 -0.004,0 -0.0187,0.01189 -0.0328,0.02642 -0.0141,0.01454 -0.0226,0.02642 -0.0186,0.02642 0.004,0 0.0187,-0.01189 0.0328,-0.02642 z m -2.79207,-0.04365 c 0,-0.0022 -0.024,-0.0245 -0.0533,-0.04954 l -0.0532,-0.04553 0.0489,0.04954 c 0.0456,0.04611 0.0576,0.05561 0.0576,0.04553 z m 5.35679,-0.01321 c 0,-0.0022 -0.024,-0.0245 -0.0533,-0.04954 l -0.0533,-0.04553 0.0489,0.04954 c 0.0456,0.04611 0.0576,0.05561 0.0576,0.04553 z m -7.79365,-0.04882 c 0.0141,-0.01454 0.0226,-0.02642 0.0186,-0.02642 -0.004,0 -0.0187,0.01189 -0.0328,0.02642 -0.0141,0.01454 -0.0226,0.02642 -0.0186,0.02642 0.004,0 0.0187,-0.01189 0.0328,-0.02642 z m 5.3426,0 c 0.0141,-0.01454 0.0226,-0.02642 0.0186,-0.02642 -0.004,0 -0.0187,0.01189 -0.0328,0.02642 -0.0141,0.01454 -0.0226,0.02642 -0.0186,0.02642 0.003,0 0.0187,-0.01189 0.0328,-0.02642 z m -3.01942,-0.04365 c 0,-0.0022 -0.024,-0.0245 -0.0533,-0.04954 l -0.0533,-0.04553 0.0489,0.04954 c 0.0456,0.04611 0.0576,0.05561 0.0576,0.04553 z m 5.3568,-0.01321 c 0,-0.0022 -0.024,-0.0245 -0.0532,-0.04954 l -0.0533,-0.04553 0.0489,0.04954 c 0.0456,0.04611 0.0576,0.05561 0.0576,0.04553 z m -5.47047,-0.09345 c 0,-0.0027 -0.0112,-0.01315 -0.0249,-0.02312 -0.0226,-0.01644 -0.023,-0.01596 -0.006,0.005 0.0186,0.02201 0.0302,0.029 0.0302,0.01814 z m 5.35681,-0.01321 c 0,-0.0027 -0.0112,-0.01315 -0.0249,-0.02312 -0.0226,-0.01644 -0.023,-0.01596 -0.006,0.005 0.0186,0.02201 0.0302,0.029 0.0302,0.01814 z m -5.63073,6.134305 c -0.70707,-0.07408 -1.27984,-0.585678 -1.38979,-1.241359 -0.024,-0.143296 -0.009,-0.453701 0.0298,-0.587875 0.14649,-0.515925 0.57583,-0.918508 1.12949,-1.059095 0.13027,-0.03308 0.16395,-0.03613 0.40496,-0.03669 0.28825,-6.64e-4 0.38037,0.01445 0.61099,0.100204 0.3434,0.127708 0.68172,0.433461 0.8385,0.757787 0.19629,0.40611 0.17602,0.912455 -0.052,1.300498 -0.0622,0.105724 -0.15919,0.232763 -0.21683,0.283869 l -0.0437,0.03871 -0.0391,-0.03211 -0.0391,-0.03211 0.0347,0.03656 0.0347,0.03656 -0.0632,0.05979 c -0.0792,0.07505 -0.27053,0.194129 -0.40267,0.250604 -0.24731,0.105695 -0.5653,0.153066 -0.83662,0.124637 z m 0.41857,-0.278128 c 0.20293,-0.03241 0.4528,-0.144102 0.6019,-0.269068 l 0.0847,-0.07097 0.0568,0.04819 0.0568,0.04819 -0.052,-0.05128 -0.052,-0.05128 0.0688,-0.07689 c 0.27321,-0.305222 0.36154,-0.751028 0.2261,-1.141131 -0.11568,-0.333219 -0.4186,-0.629405 -0.7692,-0.752099 -0.41504,-0.145244 -0.93352,-0.07454 -1.25623,0.171317 -0.15879,0.120978 -0.25694,0.229851 -0.36566,0.405642 -0.0839,0.135702 -0.1371,0.352821 -0.1371,0.559898 0,0.331867 0.12318,0.607516 0.37691,0.843418 0.23003,0.213856 0.45743,0.312084 0.82376,0.355819 0.0568,0.0068 0.23626,-0.0037 0.33647,-0.01975 z m 2.16921,-2.883983 c -0.15286,-0.05077 -0.29106,-0.159822 -0.35459,-0.27981 -0.056,-0.105759 -0.0609,-0.234119 -0.0136,-0.350989 0.0294,-0.07222 0.13572,-0.216053 0.19825,-0.26794 0.0305,-0.02531 0.0309,-0.02521 0.0836,0.01981 l 0.053,0.04525 -0.0488,-0.04934 c -0.0268,-0.02714 -0.046,-0.05129 -0.0426,-0.05366 0.18931,-0.133293 0.38896,-0.219512 0.63844,-0.275714 0.0528,-0.01189 0.16815,-0.01715 0.35522,-0.0162 0.2278,0.0011 0.29519,0.006 0.37887,0.02729 l 0.10184,0.02589 0.0377,-0.08942 c 0.12527,-0.296839 0.39056,-0.512338 0.73199,-0.5946 0.12327,-0.0297 0.3814,-0.03561 0.52175,-0.01194 0.43477,0.0733 0.73632,0.321566 0.81914,0.674417 0.007,0.02897 0.0161,0.03345 0.0758,0.03646 0.25209,0.01271 0.45234,0.128394 0.54832,0.316784 0.0438,0.08595 0.0455,0.09555 0.0449,0.25445 -4.8e-4,0.149533 -0.004,0.175861 -0.0437,0.278691 -0.0645,0.1696 -0.13999,0.287779 -0.19827,0.310417 -0.0685,0.02661 -3.8073,0.02677 -3.88739,1.5e-4 z m 0.6203,-0.232592 c -0.0257,-0.02641 -0.0248,-0.02642 1.27125,-0.02642 1.23307,0 1.29602,0.0011 1.2777,0.02312 -0.0183,0.02201 -0.0179,0.02201 0.01,0 0.0257,-0.02028 0.0629,-0.02312 0.3025,-0.02312 h 0.2732 l 0.0298,-0.06268 c 0.0611,-0.128447 0.0826,-0.262775 0.0592,-0.371035 -0.0126,-0.05813 -0.0955,-0.14226 -0.17327,-0.175589 -0.056,-0.02402 -0.0915,-0.02843 -0.22293,-0.02772 -0.21038,0.0011 -0.2419,-0.01836 -0.25602,-0.158327 -0.0113,-0.112215 -0.0212,-0.144005 -0.0744,-0.238984 -0.061,-0.108938 -0.14647,-0.182629 -0.28054,-0.241919 -0.1463,-0.0647 -0.24777,-0.08508 -0.42627,-0.08563 -0.18411,-5.69e-4 -0.28674,0.02139 -0.41728,0.08927 -0.17287,0.08988 -0.32539,0.274072 -0.37012,0.446941 -0.0376,0.145243 -0.0459,0.16474 -0.0816,0.190846 -0.048,0.03516 -0.087,0.0342 -0.20386,-0.005 -0.15531,-0.05208 -0.30448,-0.07508 -0.48319,-0.0745 -0.2828,9.24e-4 -0.46449,0.04708 -0.69438,0.176386 l -0.0906,0.051 -0.0515,-0.04385 -0.0514,-0.04385 0.0497,0.05039 c 0.0437,0.04425 0.0468,0.0519 0.026,0.0628 -0.0386,0.02018 -0.1249,0.138084 -0.14868,0.202968 -0.021,0.05721 -0.0206,0.06311 0.009,0.119036 0.0199,0.0383 0.0535,0.07291 0.0961,0.09916 l 0.0655,0.04031 h 0.25823 c 0.24018,0 0.26002,0.0018 0.28395,0.02642 0.0141,0.01454 0.0289,0.02642 0.0328,0.02642 0.003,0 -0.004,-0.01189 -0.0186,-0.02642 z m 3.34623,-0.735944 c 0,-0.01 -0.0128,5.68e-4 -0.0716,0.0589 l -0.0634,0.06275 0.0675,-0.0589 c 0.0371,-0.03239 0.0675,-0.06063 0.0675,-0.06275 z"
         id="path2019" />
    </g>
  </g>
</svg>
