<?xml version="1.0" encoding="UTF-8" standalone="no"?>
<svg
   xmlns:dc="http://purl.org/dc/elements/1.1/"
   xmlns:cc="http://creativecommons.org/ns#"
   xmlns:rdf="http://www.w3.org/1999/02/22-rdf-syntax-ns#"
   xmlns:svg="http://www.w3.org/2000/svg"
   xmlns="http://www.w3.org/2000/svg"
   xmlns:sodipodi="http://sodipodi.sourceforge.net/DTD/sodipodi-0.dtd"
   xmlns:inkscape="http://www.inkscape.org/namespaces/inkscape"
   width="31mm"
   height="28mm"
   viewBox="0 0 31 28"
   version="1.1"
   id="svg8"
   inkscape:version="1.0.1 (3bc2e813f5, 2020-09-07)"
   sodipodi:docname="habilidades.svg"
   inkscape:export-filename="C:\Users\Rosio\Documents\Portafolio web\images\home.png"
   inkscape:export-xdpi="94.342857"
   inkscape:export-ydpi="94.342857">
  <defs
     id="defs2" />
  <sodipodi:namedview
     id="base"
     pagecolor="#ffffff"
     bordercolor="#666666"
     borderopacity="1.0"
     inkscape:pageopacity="0.0"
     inkscape:pageshadow="2"
     inkscape:zoom="3.9943548"
     inkscape:cx="58.582677"
     inkscape:cy="52.913386"
     inkscape:document-units="mm"
     inkscape:current-layer="layer1"
     inkscape:document-rotation="0"
     showgrid="false"
     inkscape:window-width="1104"
     inkscape:window-height="623"
     inkscape:window-x="54"
     inkscape:window-y="46"
     inkscape:window-maximized="0" />
  <metadata
     id="metadata5">
    <rdf:RDF>
      <cc:Work
         rdf:about="">
        <dc:format>image/svg+xml</dc:format>
        <dc:type
           rdf:resource="http://purl.org/dc/dcmitype/StillImage" />
        <dc:title></dc:title>
      </cc:Work>
    </rdf:RDF>
  </metadata>
  <g
     inkscape:label="Capa 1"
     inkscape:groupmode="layer"
     id="layer1">
    <g
       id="g1169"
       transform="translate(-14.341467,-31.542535)">
      <ellipse
         style="fill:none;stroke:#800080;stroke-width:0.301913"
         id="ellipse12"
         cx="29.973946"
         cy="45.055355"
         rx="12.09059"
         ry="9.5611315" />
      <path
         style="fill:#000000;stroke-width:0.0923485"
         d="m 25.340776,52.332744 c -0.03467,-0.07057 -0.04622,-0.542227 -0.02567,-1.048091 0.03423,-0.841937 0.06612,-0.965339 0.376964,-1.458566 0.402584,-0.638786 1.058375,-1.140318 1.888588,-1.444332 0.576852,-0.211237 0.646956,-0.217141 2.57822,-0.217141 1.926532,0 2.002611,0.0064 2.572463,0.215081 0.667203,0.244377 1.371403,0.710195 1.710066,1.131186 0.448791,0.55789 0.585676,1.054702 0.553657,2.009438 -0.02974,0.887117 -0.03021,0.888503 -0.291017,0.888503 -0.260136,0 -0.26146,-0.0038 -0.319062,-0.938623 -0.04485,-0.727758 -0.110556,-1.030305 -0.292492,-1.346717 -0.256415,-0.445948 -0.84179,-0.965578 -1.298745,-1.152879 -0.159916,-0.06555 -0.265644,-0.150916 -0.234951,-0.189708 0.03068,-0.03879 -0.04623,-0.0497 -0.170938,-0.02423 -0.185753,0.03794 -0.213677,0.01974 -0.15448,-0.100771 0.05935,-0.120845 0.04546,-0.129723 -0.0779,-0.04974 -0.08259,0.05354 -0.283499,0.08629 -0.446462,0.07276 -0.277946,-0.02309 -0.328652,0.02468 -0.818727,0.771012 -0.696571,1.060788 -0.782759,1.059454 -1.464358,-0.02267 -0.509442,-0.808804 -0.519446,-0.81802 -0.831728,-0.766511 -1.046408,0.172606 -1.947443,0.728924 -2.369092,1.462731 -0.181727,0.316263 -0.24751,0.619312 -0.292337,1.346718 -0.05522,0.896007 -0.06853,0.939808 -0.293405,0.964752 -0.141414,0.01567 -0.260759,-0.02518 -0.298607,-0.102206 z m 5.07721,-3.307875 c 0.116104,-0.177773 0.211096,-0.343055 0.211096,-0.367287 0,-0.02425 -0.211585,-0.04406 -0.470188,-0.04406 -0.258603,0 -0.470187,0.01983 -0.470187,0.04406 0,0.07479 0.41926,0.690511 0.470187,0.690511 0.02638,0 0.142988,-0.145449 0.259092,-0.323224 z m -1.070485,-1.556213 c -1.876719,-0.369211 -3.057382,-1.904222 -2.538028,-3.299759 0.399878,-1.074495 1.374678,-1.784741 2.75723,-2.008943 1.119285,-0.181511 2.294198,0.144915 3.147915,0.874585 1.251993,1.07008 1.208394,2.67946 -0.10029,3.701732 -0.802563,0.626922 -2.204884,0.941304 -3.266827,0.732385 z m 1.960747,-0.639936 c 0.994636,-0.354181 1.61954,-1.100681 1.61954,-1.934683 0,-0.7327 -0.182893,-1.082073 -0.831805,-1.588972 -0.631018,-0.492916 -1.098611,-0.649762 -1.937089,-0.649762 -0.83749,0 -1.306049,0.156986 -1.939327,0.649762 -0.675217,0.525412 -0.88087,0.955844 -0.809614,1.694531 0.07841,0.812893 0.679108,1.503138 1.589023,1.825935 0.576005,0.204337 1.739871,0.205945 2.309272,0.0032 z M 21.145971,45.761872 c -0.705648,-0.345596 -0.937907,-0.955204 -0.552199,-1.449344 0.289024,-0.370269 0.67301,-0.541154 1.201968,-0.534907 0.536268,0.0063 0.912183,0.179741 1.212504,0.559323 l 0.219336,0.277224 h 0.975394 c 1.015691,0 1.167779,0.0541 0.975012,0.346884 -0.07922,0.120319 -0.245796,0.142912 -1.05687,0.143347 -0.953462,6.19e-4 -0.964503,0.0027 -1.135671,0.237857 -0.374043,0.513602 -1.24288,0.711802 -1.839474,0.419616 z m 1.150305,-0.560615 c 0.428088,-0.287197 0.06308,-0.913569 -0.532357,-0.913569 -0.750424,0 -0.944073,0.857731 -0.236193,1.046158 0.305144,0.08122 0.499936,0.04762 0.76855,-0.132589 z m 15.678881,0.602961 c -0.18353,-0.06448 -0.442134,-0.247051 -0.574677,-0.405698 l -0.240986,-0.288451 -0.992623,-0.02351 -0.992621,-0.02351 -0.03305,-0.224452 -0.03305,-0.224451 h 1.003088 1.003086 l 0.210716,-0.278977 c 0.295397,-0.391096 0.629222,-0.53722 1.227282,-0.53722 0.573618,0 0.962091,0.182714 1.221448,0.574491 0.557424,0.842028 -0.678021,1.825497 -1.798589,1.431755 z m 1.227392,-0.792449 c 0.113291,-0.213652 0.103272,-0.272625 -0.07882,-0.464015 -0.422999,-0.444572 -1.285065,-0.24425 -1.285065,0.298622 0,0.591975 1.068955,0.721606 1.363892,0.165393 z M 25.622374,41.642288 c -0.543977,-0.429075 -0.705364,-0.514321 -0.855146,-0.451703 -0.455802,0.19055 -1.19927,0.03275 -1.609182,-0.341554 -0.126218,-0.115248 -0.144826,-0.158883 -0.04706,-0.110378 0.09098,0.04515 0.07956,0.02098 -0.02611,-0.0553 -0.12955,-0.09349 -0.187779,-0.254653 -0.187779,-0.519726 0,-0.33748 0.04934,-0.42275 0.405654,-0.701087 0.354084,-0.276591 0.466992,-0.316877 0.888137,-0.316877 0.386707,0 0.48412,0.02835 0.490731,0.142833 0.0047,0.08175 0.03041,0.100109 0.06004,0.04291 0.07459,-0.143886 0.529239,0.104444 0.720691,0.393646 0.172074,0.259932 0.19655,0.707855 0.04861,0.889746 -0.07634,0.09386 0.0605,0.248565 0.586481,0.663037 0.703576,0.554418 0.827965,0.822743 0.403361,0.870122 -0.139688,0.01558 -0.427925,-0.150345 -0.878426,-0.505687 z m -0.892034,-1.06457 c 0.141057,-0.110188 0.25647,-0.277135 0.25647,-0.370998 0,-0.225211 -0.451971,-0.571339 -0.746044,-0.571339 -0.23915,0 -0.716769,0.290732 -0.716769,0.436305 0,0.04475 -0.08178,0.157719 -0.181737,0.251037 -0.09996,0.09332 -0.141299,0.143804 -0.09188,0.1122 0.04942,-0.0316 0.259668,0.03267 0.467209,0.142835 0.47499,0.252125 0.689944,0.252119 1.012747,-4e-5 z m 8.894025,1.533456 c -0.176602,-0.137955 -0.01918,-0.356652 0.603827,-0.839007 0.54624,-0.422902 0.65482,-0.548665 0.574677,-0.665638 -0.272027,-0.397047 0.0023,-1.035762 0.559307,-1.300928 0.654157,-0.311571 1.654999,-0.109515 1.948309,0.393339 0.186989,0.320586 0.133498,0.87075 -0.107974,1.11055 -0.403483,0.400684 -1.177803,0.579317 -1.651951,0.381095 -0.149741,-0.0626 -0.310744,0.02221 -0.852125,0.448908 -0.617497,0.486681 -0.897468,0.60963 -1.07407,0.471681 z m 2.89412,-1.502282 c 0.182557,-0.112174 0.275306,-0.247662 0.275306,-0.402172 0,-0.25827 -0.411096,-0.571339 -0.750245,-0.571339 -0.109798,0 -0.319547,0.09368 -0.466104,0.20816 -0.309188,0.241517 -0.276406,0.554099 0.08302,0.791679 0.283866,0.187633 0.521676,0.180333 0.858013,-0.02634 z m -6.617131,0.25615 c -0.05948,-0.08683 -0.108462,-0.463302 -0.108821,-0.836601 -7.79e-4,-0.663773 -0.0074,-0.681701 -0.3045,-0.813747 -0.440826,-0.195897 -0.670052,-0.515962 -0.670052,-0.935592 0,-0.440103 0.256068,-0.745319 0.803646,-0.957885 1.015972,-0.394398 2.143863,0.381331 1.839258,1.264986 -0.09599,0.278462 -0.612222,0.722701 -0.839819,0.722701 -0.05306,0 -0.09647,0.341576 -0.09647,0.759061 0,0.749283 -0.08246,0.954948 -0.382923,0.954948 -0.07269,0 -0.18083,-0.07106 -0.240318,-0.157871 z m 0.745625,-2.180932 c 0.435562,-0.307913 0.106279,-0.94638 -0.488085,-0.94638 -0.584032,0 -0.903878,0.58897 -0.506238,0.932198 0.215465,0.185978 0.740703,0.193471 0.994323,0.0142 z"
         id="path30" />
    </g>
  </g>
</svg>
