<?xml version="1.0" encoding="UTF-8" standalone="no"?>
<svg
   xmlns:dc="http://purl.org/dc/elements/1.1/"
   xmlns:cc="http://creativecommons.org/ns#"
   xmlns:rdf="http://www.w3.org/1999/02/22-rdf-syntax-ns#"
   xmlns:svg="http://www.w3.org/2000/svg"
   xmlns="http://www.w3.org/2000/svg"
   xmlns:sodipodi="http://sodipodi.sourceforge.net/DTD/sodipodi-0.dtd"
   xmlns:inkscape="http://www.inkscape.org/namespaces/inkscape"
   width="31mm"
   height="28mm"
   viewBox="0 0 31 28"
   version="1.1"
   id="svg8"
   inkscape:version="1.0.1 (3bc2e813f5, 2020-09-07)"
   sodipodi:docname="home.svg"
   inkscape:export-filename="C:\Users\Rosio\Documents\Portafolio web\images\home.png"
   inkscape:export-xdpi="94.342857"
   inkscape:export-ydpi="94.342857">
  <defs
     id="defs2" />
  <sodipodi:namedview
     id="base"
     pagecolor="#ffffff"
     bordercolor="#666666"
     borderopacity="1.0"
     inkscape:pageopacity="0.0"
     inkscape:pageshadow="2"
     inkscape:zoom="3.9943548"
     inkscape:cx="58.582677"
     inkscape:cy="52.913386"
     inkscape:document-units="mm"
     inkscape:current-layer="layer1"
     inkscape:document-rotation="0"
     showgrid="false"
     inkscape:window-width="1104"
     inkscape:window-height="623"
     inkscape:window-x="54"
     inkscape:window-y="46"
     inkscape:window-maximized="0" />
  <metadata
     id="metadata5">
    <rdf:RDF>
      <cc:Work
         rdf:about="">
        <dc:format>image/svg+xml</dc:format>
        <dc:type
           rdf:resource="http://purl.org/dc/dcmitype/StillImage" />
        <dc:title></dc:title>
      </cc:Work>
    </rdf:RDF>
  </metadata>
  <g
     inkscape:label="Capa 1"
     inkscape:groupmode="layer"
     id="layer1">
    <g
       id="g1181"
       transform="matrix(0.95819643,0,0,1,-13.044645,-11.476217)">
      <ellipse
         style="fill:none;stroke:#800080;stroke-width:0.301913"
         id="path10"
         cx="29.973946"
         cy="24.475607"
         rx="12.09059"
         ry="9.5611315" />
      <path
         style="fill:#800080;fill-opacity:1;stroke-width:0.0882239"
         d="m 25.123851,29.818306 c -0.03574,-0.02927 -0.06496,-1.337304 -0.06496,-2.906697 v -2.853442 l 2.322833,-1.844957 c 1.277557,-1.014722 2.439892,-1.92045 2.582967,-2.012722 l 0.260139,-0.167772 0.315684,0.217315 c 0.173626,0.119524 1.33564,1.035246 2.582256,2.034936 l 2.266574,1.817621 -0.02559,2.864517 -0.02559,2.864515 -1.778166,0.02179 -1.778163,0.02178 v -1.716548 c 0,-1.615337 -0.0111,-1.72142 -0.18846,-1.799241 -0.245121,-0.107556 -2.495835,-0.107556 -2.740955,0 -0.177339,0.07782 -0.188463,0.183886 -0.188463,1.797436 v 1.714746 h -1.737566 c -0.955663,0 -1.766796,-0.02398 -1.802523,-0.05326 z m -2.107639,-5.613404 c -0.05547,-0.08499 -0.100858,-0.197638 -0.100858,-0.250336 0,-0.0527 0.394605,-0.401482 0.876902,-0.775069 l 0.876904,-0.679253 v -1.387111 -1.387106 h 1.067319 1.067319 l 0.02883,0.539231 0.02879,0.539232 1.120489,-0.883773 c 1.677807,-1.323357 2.102331,-1.632641 2.240972,-1.632641 0.06927,0 0.349717,0.168895 0.623215,0.375321 0.513256,0.387384 3.530503,2.732378 5.076651,3.94556 0.482294,0.378431 1.018487,0.788582 1.191534,0.91144 0.374682,0.266019 0.464618,0.455684 0.320658,0.676235 -0.181548,0.278136 -0.487689,0.189663 -1.164436,-0.3365 -3.377684,-2.626105 -4.555022,-3.543777 -5.241103,-4.085163 l -0.80113,-0.632171 -1.622214,1.270221 c -5.391204,4.221388 -5.334562,4.182964 -5.58984,3.791883 z"
         id="path34" />
    </g>
  </g>
</svg>
