<?xml version="1.0" encoding="UTF-8" standalone="no"?>
<!-- Created with Inkscape (http://www.inkscape.org/) -->

<svg
   xmlns:dc="http://purl.org/dc/elements/1.1/"
   xmlns:cc="http://creativecommons.org/ns#"
   xmlns:rdf="http://www.w3.org/1999/02/22-rdf-syntax-ns#"
   xmlns:svg="http://www.w3.org/2000/svg"
   xmlns="http://www.w3.org/2000/svg"
   xmlns:sodipodi="http://sodipodi.sourceforge.net/DTD/sodipodi-0.dtd"
   xmlns:inkscape="http://www.inkscape.org/namespaces/inkscape"
   width="197mm"
   height="66mm"
   viewBox="0 0 197 66"
   version="1.1"
   id="svg8"
   inkscape:version="0.92.4 (5da689c313, 2019-01-14)"
   sodipodi:docname="html5.svg">
  <defs
     id="defs2" />
  <sodipodi:namedview
     id="base"
     pagecolor="#ffffff"
     bordercolor="#666666"
     borderopacity="1.0"
     inkscape:pageopacity="0.0"
     inkscape:pageshadow="2"
     inkscape:zoom="0.35"
     inkscape:cx="42.857143"
     inkscape:cy="560"
     inkscape:document-units="mm"
     inkscape:current-layer="layer1"
     showgrid="false"
     inkscape:window-width="1366"
     inkscape:window-height="705"
     inkscape:window-x="-8"
     inkscape:window-y="-8"
     inkscape:window-maximized="1" />
  <metadata
     id="metadata5">
    <rdf:RDF>
      <cc:Work
         rdf:about="">
        <dc:format>image/svg+xml</dc:format>
        <dc:type
           rdf:resource="http://purl.org/dc/dcmitype/StillImage" />
        <dc:title></dc:title>
      </cc:Work>
    </rdf:RDF>
  </metadata>
  <g
     inkscape:label="Capa 1"
     inkscape:groupmode="layer"
     id="layer1"
     transform="translate(0,-231)">
    <g
       transform="translate(-46.776072,37.992058)"
       id="g164">
      <path
         inkscape:connector-curvature="0"
         id="path2362"
         d="m 69.766479,255.16714 c -2.17508,-0.59569 -6.624109,-1.79721 -9.886724,-2.67001 -5.60079,-1.49833 -5.932026,-1.63038 -5.932026,-2.3648 0,-0.42783 -0.355416,-5.0093 -0.789809,-10.18103 -0.434383,-5.17172 -1.082133,-12.94511 -1.439453,-17.27419 -0.35731,-4.32907 -0.927301,-11.13592 -1.266641,-15.12635 -0.33933,-3.99042 -0.616969,-7.71687 -0.616969,-8.28099 v -1.02569 H 74.650391 99.46594 l -0.14153,1.06588 c -0.0779,0.58623 -0.49933,5.49333 -0.93663,10.90466 -1.57421,19.47984 -3.35503,40.65487 -3.42245,40.69526 -0.0258,0.0155 -2.11139,0.58517 -4.63449,1.26595 -2.52309,0.68078 -6.9467,1.88567 -9.830227,2.6775 -2.88355,0.79184 -5.588549,1.43008 -6.011133,1.41831 -0.422585,-0.0111 -2.54793,-0.5088 -4.723001,-1.1045 z m 11.231304,-11.18117 c 3.132117,-0.83608 5.858527,-1.57175 6.058697,-1.63484 0.45581,-0.14368 0.6472,-1.43774 1.06645,-7.21153 0.18337,-2.52529 0.46796,-5.91968 0.63242,-7.54308 0.16446,-1.62341 0.30149,-3.67652 0.30451,-4.56248 l 0.006,-1.61085 -11.382684,0.22025 -11.382698,0.22026 -0.145058,-0.74116 c -0.07974,-0.40762 -0.216931,-1.81111 -0.304771,-3.11885 l -0.159733,-2.37772 H 77.675787 89.66024 l 0.16632,-1.39383 c 0.0914,-0.7666 0.25282,-2.24243 0.35853,-3.2796 l 0.19221,-1.88577 H 74.602178 58.827502 l 0.408281,4.83741 c 0.224543,2.66058 0.585975,6.97736 0.803185,9.59283 l 0.394932,4.75543 1.740066,0.21353 c 0.957024,0.11751 5.833158,0.22814 10.83584,0.24598 5.002681,0.0178 9.095784,0.1525 9.095784,0.29925 0,0.61558 -0.956122,7.72079 -1.052391,7.82059 -0.178641,0.18518 -6.024844,1.41285 -6.754001,1.41829 -0.378373,0.003 -1.961258,-0.29877 -3.517531,-0.67021 l -2.82957,-0.67536 -0.278985,-2.68623 -0.278966,-2.68624 -3.382843,-0.0928 -3.382851,-0.0928 0.130437,1.07677 c 0.07175,0.59223 0.295044,3.03409 0.496214,5.42636 0.336304,3.99899 0.419948,4.36419 1.03779,4.5307 0.36961,0.0997 3.234639,0.88999 6.366752,1.75641 3.132113,0.8664 5.908309,1.529 6.169313,1.47245 0.261015,-0.0565 3.0372,-0.78692 6.169307,-1.62298 z"
         style="fill:#d1382b;fill-opacity:1;stroke-width:0.322115" />
      <rect
         ry="3.5466447"
         y="246.23976"
         x="115.21912"
         height="7.0932894"
         width="106.90293"
         id="rect2436-5"
         style="fill:#d1382b;fill-opacity:1;stroke-width:1.59477997" />
      <text
         transform="scale(0.86270215,1.1591486)"
         id="text2489"
         y="206.75685"
         x="140.65167"
         style="font-style:normal;font-variant:normal;font-weight:400;font-size:19.88829994px;line-height:125%;font-family:'Roboto Th';text-align:start;letter-spacing:0px;word-spacing:0px;text-anchor:start;fill:#000000;fill-opacity:1;stroke:none;stroke-width:0.93591702"
         xml:space="preserve"><tspan
           style="stroke-width:0.93591702"
           id="tspan2487"
           y="206.75685"
           x="140.65167"
           sodipodi:role="line"><tspan
             id="tspan2483"
             style="font-style:normal;font-variant:normal;font-weight:400;font-size:19.88829994px;font-family:'Roboto Th';fill:#000000;stroke-width:0.93591702"
             dy="0"
             dx="0">Html5 = 85% </tspan><tspan
             id="tspan2485"
             style="font-style:normal;font-variant:normal;font-weight:400;font-size:19.88829994px;font-family:'Roboto Th';fill:#000000;stroke-width:0.93591702"
             dy="0"
             dx="0.47475952"> </tspan></tspan></text>
    </g>
  </g>
</svg>
