<?xml version="1.0" encoding="UTF-8" standalone="no"?>
<!-- Created with Inkscape (http://www.inkscape.org/) -->

<svg
   xmlns:dc="http://purl.org/dc/elements/1.1/"
   xmlns:cc="http://creativecommons.org/ns#"
   xmlns:rdf="http://www.w3.org/1999/02/22-rdf-syntax-ns#"
   xmlns:svg="http://www.w3.org/2000/svg"
   xmlns="http://www.w3.org/2000/svg"
   xmlns:sodipodi="http://sodipodi.sourceforge.net/DTD/sodipodi-0.dtd"
   xmlns:inkscape="http://www.inkscape.org/namespaces/inkscape"
   width="197mm"
   height="66mm"
   viewBox="0 0 197 66"
   version="1.1"
   id="svg8"
   inkscape:version="0.92.4 (5da689c313, 2019-01-14)"
   sodipodi:docname="inkscape.svg">
  <defs
     id="defs2" />
  <sodipodi:namedview
     id="base"
     pagecolor="#ffffff"
     bordercolor="#666666"
     borderopacity="1.0"
     inkscape:pageopacity="0.0"
     inkscape:pageshadow="2"
     inkscape:zoom="0.35"
     inkscape:cx="42.857143"
     inkscape:cy="560"
     inkscape:document-units="mm"
     inkscape:current-layer="layer1"
     showgrid="false"
     inkscape:window-width="1366"
     inkscape:window-height="705"
     inkscape:window-x="-8"
     inkscape:window-y="-8"
     inkscape:window-maximized="1" />
  <metadata
     id="metadata5">
    <rdf:RDF>
      <cc:Work
         rdf:about="">
        <dc:format>image/svg+xml</dc:format>
        <dc:type
           rdf:resource="http://purl.org/dc/dcmitype/StillImage" />
        <dc:title></dc:title>
      </cc:Work>
    </rdf:RDF>
  </metadata>
  <g
     inkscape:label="Capa 1"
     inkscape:groupmode="layer"
     id="layer1"
     transform="translate(0,-231)">
    <g
       transform="translate(-310.26679,117.89394)"
       id="g229">
      <path
         inkscape:connector-curvature="0"
         id="path2406"
         d="M 314.52557,145.84416 V 119.9749 h 25.86925 25.86926 v 25.86926 25.86925 h -25.86926 -25.86925 z m 42.08806,23.57494 c 3.68647,-0.99142 6.31053,-3.56639 7.30364,-7.16699 l 0.27514,-0.99756 0.0276,-15.10262 c 0.0246,-13.45784 0.01,-15.19607 -0.13321,-15.96058 -0.7719,-4.1194 -3.7557,-7.1616 -7.84269,-7.99615 -0.94517,-0.19299 -1.44367,-0.19926 -15.84925,-0.19926 -14.40557,0 -14.90408,0.006 -15.84926,0.19926 -4.02012,0.8209 -6.97879,3.77957 -7.79969,7.7997 -0.19297,0.94504 -0.19926,1.44297 -0.19912,15.76407 1.4e-4,16.15449 -0.0206,15.54553 0.58867,17.31305 0.95537,2.7717 3.25643,5.075 6.02264,6.02847 1.73959,0.59961 1.06233,0.57813 17.53992,0.55616 l 15.10723,-0.0201 z m -17.39147,-6.80222 c -0.47796,-0.14831 -0.79602,-0.53532 -0.97807,-1.19012 -0.12877,-0.46313 -0.26291,-0.68366 -0.61112,-1.00463 -0.37806,-0.34848 -0.56759,-0.43683 -1.24212,-0.57901 -1.24365,-0.26214 -1.78363,-0.45333 -2.0844,-0.73804 -0.4726,-0.44738 -0.39015,-0.75456 0.48,-1.7882 1.36434,-1.62068 1.18959,-1.79837 -3.28418,-3.33924 -3.26543,-1.12468 -4.04207,-1.50738 -4.04207,-1.99177 0,-0.30417 0.42416,-0.61718 1.83429,-1.35363 1.34469,-0.70225 1.72754,-1.02813 1.51243,-1.28732 -0.22413,-0.27006 -1.51231,-0.77127 -3.29251,-1.28105 -3.03122,-0.86802 -3.69232,-1.18478 -4.10797,-1.96828 -0.21577,-0.40674 -0.22481,-0.48168 -0.1099,-0.9113 0.0689,-0.25747 0.30039,-0.7259 0.51452,-1.04096 0.53532,-0.78769 13.74454,-14.29295 14.29537,-14.61576 1.00183,-0.5871 2.25981,-0.71737 3.43179,-0.35538 1.11588,0.34465 0.31293,-0.42467 11.23545,10.76496 4.52509,4.63576 4.73812,4.90094 4.7454,5.90701 0.0109,1.50882 -1.39073,2.51633 -5.55382,3.9921 -3.47011,1.23011 -4.70288,1.77331 -4.84093,2.13306 -0.10833,0.28229 0.11473,0.49277 1.21971,1.15096 1.93409,1.15203 2.15675,1.50181 1.5575,2.44673 -0.38508,0.60721 -0.90508,0.90104 -2.3876,1.34912 -1.42057,0.42935 -2.39402,0.91406 -3.08704,1.53716 -0.89372,0.80352 -0.8814,0.95849 0.12279,1.54496 0.47003,0.27452 0.69563,0.46799 0.69563,0.59656 0,0.42317 -1.44712,1.29858 -2.93051,1.77277 -0.93877,0.30009 -2.51856,0.42744 -3.09264,0.2493 z m 1.42854,-10.65394 c 0.62013,-0.2591 0.39224,-0.61359 -0.60956,-0.94819 -1.33976,-0.44746 -5.76239,-1.21703 -5.94496,-1.03446 -0.25419,0.25418 2.18234,1.33703 4.22708,1.87858 1.04914,0.27789 1.8281,0.31271 2.32744,0.10407 z m 0.16681,-13.6105 1.44677,-0.92334 0.90946,0.46973 c 0.50021,0.25836 0.93745,0.46923 0.97163,0.46862 0.0342,-7.7e-4 0.14338,-0.5127 0.24265,-1.13796 0.0993,-0.62526 0.20771,-1.21319 0.241,-1.30651 0.0487,-0.13669 0.27567,0.005 1.16737,0.73058 0.77459,0.62999 1.13058,0.86295 1.18582,0.77598 0.12018,-0.1892 0.0904,-0.90539 -0.0479,-1.14892 -0.22153,-0.39033 -5.06574,-5.2565 -5.42795,-5.45255 -0.5387,-0.29158 -2.04168,-0.27419 -2.5263,0.0293 -0.4469,0.27983 -6.22956,6.09277 -6.65562,6.69049 -0.36348,0.50992 -0.43191,1.07554 -0.1401,1.15808 0.0973,0.0275 1.12719,0.0647 2.28874,0.0826 l 2.11189,0.0326 0.81488,-1.76017 0.81486,-1.76017 0.49583,1.98753 c 0.27271,1.09315 0.53281,1.98754 0.578,1.98754 0.0452,0 0.73322,-0.41551 1.52894,-0.92335 z"
         style="fill:#000000;stroke-width:0.101052" />
      <rect
         ry="3.5466447"
         y="161.76181"
         x="380.56818"
         height="7.0932894"
         width="96.436913"
         id="rect2459"
         style="fill:#000000;fill-opacity:1;stroke-width:1.51470006" />
      <text
         transform="scale(0.86270216,1.1591486)"
         id="text2489-4"
         y="134.52441"
         x="443.07687"
         style="font-style:normal;font-variant:normal;font-weight:400;font-size:19.88829994px;line-height:125%;font-family:'Roboto Th';text-align:start;letter-spacing:0px;word-spacing:0px;text-anchor:start;fill:#000000;fill-opacity:1;stroke:none;stroke-width:0.93591601"
         xml:space="preserve"><tspan
           style="stroke-width:0.93591601"
           id="tspan2487-4"
           y="134.52441"
           x="443.07687"
           sodipodi:role="line"><tspan
             id="tspan2483-5"
             style="font-style:normal;font-variant:normal;font-weight:400;font-size:19.88829994px;font-family:'Roboto Th';fill:#000000;stroke-width:0.93591601">Inkscape = 70% </tspan><tspan
             id="tspan2485-0"
             style="font-style:normal;font-variant:normal;font-weight:400;font-size:19.88829994px;font-family:'Roboto Th';fill:#000000;stroke-width:0.93591601"
             dy="0"
             dx="0.47475952"> </tspan></tspan></text>
    </g>
  </g>
</svg>
