<?xml version="1.0" encoding="UTF-8" standalone="no"?>
<svg
   xmlns:dc="http://purl.org/dc/elements/1.1/"
   xmlns:cc="http://creativecommons.org/ns#"
   xmlns:rdf="http://www.w3.org/1999/02/22-rdf-syntax-ns#"
   xmlns:svg="http://www.w3.org/2000/svg"
   xmlns="http://www.w3.org/2000/svg"
   xmlns:sodipodi="http://sodipodi.sourceforge.net/DTD/sodipodi-0.dtd"
   xmlns:inkscape="http://www.inkscape.org/namespaces/inkscape"
   width="25mm"
   height="28mm"
   viewBox="0 0 25 28"
   version="1.1"
   id="svg8"
   inkscape:version="1.0.1 (3bc2e813f5, 2020-09-07)"
   sodipodi:docname="inteligencia.svg">
  <defs
     id="defs2" />
  <sodipodi:namedview
     id="base"
     pagecolor="#ffffff"
     bordercolor="#666666"
     borderopacity="1.0"
     inkscape:pageopacity="0.0"
     inkscape:pageshadow="2"
     inkscape:zoom="0.35"
     inkscape:cx="400"
     inkscape:cy="560"
     inkscape:document-units="mm"
     inkscape:current-layer="layer1"
     inkscape:document-rotation="0"
     showgrid="false"
     inkscape:window-width="1258"
     inkscape:window-height="728"
     inkscape:window-x="92"
     inkscape:window-y="0"
     inkscape:window-maximized="0" />
  <metadata
     id="metadata5">
    <rdf:RDF>
      <cc:Work
         rdf:about="">
        <dc:format>image/svg+xml</dc:format>
        <dc:type
           rdf:resource="http://purl.org/dc/dcmitype/StillImage" />
        <dc:title></dc:title>
      </cc:Work>
    </rdf:RDF>
  </metadata>
  <g
     inkscape:label="Capa 1"
     inkscape:groupmode="layer"
     id="layer1">
    <path
       style="fill:#3c3e6c;fill-opacity:1;stroke-width:0.0289187"
       d="m 10.486965,24.391935 c -1.2773405,-0.18591 -2.3007105,-0.89344 -2.8445305,-1.96663 l -0.0746,-0.14727 -0.37053,-0.0195 c -0.91605,-0.0482 -1.73864,-0.38063 -2.34082,-0.94594 -0.45644,-0.42849 -0.82959,-0.96994 -1.00556,-1.45908 -0.16245,-0.45159 -0.20174,-0.68685 -0.20274,-1.21388 -8.7e-4,-0.62852 0.0729,-0.99334 0.30925,-1.52262 l 0.073,-0.16345 -0.22428,-0.14758 c -1.34352,-0.88416 -1.99346,-2.4199 -1.67839,-3.96591 0.18695,-0.91744 0.7306,-1.76224 1.48904,-2.31391 0.11134,-0.081 0.20609,-0.15724 0.21056,-0.16945 0.004,-0.0122 -0.0198,-0.086 -0.0538,-0.16409 -0.2477,-0.5672596 -0.32932,-0.9643996 -0.32932,-1.6022696 0,-0.71464 0.10556,-1.1556 0.42259,-1.76513 0.52133,-1.0024 1.52727,-1.75482 2.68524,-2.00851 0.11929,-0.0261 0.41515,-0.0549 0.65748,-0.0639 l 0.44061,-0.0164 0.18704,-0.28097 c 0.41503,-0.62342 0.96027,-1.07903 1.63567,-1.36678 0.7452205,-0.31749 1.8005605,-0.39994 2.4580905,-0.19202 0.31687,0.10019 0.5185,0.22572 0.78398,0.48806 0.20218,0.19979 0.27144,0.29227 0.36843,0.49186 0.19236,0.39585 0.21027,0.49981 0.23138,1.34261 l 0.0188,0.74977 0.128,-0.1714 c 0.19893,-0.26636 0.71156,-0.75844 1.01453,-0.97386 0.72405,-0.51483 1.81264,-0.93955 2.84826,-1.11127 0.44209,-0.0733 1.5441,-0.073 2.09661,5.61e-4 3.11047,0.41405 5.05107,2.36057 5.594911,5.61196 0.204309,1.2214596 0.198239,2.5766096 -0.0163,3.6321596 -0.34686,1.70681 -1.18407,3.27127 -2.452921,4.58363 -1.435469,1.48472 -3.677409,3.14 -5.908459,4.36238 -1.15384,0.63217 -2.50509,1.25023 -3.459991,1.58257 -0.24345,0.0847 -0.290769,0.11366 -0.465449,0.28467 -0.332271,0.32526 -0.68533,0.49207 -1.28746,0.60827 -0.34851,0.0672 -0.5483,0.0701 -0.93828,0.0134 z m 0.99571,-0.93744 c 0.12725,-0.0342 0.29433,-0.0964 0.3713,-0.13825 0.18916,-0.10283 0.40533,-0.34633 0.48699,-0.54856 l 0.0671,-0.16618 v -9.03713 -9.0371196 l -0.0918,-0.19378 c -0.16486,-0.34799 -0.45868,-0.56917 -0.83879,-0.63142 -0.55295,-0.0906 -1.41005,0.0493 -1.8767305,0.3063 -0.48928,0.26941 -0.91526,0.69609 -1.14122,1.1431 -0.072,0.14254 -0.0784,0.1759 -0.054,0.2842 0.0443,0.19703 0.15421,0.38392 0.31352,0.53292 0.18803,0.17588 0.35255,0.24834 0.67247,0.29612 0.145,0.0217 0.28541,0.0604 0.32651,0.0901 0.0844,0.0611 0.18863,0.2576 0.18863,0.35579 0,0.1172 -0.11403,0.31237 -0.22121,0.37861 -0.0909,0.0562 -0.13043,0.0612 -0.38112,0.0487 -0.49243,-0.0248 -0.87398,-0.19956 -1.24802,-0.57184 -0.22724,-0.22616 -0.36813,-0.45189 -0.47837,-0.76635 l -0.0608,-0.17352 -0.2584,0.008 c -0.81879,0.0249 -1.56421,0.36277 -2.14362,0.97164 -0.20353,0.21387 -0.27413,0.31319 -0.37697,0.53029 -0.0696,0.14693 -0.16069,0.39437 -0.20243,0.54988 -0.0687,0.25621 -0.0761,0.33433 -0.078,0.83222 -0.002,0.4278 0.009,0.60388 0.0503,0.79526 0.14727,0.6893696 0.47048,1.3527996 0.87164,1.7891396 0.1504,0.1636 0.42742,0.36039 0.63902,0.45398 0.29229,0.12926 0.38602,0.23224 0.38783,0.42608 0.003,0.29953 -0.26958,0.49248 -0.60708,0.43007 -0.58206,-0.10763 -1.18557,-0.55783 -1.46518,-1.09298 -0.0446,-0.0855 -0.0953,-0.15538 -0.11251,-0.15542 -0.0483,-1.1e-4 -0.47801,0.40956 -0.61139,0.58285 -0.28149,0.36574 -0.47564,0.76067 -0.5897,1.19949 -0.0549,0.21118 -0.0663,0.32773 -0.0648,0.66123 0.002,0.35252 0.0119,0.43808 0.0794,0.66182 0.185,0.61334 0.67864,1.37833 1.11202,1.72325 0.26315,0.20945 0.82015,0.49334 1.14684,0.58452 0.16993,0.0474 0.31196,0.0648 0.53499,0.0657 0.33902,8.73e-4 0.49996,-0.0429 0.71666,-0.19678 0.30179,-0.21428 0.70518,-0.0201 0.70518,0.33939 0,0.23297 -0.14717,0.40582 -0.48197,0.56608 -0.29494,0.14116 -0.5119,0.18595 -0.89649,0.18506 -0.36949,-8.73e-4 -0.57728,-0.0414 -0.89231,-0.17396 -0.0932,-0.0393 -0.17421,-0.0666 -0.17998,-0.0608 -0.0402,0.0402 -0.17171,0.46087 -0.21733,0.69519 -0.14187,0.72861 -0.0153,1.45688 0.35292,2.03051 0.31653,0.49312 0.67385,0.81719 1.16407,1.05577 0.4571,0.22245 0.67921,0.26806 1.33425,0.27398 0.71047,0.006 0.68338,-0.007 0.8967,0.43859 0.20512,0.42829 0.32376,0.60641 0.59004,0.88587 0.34148,0.35839 0.7147,0.57868 1.2365805,0.72992 0.49046,0.14213 0.90538,0.15548 1.32531,0.0426 z m -3.1659405,-3.76494 c -0.29804,-0.15352 -0.3264,-0.55107 -0.0538,-0.75424 0.0562,-0.0418 0.152031,-0.0643 0.35359,-0.0828 0.537781,-0.0495 0.94752,-0.23514 1.30288,-0.5905 0.3538905,-0.35389 0.5386305,-0.76258 0.5904815,-1.30627 0.0279,-0.29279 0.0689,-0.3826 0.21526,-0.47183 0.12759,-0.0778 0.344649,-0.0752 0.475589,0.006 0.119171,0.0736 0.208171,0.25037 0.208911,0.41485 8.73e-4,0.18802 -0.0824,0.64419 -0.159421,0.87363 -0.368029,1.09635 -1.3755295,1.87217 -2.5437395,1.95881 -0.23657,0.0176 -0.272061,0.0133 -0.38974,-0.0474 z m -0.39251,-6.82896 c -0.29608,-0.13577 -0.35655,-0.52553 -0.1145,-0.73805 0.10413,-0.0914 0.15447,-0.10518 0.49117,-0.13424 0.64451,-0.0556 1.25475,-0.4688 1.55896,-1.05554 0.13825,-0.26664 0.1874505,-0.43709 0.2332905,-0.80829 0.033,-0.2672696 0.0522,-0.3382296 0.10756,-0.3974896 0.19609,-0.20995 0.4904,-0.20766 0.68913,0.005 0.0691,0.074 0.0722,0.0932 0.0712,0.4292896 -0.002,0.42516 -0.0624,0.67281 -0.27213,1.1037 -0.38222,0.78523 -1.0794405,1.3464 -1.9245905,1.54903 -0.31834,0.0764 -0.72556,0.0987 -0.84009,0.0462 z m 5.7427105,9.4777 0.31721,-0.13308 v -5.70174 c 0,-5.49387 0.002,-5.70542 0.0535,-5.80251 0.0798,-0.15005 0.21571,-0.2309 0.38833,-0.2309 0.18598,0 0.31643,0.0799 0.39473,0.24158 l 0.0599,0.12371 v 5.47098 c 0,3.00904 0.0107,5.47098 0.0238,5.47098 0.0358,0 0.98378,-0.48598 1.42515,-0.73058 2.476961,-1.37269 4.977641,-3.3117 6.14393,-4.76399 0.870541,-1.08402 1.461011,-2.37158 1.687261,-3.67923 0.20318,-1.17437 0.13179,-2.6746296 -0.18478,-3.8830296 -0.59828,-2.28371 -2.03648,-3.65083 -4.2729,-4.06172 -0.79781,-0.14658 -1.84741,-0.15324 -2.50896,-0.0159 -0.79102,0.1642 -1.75181,0.56872 -2.25567,0.94974 -0.66684,0.50424 -1.18682,1.24214 -1.43999,2.04343 -0.19107,0.60478 -0.17946,0.0983 -0.17946,7.8276296 0,3.85424 0.007,7.00771 0.0154,7.00771 0.009,0 0.1581,-0.0599 0.33256,-0.13307 z m 0.54857,-12.9322296 c -0.12087,-0.0662 -0.23022,-0.24407 -0.23088,-0.37563 -0.003,-0.51664 0.72065,-0.62216 0.86906,-0.12682 0.0478,0.15957 0.004,0.30684 -0.13042,0.43699 -0.12924,0.12525 -0.34718,0.15335 -0.50776,0.0654 z"
       id="path2096" />
  </g>
</svg>
