<?xml version="1.0" encoding="UTF-8" standalone="no"?>
<svg
   xmlns:dc="http://purl.org/dc/elements/1.1/"
   xmlns:cc="http://creativecommons.org/ns#"
   xmlns:rdf="http://www.w3.org/1999/02/22-rdf-syntax-ns#"
   xmlns:svg="http://www.w3.org/2000/svg"
   xmlns="http://www.w3.org/2000/svg"
   xmlns:sodipodi="http://sodipodi.sourceforge.net/DTD/sodipodi-0.dtd"
   xmlns:inkscape="http://www.inkscape.org/namespaces/inkscape"
   width="308mm"
   height="86mm"
   viewBox="0 0 308 86"
   version="1.1"
   id="svg8"
   inkscape:version="1.0.1 (3bc2e813f5, 2020-09-07)"
   sodipodi:docname="logo.svg">
  <defs
     id="defs2" />
  <sodipodi:namedview
     id="base"
     pagecolor="#ffffff"
     bordercolor="#666666"
     borderopacity="1.0"
     inkscape:pageopacity="0.0"
     inkscape:pageshadow="2"
     inkscape:zoom="0.35"
     inkscape:cx="400"
     inkscape:cy="445.71429"
     inkscape:document-units="mm"
     inkscape:current-layer="layer1"
     inkscape:document-rotation="0"
     showgrid="false"
     inkscape:window-width="1258"
     inkscape:window-height="728"
     inkscape:window-x="92"
     inkscape:window-y="0"
     inkscape:window-maximized="0" />
  <metadata
     id="metadata5">
    <rdf:RDF>
      <cc:Work
         rdf:about="">
        <dc:format>image/svg+xml</dc:format>
        <dc:type
           rdf:resource="http://purl.org/dc/dcmitype/StillImage" />
        <dc:title></dc:title>
      </cc:Work>
    </rdf:RDF>
  </metadata>
  <g
     inkscape:label="Capa 1"
     inkscape:groupmode="layer"
     id="layer1">
    <g
       id="g299"
       style="display:inline"
       transform="translate(-29.634486,-265.6528)">
      <text
         xml:space="preserve"
         style="font-style:normal;font-variant:normal;font-weight:normal;font-stretch:normal;font-size:5.72575px;line-height:125%;font-family:'Roboto- Thin';-inkscape-font-specification:'Roboto- Thin, ';text-align:start;letter-spacing:0px;word-spacing:0px;text-anchor:start;display:inline;fill:#000000;fill-opacity:1;stroke:none;stroke-width:0.269448"
         transform="matrix(3.7990944,0,0,2.5484039,-811.89809,-650.40687)"
         x="229.74666"
         y="385.12778"
         id="text311"><tspan
           sodipodi:role="line"
           x="229.74666"
           y="385.12778"
           id="tspan309"
           style="font-style:normal;font-variant:normal;font-weight:normal;font-stretch:normal;font-family:'Roboto- Thin';-inkscape-font-specification:'Roboto- Thin, ';stroke-width:0.269448"><tspan
             dx="0"
             dy="0"
             style="font-style:normal;font-variant:normal;font-weight:normal;font-stretch:normal;font-size:5.72575px;font-family:'Roboto- Thin';-inkscape-font-specification:'Roboto- Thin, ';fill:#7030a0;stroke-width:0.269448"
             id="tspan299">P</tspan><tspan
             dx="0"
             dy="0"
             style="font-style:normal;font-variant:normal;font-weight:normal;font-stretch:normal;font-size:5.72575px;font-family:'Roboto- Thin';-inkscape-font-specification:'Roboto- Thin, ';fill:#7030a0;stroke-width:0.269448"
             id="tspan301">roducción</tspan><tspan
             dx="0"
             dy="0"
             style="font-style:normal;font-variant:normal;font-weight:normal;font-stretch:normal;font-size:5.72575px;font-family:'Roboto- Thin';-inkscape-font-specification:'Roboto- Thin, ';fill:#7030a0;stroke-width:0.269448"
             id="tspan303"> </tspan><tspan
             dx="-0.63444841"
             dy="0"
             style="font-style:normal;font-variant:normal;font-weight:normal;font-stretch:normal;font-size:5.72575px;font-family:'Roboto- Thin';-inkscape-font-specification:'Roboto- Thin, ';fill:#7030a0;stroke-width:0.269448"
             id="tspan305">Multimedia</tspan><tspan
             dx="0"
             dy="0"
             style="font-style:normal;font-variant:normal;font-weight:normal;font-stretch:normal;font-size:5.72575px;font-family:'Roboto- Thin';-inkscape-font-specification:'Roboto- Thin, ';fill:#7030a0;stroke-width:0.269448"
             id="tspan307"> </tspan></tspan></text>
      <g
         id="g271">
        <path
           style="fill:#000000;stroke-width:0.38011"
           d="m 325.19785,348.96153 c -0.67011,-0.68188 -1.52486,-1.86503 -1.89944,-2.6292 -3.02684,-6.17502 -3.19554,-19.95661 -0.28998,-23.68796 0.9495,-1.21935 2.8652,-2.12278 3.55473,-1.67641 1.58921,1.0288 2.31976,2.87081 2.31976,5.84911 0,4.01714 -1.3794,6.48663 -3.07245,5.50052 -1.47283,-0.85785 -1.6458,-4.547 -0.40355,-8.60756 0.31416,-1.02689 0.48721,-1.95449 0.38458,-2.06133 -0.29203,-0.30392 -2.02616,2.23829 -2.82653,4.14365 -2.54318,6.05429 -1.38501,16.48286 2.25335,20.29024 1.32067,1.38201 1.56775,1.48883 3.0434,1.31572 2.0332,-0.23852 3.02274,-1.10648 4.34926,-3.81492 1.54734,-3.15929 2.29929,-7.46838 2.36396,-13.54677 0.061,-5.7335 0.17012,-5.26138 -2.84552,-12.31209 l -1.86591,-4.36255 -48.84752,-0.0127 c -34.64322,-0.009 -53.50634,-0.17517 -64.86888,-0.57155 -17.78509,-0.62041 -19.50941,-0.76204 -18.76096,-1.54101 0.43535,-0.45311 23.11278,-0.97889 47.07778,-1.09149 42.76072,-0.20092 78.13341,0.52351 83.97818,1.71986 4.25623,0.87121 6.42311,5.86426 6.96308,16.04467 0.42335,7.98212 -0.75094,14.50181 -3.40533,18.90655 -2.19068,3.63521 -4.93451,4.45249 -7.20201,2.14519 z m -289.658694,-0.7396 c -1.682916,-1.44377 -3.303713,-4.6485 -4.431651,-8.76251 -0.719651,-2.62485 -0.826646,-3.92091 -0.809893,-9.81059 0.02099,-7.37917 0.587972,-10.68869 2.501528,-14.6016 1.243186,-2.54211 2.312263,-3.46157 4.605461,-3.96098 3.972175,-0.86504 26.352458,-1.30315 66.061529,-1.29321 32.64097,0.008 42.24423,0.12875 49.86773,0.62617 5.19298,0.33884 9.92952,0.61607 10.52566,0.61607 2.05165,0 1.08064,0.70695 -1.24478,0.90629 -9.35409,0.80182 -26.86325,1.0396 -73.865897,1.00309 -28.689412,-0.0222 -52.347809,-0.0248 -52.574243,-0.006 -0.5701,0.0485 -3.365816,6.42685 -4.493703,10.2523 -0.841571,2.85436 -0.911361,3.59406 -0.71899,7.62069 0.43749,9.15738 3.728126,16.28688 7.517238,16.28688 1.634786,0 2.849373,-1.19105 4.089457,-4.0102 2.376464,-5.40255 2.350319,-14.48036 -0.05549,-19.25676 -1.721178,-3.4172 -3.069123,-4.27768 -1.887912,-1.20516 0.984783,2.56156 1.15364,6.20367 0.36152,7.79747 -0.826829,1.6636 -1.801489,1.75226 -2.869886,0.26101 -1.112224,-1.55241 -1.096665,-6.2851 0.02913,-8.85601 1.473355,-3.36468 3.378284,-3.4128 4.825873,-0.12191 2.713744,6.16932 2.821215,17.26672 0.222552,22.98048 -2.11828,4.65752 -4.866654,5.92627 -7.655254,3.53395 z M 177.89544,314.92702 c -3.71234,-0.51794 -5.51386,-1.18635 -12.36875,-4.58908 -6.20893,-3.08207 -6.88207,-3.32907 -9.50329,-3.48699 -1.55158,-0.0936 -3.48127,0.0198 -4.28821,0.25164 -0.80694,0.2319 -1.53474,0.35128 -1.61735,0.26529 -0.28643,-0.29811 2.98028,-1.81584 4.52115,-2.10054 l 1.54859,-0.28614 -1.9265,-0.67783 c -6.23482,-2.19368 -9.53944,-10.52015 -7.19149,-18.12004 2.14109,-6.93029 8.55792,-10.35448 14.05819,-7.50181 5.85012,3.0341 8.30858,11.98324 5.2654,19.16682 -1.31059,3.09373 -4.53064,5.96774 -7.59749,6.78099 -1.03245,0.27378 -0.93764,0.33583 1.24219,0.81288 1.29798,0.28405 4.79062,1.66499 7.76145,3.06875 7.82955,3.69958 11.07127,4.58627 16.07182,4.39602 3.36838,-0.12813 4.32755,-0.31594 6.18568,-1.21115 3.53742,-1.70427 3.40472,-0.58917 -0.1523,1.27963 -3.40424,1.78852 -7.91903,2.52221 -12.00909,1.95156 z m 8.78895,-1.24125 c 0.78916,-0.20612 1.36489,-0.44756 1.27939,-0.53654 -0.0855,-0.0889 -0.73005,0.0101 -1.43236,0.21938 -0.70231,0.20963 -2.82027,0.38114 -4.70661,0.38114 -4.18064,0 -7.23055,-0.91716 -14.8561,-4.46749 -6.1965,-2.88501 -8.63808,-3.69391 -10.94191,-3.62509 l -1.70217,0.0509 2.04923,0.28752 c 2.3469,0.32929 3.43084,0.74533 10.61881,4.07569 2.86894,1.32924 6.09811,2.71527 7.17595,3.08007 3.64255,1.23285 8.9709,1.4604 12.51577,0.53448 z m -27.03187,-10.56319 c 3.54813,-1.92136 5.87671,-8.80774 4.96198,-14.67413 -1.33751,-8.5778 -7.17106,-12.43656 -11.77146,-7.78653 -2.20926,2.2331 -3.24195,5.06555 -3.45997,9.49005 -0.15146,3.07379 -0.0453,4.21479 0.59548,6.39841 0.83071,2.83098 2.42008,5.18236 4.31637,6.38587 1.3635,0.86537 3.93828,0.95491 5.3576,0.18633 z m -7.69581,-1.19561 c -0.80084,-0.75304 -1.91329,-2.42909 -2.50947,-3.78088 -0.98894,-2.24235 -1.07141,-2.78503 -1.07748,-7.08976 -0.006,-4.49514 0.0372,-4.75421 1.22117,-7.25712 0.67888,-1.43529 1.8448,-3.14284 2.60812,-3.81979 l 1.3804,-1.22423 -1.23626,0.72569 c -4.88139,2.86542 -6.72423,13.01464 -3.49766,19.26307 0.94192,1.82409 3.43919,4.53567 4.17718,4.53567 0.20493,0 -0.27478,-0.60869 -1.066,-1.35265 z m 11.49905,-0.84257 c 4.17612,-4.95029 4.27672,-14.80314 0.20235,-19.82017 -0.56683,-0.69798 -1.38976,-1.46774 -1.82874,-1.71061 -0.52299,-0.28936 -0.302,0.13175 0.64106,1.22156 2.76485,3.19508 3.8847,7.83992 3.1734,13.16242 -0.46988,3.51607 -1.50683,5.91575 -3.41415,7.90083 -0.79263,0.82495 -1.11611,1.31886 -0.71885,1.09759 0.39725,-0.22127 1.27247,-1.05451 1.94493,-1.85162 z m -123.496357,2.67996 c 0.429246,-0.85641 0.534952,-3.34321 0.536788,-12.62842 0.0021,-11.40908 -0.119871,-12.71861 -1.264393,-13.55602 -0.225475,-0.16497 0.09303,-0.22295 0.707809,-0.12883 0.614771,0.0941 1.243521,0.18547 1.397208,0.20301 0.153698,0.0175 0.279446,6.13946 0.279446,13.60427 v 13.57239 h -1.095669 c -1.076469,0 -1.086305,-0.0188 -0.561189,-1.0664 z m 2.490416,-12.60293 0.09795,-13.66933 1.295758,-0.12811 1.295746,-0.1281 -0.736864,0.84618 c -0.645213,0.74094 -0.751955,1.51654 -0.858174,6.23567 l -0.121317,5.3895 h 3.398404 c 3.089052,0 3.479681,-0.0846 4.29132,-0.92933 2.092177,-2.17748 2.618246,-8.45069 0.985738,-11.75445 -1.5746,-3.18659 -4.701971,-5.16029 -8.641441,-5.45364 -3.792646,-0.28244 -6.532164,0.62223 -9.04712,2.98758 -3.526639,3.31689 -3.465219,9.8114 0.122503,12.95336 0.940621,0.82374 3.714003,2.02303 3.934206,1.70125 0.03251,-0.0475 0.246449,-0.43545 0.47536,-0.86201 0.349458,-0.65119 0.41383,-0.46462 0.401347,1.16335 -0.0092,1.19093 -0.117768,1.66722 -0.28163,1.23465 -0.146723,-0.38736 -1.266681,-1.12319 -2.48879,-1.63518 -3.749792,-1.57096 -5.678707,-5.0243 -5.291142,-9.47273 0.496397,-5.69757 4.817709,-9.30771 11.234351,-9.38547 5.331467,-0.0646 9.0924,1.5647 11.660254,5.05141 3.227971,4.38307 2.429696,11.75246 -1.504822,13.8921 -0.805341,0.43796 -2.466395,0.6993 -5.216902,0.82082 l -4.03537,0.17827 0.123184,6.67648 c 0.09108,4.93541 0.256522,6.84345 0.634535,7.31676 0.456991,0.57223 0.387163,0.6403 -0.656802,0.6403 h -1.168154 z m 12.161246,-6.2727 c 0.602493,-2.49032 0.517075,-4.59749 -0.274256,-6.76503 -0.696506,-1.9078 -2.61602,-4.87902 -2.936514,-4.54545 -0.09457,0.0985 0.26084,0.76955 0.789823,1.49136 1.907206,2.60243 2.593148,6.69896 1.752534,10.46624 -0.457298,2.04942 0.160795,1.45102 0.668413,-0.64712 z m 3.67935,19.18031 c 0.375029,-0.41893 1.561809,-3.69086 2.637314,-7.27093 1.075504,-3.58005 2.760425,-9.11906 3.744265,-12.3089 l 1.788791,-5.79972 0.953306,2.89135 c 0.524316,1.59023 2.473082,7.47202 4.330583,13.07063 l 3.377299,10.17929 h -1.129209 c -0.913253,0 -1.088931,-0.13205 -0.918638,-0.69046 0.115799,-0.37976 -0.683942,-3.47717 -1.777221,-6.88314 l -1.987783,-6.19268 H 66.22929 63.149479 l -1.832701,5.81673 c -1.007974,3.19921 -1.774185,6.29663 -1.702696,6.88315 0.11541,0.94674 0.01026,1.0664 -0.937756,1.0664 -1.044303,0 -1.052775,-0.0167 -0.385911,-0.76172 z m 10.524874,-13.87635 c 0,-0.15955 -0.619078,-2.20995 -1.375741,-4.55644 l -1.375741,-4.26634 -1.206555,3.87784 c -1.702193,5.47081 -1.762985,5.23506 1.349904,5.23506 1.434481,0 2.608133,-0.13055 2.608133,-0.29012 z m 5.715319,9.88773 c -0.842573,-2.61269 -2.826048,-8.64386 -4.407724,-13.40262 -1.581687,-4.75875 -2.781668,-8.75024 -2.666648,-8.86996 0.700096,-0.72864 1.607092,1.45731 5.279191,12.72344 2.655468,8.14708 4.378708,12.85681 4.911942,13.4247 l 0.821382,0.87478 h -1.203103 -1.203109 z m 10.931325,4.14504 c -1.532589,-0.50992 -1.90092,-0.83701 -2.506798,-2.22598 -0.646074,-1.48111 -0.710989,-2.65311 -0.718425,-12.97085 l -0.0082,-11.34264 h 1.089217 c 1.088116,0 1.088646,10e-4 0.526122,1.17477 -0.86758,1.81003 -0.583642,20.19809 0.339174,21.96466 0.9695,1.85591 2.70845,2.95648 4.98137,3.15265 1.63449,0.14107 2.25709,-0.002 3.61839,-0.83247 2.8112,-1.71465 2.89822,-2.1565 2.77756,-14.10438 -0.0577,-5.71218 -0.23589,-10.65676 -0.396,-10.98795 -0.24237,-0.50134 -0.0669,-0.57493 1.04779,-0.43949 1.08999,0.13244 1.28281,0.28045 1.03711,0.79607 -0.16601,0.34836 -0.38602,5.25768 -0.48892,10.90962 -0.1722,9.45872 -0.24783,10.38381 -0.95039,11.62853 -1.75598,3.11101 -6.41415,4.58637 -10.348,3.27746 z m 14.44346,-0.25655 c 0.494767,-0.73517 0.580017,-2.63382 0.580017,-12.91759 0,-11.65925 -0.0253,-12.08412 -0.771977,-12.91816 l -0.77198,-0.86241 1.424007,0.15195 1.42401,0.15194 0.0979,13.62806 0.0979,13.62806 h -1.32996 c -1.299937,0 -1.316857,-0.0194 -0.749947,-0.86185 z m 2.442967,-12.90443 v -13.76629 h 1.32518 c 1.29501,0 1.31199,0.0197 0.74519,0.86185 -0.49633,0.73749 -0.58001,2.69599 -0.58001,13.5724 v 12.71053 h 4.48307 c 4.3009,0 4.49679,-0.0355 4.82006,-0.87251 0.3239,-0.83868 0.33789,-0.83115 0.36057,0.1939 l 0.0236,1.0664 h -5.58886 -5.58883 z m 13.3456,13.08765 c 0.52547,-0.46911 1.80843,-4.18602 4.15602,-12.04049 1.86775,-6.24903 3.57084,-11.83309 3.78465,-12.40903 0.34842,-0.93853 0.82872,0.28044 4.6296,11.74966 2.33245,7.03825 4.24601,12.92769 4.25236,13.08766 0.006,0.15994 -0.51198,0.29083 -1.15185,0.29083 -0.89329,0 -1.07294,-0.11342 -0.77385,-0.48852 0.281,-0.35238 -0.19945,-2.29673 -1.72418,-6.9776 l -2.11373,-6.48908 -3.00197,-0.002 -3.00196,-0.002 -1.98599,6.36781 c -1.09229,3.5023 -1.8844,6.64334 -1.76025,6.98009 0.17556,0.47614 -0.0293,0.61227 -0.9216,0.61227 -1.13389,0 -1.13844,-0.008 -0.38725,-0.67863 z m 9.45301,-17.93493 c -0.74472,-2.34609 -1.44822,-4.26561 -1.56332,-4.26561 -0.11511,0 -0.6934,1.7014 -1.28509,3.78088 -0.59167,2.07948 -1.14883,3.99902 -1.23811,4.26561 -0.12049,0.35978 0.55978,0.48473 2.63911,0.48473 h 2.80144 z m 8.30511,18.12883 c -1.25719,-3.57588 -8.74834,-26.38201 -8.74834,-26.63357 0,-0.18791 0.31859,-0.25494 0.70797,-0.14896 0.55827,0.15193 1.58501,2.87046 4.85601,12.85746 2.28144,6.96563 4.26825,12.8542 4.41514,13.08571 0.14691,0.2315 0.60244,0.61883 1.01229,0.8607 0.65709,0.38782 0.57861,0.4412 -0.66374,0.4516 -0.79706,0.007 -1.4829,-0.1987 -1.57933,-0.47294 z m 40.8914,-0.13892 c -2.80671,-1.07546 -2.86257,-1.35115 -2.99746,-14.79071 l -0.11773,-11.73041 h 1.1138 1.11379 l -0.56309,1.17477 c -0.86758,1.81003 -0.58365,20.19809 0.33918,21.96466 1.11943,2.14294 2.73632,3.03588 5.49729,3.03588 2.86183,0 4.55433,-0.99643 5.53198,-3.25685 0.86924,-2.00976 1.13143,-20.01841 0.31623,-21.71917 -0.48754,-1.01714 -0.48095,-1.14839 0.0646,-1.28319 1.16951,-0.28902 1.989,0.1041 1.66037,0.79643 -0.1683,0.35459 -0.39019,5.26901 -0.4931,10.92095 -0.21392,11.75008 -0.291,12.0654 -3.44544,14.09516 -2.15655,1.38766 -5.58338,1.72626 -8.02032,0.79248 z m 14.63393,-0.29446 c 0.49676,-0.78907 0.56343,-2.60137 0.47433,-12.89377 -0.057,-6.58661 -0.24736,-12.28103 -0.42299,-12.65428 -0.262,-0.55683 -0.14676,-0.67861 0.64219,-0.67861 h 0.9615 l 0.10299,12.69987 c 0.0566,6.98494 0.0493,13.09251 -0.016,13.57239 -0.0928,0.67991 -0.36197,0.87251 -1.21949,0.87251 -1.07177,0 -1.08539,-0.0239 -0.52244,-0.91811 z m 2.42948,-12.65428 0.0251,-13.57238 h 1.14025 c 0.9592,0 1.08956,0.10781 0.82095,0.67861 -0.17561,0.37325 -0.36596,6.06767 -0.42299,12.65428 -0.0891,10.2924 -0.0225,12.1047 0.47434,12.89377 0.57043,0.90608 0.5607,0.91811 -0.74245,0.91811 h -1.32044 l 0.0251,-13.57239 z m 4.59004,12.86323 c 0.54608,-0.62801 0.61663,-2.09507 0.61663,-12.82231 0,-7.60833 -0.14344,-12.39211 -0.3857,-12.86323 -0.31938,-0.62111 -0.2621,-0.75007 0.33318,-0.75007 0.71212,0 0.96451,0.45253 12.76034,22.87916 1.74819,3.32371 2.02943,4.09766 1.53085,4.21293 -0.33593,0.0777 -0.66323,-0.0225 -0.7273,-0.22258 -0.12675,-0.39574 -9.59132,-18.48021 -11.32246,-21.63444 l -1.06414,-1.93892 -0.003,11.06246 c -0.003,9.38885 0.0842,11.19285 0.57652,11.92431 0.57478,0.85408 0.56419,0.86185 -1.1755,0.86185 -1.67714,0 -1.728,-0.0317 -1.13891,-0.70916 z m 15.39212,-0.93892 c -0.94059,-1.7135 -10.51443,-19.89546 -12.35448,-23.46278 -0.57811,-1.12078 -0.96986,-2.12238 -0.87054,-2.22575 0.51143,-0.53228 1.86796,1.70461 7.05374,11.63142 3.1197,5.97185 5.90143,11.20692 6.18162,11.63347 0.43516,0.6625 0.49445,-0.89219 0.40674,-10.66401 -0.0564,-6.29178 -0.23029,-11.70134 -0.38624,-12.02127 -0.22884,-0.46941 0.005,-0.58166 1.21091,-0.58166 0.82196,0 1.49448,0.0497 1.49448,0.11061 0,0.0609 -0.23208,0.49707 -0.51575,0.96945 -0.64208,1.06929 -1.16029,24.39737 -0.56756,25.55007 0.27724,0.53916 0.23136,0.70856 -0.19194,0.70856 -0.30596,0 -0.9634,-0.74163 -1.46098,-1.64808 z m 11.88447,0.58168 c 0.43139,-0.86067 0.53494,-3.44175 0.53679,-13.3785 l 0.002,-12.3121 h -3.69486 c -2.59507,0 -3.75758,0.14428 -3.90562,0.48474 -0.11592,0.26659 -0.17181,0.16689 -0.1242,-0.22155 0.0777,-0.63346 0.53791,-0.71342 4.46458,-0.77557 l 4.37801,-0.0693 -8e-5,13.66933 -6e-5,13.66934 h -1.09568 c -1.07646,0 -1.0863,-0.0188 -0.56119,-1.06641 z m 2.49041,-12.57421 0.0979,-13.64061 4.75054,-0.0288 4.75054,-0.0286 -0.0237,1.16335 c -0.022,1.08464 -0.0464,1.10431 -0.3606,0.29084 -0.31807,-0.82353 -0.54677,-0.87251 -4.07489,-0.87251 h -3.73789 v 12.66935 c 0,11.24476 0.0693,12.74908 0.61663,13.37849 0.58672,0.67477 0.55036,0.70915 -0.74996,0.70915 h -1.36657 z m 11.92249,12.96198 c 0.31685,-0.37323 2.22907,-6.13055 4.24938,-12.79404 2.02032,-6.66347 3.76657,-12.11667 3.88055,-12.11819 0.11398,-10e-4 2.02846,5.53766 4.25439,12.30931 2.22593,6.77165 4.12069,12.53022 4.21055,12.79682 0.10934,0.32434 -0.24427,0.48473 -1.06875,0.48473 -0.88585,0 -1.11851,-0.11826 -0.82785,-0.42078 0.29067,-0.30252 -0.1839,-2.26428 -1.68855,-6.98009 l -2.09283,-6.5593 H 245.57 242.53669 l -1.94003,6.25894 c -1.06701,3.44241 -1.8585,6.58345 -1.75883,6.98009 0.14181,0.56438 -0.0263,0.72114 -0.77315,0.72114 -0.87996,0 -0.90943,-0.0529 -0.37826,-0.67863 z m 10.65501,-13.99495 c -0.0683,-0.1791 -0.7097,-2.09862 -1.42532,-4.26561 -0.71561,-2.16698 -1.40159,-3.93998 -1.52438,-3.93998 -0.20284,0 -2.57703,7.60509 -2.57703,8.25484 0,0.152 1.27146,0.27638 2.82546,0.27638 1.55402,0 2.76959,-0.14653 2.70127,-0.32563 z m 6.94862,14.18885 c -0.98543,-2.82128 -8.74763,-26.52977 -8.74842,-26.72068 -6.9e-4,-0.14 0.30574,-0.17104 0.68072,-0.069 0.52329,0.14241 1.65121,3.12761 4.85212,12.84181 2.55059,7.74061 4.48171,13.00121 4.97201,13.54442 l 0.80169,0.88816 h -1.19441 c -0.65693,0 -1.27059,-0.21814 -1.36371,-0.48473 z m 3.67454,-0.22443 c 0.54608,-0.62801 0.61664,-2.09507 0.61664,-12.82231 0,-7.91725 -0.13912,-12.3837 -0.40161,-12.89416 -0.3501,-0.68086 -0.29833,-0.76461 0.40375,-0.65313 0.59617,0.0947 1.41312,1.28621 3.1452,4.58738 1.2869,2.45272 4.44572,8.47181 7.01961,13.37576 2.57389,4.90394 4.61598,8.98268 4.53799,9.06385 -0.53998,0.56199 -1.85683,-1.60166 -7.27669,-11.95596 l -6.1242,-11.6999 -0.0991,10.94306 c -0.0843,9.31745 -0.014,11.07835 0.47433,11.85381 l 0.57337,0.91076 h -1.74299 c -1.66497,0 -1.71539,-0.0318 -1.12636,-0.70916 z m 15.22069,-1.3267 c -2.26876,-4.20125 -11.55535,-21.87857 -12.34234,-23.49406 -0.73435,-1.5074 -0.75202,-1.66782 -0.17083,-1.55112 0.41653,0.0837 2.85563,4.34573 6.82363,11.92369 l 6.17537,11.79354 0.2029,-10.82409 c 0.14694,-7.83938 0.0826,-11.10817 -0.2336,-11.85439 -0.39138,-0.92388 -0.35462,-1.04561 0.356,-1.17833 0.43586,-0.0814 1.08216,-0.0856 1.43623,-0.009 0.56988,0.12278 0.584,0.23577 0.12306,0.98443 -0.4107,0.66705 -0.54573,3.42648 -0.63912,13.06088 -0.065,6.71834 0.0152,12.43329 0.17838,12.69988 0.18911,0.30888 0.096,0.48473 -0.25675,0.48473 -0.30444,0 -1.04826,-0.91613 -1.65293,-2.03586 z m 5.86494,0.96946 c 0.40923,-0.58652 2.3383,-6.36992 4.28685,-12.85201 1.94856,-6.48207 3.60647,-11.85185 3.68428,-11.93283 0.16279,-0.16943 1.21365,2.87054 5.61858,16.25363 l 3.15897,9.59761 h -1.0226 c -0.90034,0 -1.0255,-0.15069 -1.04687,-1.2603 -0.0133,-0.69315 -0.90576,-3.8409 -1.98316,-6.99499 l -1.95888,-5.73471 -3.01075,0.11185 -3.01073,0.11185 -1.79568,5.81673 c -0.98763,3.1992 -1.73708,6.29661 -1.66548,6.88314 0.11552,0.94611 0.0103,1.0664 -0.93418,1.0664 h -1.06439 z m 10.45594,-13.60298 c 0,-0.17679 -0.63854,-2.18606 -1.41899,-4.46505 l -1.41899,-4.14363 -1.32711,4.46505 -1.32711,4.46506 h 2.74611 c 1.51035,0 2.74609,-0.14465 2.74609,-0.32143 z m 5.09769,8.17402 c -1.19009,-3.57244 -3.15303,-9.46189 -4.36208,-13.08765 -2.62859,-7.88273 -2.56919,-7.62499 -1.78912,-7.76236 0.66099,-0.1164 0.86893,0.44934 6.63025,18.0386 1.74256,5.32001 2.86671,8.174 3.3985,8.62814 0.79124,0.67571 0.78927,0.67863 -0.45954,0.67863 h -1.2542 z m 8.47992,3.61825 c -0.66744,-0.50793 -0.72326,-1.06544 -0.72326,-7.22362 0,-6.47894 0.0242,-6.68998 0.83358,-7.24926 l 0.83359,-0.57604 -0.81208,-1.18698 c -1.07904,-1.57715 -1.11121,-4.51559 -0.0653,-5.97348 1.34654,-1.87708 2.61042,-2.59522 4.56742,-2.59522 2.08479,0 3.5343,0.81484 4.45904,2.50666 0.80975,1.48144 1.03463,1.42601 1.30481,-0.32165 0.26348,-1.70421 2.05029,-4.11108 3.723,-5.01494 1.50128,-0.81124 4.9255,-0.82664 6.39365,-0.0288 2.32584,1.264 3.91932,4.02983 3.904,6.77627 -0.0103,1.72726 -1.04926,4.26549 -2.17341,5.30637 -0.62557,0.57922 -0.70355,0.85404 -0.3634,1.28061 0.23822,0.29874 0.53104,1.14532 0.65073,1.88135 l 0.21761,1.33819 3.28081,-1.98333 c 1.80445,-1.09084 3.37311,-1.88728 3.48591,-1.76986 0.23957,0.24931 0.17585,15.07389 -0.0658,15.32545 -0.0896,0.0933 -1.63402,-0.71755 -3.43193,-1.8019 l -3.26893,-1.97155 -0.28755,1.43132 c -0.15815,0.78723 -0.56744,1.64945 -0.90953,1.91605 -0.96069,0.74867 -20.56125,0.68894 -21.55283,-0.0657 z m 20.6173,-0.93889 c 0.36043,-0.23806 0.45062,-1.80883 0.37259,-6.48941 l -0.10294,-6.17535 -9.31474,-0.0813 c -5.1231,-0.0447 -9.69199,0.002 -10.15307,0.10432 -0.82674,0.18309 -0.83833,0.27085 -0.83833,6.35046 0,4.56903 0.12057,6.21546 0.46574,6.36042 0.78615,0.33015 19.06398,0.26558 19.57075,-0.0691 z m 7.90774,-6.26635 c 0,-2.98592 -0.14547,-5.42894 -0.32328,-5.42894 -0.1778,0 -1.51913,0.72057 -2.98072,1.60127 l -2.65743,1.60128 v 2.2292 2.2292 l 2.51498,1.55934 c 1.38324,0.85763 2.72457,1.57694 2.98072,1.59846 0.3522,0.0297 0.46573,-1.28429 0.46573,-5.38981 z m -22.19351,-8.13376 c 1.21217,-0.47966 2.44305,-2.55694 2.44487,-4.12603 0.004,-3.69068 -4.92126,-5.30308 -7.28155,-2.38366 -0.83588,1.0339 -0.96487,1.4965 -0.8117,2.91092 0.33744,3.11582 2.83978,4.71014 5.64838,3.59877 z m 5.67214,-0.78315 c -0.51636,-0.63868 -1.04557,-1.51119 -1.17601,-1.9389 -0.3386,-1.11036 -0.68926,-0.96427 -1.15846,0.48263 -0.22478,0.69317 -0.53525,1.56567 -0.68992,1.93892 -0.24911,0.60113 -0.0389,0.67861 1.84101,0.67861 h 2.12223 z m 8.63159,0.10848 c 2.36295,-1.83302 3.11843,-5.36827 1.69085,-7.91229 -2.11065,-3.76131 -6.82019,-4.14177 -9.54529,-0.77113 -2.40054,2.96922 -1.19692,7.78302 2.331,9.32269 1.37924,0.60195 4.36953,0.25586 5.52344,-0.63927 z M 81.231372,300.89202 c -0.593406,-1.13206 -0.703553,-2.59851 -0.869241,-11.57255 -0.104363,-5.65194 -0.331889,-10.58162 -0.505608,-10.95487 -0.259168,-0.55682 -0.141533,-0.67861 0.65549,-0.67861 h 0.971337 l 0.0092,10.56707 c 0.0051,5.81189 0.163288,11.26018 0.352013,12.10731 0.441533,1.98212 0.239362,2.1575 -0.612873,0.53165 z m 89.048938,0 c -0.5934,-1.13206 -0.70355,-2.59851 -0.86926,-11.57255 -0.10435,-5.65194 -0.33188,-10.58162 -0.50559,-10.95487 -0.25917,-0.55682 -0.14153,-0.67861 0.65549,-0.67861 h 0.97132 l 0.0162,10.37317 c 0.009,5.70526 0.16202,11.15845 0.34025,12.11821 0.40607,2.18681 0.25576,2.36335 -0.60846,0.71465 z"
           id="path1069" />
      </g>
    </g>
  </g>
</svg>
