<?xml version="1.0" encoding="UTF-8" standalone="no"?>
<!-- Created with Inkscape (http://www.inkscape.org/) -->

<svg
   xmlns:dc="http://purl.org/dc/elements/1.1/"
   xmlns:cc="http://creativecommons.org/ns#"
   xmlns:rdf="http://www.w3.org/1999/02/22-rdf-syntax-ns#"
   xmlns:svg="http://www.w3.org/2000/svg"
   xmlns="http://www.w3.org/2000/svg"
   xmlns:sodipodi="http://sodipodi.sourceforge.net/DTD/sodipodi-0.dtd"
   xmlns:inkscape="http://www.inkscape.org/namespaces/inkscape"
   width="52mm"
   height="63mm"
   viewBox="0 0 52 63"
   version="1.1"
   id="svg8"
   inkscape:version="0.92.4 (5da689c313, 2019-01-14)"
   sodipodi:docname="Primaria.svg">
  <defs
     id="defs2" />
  <sodipodi:namedview
     id="base"
     pagecolor="#ffffff"
     bordercolor="#666666"
     borderopacity="1.0"
     inkscape:pageopacity="0.0"
     inkscape:pageshadow="2"
     inkscape:zoom="0.35"
     inkscape:cx="42.857143"
     inkscape:cy="-125.71429"
     inkscape:document-units="mm"
     inkscape:current-layer="layer1"
     showgrid="false"
     inkscape:window-width="1366"
     inkscape:window-height="705"
     inkscape:window-x="-8"
     inkscape:window-y="-8"
     inkscape:window-maximized="1" />
  <metadata
     id="metadata5">
    <rdf:RDF>
      <cc:Work
         rdf:about="">
        <dc:format>image/svg+xml</dc:format>
        <dc:type
           rdf:resource="http://purl.org/dc/dcmitype/StillImage" />
        <dc:title></dc:title>
      </cc:Work>
    </rdf:RDF>
  </metadata>
  <g
     inkscape:label="Capa 1"
     inkscape:groupmode="layer"
     id="layer1"
     transform="translate(0,-234)">
    <path
       inkscape:connector-curvature="0"
       style="opacity:1;fill:#2b0022;stroke-width:0.106576"
       d="m 32.934482,292.80252 c -1.946499,-0.17928 -4.25533,-0.81852 -5.83282,-1.61488 -0.85231,-0.43028 -0.87503,-0.45182 -0.87529,-0.82933 -3.7e-4,-0.51814 0.49791,-2.86658 0.63728,-3.00374 0.0819,-0.0806 0.25806,-0.0568 0.68449,0.0929 0.49346,0.17315 0.79184,0.20147 2.123232,0.20147 1.427117,0 1.579208,-0.0169 1.931678,-0.21481 0.46605,-0.26166 0.640281,-0.2291 2.634271,0.4922 2.23449,0.80828 2.830168,1.25401 3.245379,2.42844 0.29556,0.83602 0.2061,1.51384 -0.242941,1.8405 -0.689308,0.50151 -2.571398,0.76699 -4.305279,0.60728 z m 3.50424,-0.60284 c 0.602911,-0.22892 0.740791,-0.32483 0.77297,-0.53769 l 0.0391,-0.25908 -0.45719,0.18607 c -0.739208,0.30086 -1.694741,0.40672 -3.167859,0.35089 -1.992611,-0.0755 -4.066661,-0.58752 -6.145591,-1.51715 l -0.88668,-0.39648 v 0.2321 c 0,0.32621 0.45095,0.60833 1.81654,1.13642 2.1693,0.83888 3.72259,1.13314 5.827239,1.10391 1.35822,-0.0188 1.522301,-0.0412 2.201402,-0.29899 z m -0.33633,-2.43791 c 0.0667,-0.15195 -0.41737,-0.48759 -0.703228,-0.48759 -0.403601,0 -0.289341,0.33571 0.183448,0.53898 0.276929,0.11904 0.452591,0.10169 0.51978,-0.0514 z m -3.86061,-1.20478 c 0.225671,-0.1646 0.629402,-0.36301 0.89717,-0.44089 l 0.48686,-0.14162 -0.428051,0.0573 c -0.974389,0.13057 -1.841119,0.71805 -1.829109,1.23978 0.005,0.22043 0.01939,0.21494 0.234111,-0.0903 0.12578,-0.17877 0.41334,-0.45973 0.639019,-0.62433 z m -0.599059,-0.59154 c 0.577099,-0.31745 0.43592,-0.36735 -0.166751,-0.0589 -0.51807,0.26513 -0.968819,0.76508 -0.968819,1.07458 0,0.18929 0.0645,0.13835 0.32227,-0.25443 0.194591,-0.29652 0.516819,-0.59811 0.8133,-0.76121 z m -15.232591,4.73687 c -0.5875,-0.10511 -1.31415,-0.38618 -1.58377,-0.6126 -0.43906,-0.3687 -0.25302,-1.83365 0.32807,-2.58335 0.56344,-0.72694 1.68639,-1.30552 3.78205,-1.94868 l 1.1755,-0.36077 0.5196,0.226 c 0.46991,0.20439 0.65405,0.22557 1.92604,0.22157 1.15231,-0.004 1.52722,-0.0412 2.07477,-0.20761 0.36758,-0.11176 0.70353,-0.17247 0.74657,-0.13491 0.1126,0.0983 0.60398,2.50625 0.60146,2.94738 -0.003,0.45276 -0.0401,0.49653 -0.7322,0.85295 -1.34435,0.69245 -3.35996,1.3179 -5.01564,1.55643 -1.07775,0.15524 -3.07126,0.17798 -3.82245,0.0436 z m 4.57213,-0.48546 c 1.33879,-0.26457 2.75307,-0.73483 3.86849,-1.28633 0.65138,-0.32208 0.76438,-0.41829 0.76438,-0.65092 v -0.27296 l -0.51977,0.24184 c -2.16704,1.00828 -4.44564,1.60016 -6.5125,1.6916 -1.43921,0.0637 -2.40958,-0.0769 -3.51614,-0.50945 -0.0505,-0.0198 -0.0917,0.044 -0.0917,0.14143 0,0.27214 0.51124,0.57651 1.3019,0.77511 0.99886,0.25091 3.06582,0.19367 4.70537,-0.13032 z m -4.2504,-2.48505 c 0.40207,-0.24018 0.41891,-0.45763 0.0354,-0.45763 -0.34959,0 -0.7481,0.31147 -0.64913,0.50735 0.0964,0.19075 0.22909,0.18 0.61368,-0.0498 z m 4.06974,-0.6704 c -0.16844,-0.50968 -1.17013,-1.09283 -1.85184,-1.07809 -0.17476,0.004 -0.13984,0.0331 0.12229,0.10269 0.54975,0.14593 1.06448,0.47142 1.40646,0.88935 0.33172,0.40541 0.438,0.43371 0.32309,0.0861 z m 0.63376,-0.64176 c -0.28248,-0.3874 -0.73897,-0.65085 -1.32375,-0.76395 -0.21813,-0.0422 -0.17857,-0.006 0.13807,0.12601 0.52579,0.21934 1.06603,0.68339 1.24956,1.07329 0.096,0.204 0.14375,0.23576 0.17602,0.11715 0.0244,-0.0895 -0.0836,-0.33813 -0.2399,-0.5525 z m -1.36451,-3.29379 c -0.0448,-0.0341 -0.0815,-0.3258 -0.0815,-0.64835 0,-0.56373 -0.013,-0.58867 -0.33633,-0.64455 -1.94577,-0.33633 -3.50462,-0.70971 -3.63575,-0.87085 -0.0347,-0.0427 0.57098,-3.95653 1.346,-8.69752 0.77502,-4.74099 1.38692,-8.6639 1.35978,-8.7176 -0.0271,-0.0537 -0.37246,-0.19775 -0.7674,-0.32012 -1.8004,-0.55778 -5.51293,-1.93189 -7.46458,-2.76283 l -2.14307,-0.91244 0.0756,-0.57819 c 0.2152,-1.64474 1.60768,-4.06333 3.18717,-5.53577 l 0.56316,-0.52499 1.24766,0.72659 c 0.6862,0.39962 1.31066,0.75429 1.3877,0.78815 0.0988,0.0434 0.13807,-0.0985 0.13331,-0.48158 -0.008,-0.64482 0.3651,-1.31271 0.90154,-1.61389 0.19333,-0.10854 0.52029,-0.47123 0.72657,-0.80598 0.20628,-0.33475 0.466,-0.68494 0.57716,-0.77822 0.28826,-0.24188 0.22843,-0.88399 -0.13286,-1.42597 -1.18812,-1.78234 -1.34754,-3.4813 -0.46153,-4.91907 0.46065,-0.74753 1.12658,-1.24241 2.16714,-1.61046 1.3514,-0.47799 1.42235,-0.50811 1.54141,-0.65432 0.0815,-0.10003 -0.0447,-0.35595 -0.44711,-0.90757 -1.32367,-1.8141 -2.77453,-4.221 -2.61666,-4.34088 0.20822,-0.15812 6.12934,-0.77005 9.94561,-1.02785 2.474371,-0.16716 11.187481,-0.28056 12.342001,-0.16064 l 0.723461,0.0751 0.792919,1.06804 c 1.205791,1.62416 4.156289,6.09004 5.0928,7.70846 1.721059,2.97423 3.364468,6.35688 3.16197,6.50832 -0.0545,0.0407 -1.793352,0.10398 -3.86414,0.14051 -2.070779,0.0365 -3.78788,0.0944 -3.81577,0.12872 -0.0279,0.0343 0.0616,0.33087 0.198869,0.65914 0.39733,0.95016 0.34503,1.57149 -0.2066,2.45429 -0.394028,0.6306 -0.465691,0.8414 -0.47376,1.39363 -0.009,0.6202 0.01759,0.6838 0.571039,1.35882 0.775833,0.94639 1.289201,1.79705 1.461942,2.42245 0.121949,0.4415 0.11175,0.57508 -0.0717,0.93994 -0.259191,0.51538 -0.654683,0.71963 -1.901452,0.98199 -0.96311,0.20267 -1.150969,0.31227 -1.048359,0.61162 0.035,0.10217 0.0989,0.42831 0.14201,0.7248 0.0666,0.45873 0.0403,0.57809 -0.177011,0.80129 l -0.255339,0.26228 1.06508,0.77753 c 1.199668,0.87579 2.669699,1.88073 3.349649,2.2899 0.250089,0.1505 0.4152,0.30608 0.3669,0.34572 -0.0483,0.0396 0.132339,0.0429 0.401392,0.007 0.991057,-0.13146 3.37757,-0.16644 3.945548,-0.0578 0.6877,0.13152 1.29164,0.44173 1.202672,0.6178 -0.0358,0.0709 -0.01,0.12877 0.0575,0.12877 0.0674,0 0.102341,0.11494 0.0775,0.25541 -0.0396,0.22406 -0.10046,0.25658 -0.4958,0.26497 -0.577959,0.0123 -0.62012,0.0523 -0.316,0.30022 0.13725,0.11189 0.21072,0.25112 0.163261,0.30943 -0.0505,0.0621 -0.0323,0.0807 0.0438,0.045 0.0745,-0.035 0.2402,0.11164 0.38761,0.34286 0.14161,0.22216 0.39507,0.45153 0.563231,0.50971 0.62497,0.21624 0.7081,0.89058 0.13833,1.12214 -0.478451,0.19446 -0.96683,0.164 -1.976451,-0.12328 -0.26906,-0.0765 -0.8665,-0.14102 -1.32766,-0.14328 l -0.83846,-0.004 0.389149,0.27606 c 0.214032,0.15183 0.35419,0.31899 0.311471,0.37149 -0.0427,0.0525 -0.01939,0.0954 0.0518,0.0954 0.23649,0 0.1509,0.79235 -0.10455,0.96792 -0.21386,0.14696 -0.264049,0.14852 -0.580941,0.0181 -0.19077,-0.0785 -0.291819,-0.14452 -0.22456,-0.14667 0.285592,-0.009 -1.292338,-0.54833 -2.053439,-0.70166 -0.866841,-0.17464 -1.8259,-0.69183 -1.983891,-1.06985 -0.0419,-0.1004 -0.181398,-0.22526 -0.309858,-0.27746 -0.181131,-0.0736 -0.219261,-0.0666 -0.16981,0.0312 0.0607,0.12013 -0.72536,0.71399 -0.94507,0.71399 -0.0564,0 -0.0888,0.0385 -0.0721,0.0856 0.0316,0.0884 -1.219822,0.84314 -1.397961,0.84314 -0.0551,0 -0.12773,0 -0.161361,0 -0.0336,0 -0.075,-0.0308 -0.0917,-0.0685 -0.01691,-0.0376 -0.380859,-0.31977 -0.809,-0.62689 -0.428138,-0.30713 -1.41877,-1.09643 -2.20141,-1.754 -0.82971,-0.69713 -1.43786,-1.13908 -1.458659,-1.06003 -0.0293,0.11126 0.516239,3.58611 1.823199,11.6131 0.0811,0.49832 0.11443,0.93116 0.074,0.96187 -0.105851,0.0804 -2.595731,0.55286 -3.58789,0.68084 l -0.84193,0.10861 -0.02019,0.51626 c -0.01109,0.28396 -0.0845,0.5637 -0.163169,0.62166 -0.108759,0.0802 -0.133191,-0.0354 -0.102089,-0.48276 l 0.0408,-0.58815 -0.489191,0.0452 c -0.26906,0.0249 -1.38353,0.0989 -2.47659,0.16456 l -1.98739,0.11932 v 0.40586 c 0,0.27014 -0.0448,0.38485 -0.13378,0.34307 -0.0736,-0.0345 -0.113409,-0.22496 -0.0885,-0.42341 l 0.0453,-0.36062 h -0.767611 c -0.81752,0 -0.848629,0.0233 -0.774,0.58044 0.012,0.0894 -0.0368,0.16254 -0.108219,0.16254 -0.0715,0 -0.12999,-0.16386 -0.12999,-0.36411 v -0.36409 l -0.825531,-0.0553 c -0.454039,-0.0304 -1.53572,-0.11787 -2.403739,-0.19428 -0.868011,-0.0764 -1.595231,-0.12603 -1.616021,-0.11024 -0.0208,0.0158 -0.0481,0.28796 -0.0606,0.60482 -0.0125,0.31684 -0.0329,0.5761 -0.0452,0.5761 -0.0123,0 -0.0592,-0.0278 -0.10399,-0.0619 z m 27.103291,-11.08488 c -0.0352,-0.54196 -0.0747,-0.74109 -0.137559,-0.69337 -0.0281,0.0213 -0.166093,-0.0225 -0.306761,-0.0973 -0.14066,-0.0748 -0.353571,-0.13603 -0.47313,-0.13603 -0.119571,0 -0.21739,-0.0671 -0.21739,-0.14925 0,-0.0967 0.0668,-0.12978 0.189809,-0.0939 0.104381,0.0304 0.160311,0.0191 0.12427,-0.0252 -0.0361,-0.0443 0.105579,-0.10648 0.31469,-0.13823 0.571921,-0.0869 0.864039,-0.071 0.772102,0.042 -0.0502,0.0617 0.007,0.0578 0.150418,-0.0101 0.182581,-0.0866 0.385821,-0.0772 0.96062,0.0446 1.752042,0.37101 1.733291,0.36911 2.056551,0.20827 0.33733,-0.16785 0.323141,-0.41565 -0.038,-0.66385 -0.312941,-0.21506 -1.55195,-0.52483 -2.329032,-0.58229 -0.369958,-0.0273 -0.755208,-0.0847 -0.856099,-0.12743 -0.271859,-0.11516 1.068322,-0.10204 1.62777,0.016 1.187939,0.25051 0.406511,-0.26021 -0.873958,-0.57119 -0.431591,-0.10481 -0.577422,-0.16927 -0.386922,-0.17099 0.462111,-0.004 1.274511,0.15654 1.320469,0.26127 0.02241,0.0509 0.122632,0.0687 0.222833,0.0395 0.27346,-0.0797 -0.241232,-0.46617 -0.992942,-0.74562 l -0.61151,-0.22732 0.550359,0.0564 c 0.302692,0.031 0.715452,0.0711 0.917253,0.0892 0.201797,0.018 0.490728,0.0563 0.642077,0.085 0.223383,0.0424 0.275172,0.0134 0.275172,-0.15396 0,-0.31305 -0.31687,-0.59142 -0.82591,-0.72554 -0.572881,-0.15095 -3.448172,-0.12385 -4.171881,0.0393 -0.455179,0.10263 -0.573101,0.19918 -1.216409,0.99594 -0.3918,0.48526 -0.78151,0.87081 -0.866031,0.85677 -0.0845,-0.014 -0.116679,0.02 -0.0714,0.0755 0.0452,0.0555 -0.01939,0.18636 -0.143787,0.29065 -0.189921,0.15936 -0.373002,1.0093 -0.18696,0.86802 0.032,-0.0243 0.211219,0.11177 0.398327,0.30233 0.1871,0.19056 0.385382,0.35009 0.440611,0.35449 0.0552,0.004 0.18297,0.0346 0.283879,0.0672 0.100891,0.0326 0.626052,0.16383 1.167001,0.29176 0.540961,0.12793 1.20139,0.35835 1.467612,0.51203 0.663379,0.38297 0.857959,0.33941 0.823928,-0.18448 z m -6.95683,-0.47332 c 0.0742,-0.006 0.1763,-0.006 0.22674,0 0.0505,0.006 0.078,-0.0412 0.0612,-0.10511 -0.01691,-0.0638 0.052,-0.10215 0.152871,-0.0851 0.100891,0.017 0.14649,0.003 0.101301,-0.0314 -0.0452,-0.0343 0.221809,-0.30651 0.593289,-0.6049 0.472519,-0.37952 0.736031,-0.52529 0.877109,-0.4852 0.175332,0.0498 0.179732,0.0369 0.0338,-0.0994 -0.152789,-0.14262 -0.10818,-0.19713 0.137261,-0.1677 0.0505,0.006 0.0806,-0.0203 0.067,-0.0587 -0.0136,-0.0383 0.27958,-0.42489 0.65151,-0.85908 0.37193,-0.43418 0.823299,-0.98491 1.00308,-1.22384 l 0.326859,-0.43443 -0.30158,-0.18013 c -0.16586,-0.0991 -0.26216,-0.21329 -0.21399,-0.2538 0.0481,-0.0405 0.0226,-0.0454 -0.0568,-0.0108 -0.0794,0.0346 -0.178998,0.0204 -0.221239,-0.0316 -0.151731,-0.18643 -0.281969,-0.085 -0.657349,0.51172 -0.454171,0.72203 -1.167231,1.5477 -1.28084,1.48314 -0.0445,-0.0254 -0.0549,-0.0193 -0.02289,0.0135 0.0586,0.06 -0.89072,0.98042 -1.073862,1.04115 -0.0542,0.018 -0.164269,0.0935 -0.244599,0.16794 -0.266099,0.24642 -1.57603,0.96021 -1.67604,0.91327 -0.054,-0.0254 -0.0672,0.0441 -0.0292,0.15429 0.0473,0.13733 0.0245,0.17948 -0.0726,0.13395 -0.2145,-0.10067 -0.16933,-0.002 0.0654,0.14211 0.178329,0.10985 0.192871,0.10821 0.105209,-0.0118 -0.056,-0.0766 0.0844,0.007 0.31178,0.18574 l 0.413501,0.32506 0.2941,-0.20896 c 0.161759,-0.11494 0.35487,-0.21391 0.42912,-0.21996 z m -12.708441,-8.02253 c 2.23682,-1.69662 4.05836,-3.29146 3.76888,-3.29981 -0.0539,-10e-4 -0.0021,-0.0454 0.11607,-0.0975 0.117721,-0.052 0.21404,-0.15179 0.21404,-0.22162 0,-0.0698 0.0437,-0.14088 0.0969,-0.15791 0.127259,-0.0406 0.63686,-0.67665 0.63686,-0.79483 0,-0.0505 -0.477851,-0.23213 -1.0619,-0.4036 -0.657482,-0.19302 -1.18068,-0.41299 -1.373791,-0.57757 -0.275169,-0.23453 -0.37324,-0.26012 -0.832959,-0.21736 -1.736141,0.16146 -3.210021,0.16553 -4.558581,0.0126 -0.77354,-0.0877 -1.51651,-0.17029 -1.65105,-0.18346 -0.21711,-0.0213 -0.95398,-0.15981 -1.55933,-0.29322 -0.16527,-0.0364 -0.21403,0.008 -0.21403,0.19676 0,0.13416 0.0412,0.22488 0.0917,0.20161 0.0505,-0.0233 0.0992,0.131 0.10842,0.3428 0.009,0.2118 0.16048,0.83364 0.33622,1.38185 0.64768,2.02042 1.59531,3.85575 2.73405,5.29518 l 0.56923,0.71956 0.37129,-0.2552 c 0.2042,-0.14035 1.19776,-0.88207 2.20792,-1.64828 z m -2.58069,-0.66847 c -0.17173,-0.29638 -0.39013,-0.66467 -0.48531,-0.81842 -0.16144,-0.26077 -0.1448,-0.32893 0.24743,-1.01411 0.39075,-0.68257 0.40806,-0.75282 0.24461,-0.99284 -0.0967,-0.14205 -0.17588,-0.29452 -0.17588,-0.33881 0,-0.0443 0.30733,-0.15409 0.68295,-0.244 l 0.68295,-0.16349 0.47615,0.25058 c 0.74252,0.39075 0.80767,0.48186 0.50016,0.69942 -0.30562,0.21621 -0.31675,0.37876 -0.0822,1.20051 l 0.17228,0.60367 -0.7575,0.58709 c -1.12136,0.86912 -1.13435,0.87111 -1.5056,0.2304 z m 5.701269,-5.49491 c 1.661192,-0.26917 3.442851,-0.70079 4.23727,-1.02652 0.444842,-0.1824 0.687682,-0.23332 0.828101,-0.17364 0.109281,0.0464 0.174062,0.1147 0.143941,0.1517 -0.0863,0.10605 1.34283,0.17757 1.479191,0.074 0.0411,-0.0312 0.02331,-0.1932 -0.0395,-0.36009 -0.0834,-0.22174 -0.19531,-0.31179 -0.415769,-0.3345 -0.16592,-0.0171 -0.356711,-0.0723 -0.423971,-0.12272 -0.0815,-0.0611 -0.0815,-0.0858 0,-0.074 0.593673,0.0856 0.55045,-0.0726 -0.233349,-0.85378 -0.93523,-0.93218 -1.17439,-1.46103 -1.29582,-2.86551 -0.1152,-1.33221 -0.185979,-1.48928 -1.31253,-2.91278 -0.91491,-1.15605 -1.13384,-1.62425 -1.13116,-2.41897 0.0021,-0.50838 0.204,-1.35709 0.41152,-1.72661 0.0687,-0.12249 -0.50134,-0.13906 -4.72329,-0.13725 -4.24836,0.001 -4.89311,0.0214 -5.59647,0.16973 -1.32634,0.27973 -2.31672,0.69788 -3.13488,1.32359 -0.91223,0.69767 -1.45194,1.49101 -1.72171,2.5309 -0.124,0.47796 -0.2358,0.71936 -0.29843,0.64438 -0.0709,-0.0848 -0.1007,-0.0875 -0.10203,-0.009 -7.67e-4,0.0608 0.046,0.13309 0.10461,0.16058 0.0586,0.0275 0.11441,0.32793 0.12411,0.66763 0.0168,0.59014 -0.13394,0.92852 -0.36535,0.81991 -0.0589,-0.0276 -0.0743,0.0146 -0.0342,0.0939 0.0401,0.0793 0.0119,0.14414 -0.0626,0.14414 -0.0745,0 -0.12448,0.0314 -0.11115,0.0696 0.0466,0.13401 -0.16506,0.48985 -0.26383,0.4435 -0.0548,-0.0257 -0.0972,0.005 -0.0942,0.0683 0.0149,0.31463 -0.043,0.53928 -0.12877,0.49906 -0.0526,-0.0247 -0.0921,0.31961 -0.0876,0.76513 0.007,0.68595 0.0592,0.88931 0.34158,1.32769 0.43258,0.67141 1.12014,1.25789 2.00567,1.71079 0.39057,0.19975 0.73765,0.38574 0.77127,0.41329 0.23147,0.18963 2.71992,0.86482 3.60787,0.97889 0.26906,0.0346 0.56983,0.0955 0.66838,0.13549 0.0986,0.0399 1.39188,0.0633 2.87406,0.052 2.25648,-0.0173 2.903791,-0.0545 3.979039,-0.22867 z m -6.641429,-0.93935 c -0.51763,-0.24929 -0.6341,-0.36452 -0.58878,-0.5825 0.008,-0.0383 -0.0346,-0.0696 -0.0947,-0.0696 -0.17906,0 -0.28436,-0.28583 -0.36855,-1.00043 -0.0689,-0.58483 -0.0545,-0.66719 0.10739,-0.61435 0.61544,0.2009 1.08288,0.3069 1.36917,0.31048 0.17937,0.002 0.34448,0.0391 0.3669,0.0819 0.0906,0.17286 3.15943,-0.19038 3.15943,-0.37396 0,-0.0414 -0.055,-0.0753 -0.12231,-0.0753 -0.0673,0 -0.12229,-0.0418 -0.12229,-0.0929 0,-0.0511 0.074,-0.0929 0.1645,-0.0929 0.22172,0 0.614669,0.33923 0.47103,0.40665 -0.0628,0.0295 -0.14934,0.21124 -0.19228,0.40392 -0.11646,0.52253 -0.53389,1.16559 -0.7046,1.08547 -0.0922,-0.0433 -0.11053,-0.027 -0.0513,0.0458 0.12077,0.1484 -0.2431,0.44733 -0.81374,0.66849 -0.30415,0.11788 -0.70958,0.17587 -1.22964,0.17587 -0.65071,0 -0.86852,-0.0446 -1.35017,-0.27658 z m 2.27147,-1.24472 c 0.61259,-0.14 1.31245,-0.47727 1.31245,-0.63248 0,-0.0593 -0.0749,-0.0507 -0.18994,0.0218 -0.1162,0.0732 -0.67407,0.13565 -1.43704,0.16079 -1.01666,0.0335 -1.37701,0.008 -1.95032,-0.14037 -0.71099,-0.18343 -0.80492,-0.1566 -0.57811,0.16522 0.33216,0.47129 1.72767,0.67995 2.84296,0.42506 z m -4.24321,-2.18039 c -0.24352,-0.35762 -0.2435,-0.58005 6e-5,-0.80812 0.10588,-0.0992 0.15684,-0.11759 0.11323,-0.0409 -0.0519,0.0911 -0.0187,0.0831 0.0961,-0.0232 0.21513,-0.19931 0.33191,-0.20749 0.33191,-0.0232 0,0.0766 -0.051,0.13931 -0.11335,0.13931 -0.0623,0 -0.19617,0.12608 -0.2974,0.28018 -0.10124,0.1541 -0.13907,0.25907 -0.0841,0.23326 0.0951,-0.0446 0.27396,0.4268 0.1873,0.49357 -0.0227,0.0175 -0.12794,-0.0953 -0.2338,-0.25078 z m 8.613169,-0.15931 c -0.639019,-0.17024 -1.285679,-0.3115 -1.437039,-0.31391 -0.151339,-0.002 -0.275149,-0.0357 -0.275109,-0.074 1.9e-5,-0.0383 -0.206351,-0.0665 -0.458631,-0.0626 -0.25228,0.004 -0.62378,-0.0225 -0.82558,-0.0587 -0.31698,-0.0568 -0.28653,-0.0672 0.22374,-0.0767 0.588251,-0.011 0.59032,-0.0121 0.511381,-0.28502 -0.12238,-0.42315 0.294918,-1.0504 0.82618,-1.24184 0.544859,-0.19634 0.85765,-0.19634 1.402498,0 0.804471,0.28989 1.078151,1.16106 0.55517,1.76718 -0.169989,0.197 -0.156699,0.21571 0.260641,0.36683 0.241861,0.0876 0.439751,0.1933 0.439751,0.23492 0,0.0417 -0.01381,0.0706 -0.0306,0.0646 -0.01691,-0.006 -0.5534,-0.15043 -1.192419,-0.32068 z m -0.974098,-1.29515 c 0.356619,-0.14004 0.581038,-0.50158 0.42804,-0.68958 -0.136792,-0.16808 -0.519969,-0.10831 -0.912172,0.14229 -0.40463,0.25855 -0.461248,0.40085 -0.229518,0.57684 0.19005,0.14432 0.2804,0.14058 0.71365,-0.0296 z m 2.179899,0.62765 c -0.0481,-0.80365 -0.21019,-1.07292 -0.87196,-1.44812 -0.3452,-0.19573 -1.440019,-0.31159 -1.977009,-0.20926 -0.67291,0.12827 -1.759361,1.16056 -1.790901,1.70166 -0.005,0.0942 -0.0359,0.11632 -0.0705,0.0514 -0.11704,-0.21964 0.33465,-1.1416 0.72447,-1.47876 1.21054,-1.04699 3.639661,-0.83385 4.241419,0.37216 0.113382,0.22722 0.180091,0.25693 0.46677,0.20783 l 0.334492,-0.0573 -0.361572,0.22888 c -0.371888,0.23541 -0.349319,0.26899 0.239271,0.35585 0.21101,0.0311 0.194209,0.0536 -0.122299,0.16356 -0.201789,0.0701 -0.392832,0.14216 -0.42451,0.16014 -0.110951,0.0629 0.305088,0.2055 0.607959,0.20832 0.43389,0.004 0.0551,0.1824 -0.391401,0.18433 -0.181639,7.2e-4 -0.381769,0.0713 -0.444719,0.15674 -0.0806,0.10943 -0.12777,-0.0671 -0.15948,-0.5974 z m -9.15533,-0.11697 c 0,-0.0501 0.1541,-0.0911 0.34244,-0.0911 0.18834,0 0.40848,-0.0502 0.4892,-0.11146 0.10571,-0.0803 0.14676,-0.0818 0.14676,-0.006 0,0.0583 -0.063,0.13551 -0.13989,0.17162 -0.23011,0.108 -0.83851,0.13438 -0.83851,0.0364 z m -0.64208,-0.52657 c -0.11771,-0.0234 -0.21402,-0.0837 -0.21402,-0.13402 0,-0.0503 -0.055,-0.0657 -0.12231,-0.0341 -0.0673,0.0316 -0.12229,0.0107 -0.12229,-0.0464 0,-0.0571 -0.0423,-0.084 -0.0941,-0.0597 -0.0517,0.0243 -0.55333,-0.0568 -1.11457,-0.18026 -0.56123,-0.12344 -1.21599,-0.22445 -1.455,-0.22445 -0.6932,0 -0.35851,-0.13801 0.43172,-0.178 0.098,-0.005 0.15287,-0.15672 0.15287,-0.42243 0,-0.57859 0.55578,-1.07128 1.20847,-1.07128 0.24711,0 0.58539,0.0664 0.75169,0.14763 0.21433,0.10463 0.18607,0.0641 -0.097,-0.13931 -0.32326,-0.23223 -0.50316,-0.28694 -0.94357,-0.28694 -0.85669,0 -1.56145,0.54779 -1.97151,1.53241 l -0.15472,0.37149 -0.008,-0.3063 c -0.005,-0.21175 -0.11198,-0.3768 -0.3445,-0.53476 l -0.33633,-0.22847 0.34429,0.0936 c 0.45021,0.12242 0.45066,0.12234 0.45066,-0.0808 0,-0.0959 -0.0826,-0.2264 -0.18345,-0.29 -0.26913,-0.1696 -0.22367,-0.30149 0.0637,-0.18471 0.38717,0.15735 0.49067,0.0294 0.28431,-0.35133 l -0.18764,-0.34624 0.262,0.20985 c 0.20647,0.16536 0.31117,0.18987 0.49394,0.11558 0.12757,-0.0518 0.26485,-0.13468 0.30507,-0.1841 0.14184,-0.17428 0.96811,-0.28101 1.42838,-0.18449 1.18393,0.24824 1.80826,1.1933 1.54343,2.33631 -0.0628,0.27117 -0.11933,0.54528 -0.12555,0.60913 -0.006,0.0638 -0.0159,0.11124 -0.0215,0.10531 -0.005,-0.006 -0.10651,-0.0299 -0.22422,-0.0533 z m 0.14967,-0.60931 -0.003,-0.48758 -0.22436,0.37148 c -0.15256,0.25261 -0.18588,0.40865 -0.10412,0.48759 0.23304,0.225 0.33487,0.11096 0.33169,-0.37149 z m -1.26636,-1.04746 c 0.33534,-0.25465 0.33388,-0.44346 -0.004,-0.49318 -0.56842,-0.0837 -1.16626,0.27173 -1.00242,0.59594 0.10648,0.21072 0.6691,0.15326 1.00626,-0.10276 z m 11.787411,-0.70635 c -0.865989,-0.55338 -2.75208,-0.70149 -4.127641,-0.32414 -0.285879,0.0784 -0.51978,0.12531 -0.51978,0.10419 0,-0.0972 1.183641,-0.54967 1.84978,-0.70711 1.028549,-0.2431 1.919049,-0.23057 2.436611,0.0343 0.477819,0.24452 0.885198,0.72942 0.82866,0.98638 -0.0363,0.16493 -0.0752,0.15715 -0.46763,-0.0936 z m -9.970221,-1.01146 c -0.12324,-0.10341 -0.57534,-0.31935 -1.00465,-0.47983 -0.9142,-0.34177 -1.91125,-0.39383 -2.5699,-0.13416 -0.51773,0.20408 -0.50777,0.059 0.0201,-0.29299 0.9347,-0.62322 1.88213,-0.58406 2.86841,0.11855 0.31156,0.22196 0.66591,0.53247 0.78743,0.69001 0.25531,0.33102 0.21846,0.36679 -0.10137,0.0984 z m -18.05012,7.08386 c -0.0531,-0.27312 0.28579,-3.18202 0.3698,-3.17437 0.0395,0.004 0.18186,0.04 0.31639,0.081 0.37225,0.11333 0.91725,-0.13322 0.91725,-0.41499 0,-0.12637 0.0413,-0.23058 0.0917,-0.23155 0.26847,-0.005 3.0887,0.97577 3.05166,1.06147 -0.024,0.0557 -0.27336,0.11406 -0.55401,0.12976 -0.54961,0.0308 -0.57787,0.0723 -0.38915,0.57199 0.0666,0.17638 0.0776,0.35372 0.0245,0.39407 -0.0532,0.0404 -0.61056,-0.24686 -1.2387,-0.63826 l -1.14207,-0.71164 0.078,0.43305 c 0.0429,0.23817 0.11202,0.62227 0.15357,0.85355 0.0515,0.28656 0.15358,0.45223 0.32051,0.52007 0.16328,0.0663 0.21877,0.0674 0.16641,0.003 -0.1308,-0.16072 0.44982,-0.088 0.81486,0.10207 0.18576,0.0967 0.30674,0.21398 0.26882,0.26057 -0.0379,0.0466 0.0109,0.0614 0.10849,0.033 0.19581,-0.057 0.39148,0.1043 0.22259,0.18356 -0.0582,0.0273 -0.32481,-0.0726 -0.5924,-0.22202 -0.39461,-0.22038 -0.55319,-0.25817 -0.83939,-0.20004 -0.33264,0.0676 -0.35085,0.0966 -0.31762,0.50705 0.0194,0.23947 -0.0138,0.43539 -0.0738,0.43539 -0.06,0 -0.23182,-0.16592 -0.38191,-0.36872 -0.15009,-0.20279 -0.31973,-0.3907 -0.37697,-0.41756 -0.0572,-0.0268 -0.28053,0.15995 -0.49618,0.41515 -0.38876,0.46006 -0.47631,0.52877 -0.50244,0.39436 z m -1.39292,-2.85505 c -0.0673,-0.017 -0.26939,-0.0555 -0.44918,-0.0855 -0.52078,-0.0869 -1.07958,-0.57208 -1.07958,-0.9374 0,-0.1712 0.0804,-0.37235 0.17871,-0.44699 0.0983,-0.0746 0.18983,-0.29703 0.20342,-0.49422 0.0159,-0.23109 0.13049,-0.44616 0.32237,-0.60519 0.19843,-0.16444 0.27229,-0.30742 0.22153,-0.42887 -0.12262,-0.29337 0.1415,-0.67772 0.5452,-0.79344 0.20907,-0.0599 0.34299,-0.15535 0.30991,-0.22081 -0.032,-0.0634 -0.005,-0.14038 0.0607,-0.1711 0.0654,-0.0307 0.0904,-0.0909 0.0555,-0.13381 -0.0926,-0.11376 0.64814,-0.55929 0.92985,-0.55929 0.34449,0 1.10333,0.31442 1.41012,0.58427 0.24163,0.21253 0.30135,0.22305 0.75021,0.13206 0.60873,-0.12338 1.82602,0.0915 1.75941,0.31052 -0.0224,0.0737 -10e-4,0.10419 0.0467,0.0677 0.12225,-0.0928 0.56736,0.10242 0.47951,0.21034 -0.0395,0.0485 -0.0107,0.0882 0.064,0.0882 0.39708,0 0.79352,1.98428 0.48415,2.42326 -0.12926,0.18341 0.0275,0.35439 0.60764,0.66299 0.15456,0.0822 0.24343,0.19565 0.19749,0.25208 -0.0544,0.0668 -0.2513,0.001 -0.56419,-0.18648 -0.26437,-0.159 -0.44965,-0.32722 -0.41172,-0.37381 0.0379,-0.0466 0.0244,-0.0846 -0.03,-0.0845 -0.0544,9e-5 -0.081,-0.33411 -0.0591,-0.74272 0.0256,-0.47652 -0.0268,-0.9157 -0.14612,-1.22473 -0.10229,-0.26501 -0.15269,-0.52634 -0.11199,-0.58073 0.0407,-0.0544 0.0343,-0.0719 -0.0143,-0.039 -0.0486,0.0329 -0.23094,-0.0405 -0.40527,-0.16316 -0.17433,-0.12269 -0.58907,-0.28444 -0.92166,-0.35943 -0.66641,-0.15029 -1.02158,-0.0764 -1.47925,0.3076 -0.12713,0.10668 -0.31344,0.16766 -0.42776,0.14005 -0.16011,-0.0386 -0.16723,-0.0299 -0.034,0.0423 0.19409,0.10508 0.0656,0.33251 -0.13474,0.23848 -0.078,-0.0366 -0.0977,-0.0192 -0.0477,0.0422 0.0468,0.0575 0.002,0.22673 -0.0999,0.3761 -0.10172,0.14938 -0.23358,0.43596 -0.29302,0.63686 l -0.10807,0.36526 0.5632,0.0152 c 0.6074,0.0164 0.82556,-0.072 1.16987,-0.47368 0.33025,-0.38527 0.36204,-0.24216 0.0815,0.36671 -0.13728,0.29793 -0.27776,0.62528 -0.31217,0.72745 -0.0344,0.10216 -0.0394,0.0253 -0.0112,-0.17074 0.0445,-0.30901 0.0237,-0.34685 -0.15671,-0.28416 -0.25479,0.0885 -0.8366,0.0865 -1.24764,-0.004 -0.21311,-0.0471 -0.25469,-0.0402 -0.13721,0.0229 0.18944,0.10178 0.085,0.29706 -0.15881,0.29706 -0.10394,0 -0.13896,0.0807 -0.10082,0.23219 0.0479,0.19011 0.0102,0.23218 -0.20763,0.23218 -0.14781,0 -0.23218,0.0417 -0.18981,0.0937 0.14509,0.17828 -0.0725,0.44621 -0.48228,0.59388 -0.22631,0.0815 -0.43067,0.14498 -0.45413,0.14094 -0.0235,-0.004 -0.0977,-0.0213 -0.16497,-0.0383 z m 0.67265,-0.33133 c 0,-0.0541 0.0451,-0.0772 0.10017,-0.0513 0.0551,0.0258 0.0764,-0.0762 0.0473,-0.2267 -0.0291,-0.15054 -0.10494,-0.27371 -0.16854,-0.27371 -0.0636,0 -0.0848,-0.0379 -0.0471,-0.0842 0.0377,-0.0463 -0.0436,-0.0619 -0.18078,-0.0347 -0.15488,0.0308 -0.48068,-0.0597 -0.86011,-0.23883 l -0.61079,-0.28833 -0.13399,0.2233 c -0.0797,0.13287 -0.0948,0.32955 -0.0373,0.48557 0.0532,0.14424 0.0863,0.29671 0.0737,0.33881 -0.0127,0.0421 0.032,0.0507 0.0993,0.0191 0.0673,-0.0316 0.27509,0.006 0.46166,0.0823 0.39083,0.16096 1.25648,0.19457 1.25648,0.0488 z m 0.54466,-0.97862 c 0.27492,-0.20878 0.21898,-0.76903 -0.071,-0.71143 -0.21142,0.042 -1.45203,-0.41316 -1.45203,-0.5327 0,-0.0344 -0.0795,-0.0626 -0.17665,-0.0626 -0.0972,0 -0.16596,0.0453 -0.15288,0.10061 0.0131,0.0553 -0.0366,0.0923 -0.11028,0.0822 -0.0777,-0.0107 -0.13313,0.12585 -0.13185,0.32506 0.002,0.25442 0.0919,0.40878 0.34809,0.59522 0.19023,0.13846 0.34587,0.23384 0.34587,0.21197 0,-0.0219 0.12383,-0.002 0.27518,0.0442 0.43187,0.13182 0.91238,0.10941 1.12558,-0.0525 z m 0.39795,-1.05806 c 0.035,-0.10158 0.10858,-0.1636 0.16355,-0.13779 0.055,0.0258 0.13977,-0.002 0.18844,-0.0618 0.0593,-0.0729 0.0351,-0.0837 -0.0735,-0.0327 -0.1166,0.0547 -0.14076,0.034 -0.0862,-0.0739 0.0534,-0.1057 -0.0576,-0.21102 -0.3767,-0.35733 -0.24883,-0.11409 -0.63968,-0.32947 -0.86854,-0.47862 -0.3647,-0.23767 -0.42986,-0.25254 -0.5273,-0.12032 -0.0611,0.083 -0.15226,0.13157 -0.20248,0.10801 -0.0502,-0.0236 -0.10384,0.11855 -0.11917,0.31583 -0.024,0.30886 0.0285,0.39129 0.37765,0.59356 0.76309,0.44199 1.42008,0.54762 1.52427,0.24506 z m 0.83075,-1.2084 c 0.24798,-0.28093 0.41724,-0.48568 0.37613,-0.45496 -0.0411,0.0307 -0.25702,-0.0738 -0.47979,-0.23218 -0.41902,-0.29797 -1.1805,-0.56841 -1.1805,-0.41926 0,0.0467 -0.0627,0.0848 -0.13939,0.0848 -0.20558,0 -0.46376,0.29447 -0.46822,0.53401 -0.002,0.11494 0.10159,0.28907 0.23052,0.38698 0.12892,0.0979 0.19772,0.20908 0.15288,0.24707 -0.0448,0.038 -0.0265,0.0464 0.0408,0.0186 0.0673,-0.0278 0.31492,0.0443 0.55035,0.16011 0.23543,0.11582 0.43667,0.20496 0.44721,0.1981 0.0105,-0.007 0.22206,-0.24232 0.47004,-0.52326 z m 11.06819,-5.94387 c -0.24654,-0.18722 -0.31709,-0.51698 -0.15101,-0.70587 0.15217,-0.17304 0.6121,-0.3181 0.8182,-0.25804 0.45134,0.13152 0.5799,0.74164 0.20986,0.99594 -0.29722,0.20427 -0.57945,0.19395 -0.87705,-0.0321 z m 0.48476,-0.41387 c 0.18122,-0.16581 0.0625,-0.34021 -0.18292,-0.26869 -0.19105,0.0557 -0.25331,0.40394 -0.0722,0.40394 0.059,0 0.17384,-0.0608 0.25513,-0.13525 z"
       id="path55" />
  </g>
</svg>
