<?xml version="1.0" encoding="UTF-8" standalone="no"?>
<svg
   xmlns:dc="http://purl.org/dc/elements/1.1/"
   xmlns:cc="http://creativecommons.org/ns#"
   xmlns:rdf="http://www.w3.org/1999/02/22-rdf-syntax-ns#"
   xmlns:svg="http://www.w3.org/2000/svg"
   xmlns="http://www.w3.org/2000/svg"
   xmlns:sodipodi="http://sodipodi.sourceforge.net/DTD/sodipodi-0.dtd"
   xmlns:inkscape="http://www.inkscape.org/namespaces/inkscape"
   width="89mm"
   height="85mm"
   viewBox="0 0 89 85"
   version="1.1"
   id="svg8"
   inkscape:version="1.0.1 (3bc2e813f5, 2020-09-07)"
   sodipodi:docname="producir.svg">
  <defs
     id="defs2" />
  <sodipodi:namedview
     id="base"
     pagecolor="#ffffff"
     bordercolor="#666666"
     borderopacity="1.0"
     inkscape:pageopacity="0.0"
     inkscape:pageshadow="2"
     inkscape:zoom="0.35"
     inkscape:cx="400"
     inkscape:cy="560"
     inkscape:document-units="mm"
     inkscape:current-layer="g243"
     inkscape:document-rotation="0"
     showgrid="false"
     inkscape:window-width="1258"
     inkscape:window-height="728"
     inkscape:window-x="92"
     inkscape:window-y="0"
     inkscape:window-maximized="0" />
  <metadata
     id="metadata5">
    <rdf:RDF>
      <cc:Work
         rdf:about="">
        <dc:format>image/svg+xml</dc:format>
        <dc:type
           rdf:resource="http://purl.org/dc/dcmitype/StillImage" />
        <dc:title></dc:title>
      </cc:Work>
    </rdf:RDF>
  </metadata>
  <g
     inkscape:label="Capa 1"
     inkscape:groupmode="layer"
     id="layer1">
    <g
       id="g243"
       transform="translate(-228.58641,-82.587305)">
      <path
         style="opacity:1;fill:#000000;stroke-width:0.0998657"
         d="m 248.18286,154.2485 c -1.63364,-0.12332 -2.47093,-0.27718 -3.47631,-0.63866 -1.54807,-0.55659 -2.75864,-1.53133 -3.29929,-2.65653 -0.47327,-0.98499 -0.76978,-3.09814 -0.98877,-7.04669 -0.14333,-2.5844 -0.1999,-14.09043 -0.0777,-15.81573 l 0.0618,-0.87242 1.20949,1.32683 1.20949,1.32686 0.0646,5.20015 c 0.11148,8.98175 0.42308,13.75579 0.95209,14.58618 0.26085,0.40945 1.04396,0.93055 1.78547,1.1881 1.52919,0.53111 3.37481,0.63535 8.51186,0.48074 2.94156,-0.0885 5.08392,-0.0904 8.09552,-0.007 2.95434,0.0816 6.8949,0.0808 14.14335,-0.002 10.57354,-0.12245 11.15567,-0.1526 11.71384,-0.60774 0.28251,-0.23037 0.49053,-0.84646 0.48334,-1.43142 -0.0302,-2.44824 0.007,-5.7677 0.10292,-9.31958 0.0641,-2.3613 0.11933,-7.14413 0.12272,-10.62849 l 0.006,-6.33522 -0.2504,-0.58713 c -0.27308,-0.64028 -0.64278,-1.00781 -1.36897,-1.361 -0.59704,-0.29036 -1.88676,-0.29846 -3.85699,-0.0242 -1.21857,0.16961 -2.04619,0.18996 -7.03606,0.173 l -5.65504,-0.0192 -0.2972,-0.29494 -0.2972,-0.29492 0.23776,0.30163 0.23776,0.30162 -7.52408,-0.0288 c -4.13823,-0.0158 -8.20066,0.007 -9.02761,0.0528 -1.1923,0.0647 -1.72462,0.0464 -2.57152,-0.0883 -0.58739,-0.0935 -2.33231,-0.21903 -3.87759,-0.27907 -1.54529,-0.06 -2.95367,-0.1374 -3.12973,-0.17193 l -0.3201,-0.0628 1.88773,-2.07744 1.88774,-2.07743 0.5753,0.35114 c 1.44237,0.88038 3.07554,1.31232 4.97399,1.31549 2.88196,0.005 5.35226,-1.04529 7.39651,-3.14428 1.57114,-1.61322 2.60324,-3.5235 3.17564,-5.87775 0.23865,-0.98153 0.26298,-1.24867 0.26526,-2.91313 0.002,-1.67814 -0.0197,-1.92285 -0.26088,-2.90527 -0.44226,-1.8009 -1.0907,-3.13282 -2.29969,-4.72334 -1.81574,-2.38873 -4.34496,-3.94041 -7.29439,-4.47512 -3.16335,-0.5735 -6.69892,0.54327 -8.53163,2.69485 -0.67135,0.78816 -0.94752,1.24684 -1.78779,2.96922 -0.9196,1.88502 -1.04452,2.35271 -1.2253,4.58756 -0.1333,1.64785 0.007,3.63205 0.35662,5.05815 0.67559,2.75249 2.10078,5.11518 3.94215,6.53529 0.31847,0.24561 0.57904,0.47553 0.57904,0.51091 0,0.0354 -0.84684,0.99456 -1.88188,2.13146 -1.24392,1.36636 -1.94934,2.06713 -2.08085,2.06713 -0.13866,0 -0.24901,0.12207 -0.36411,0.40266 -0.0966,0.2355 -0.72006,1.00719 -1.5017,1.85869 l -1.33655,1.45601 0.0612,-0.62829 c 0.15232,-1.56318 0.5719,-2.76552 1.25777,-3.60426 0.23716,-0.29002 0.41169,-0.5637 0.38784,-0.60815 -0.10191,-0.19009 0.14407,-0.55569 0.54978,-0.81712 0.40347,-0.25997 1.01697,-0.37555 2.45955,-0.4634 0.0412,-0.002 -0.13098,-0.20483 -0.38269,-0.44959 -1.22386,-1.19016 -2.60255,-3.18574 -3.23741,-4.68597 -0.83192,-1.96588 -1.16095,-3.51657 -1.23317,-5.81165 -0.11721,-3.72517 0.5287,-6.88012 1.84609,-9.01721 0.146,-0.23686 0.54659,-0.89656 0.89019,-1.46601 0.3436,-0.56944 1.00448,-1.474 1.4686,-2.01013 l 0.84387,-0.97478 0.81719,0.87006 0.81718,0.87008 -0.73811,-0.84004 c -0.40596,-0.46201 -0.73812,-0.87135 -0.73812,-0.90964 0,-0.13487 1.58071,-1.19797 2.33342,-1.56933 0.85817,-0.42339 1.71675,-0.71492 2.90486,-0.98638 1.1994,-0.27405 3.63143,-0.25081 4.91109,0.0469 3.4692,0.80714 6.10277,2.57517 8.34891,5.60499 0.2999,0.40453 0.52557,0.75717 0.5015,0.78364 -0.0241,0.0265 0.0188,0.0999 0.0952,0.16319 0.0765,0.0633 0.32753,0.48048 0.55795,0.92707 0.46664,0.9044 0.43084,0.9075 0.91337,-0.079 0.16903,-0.34556 0.40308,-0.74609 0.5201,-0.89008 0.11702,-0.14398 0.40192,-0.59164 0.63308,-0.99478 1.10782,-1.93196 2.53084,-3.35204 4.34774,-4.33873 1.45472,-0.79002 2.92817,-1.23356 4.72665,-1.42285 0.55083,-0.058 0.68133,-0.0391 0.85553,0.12402 0.17922,0.16777 0.18903,0.16894 0.0765,0.009 -0.11763,-0.167 -0.0982,-0.18325 0.21968,-0.18325 0.76127,0 2.23972,0.24068 3.24984,0.52903 1.96671,0.56144 3.79656,1.57408 5.25097,2.9059 2.13173,1.95205 3.56488,4.18119 4.44012,6.90618 1.04149,3.24261 1.0431,6.98378 0.004,9.91521 -0.82645,2.33214 -1.8143,4.0251 -3.28513,5.62993 -0.46329,0.5055 -0.84233,0.94299 -0.84233,0.9722 0,0.0292 0.1045,0.0531 0.23219,0.0531 0.46215,0 1.54158,0.33728 2.07055,0.64697 1.01074,0.59173 1.96262,1.65351 2.33017,2.59918 0.29171,0.75049 0.44025,1.66277 0.49817,3.05935 l 0.0596,1.43628 0.95242,-0.6589 c 0.52382,-0.36238 1.44528,-0.98403 2.04768,-1.38144 0.60241,-0.39742 1.48101,-0.99545 1.95246,-1.32898 0.47144,-0.33352 0.92146,-0.63772 1.00003,-0.676 0.0785,-0.0382 0.35716,-0.21824 0.61907,-0.39991 1.45847,-1.01173 2.70123,-1.71245 3.70352,-2.08827 l 0.75104,-0.28159 0.43939,0.45292 0.4394,0.45289 -0.36664,-0.43405 -0.36665,-0.43407 0.39398,-0.0732 c 1.00037,-0.18582 2.36109,0.30561 3.05967,1.10502 0.75028,0.85854 1.17137,2.00707 1.37878,3.76056 0.065,0.55 0.0605,0.56719 -0.11069,0.42066 -0.17207,-0.14723 -0.17251,-0.14493 -0.0119,0.0631 0.1392,0.18031 0.16666,0.4297 0.16666,1.51351 v 1.29765 l -0.54763,0.6313 -0.54764,0.63127 0.52382,-0.54634 0.52383,-0.54635 -0.004,8.8188 c -0.004,8.72798 -0.0601,10.55173 -0.34548,11.38257 -0.1911,0.55628 -0.68629,1.26994 -1.12925,1.62744 -0.97508,0.78697 -2.39462,0.81446 -4.18738,0.0811 -1.28759,-0.52671 -6.1134,-3.16321 -9.5145,-5.19811 -0.54471,-0.3259 -1.02687,-0.59255 -1.07147,-0.59255 -0.0445,0 -0.0876,0.76572 -0.0956,1.70161 -0.0308,3.59224 -0.10338,4.49454 -0.39222,4.87725 -0.0612,0.0811 -0.18166,0.4447 -0.26762,0.80796 -0.44544,1.88239 -1.74137,3.01271 -3.89716,3.39911 -0.53955,0.0967 -4.88553,0.13499 -17.76253,0.15648 -9.37651,0.0156 -17.60537,0.0533 -18.28635,0.0837 -0.68097,0.0304 -1.77386,0.015 -2.42865,-0.0345 z m 0,-0.57262 c 0.1777,-0.20157 0.30167,-0.3665 0.27548,-0.3665 -0.0262,0 -0.19301,0.16493 -0.37071,0.3665 -0.1777,0.20156 -0.30167,0.3665 -0.27548,0.3665 0.0262,0 0.19301,-0.16494 0.37071,-0.3665 z m 16.85773,0.33037 c 0,-0.0199 -0.0964,-0.1259 -0.2143,-0.23562 l -0.21429,-0.19948 0.18144,0.23562 c 0.17051,0.2214 0.24715,0.28328 0.24715,0.19948 z m 18.39374,-0.14713 c 0.11847,-0.16607 0.11509,-0.16978 -0.036,-0.0396 -0.0917,0.079 -0.16668,0.16151 -0.16668,0.18325 0,0.0862 0.0782,0.0307 0.20263,-0.1437 z m -19.06043,-0.58385 c 0,-0.0188 -0.11786,-0.14835 -0.26192,-0.28796 l -0.26191,-0.25387 0.2309,0.28797 c 0.21581,0.26915 0.29293,0.33599 0.29293,0.25386 z m 40.11876,-6.55956 c 0.18791,-0.16251 0.25445,-0.34517 0.31469,-0.8639 0.042,-0.36177 0.0836,-4.59242 0.0922,-9.40144 0.0113,-5.89644 0.0542,-9.24212 0.13355,-10.27446 0.17136,-2.23033 -0.0299,-3.61123 -0.62095,-4.26111 -0.3185,-0.35017 -0.33693,-0.35595 -1.01703,-0.31818 -0.59444,0.033 -0.82051,0.10796 -1.59444,0.52876 -0.93524,0.50851 -1.02513,0.562 -2.63735,1.56964 -0.53549,0.33466 -0.99007,0.60851 -1.01018,0.60851 -0.0369,0 -1.24109,0.76111 -3.37353,2.13225 -0.30121,0.19368 -1.15144,0.73798 -1.8894,1.20956 l -1.34177,0.85741 -0.0627,4.31414 c -0.0344,2.37277 -0.091,5.05629 -0.12557,5.96338 -0.0424,1.11129 -0.0307,1.64926 0.0357,1.64926 0.0542,0 0.45736,0.21964 0.89589,0.4881 0.43854,0.26847 1.31166,0.77881 1.94024,1.13411 0.6286,0.35531 2.12865,1.20645 3.33344,1.89144 4.98298,2.83309 6.2642,3.34587 6.92713,2.77253 z m 0.93028,-17.22882 c 0.1777,-0.20157 0.30166,-0.36651 0.27547,-0.36651 -0.0262,0 -0.19301,0.16494 -0.37071,0.36651 -0.1777,0.20157 -0.30166,0.36649 -0.27547,0.36649 0.0262,0 0.19301,-0.16492 0.37071,-0.36649 z m 0.76193,-0.83772 c 0.17771,-0.20158 0.30166,-0.3665 0.27547,-0.3665 -0.0262,0 -0.19301,0.16492 -0.37071,0.3665 -0.1777,0.20158 -0.30166,0.3665 -0.27547,0.3665 0.0262,0 0.19301,-0.16492 0.37071,-0.3665 z m 1.04766,-4.79631 c 0,-0.0176 -0.16073,-0.19421 -0.35716,-0.39269 l -0.35715,-0.36087 0.32821,0.39269 c 0.3055,0.3655 0.3861,0.44083 0.3861,0.36087 z m -0.76193,-0.83773 c 0,-0.0174 -0.16073,-0.19419 -0.35716,-0.39267 l -0.35715,-0.36086 0.32821,0.39267 c 0.3055,0.36551 0.3861,0.44084 0.3861,0.36086 z m -0.76194,-0.83771 c 0,-0.0176 -0.16071,-0.19419 -0.35715,-0.39267 l -0.35716,-0.36087 0.32822,0.39268 c 0.3055,0.36551 0.38609,0.44083 0.38609,0.36086 z m -0.76193,-0.8377 c 0,-0.0174 -0.16072,-0.19422 -0.35715,-0.39268 l -0.35716,-0.36088 0.32821,0.39269 c 0.3055,0.36549 0.3861,0.44083 0.3861,0.36087 z m -27.19141,-0.38705 c 0.0948,-0.11515 0.15095,-0.20944 0.12476,-0.20944 -0.0262,0 -0.1252,0.0942 -0.22,0.20944 -0.0948,0.11513 -0.15096,0.20943 -0.12476,0.20943 0.0262,0 0.12519,-0.0942 0.22,-0.20943 z m 26.42949,-0.45069 c 0,-0.0174 -0.16073,-0.19418 -0.35716,-0.39266 l -0.35715,-0.36087 0.32821,0.39269 c 0.3055,0.36549 0.3861,0.44083 0.3861,0.36084 z m -34.38215,-0.21373 c 0,-0.0199 -0.0964,-0.1259 -0.21429,-0.2356 l -0.21429,-0.19948 0.18143,0.2356 c 0.1705,0.22142 0.24715,0.28329 0.24715,0.19948 z m 8.77435,-0.25183 c 0.11848,-0.16608 0.11511,-0.1698 -0.036,-0.0396 -0.0917,0.079 -0.16668,0.16151 -0.16668,0.18325 0,0.0862 0.0782,0.0307 0.20263,-0.14371 z m -9.53629,-0.58588 c 0,-0.0199 -0.0964,-0.1259 -0.21429,-0.23561 l -0.21429,-0.19947 0.18143,0.2356 c 0.17052,0.2214 0.24715,0.28329 0.24715,0.19948 z m 10.29823,-0.25183 c 0.11847,-0.16609 0.11509,-0.1698 -0.036,-0.0396 -0.0917,0.079 -0.16667,0.1615 -0.16667,0.18326 0,0.0862 0.0782,0.0307 0.20264,-0.14373 z m -11.10777,-0.65448 -0.27374,-0.31414 h 0.73212 c 0.40267,0 0.72953,-0.0354 0.72635,-0.0785 -0.003,-0.0432 -0.19287,-0.24347 -0.42152,-0.44503 -0.8795,-0.77535 -2.32539,-2.78729 -2.95377,-4.11014 -0.15715,-0.33082 -0.30715,-0.6005 -0.33334,-0.59927 -0.0262,10e-4 -0.24048,0.3784 -0.4762,0.83813 -0.27058,0.52771 -0.47431,0.8168 -0.55259,0.78408 -0.0696,-0.0291 -0.097,-0.004 -0.0624,0.0577 0.0984,0.17516 -0.96066,1.60798 -1.87661,2.5388 -0.463,0.47051 -0.84183,0.8912 -0.84183,0.93488 0,0.0437 1.34204,0.0794 2.98229,0.0794 h 2.98228 l 0.27375,0.31414 c 0.15055,0.17278 0.29517,0.31415 0.32136,0.31415 0.0262,0 -0.0756,-0.14137 -0.22612,-0.31415 z m 11.8697,-0.18325 c 0.11846,-0.16607 0.1151,-0.16978 -0.036,-0.0396 -0.0917,0.079 -0.16666,0.16151 -0.16666,0.18325 0,0.0862 0.0782,0.0307 0.20264,-0.14371 z m -0.47886,-0.39487 c 2.92359,-0.67615 5.27561,-2.38013 6.92737,-5.01867 1.25791,-2.0094 1.92059,-4.35708 1.92059,-6.80418 0,-1.32953 -0.0948,-2.02997 -0.44771,-3.30617 -0.94119,-3.40402 -3.44942,-6.38124 -6.60016,-7.83427 -0.86379,-0.39836 -1.09733,-0.56305 -1.71422,-1.20885 l -0.7142,-0.74766 0.61895,0.71348 c 0.50909,0.58684 0.57668,0.70302 0.38085,0.65454 -0.13095,-0.0324 -0.51668,-0.13202 -0.85718,-0.22133 -0.88224,-0.23144 -2.87753,-0.31484 -3.78277,-0.15813 -2.23418,0.38678 -3.88623,1.20719 -5.15184,2.55838 -0.73536,0.78508 -1.15085,1.44072 -1.97577,3.11775 -0.77928,1.58423 -0.86396,1.83854 -1.0855,3.25985 -0.14369,0.92185 -0.15856,1.27666 -0.0812,1.93722 0.0521,0.44476 0.0742,1.3183 0.0493,1.94118 -0.0345,0.85944 -0.004,1.32655 0.12465,1.93722 0.54779,2.59104 1.38562,4.35173 2.84505,5.97887 1.428,1.59209 3.28494,2.68201 5.44855,3.19803 0.85242,0.20329 3.22131,0.20489 4.09533,0.002 z m 0.85983,-0.024 c 0.11846,-0.16609 0.11509,-0.16979 -0.036,-0.0396 -0.0917,0.079 -0.16668,0.16151 -0.16668,0.18325 0,0.0862 0.0782,0.0307 0.20264,-0.14371 z m -16.01271,-3.51788 c 0,-0.0199 -0.0964,-0.12589 -0.2143,-0.23561 l -0.21429,-0.19948 0.18144,0.23561 c 0.17051,0.22141 0.24715,0.28328 0.24715,0.19948 z M 264.1358,98.33434 c 0.0948,-0.11514 0.15096,-0.20942 0.12476,-0.20942 -0.0262,0 -0.12519,0.0942 -0.22001,0.20942 -0.0948,0.11515 -0.15095,0.20944 -0.12476,0.20944 0.0262,0 0.1252,-0.0942 0.22001,-0.20944 z m 14.81004,-5.37223 c 0,-0.0176 -0.16073,-0.1942 -0.35716,-0.39268 l -0.35716,-0.36087 0.32822,0.39268 c 0.3055,0.3655 0.3861,0.44082 0.3861,0.36087 z m -0.76193,-0.83771 c 0,-0.0176 -0.16073,-0.19422 -0.35716,-0.39268 l -0.35715,-0.36087 0.32821,0.39268 c 0.3055,0.36549 0.3861,0.44082 0.3861,0.36087 z m -9.33366,54.83834 c -0.18334,-0.0242 -0.86908,-0.12097 -1.52387,-0.21482 -0.82371,-0.11811 -2.10021,-0.17939 -4.143,-0.19888 -1.62386,-0.0155 -3.17296,-0.0772 -3.44243,-0.13703 -1.7718,-0.39381 -3.00704,-1.32568 -3.56088,-2.68633 -0.1167,-0.2867 -0.24898,-0.60222 -0.29395,-0.70119 -0.20729,-0.45606 -0.29137,-1.31665 -0.28606,-2.92765 0.0132,-3.99217 0.32978,-5.9202 1.13373,-6.90331 0.23068,-0.28209 0.45642,-0.5129 0.50164,-0.5129 0.0452,0 0.30912,-0.14727 0.58644,-0.32725 1.01288,-0.65738 1.02832,-0.65918 5.76113,-0.66354 l 4.30451,-0.004 -0.25655,0.31414 c -0.21975,0.26907 -0.20614,0.26322 0.0948,-0.0408 l 0.35143,-0.35498 1.60082,0.0623 c 1.90417,0.0741 2.65245,0.24133 3.66065,0.81804 1.59553,0.91265 2.27666,2.33067 2.29915,4.78651 0.013,1.42758 -0.18918,5.20359 -0.3262,6.09045 -0.1959,1.26788 -0.92223,2.44268 -1.82234,2.94755 -0.67129,0.37653 -1.70853,0.59822 -3.03734,0.64916 -0.69763,0.0267 -1.41843,0.0288 -1.60177,0.005 z m 3.2955,-2.98056 c 0.65814,-0.35859 0.79076,-0.70861 0.8979,-2.36996 0.0475,-0.73689 0.13099,-2.03504 0.18546,-2.88475 0.18666,-2.91121 -0.0861,-3.66135 -1.52162,-4.18529 -0.56191,-0.20507 -0.86758,-0.22971 -3.31046,-0.2669 -2.01949,-0.0308 -2.67474,-0.0715 -2.62467,-0.16335 0.0442,-0.081 0.0168,-0.0779 -0.0811,0.009 -0.11458,0.10191 -0.98441,0.12397 -3.86274,0.0977 l -3.71485,-0.0339 -0.13188,0.37352 c -0.10361,0.29347 -0.12616,1.00189 -0.10518,3.30552 0.0147,1.6126 0.0718,3.24785 0.1269,3.6339 0.19708,1.38041 0.93679,2.09148 2.38347,2.2912 0.38075,0.0526 1.78717,0.0933 3.12537,0.0905 1.8576,-0.004 2.81604,0.0446 4.05219,0.20499 1.05076,0.1363 2.05711,0.19981 2.86691,0.18093 1.09797,-0.0256 1.30384,-0.0596 1.71435,-0.28334 z m -5.75963,-10.54236 c 0.11847,-0.1661 0.1151,-0.16981 -0.036,-0.0396 -0.0917,0.079 -0.16667,0.1615 -0.16667,0.18325 0,0.0862 0.0782,0.0307 0.20264,-0.14371 z m 0.76193,-0.83772 c 0.11847,-0.16608 0.1151,-0.1698 -0.036,-0.0396 -0.0917,0.079 -0.16667,0.16149 -0.16667,0.18324 0,0.0862 0.0782,0.0307 0.20263,-0.14371 z m -25.55254,-4.18682 -1.20621,-1.33685 0.0513,-1.25657 0.0513,-1.25658 1.32489,-1.466 c 0.90353,-0.99975 1.287,-1.3661 1.20573,-1.15185 -0.0843,0.22204 -0.13405,1.41198 -0.16995,4.0594 l -0.0507,3.7453 z"
         id="path3389" />
    </g>
  </g>
</svg>
