<?xml version="1.0" encoding="UTF-8" standalone="no"?>
<svg
   xmlns:dc="http://purl.org/dc/elements/1.1/"
   xmlns:cc="http://creativecommons.org/ns#"
   xmlns:rdf="http://www.w3.org/1999/02/22-rdf-syntax-ns#"
   xmlns:svg="http://www.w3.org/2000/svg"
   xmlns="http://www.w3.org/2000/svg"
   xmlns:sodipodi="http://sodipodi.sourceforge.net/DTD/sodipodi-0.dtd"
   xmlns:inkscape="http://www.inkscape.org/namespaces/inkscape"
   width="32mm"
   height="28mm"
   viewBox="0 0 32 28"
   version="1.1"
   id="svg8"
   inkscape:version="1.0.1 (3bc2e813f5, 2020-09-07)"
   sodipodi:docname="productividad.svg">
  <defs
     id="defs2" />
  <sodipodi:namedview
     id="base"
     pagecolor="#ffffff"
     bordercolor="#666666"
     borderopacity="1.0"
     inkscape:pageopacity="0.0"
     inkscape:pageshadow="2"
     inkscape:zoom="0.35"
     inkscape:cx="400"
     inkscape:cy="560"
     inkscape:document-units="mm"
     inkscape:current-layer="layer1"
     inkscape:document-rotation="0"
     showgrid="false"
     inkscape:window-width="1258"
     inkscape:window-height="728"
     inkscape:window-x="92"
     inkscape:window-y="0"
     inkscape:window-maximized="0" />
  <metadata
     id="metadata5">
    <rdf:RDF>
      <cc:Work
         rdf:about="">
        <dc:format>image/svg+xml</dc:format>
        <dc:type
           rdf:resource="http://purl.org/dc/dcmitype/StillImage" />
        <dc:title></dc:title>
      </cc:Work>
    </rdf:RDF>
  </metadata>
  <g
     inkscape:label="Capa 1"
     inkscape:groupmode="layer"
     id="layer1">
    <path
       style="fill:#3c3e6c;fill-opacity:1;stroke-width:0.0289187"
       d="m 45.260775,56.897887 c -1.277341,-0.18591 -2.300711,-0.89344 -2.844531,-1.96663 l -0.0746,-0.14727 -0.37053,-0.0195 c -0.91605,-0.0482 -1.73864,-0.38063 -2.34082,-0.94594 -0.45644,-0.42849 -0.82959,-0.96994 -1.00556,-1.45908 -0.16245,-0.45159 -0.20174,-0.68685 -0.20274,-1.21388 -8.7e-4,-0.62852 0.0729,-0.99334 0.30925,-1.52262 l 0.073,-0.16345 -0.22428,-0.14758 c -1.34352,-0.88416 -1.99346,-2.4199 -1.67839,-3.96591 0.18695,-0.91744 0.7306,-1.76224 1.48904,-2.31391 0.11134,-0.081 0.20609,-0.15724 0.21056,-0.16945 0.004,-0.0122 -0.0198,-0.086 -0.0538,-0.16409 -0.2477,-0.567259 -0.32932,-0.964399 -0.32932,-1.602269 0,-0.71464 0.10556,-1.1556 0.42259,-1.76513 0.52133,-1.0024 1.52727,-1.75482 2.68524,-2.00851 0.11929,-0.0261 0.41515,-0.0549 0.65748,-0.0639 l 0.44061,-0.0164 0.18704,-0.28097 c 0.41503,-0.62342 0.96027,-1.07903 1.63567,-1.36678 0.745221,-0.31749 1.800561,-0.39994 2.458091,-0.19202 0.31687,0.10019 0.5185,0.22572 0.78398,0.48806 0.20218,0.19979 0.27144,0.29227 0.36843,0.49186 0.19236,0.39585 0.21027,0.49981 0.23138,1.34261 l 0.0188,0.74977 0.128,-0.1714 c 0.19893,-0.26636 0.71156,-0.75844 1.01453,-0.97386 0.72405,-0.51483 1.81264,-0.93955 2.84826,-1.11127 0.44209,-0.0733 1.5441,-0.073 2.09661,5.61e-4 3.11047,0.41405 5.05107,2.36057 5.594911,5.61196 0.204309,1.221459 0.198239,2.576609 -0.0163,3.632159 -0.34686,1.70681 -1.18407,3.27127 -2.452921,4.58363 -1.435469,1.48472 -3.677409,3.14 -5.908459,4.36238 -1.15384,0.63217 -2.50509,1.25023 -3.459991,1.58257 -0.24345,0.0847 -0.290769,0.11366 -0.465449,0.28467 -0.332271,0.32526 -0.68533,0.49207 -1.28746,0.60827 -0.34851,0.0672 -0.5483,0.0701 -0.93828,0.0134 z m 0.99571,-0.93744 c 0.12725,-0.0342 0.29433,-0.0964 0.3713,-0.13825 0.18916,-0.10283 0.40533,-0.34633 0.48699,-0.54856 l 0.0671,-0.16618 v -9.03713 -9.037119 l -0.0918,-0.19378 c -0.16486,-0.34799 -0.45868,-0.56917 -0.83879,-0.63142 -0.55295,-0.0906 -1.41005,0.0493 -1.876731,0.3063 -0.48928,0.26941 -0.91526,0.69609 -1.14122,1.1431 -0.072,0.14254 -0.0784,0.1759 -0.054,0.2842 0.0443,0.19703 0.15421,0.38392 0.31352,0.53292 0.18803,0.17588 0.35255,0.24834 0.67247,0.29612 0.145,0.0217 0.28541,0.0604 0.32651,0.0901 0.0844,0.0611 0.18863,0.2576 0.18863,0.35579 0,0.1172 -0.11403,0.31237 -0.22121,0.37861 -0.0909,0.0562 -0.13043,0.0612 -0.38112,0.0487 -0.49243,-0.0248 -0.87398,-0.19956 -1.24802,-0.57184 -0.22724,-0.22616 -0.36813,-0.45189 -0.47837,-0.76635 l -0.0608,-0.17352 -0.2584,0.008 c -0.81879,0.0249 -1.56421,0.36277 -2.14362,0.97164 -0.20353,0.21387 -0.27413,0.31319 -0.37697,0.53029 -0.0696,0.14693 -0.16069,0.39437 -0.20243,0.54988 -0.0687,0.25621 -0.0761,0.33433 -0.078,0.83222 -0.002,0.4278 0.009,0.60388 0.0503,0.79526 0.14727,0.689369 0.47048,1.352799 0.87164,1.789139 0.1504,0.1636 0.42742,0.36039 0.63902,0.45398 0.29229,0.12926 0.38602,0.23224 0.38783,0.42608 0.003,0.29953 -0.26958,0.49248 -0.60708,0.43007 -0.58206,-0.10763 -1.18557,-0.55783 -1.46518,-1.09298 -0.0446,-0.0855 -0.0953,-0.15538 -0.11251,-0.15542 -0.0483,-1.1e-4 -0.47801,0.40956 -0.61139,0.58285 -0.28149,0.36574 -0.47564,0.76067 -0.5897,1.19949 -0.0549,0.21118 -0.0663,0.32773 -0.0648,0.66123 0.002,0.35252 0.0119,0.43808 0.0794,0.66182 0.185,0.61334 0.67864,1.37833 1.11202,1.72325 0.26315,0.20945 0.82015,0.49334 1.14684,0.58452 0.16993,0.0474 0.31196,0.0648 0.53499,0.0657 0.33902,8.73e-4 0.49996,-0.0429 0.71666,-0.19678 0.30179,-0.21428 0.70518,-0.0201 0.70518,0.33939 0,0.23297 -0.14717,0.40582 -0.48197,0.56608 -0.29494,0.14116 -0.5119,0.18595 -0.89649,0.18506 -0.36949,-8.73e-4 -0.57728,-0.0414 -0.89231,-0.17396 -0.0932,-0.0393 -0.17421,-0.0666 -0.17998,-0.0608 -0.0402,0.0402 -0.17171,0.46087 -0.21733,0.69519 -0.14187,0.72861 -0.0153,1.45688 0.35292,2.03051 0.31653,0.49312 0.67385,0.81719 1.16407,1.05577 0.4571,0.22245 0.67921,0.26806 1.33425,0.27398 0.71047,0.006 0.68338,-0.007 0.8967,0.43859 0.20512,0.42829 0.32376,0.60641 0.59004,0.88587 0.34148,0.35839 0.7147,0.57868 1.236581,0.72992 0.49046,0.14213 0.90538,0.15548 1.32531,0.0426 z m -3.165941,-3.76494 c -0.29804,-0.15352 -0.3264,-0.55107 -0.0538,-0.75424 0.0562,-0.0418 0.152031,-0.0643 0.35359,-0.0828 0.537781,-0.0495 0.94752,-0.23514 1.30288,-0.5905 0.353891,-0.35389 0.538631,-0.76258 0.590482,-1.30627 0.0279,-0.29279 0.0689,-0.3826 0.21526,-0.47183 0.12759,-0.0778 0.344649,-0.0752 0.475589,0.006 0.119171,0.0736 0.208171,0.25037 0.208911,0.41485 8.73e-4,0.18802 -0.0824,0.64419 -0.159421,0.87363 -0.368029,1.09635 -1.37553,1.87217 -2.54374,1.95881 -0.23657,0.0176 -0.272061,0.0133 -0.38974,-0.0474 z m -0.39251,-6.82896 c -0.29608,-0.13577 -0.35655,-0.52553 -0.1145,-0.73805 0.10413,-0.0914 0.15447,-0.10518 0.49117,-0.13424 0.64451,-0.0556 1.25475,-0.4688 1.55896,-1.05554 0.13825,-0.26664 0.187451,-0.43709 0.233291,-0.80829 0.033,-0.267269 0.0522,-0.338229 0.10756,-0.397489 0.19609,-0.20995 0.4904,-0.20766 0.68913,0.005 0.0691,0.074 0.0722,0.0932 0.0712,0.429289 -0.002,0.42516 -0.0624,0.67281 -0.27213,1.1037 -0.38222,0.78523 -1.079441,1.3464 -1.924591,1.54903 -0.31834,0.0764 -0.72556,0.0987 -0.84009,0.0462 z m 5.742711,9.4777 0.31721,-0.13308 v -5.70174 c 0,-5.49387 0.002,-5.70542 0.0535,-5.80251 0.0798,-0.15005 0.21571,-0.2309 0.38833,-0.2309 0.18598,0 0.31643,0.0799 0.39473,0.24158 l 0.0599,0.12371 v 5.47098 c 0,3.00904 0.0107,5.47098 0.0238,5.47098 0.0358,0 0.98378,-0.48598 1.42515,-0.73058 2.476961,-1.37269 4.977641,-3.3117 6.14393,-4.76399 0.870541,-1.08402 1.461011,-2.37158 1.687261,-3.67923 0.20318,-1.17437 0.13179,-2.674629 -0.18478,-3.883029 -0.59828,-2.28371 -2.03648,-3.65083 -4.2729,-4.06172 -0.79781,-0.14658 -1.84741,-0.15324 -2.50896,-0.0159 -0.79102,0.1642 -1.75181,0.56872 -2.25567,0.94974 -0.66684,0.50424 -1.18682,1.24214 -1.43999,2.04343 -0.19107,0.60478 -0.17946,0.0983 -0.17946,7.827629 0,3.85424 0.007,7.00771 0.0154,7.00771 0.009,0 0.1581,-0.0599 0.33256,-0.13307 z m 0.54857,-12.932229 c -0.12087,-0.0662 -0.23022,-0.24407 -0.23088,-0.37563 -0.003,-0.51664 0.72065,-0.62216 0.86906,-0.12682 0.0478,0.15957 0.004,0.30684 -0.13042,0.43699 -0.12924,0.12525 -0.34718,0.15335 -0.50776,0.0654 z"
       id="path2096" />
    <path
       style="fill:#22002b;stroke-width:0.123897"
       d="m 14.618542,25.220774 c -0.87894,-0.82481 -1.28263,-1.00776 -2.21659,-1.0045 -0.93445,0.003 -1.59527,0.27718 -2.19866,0.91138 -0.5024398,0.5281 -0.9247898,0.57751 -1.7849298,0.20881 -0.75337,-0.32294 -0.95356,-0.66042 -0.93294,-1.5727 0.0193,-0.85455 -0.25378,-1.49553 -0.98012,-2.30048 -0.61427,-0.68074 -1.11544,-0.87922 -1.95517,-0.77431 -0.62145,0.0777 -0.68717,0.0596 -1.02891,-0.28211 -0.20303,-0.20303 -0.4511499,-0.65495 -0.5590199,-1.01819 -0.23142,-0.77929 -0.1727,-0.93467 0.6581799,-1.74169 1.13611,-1.10348 1.18825,-2.91004 0.11494,-3.98335 -0.6035799,-0.60358 -0.7480299,-0.89573 -0.6480899,-1.31073 0.13659,-0.5671 0.6506399,-1.50297 0.8983799,-1.63555 0.1276,-0.0683 0.61552,-0.1147 1.08427,-0.10314 0.95186,0.0235 1.43613,-0.16216 2.13279,-0.8176204 0.60738,-0.57146 0.80512,-1.02494 0.89452,-2.05149 0.0929,-1.06691 0.23632,-1.24151 1.29335,-1.57471 0.8095898,-0.2552 1.2843698,-0.11074 1.6092098,0.48963 0.29477,0.54478 0.69288,0.81203 1.41313,0.94862 0.66126,0.12541 1.78378,-9.26e-4 2.26929,-0.25557 0.15648,-0.082 0.46839,-0.33628 0.693131,-0.56497 0.49068,-0.49928 1.01725,-0.54671 1.77543,-0.15992 l 0.50156,0.25588 -0.60406,0.58043 c -0.7219,0.69366 -1.30422,1.51804 -1.7314,2.45112 -0.228591,0.4993204 -0.365361,0.6661104 -0.502891,0.6133404 -0.63765,-0.24469 -1.41359,-0.33919 -2.4227,-0.29506 -1.01132,0.0443 -1.26595,0.10531 -2.10978,0.50604 -1.2785098,0.60716 -2.1726498,1.50179 -2.7807398,2.78226 -0.4082,0.85954 -0.46223,1.0901 -0.505,2.15498 -0.0592,1.47307 0.15137,2.27905 0.93529,3.58048 0.47303,0.7853 0.68913,1.01064 1.39522,1.45483 1.0702698,0.67329 1.5068998,0.85178 2.5116598,1.02675 1.74888,0.30456 3.812401,-0.38011 5.031921,-1.66958 l 0.6096,-0.64455 0.4782,0.35702 c 0.26301,0.19637 0.82666,0.52875 1.25256,0.73862 0.42589,0.20988 0.77436,0.44601 0.77436,0.52473 0,0.0787 -0.24776,0.20941 -0.55057,0.2904 -0.61738,0.16513 -1.29093,0.70009 -1.68574,1.33891 -0.18493,0.29922 -0.27442,0.67513 -0.30026,1.26129 -0.0202,0.45926 -0.0795,0.93907 -0.13178,1.06624 -0.11639,0.28339 -1.23017,0.81904 -1.70646,0.8207 -0.24688,9.26e-4 -0.535161,-0.1743 -0.991181,-0.60224 z m 6.976651,-5.04103 c -1.76141,-0.37902 -3.68095,-1.72861 -4.6181,-3.24692 -1.14223,-1.85055 -1.42845,-4.052 -0.78634,-6.04797 0.80428,-2.5000604 2.85037,-4.3807804 5.42279,-4.9844904 0.91192,-0.21402 1.17677,-0.44357 1.03329,-0.89561 -0.0658,-0.2073 -0.19092,-0.24312 -0.84936,-0.24312 -0.43541,0 -0.83705,-0.0648 -0.92088,-0.14867 -0.19292,-0.19291 -0.19292,-1.3682 0,-1.56111 0.10415,-0.10416 0.78922,-0.14868 2.28774,-0.14868 2.39747,0 2.39558,-9.4e-4 2.39558,0.92923 0,0.78477 -0.15594,0.92923 -1.00301,0.92923 h -0.74651 l 0.0385,0.46097 c 0.0384,0.46039 0.0396,0.46129 0.96768,0.72608 1.26067,0.35967 1.9123,0.66694 2.76833,1.30535 1.77129,1.321 2.83206,3.4967104 2.83206,5.8087404 0,4.63017 -4.29091,8.09189 -8.82172,7.11697 z m 3.22983,-1.36731 c 1.00221,-0.29402 1.84518,-0.82229 2.63721,-1.65265 2.794959,-2.93022 1.961609,-7.6927404 -1.65614,-9.4647004 -1.73659,-0.85058 -3.70776,-0.85866 -5.32597,-0.0219 -0.22191,0.11475 -0.67202,0.28839 -1.00026,0.38587 -0.61653,0.18309 -1.106,0.64635 -1.106,1.04678 0,0.12222 -0.1929,0.54679 -0.42865,0.9435004 -1.30927,2.20312 -0.96739,5.159371 0.81458,7.043541 0.35517,0.375529 0.8338,0.79901 1.06363,0.94105 0.36032,0.22269 0.39592,0.28634 0.25851,0.4622 -0.1364,0.174559 -0.13258,0.183199 0.0265,0.06 0.14494,-0.1123 0.3767,-0.0789 1.05313,0.15167 1.05667,0.360229 2.63827,0.405399 3.66346,0.10463 z m -2.19442,-4.13218 c -0.72928,-0.31015 -0.86505,-1.20616 -0.29202,-1.92722 0.33908,-0.42667 0.37181,-0.55048 0.37305,-1.41089 0.002,-1.6402604 0.17328,-2.1469004 0.62936,-1.8657204 0.12713,0.0784 0.19146,0.49001 0.23656,1.5136404 0.0583,1.32219 0.083,1.43104 0.41564,1.82622 0.29711,0.353 0.3432,0.49843 0.28812,0.90908 -0.036,0.26887 -0.17068,0.59396 -0.29914,0.72243 -0.27351,0.2735 -0.9724,0.39371 -1.35157,0.23246 z m -3.6992,-6.0777904 c 0.12334,-0.13629 0.25213,-0.2478 0.2862,-0.2478 0.0341,0 -0.039,0.11151 -0.16231,0.2478 -0.12334,0.13629 -0.25213,0.24779 -0.2862,0.24779 -0.0341,0 0.039,-0.1115 0.16231,-0.24779 z"
       id="path2112" />
  </g>
</svg>
