<?xml version="1.0" encoding="UTF-8" standalone="no"?>
<svg
   xmlns:dc="http://purl.org/dc/elements/1.1/"
   xmlns:cc="http://creativecommons.org/ns#"
   xmlns:rdf="http://www.w3.org/1999/02/22-rdf-syntax-ns#"
   xmlns:svg="http://www.w3.org/2000/svg"
   xmlns="http://www.w3.org/2000/svg"
   xmlns:sodipodi="http://sodipodi.sourceforge.net/DTD/sodipodi-0.dtd"
   xmlns:inkscape="http://www.inkscape.org/namespaces/inkscape"
   width="89mm"
   height="85mm"
   viewBox="0 0 89 85"
   version="1.1"
   id="svg8"
   inkscape:version="1.0.1 (3bc2e813f5, 2020-09-07)"
   sodipodi:docname="programar.svg">
  <defs
     id="defs2" />
  <sodipodi:namedview
     id="base"
     pagecolor="#ffffff"
     bordercolor="#666666"
     borderopacity="1.0"
     inkscape:pageopacity="0.0"
     inkscape:pageshadow="2"
     inkscape:zoom="0.35"
     inkscape:cx="400"
     inkscape:cy="560"
     inkscape:document-units="mm"
     inkscape:current-layer="g243"
     inkscape:document-rotation="0"
     showgrid="false"
     inkscape:window-width="1258"
     inkscape:window-height="728"
     inkscape:window-x="92"
     inkscape:window-y="0"
     inkscape:window-maximized="0" />
  <metadata
     id="metadata5">
    <rdf:RDF>
      <cc:Work
         rdf:about="">
        <dc:format>image/svg+xml</dc:format>
        <dc:type
           rdf:resource="http://purl.org/dc/dcmitype/StillImage" />
        <dc:title></dc:title>
      </cc:Work>
    </rdf:RDF>
  </metadata>
  <g
     inkscape:label="Capa 1"
     inkscape:groupmode="layer"
     id="layer1">
    <g
       id="g243"
       transform="translate(-228.58641,-82.587305)">
      <path
         style="opacity:1;fill:#5500d4;stroke-width:0.144034"
         d="m 245.69881,160.64221 c -3.67573,-0.64498 -6.43144,-2.06993 -9.04165,-4.67535 -3.06982,-3.06418 -5.10172,-7.29823 -5.68608,-11.84867 -1.21285,-9.44409 3.27911,-18.15384 11.12325,-21.56764 3.10084,-1.34947 7.72337,-1.40419 11.02547,-0.13036 3.0586,1.17977 5.89889,3.4617 7.91437,6.35847 0.78555,1.12907 1.87226,3.09895 1.92671,3.49259 0.0157,0.11146 0.12924,0.37848 0.25292,0.59365 0.38243,0.66521 1.17755,3.71125 1.39369,5.33921 0.24661,1.8572 0.16905,5.34779 -0.15315,6.89201 -0.87412,4.19002 -2.41868,7.37713 -4.92065,10.1538 -2.36678,2.62658 -5.03683,4.28696 -8.209,5.10483 -0.91723,0.23648 -4.78916,0.43439 -5.6259,0.28757 z m 0.1638,-9.87385 c 0.17306,-0.18687 0.67988,-1.76617 2.86406,-8.92475 2.69718,-8.83983 2.90445,-9.5733 2.75443,-9.74678 -0.0787,-0.0908 -0.5134,-0.16535 -0.96612,-0.16535 -0.61515,0 -0.87584,0.0684 -1.03177,0.27102 -0.18122,0.2354 -1.68447,5.06422 -4.87751,15.66795 -0.47233,1.56856 -0.81143,2.90481 -0.75352,2.96947 0.27717,0.30947 1.70465,0.25865 2.01043,-0.0715 z m -3.20447,-3.99968 c 0.21179,-0.24485 0.20691,-1.70336 -0.006,-2.00392 -0.092,-0.12954 -0.5291,-0.41802 -0.97113,-0.64097 -0.44204,-0.22295 -1.65985,-0.88079 -2.70625,-1.46188 l -1.90256,-1.05651 2.63928,-1.37064 c 1.45159,-0.75385 2.74476,-1.50946 2.87369,-1.67913 0.34686,-0.45647 0.28905,-1.71074 -0.10413,-2.25783 -0.0612,-0.0853 -7.36067,4.18374 -7.46211,4.36413 -0.19001,0.33786 -0.11207,1.76809 0.11043,2.02529 0.19912,0.23019 7.08625,4.26731 7.27988,4.26731 0.0487,0 0.1611,-0.0836 0.2495,-0.18585 z m 14.25822,-1.97467 c 1.82295,-1.0376 3.40523,-1.99152 3.51619,-2.11981 0.2858,-0.33044 0.27363,-1.80698 -0.0172,-2.08935 -0.12043,-0.11691 -1.82326,-1.12722 -3.78409,-2.24513 -2.83611,-1.61693 -3.60084,-1.99416 -3.73968,-1.84477 -0.24433,0.26289 -0.25598,1.74282 -0.0157,2.01789 0.10472,0.11994 1.33922,0.83137 2.74331,1.58086 1.4041,0.7495 2.56778,1.42357 2.58597,1.49794 0.0182,0.0743 -0.52786,0.42895 -1.2134,0.78796 -0.68554,0.35903 -1.51772,0.79605 -1.84925,0.97119 -0.33152,0.17507 -1.0032,0.52719 -1.49265,0.78232 -0.84453,0.44024 -0.89456,0.49598 -0.98196,1.09404 -0.15361,1.05186 0.15047,1.79977 0.64318,1.58201 0.16006,-0.0709 1.78254,-0.97754 3.6055,-2.01515 z m -21.59871,-7.98388 c 2.09872,-2.42769 3.78569,-4.414 3.74887,-4.414 -0.037,0 -1.78411,1.98631 -3.8828,4.414 -2.09871,2.42768 -3.78569,4.41399 -3.74884,4.41399 0.037,0 1.78409,-1.98631 3.88277,-4.41399 z m 27.05796,-5.09197 c 0,-0.0321 -0.10553,-0.15402 -0.23441,-0.27103 -0.21245,-0.19266 -0.21719,-0.18717 -0.0507,0.0586 0.17497,0.25801 0.28498,0.34004 0.28498,0.21257 z m 1.74135,20.99779 c 0,-0.0681 0.0559,-0.1901 0.12426,-0.27102 0.46241,-0.54788 1.86803,-4.52193 2.22954,-6.3035 l 0.0864,-0.42591 h 3.91625 c 3.62576,0 3.9327,0.0211 4.13821,0.28362 0.12209,0.15603 0.17664,0.34139 0.1212,0.41201 -0.0554,0.0706 -0.0216,0.0755 0.0754,0.0114 0.14033,-0.0937 0.12926,-0.17761 -0.0542,-0.41201 -0.22102,-0.28238 -0.21559,-0.29438 0.1332,-0.29438 0.25196,0 0.33453,0.0595 0.26901,0.19358 -0.0756,0.15495 -0.0584,0.15495 0.0859,0 0.1427,-0.15328 4.67253,-0.19358 21.71354,-0.19358 h 21.53311 l 0.0912,0.56206 c 0.11979,0.73822 -0.0213,3.69188 -0.2119,4.43694 -0.17374,0.67903 -0.81414,1.57821 -1.35384,1.90091 -0.32227,0.1927 -2.91668,0.22442 -18.35424,0.22442 -16.92828,0 -17.99505,-0.0164 -18.25507,-0.27104 -0.263,-0.25813 -0.26749,-0.25813 -0.0946,0 0.17224,0.25715 -0.10496,0.27104 -5.4102,0.27104 -5.30533,0 -5.58245,-0.0146 -5.41021,-0.27104 0.17288,-0.25813 0.16839,-0.25813 -0.0946,0 -0.24151,0.23705 -0.58974,0.27104 -2.77716,0.27104 -1.37557,0 -2.50101,-0.0558 -2.50101,-0.12386 z m 6.44671,-1.38615 c 0.1666,-0.24563 0.16188,-0.2511 -0.0507,-0.0586 -0.12894,0.1169 -0.23442,0.23887 -0.23442,0.27103 0,0.12755 0.10997,0.0454 0.28501,-0.21255 z m 13.47496,-0.78418 c 0.0164,-0.0164 0.12195,-0.23455 0.23442,-0.48587 0.32358,-0.72352 0.26005,-1.36099 -0.1872,-1.87811 l -0.39154,-0.45271 h -3.73413 c -2.80177,0 -3.77914,-0.0483 -3.91451,-0.19362 -0.12816,-0.13739 -0.15425,-0.13979 -0.09,-0.008 0.0524,0.1078 -0.0379,0.26487 -0.21477,0.37377 -0.16783,0.10337 -0.37856,0.29854 -0.46831,0.43369 -0.25673,0.38663 -0.20851,1.47521 0.084,1.89351 0.23595,0.33754 0.37735,0.37157 1.84181,0.44306 1.33293,0.0652 6.74543,-0.0345 6.84034,-0.12589 z m -12.40337,-0.45483 c 0.16663,-0.24564 0.16187,-0.25113 -0.0507,-0.0586 -0.12894,0.11691 -0.23441,0.23887 -0.23441,0.27104 0,0.12743 0.10997,0.0454 0.28498,-0.21256 z m 1.07162,-1.23901 c 0.16661,-0.24565 0.16186,-0.25112 -0.0507,-0.0586 -0.12893,0.1169 -0.23442,0.23887 -0.23442,0.27103 0,0.12757 0.10997,0.0454 0.28499,-0.21255 z m 1.07159,-1.23901 c 0.16662,-0.24565 0.16188,-0.25113 -0.0507,-0.0586 -0.12894,0.11689 -0.23441,0.23886 -0.23441,0.27102 0,0.12758 0.10996,0.0454 0.285,-0.21255 z m -6.91553,-6.69893 v -2.63262 l 21.1778,1.2e-4 21.17783,1.1e-4 0.45515,-0.35157 c 0.79064,-0.61066 0.92353,-1.13516 0.92378,-3.64564 1.3e-4,-1.72791 0.0372,-2.19207 0.16765,-2.10684 0.13399,0.0874 0.13399,0.0676 0,-0.0993 -0.13196,-0.16443 -0.16746,-4.1241 -0.16746,-18.71388 V 94.858913 l -0.28773,-0.68727 c -0.21942,-0.52404 -0.42348,-0.7567 -0.85923,-0.97955 -0.55517,-0.28392 -1.39972,-0.29113 -29.57335,-0.25218 l -29.00187,0.04 -0.37816,0.32593 c -0.88222,0.76037 -0.83307,0.005 -0.85076,13.073027 -0.009,6.51525 -0.0461,11.99248 -0.0828,12.17163 -0.0633,0.30915 -0.17345,0.33016 -2.1668,0.41275 -1.15507,0.048 -2.20559,0.13516 -2.33453,0.19418 -0.25357,0.11602 -0.23923,1.47352 -0.24901,-23.587927 -10e-4,-5.95732 0.002,-6.09467 0.28567,-6.62233 0.15843,-0.29638 0.54428,-0.71248 0.85744,-0.92468 l 0.56939,-0.38582 h 33.81793 33.81793 l 0.60517,0.44373 c 1.18198,0.86672 1.08259,-1.46838 1.06783,25.088777 -0.008,12.91726 -0.0127,23.7558 -0.0127,24.08568 -5e-5,0.54789 -0.0203,0.58159 -0.23445,0.38985 -0.1991,-0.17837 -0.19682,-0.15879 0.0157,0.12882 0.21549,0.29239 0.24708,0.58836 0.23115,2.16561 -0.0175,1.72103 -0.0397,1.86189 -0.38356,2.43042 -0.20079,0.3319 -0.57512,0.73265 -0.83183,0.89052 -0.44937,0.27638 -1.34665,0.28705 -24.11104,0.28665 l -23.64422,-2.7e-4 v -2.6326 z m 11.20193,1.74285 c 0.16663,-0.24561 0.16188,-0.2511 -0.0507,-0.0586 -0.12894,0.11691 -0.23442,0.23885 -0.23442,0.27101 0,0.12743 0.10997,0.0454 0.28499,-0.21255 z m 1.07162,-1.23899 c 0.16661,-0.24565 0.16186,-0.25112 -0.0507,-0.0586 -0.12894,0.1169 -0.23442,0.23889 -0.23442,0.27105 0,0.12756 0.10997,0.0454 0.28499,-0.21255 z m 1.07159,-1.23901 c 0.16661,-0.24565 0.16188,-0.2511 -0.0507,-0.0586 -0.12894,0.11691 -0.2344,0.23886 -0.2344,0.27103 0,0.12756 0.10997,0.0454 0.28499,-0.21256 z m 1.0716,-1.23902 c 0.16662,-0.24563 0.16188,-0.25112 -0.0507,-0.0586 -0.12894,0.11691 -0.23441,0.23888 -0.23441,0.27103 0,0.12757 0.10996,0.0454 0.28496,-0.21254 z m 33.47047,-2.26545 c 0,-0.0321 -0.10552,-0.15421 -0.23441,-0.27106 -0.21244,-0.19263 -0.21719,-0.18715 -0.0507,0.0586 0.17498,0.25799 0.285,0.34003 0.285,0.21257 z m -1.07158,-1.23903 c 0,-0.0321 -0.10554,-0.15403 -0.23443,-0.27102 -0.21246,-0.19266 -0.21719,-0.18717 -0.0507,0.0586 0.17499,0.258 0.28498,0.34004 0.28498,0.21256 z m -1.07163,-1.23901 c 0,-0.0321 -0.10553,-0.15419 -0.23439,-0.27105 -0.21245,-0.19264 -0.21721,-0.18715 -0.0507,0.0586 0.17499,0.25798 0.28498,0.34003 0.28498,0.21256 z m -1.07159,-1.239 c 0,-0.0321 -0.10554,-0.15421 -0.23441,-0.27104 -0.21245,-0.19264 -0.2172,-0.18718 -0.0507,0.0586 0.17496,0.25796 0.28496,0.34 0.28496,0.21255 z m 0.017,-28.70986 c 0.1666,-0.24565 0.16187,-0.25112 -0.0507,-0.0586 -0.12894,0.11691 -0.23441,0.23887 -0.23441,0.27103 0,0.12758 0.10997,0.0454 0.28498,-0.21255 z m 1.07158,-1.23901 c 0.16663,-0.24564 0.16188,-0.25113 -0.0506,-0.0586 -0.12895,0.1169 -0.23442,0.23887 -0.23442,0.27104 0,0.12744 0.10996,0.0454 0.28498,-0.21255 z m 1.07163,-1.23903 c 0.1666,-0.24562 0.16187,-0.2511 -0.0507,-0.0586 -0.12894,0.11691 -0.2344,0.23886 -0.2344,0.27102 0,0.12742 0.10995,0.0454 0.28498,-0.21256 z m 1.07157,-1.239 c 0.16663,-0.24565 0.16191,-0.25113 -0.0507,-0.0586 -0.12893,0.11691 -0.2344,0.23889 -0.2344,0.27105 0,0.12742 0.10997,0.0454 0.285,-0.21257 z m 0.80372,-0.929247 c 0.1666,-0.24565 0.16188,-0.25112 -0.0507,-0.0586 -0.12894,0.11691 -0.2344,0.23887 -0.2344,0.27103 0,0.12756 0.10998,0.0454 0.28499,-0.21256 z m -39.2645,-7.06666 c 0,-0.0321 -0.10553,-0.15402 -0.23442,-0.27102 -0.21246,-0.19267 -0.21719,-0.18718 -0.0507,0.0586 0.17499,0.25799 0.285,0.34003 0.285,0.21255 z m -0.93767,-1.07412 c 0,-0.0267 -0.17077,-0.23764 -0.37952,-0.46887 -0.26137,-0.28952 -0.37953,-0.34888 -0.37953,-0.19066 0,0.1264 0.0422,0.1996 0.0938,0.1628 0.0515,-0.0368 0.20154,0.0709 0.33332,0.23915 0.22479,0.28721 0.33201,0.37038 0.33201,0.25762 z m -1.20555,-1.40389 c 0,-0.0321 -0.10553,-0.15421 -0.23442,-0.27104 -0.21243,-0.19264 -0.21718,-0.18717 -0.0506,0.0586 0.17499,0.25799 0.285,0.34001 0.285,0.21257 z m -1.07161,-1.23902 c 0,-0.0321 -0.10553,-0.15404 -0.2344,-0.27103 -0.21245,-0.19265 -0.21719,-0.18716 -0.0507,0.0586 0.175,0.25801 0.28497,0.34004 0.28497,0.21255 z m -6.60445,40.154307 c -0.55403,-0.37265 -0.5246,-1.64626 0.0462,-1.99946 0.15551,-0.0963 5.60427,-0.15165 14.92136,-0.15165 14.49775,0 14.6796,0.004 14.94426,0.30976 0.17731,0.20502 0.26789,0.51626 0.26789,0.92048 0,1.17633 1.16235,1.09347 -15.26664,1.08821 -9.99935,-0.004 -14.74824,-0.0564 -14.91306,-0.16739 z m -3.98922,-4.363 c -0.55477,-0.49248 -0.61743,-1.37427 -0.13353,-1.88054 0.20919,-0.21888 2.22244,-0.24351 20.02435,-0.2451 10.88548,-8e-4 19.84761,0.0381 19.91585,0.0869 0.0682,0.0488 0.21282,0.28707 0.32128,0.52959 0.25322,0.56618 0.06,1.28223 -0.413,1.53148 -0.49981,0.2633 -39.41776,0.24145 -39.71488,-0.0224 z m -3.87295,-4.60264 c -0.39885,-0.46118 -0.35718,-1.2902 0.085,-1.69241 0.35134,-0.31954 0.40967,-0.32099 12.86802,-0.32099 7.90732,0 12.6053,0.0558 12.76011,0.15166 0.2952,0.18274 0.5615,0.99257 0.44809,1.36281 -0.0449,0.14671 -0.17229,0.38863 -0.28303,0.53771 -0.18908,0.25457 -0.97229,0.27104 -12.90582,0.27104 -12.5259,0 -12.70827,-0.004 -12.97242,-0.30977 z m 6.62446,-10.60202 c -0.40182,-0.46457 -0.41945,-0.99357 -0.0511,-1.53491 l 0.27762,-0.40808 14.75828,0.001 c 8.11706,10e-4 14.82462,0.0537 14.90566,0.11615 0.22032,0.1701 0.45542,0.7469 0.45542,1.11735 0,0.17981 -0.14791,0.49802 -0.32879,0.70711 l -0.32879,0.38014 h -14.67971 -14.67973 z m -3.76272,-4.14811 c -0.6162,-0.32219 -0.75204,-1.33237 -0.25627,-1.9056 l 0.32832,-0.37961 19.77607,0.0382 19.77606,0.0382 0.25607,0.36564 c 0.32699,0.46694 0.32699,1.12492 0,1.59187 l -0.25604,0.36562 -19.44333,0.0402 c -14.76045,0.0305 -19.42011,-0.004 -19.34697,-0.14007 0.0664,-0.12412 0.0377,-0.13796 -0.0918,-0.0444 -0.26863,0.19382 -0.41753,0.19986 -0.74213,0.0302 z m 25.53572,-0.3314 c 0,-0.0321 -0.10553,-0.15419 -0.23441,-0.27103 -0.21246,-0.19261 -0.21719,-0.18715 -0.0507,0.0586 0.17496,0.25798 0.28498,0.34003 0.28498,0.21255 z m -1.07161,-1.23898 c 0,-0.0321 -0.10553,-0.15419 -0.23441,-0.27104 -0.21246,-0.19266 -0.21719,-0.18717 -0.0507,0.0586 0.175,0.25798 0.28502,0.34003 0.28502,0.21256 z m -28.39745,-3.03906 c -0.41386,-0.47851 -0.40277,-1.322337 0.023,-1.742357 0.25709,-0.25369 1.03115,-0.27103 12.08763,-0.27103 9.26488,0 11.85189,0.0417 11.99336,0.1936 0.1443,0.15494 0.16149,0.15494 0.086,0 -0.0708,-0.14488 0.0933,-0.1936 0.6501,-0.1936 0.56605,0 0.80889,0.0743 1.01254,0.30976 0.2818,0.32581 0.35748,1.145267 0.14207,1.538787 -0.10565,0.19323 -0.15378,0.19323 -0.3663,0 -0.21874,-0.19882 -0.22702,-0.19626 -0.0783,0.0242 0.0914,0.13558 0.12655,0.29243 0.0781,0.34848 -0.0484,0.056 -5.77433,0.10185 -12.72411,0.10185 -12.45737,0 -12.63975,-0.004 -12.90388,-0.30975 z m 25.18266,-0.677977 c 0,-0.0321 -0.10553,-0.15404 -0.23441,-0.27103 -0.21247,-0.19266 -0.21719,-0.18717 -0.0507,0.0586 0.175,0.257977 0.285,0.340027 0.285,0.21255 z"
         id="path3056" />
    </g>
  </g>
</svg>
