<?xml version="1.0" encoding="UTF-8" standalone="no"?>
<svg
   xmlns:dc="http://purl.org/dc/elements/1.1/"
   xmlns:cc="http://creativecommons.org/ns#"
   xmlns:rdf="http://www.w3.org/1999/02/22-rdf-syntax-ns#"
   xmlns:svg="http://www.w3.org/2000/svg"
   xmlns="http://www.w3.org/2000/svg"
   xmlns:sodipodi="http://sodipodi.sourceforge.net/DTD/sodipodi-0.dtd"
   xmlns:inkscape="http://www.inkscape.org/namespaces/inkscape"
   width="31mm"
   height="28mm"
   viewBox="0 0 31 28"
   version="1.1"
   id="svg8"
   inkscape:version="1.0.1 (3bc2e813f5, 2020-09-07)"
   sodipodi:docname="quehago.svg"
   inkscape:export-filename="C:\Users\Rosio\Documents\Portafolio web\images\home.png"
   inkscape:export-xdpi="94.342857"
   inkscape:export-ydpi="94.342857">
  <defs
     id="defs2" />
  <sodipodi:namedview
     id="base"
     pagecolor="#ffffff"
     bordercolor="#666666"
     borderopacity="1.0"
     inkscape:pageopacity="0.0"
     inkscape:pageshadow="2"
     inkscape:zoom="3.9943548"
     inkscape:cx="113.28488"
     inkscape:cy="52.913386"
     inkscape:document-units="mm"
     inkscape:current-layer="layer1"
     inkscape:document-rotation="0"
     showgrid="false"
     inkscape:window-width="1104"
     inkscape:window-height="623"
     inkscape:window-x="54"
     inkscape:window-y="46"
     inkscape:window-maximized="0" />
  <metadata
     id="metadata5">
    <rdf:RDF>
      <cc:Work
         rdf:about="">
        <dc:format>image/svg+xml</dc:format>
        <dc:type
           rdf:resource="http://purl.org/dc/dcmitype/StillImage" />
        <dc:title></dc:title>
      </cc:Work>
    </rdf:RDF>
  </metadata>
  <g
     inkscape:label="Capa 1"
     inkscape:groupmode="layer"
     id="layer1">
    <g
       id="g1177"
       transform="translate(-14.937621,-73.099467)">
      <ellipse
         style="fill:none;stroke:#800080;stroke-width:0.301913"
         id="ellipse16"
         cx="29.973946"
         cy="86.214851"
         rx="12.09059"
         ry="9.5611315" />
      <path
         style="fill:#000000;stroke-width:0.152115"
         d="m 22.927346,90.676088 c -0.694253,-0.05031 -1.279864,-0.159725 -1.376242,-0.257046 -0.09227,-0.09318 -0.169075,-1.336711 -0.170678,-2.76342 -0.0029,-2.577306 -7e-6,-2.59566 0.448265,-2.850973 l 0.451177,-0.25697 -0.466397,-0.554888 c -0.648125,-0.771082 -0.563337,-1.825325 0.198142,-2.463701 1.34985,-1.131633 3.969202,-1.112952 5.159103,0.03677 0.563552,0.54453 0.769121,0.533309 0.940653,-0.05136 0.158461,-0.540125 1.071327,-1.44277 1.79007,-1.770018 1.22195,-0.556377 3.697761,-0.544069 4.862858,0.02418 0.332602,0.162212 0.85877,0.588886 1.169257,0.948161 0.476586,0.551466 0.563947,0.785875 0.560791,1.50469 -0.0036,0.889553 -0.27267,1.365508 -1.151261,2.038748 -0.411339,0.315186 -0.421377,0.361638 -0.163465,0.756335 0.151126,0.231274 0.274776,0.559104 0.274776,0.728515 0,0.169394 0.07628,0.308 0.169512,0.308 0.09323,0 0.967852,-0.301647 1.943592,-0.670344 0.975745,-0.368674 1.862498,-0.651541 1.970559,-0.628552 0.123147,0.02626 0.217999,0.900577 0.254157,2.342864 0.05973,2.38361 -0.05708,3.578284 -0.350025,3.578284 -0.09342,0 -0.946297,-0.301074 -1.895284,-0.669009 -0.948985,-0.367959 -1.797079,-0.669015 -1.884656,-0.669015 -0.08758,0 -0.212916,0.205253 -0.278538,0.456135 -0.180641,0.690661 -0.370487,0.798184 -1.57972,0.894626 -1.409609,0.112431 -9.280381,0.103731 -10.876646,-0.01198 z m 10.910114,-0.472454 0.570685,-0.07797 v -2.49238 -2.492378 l -5.76168,-0.03218 c -3.756007,-0.02093 -5.891578,0.01223 -6.134857,0.0955 -0.350543,0.119975 -0.373183,0.267134 -0.373183,2.425872 0,1.927046 0.04824,2.329019 0.298926,2.489301 0.258501,0.165282 1.011135,0.189201 5.56418,0.176757 2.895886,-0.0073 5.522048,-0.04949 5.835929,-0.09242 z m 5.188208,-2.548824 c 0.04061,-1.631078 -0.0014,-2.088241 -0.191024,-2.088241 -0.133685,0 -0.948935,0.278494 -1.811659,0.618883 l -1.56859,0.618882 v 0.895347 0.895341 l 1.564225,0.615542 c 0.860322,0.338542 1.652149,0.596852 1.759614,0.574009 0.120824,-0.02569 0.215246,-0.838419 0.247434,-2.129763 z M 26.074462,84.212235 c 1.362446,-0.803036 1.307165,-2.159574 -0.109701,-2.691991 -0.527897,-0.198363 -0.922793,-0.247625 -1.803765,-0.225006 -0.843988,0.02165 -2.022571,0.835185 -2.022571,1.396069 0,0.656398 0.54547,1.40829 1.217702,1.67853 0.780503,0.313769 2.042774,0.240576 2.718335,-0.157602 z m 2.953345,-0.135722 c -0.301293,-0.284327 -0.602326,-0.612757 -0.668968,-0.729833 -0.193619,-0.34013 -0.449416,-0.249379 -0.778258,0.276151 -0.550001,0.878954 -0.470238,0.970637 0.844512,0.970637 H 29.5756 Z m 4.132857,0.385469 c 1.200043,-0.164568 2.155379,-0.817262 2.48597,-1.698437 0.812085,-2.164575 -2.788234,-3.781744 -5.487961,-2.465031 -2.487323,1.213107 -1.24882,4.136851 1.814694,4.283986 0.125634,0.0058 0.659915,-0.0482 1.187297,-0.120518 z"
         id="path1139"
         inkscape:transform-center-x="-1.9677849"
         inkscape:transform-center-y="0.61410026" />
    </g>
  </g>
</svg>
