<?xml version="1.0" encoding="UTF-8" standalone="no"?>
<!-- Created with Inkscape (http://www.inkscape.org/) -->

<svg
   xmlns:dc="http://purl.org/dc/elements/1.1/"
   xmlns:cc="http://creativecommons.org/ns#"
   xmlns:rdf="http://www.w3.org/1999/02/22-rdf-syntax-ns#"
   xmlns:svg="http://www.w3.org/2000/svg"
   xmlns="http://www.w3.org/2000/svg"
   xmlns:sodipodi="http://sodipodi.sourceforge.net/DTD/sodipodi-0.dtd"
   xmlns:inkscape="http://www.inkscape.org/namespaces/inkscape"
   width="61mm"
   height="61mm"
   viewBox="0 0 61 61"
   version="1.1"
   id="svg8"
   inkscape:version="0.92.4 (5da689c313, 2019-01-14)"
   sodipodi:docname="senalogo.svg">
  <defs
     id="defs2" />
  <sodipodi:namedview
     id="base"
     pagecolor="#ffffff"
     bordercolor="#666666"
     borderopacity="1.0"
     inkscape:pageopacity="0.0"
     inkscape:pageshadow="2"
     inkscape:zoom="0.35"
     inkscape:cx="42.857143"
     inkscape:cy="560"
     inkscape:document-units="mm"
     inkscape:current-layer="layer1"
     showgrid="false"
     inkscape:window-width="1366"
     inkscape:window-height="705"
     inkscape:window-x="-8"
     inkscape:window-y="-8"
     inkscape:window-maximized="1" />
  <metadata
     id="metadata5">
    <rdf:RDF>
      <cc:Work
         rdf:about="">
        <dc:format>image/svg+xml</dc:format>
        <dc:type
           rdf:resource="http://purl.org/dc/dcmitype/StillImage" />
        <dc:title></dc:title>
      </cc:Work>
    </rdf:RDF>
  </metadata>
  <g
     inkscape:label="Capa 1"
     inkscape:groupmode="layer"
     id="layer1"
     transform="translate(0,-236)">
    <path
       inkscape:connector-curvature="0"
       style="opacity:1;fill:#000000;stroke-width:0.244478"
       d="m 20.263668,292.8333 c -0.91439,-0.41529 -1.70229,-0.79679 -1.75088,-0.8478 -0.0486,-0.051 1.71565,-3.39852 3.92055,-7.43891 2.20489,-4.0404 4.9605,-9.09323 6.12358,-11.2285 1.163071,-2.13528 2.187231,-3.96043 2.275911,-4.05589 0.0887,-0.0955 1.391619,2.04606 2.895439,4.75896 1.50382,2.71289 3.397001,6.11603 4.20706,7.5625 0.810051,1.44647 2.447711,4.37636 3.63923,6.51085 l 2.1664,3.88089 -2.04103,0.81561 c -1.122579,0.44859 -2.116579,0.76661 -2.208919,0.70671 -0.0923,-0.0599 -1.827141,-2.99966 -3.855162,-6.5328 -2.406689,-4.19288 -3.895468,-6.53884 -4.286718,-6.75484 -1.14404,-0.63161 -1.55856,-0.0974 -5.323571,6.86033 -1.9452,3.59474 -3.66332,6.53185 -3.81804,6.52691 -0.15473,-0.005 -1.02946,-0.34875 -1.94385,-0.76402 z m 19.060431,-13.82302 c -3.51695,-6.36806 -6.598951,-11.94459 -6.848901,-12.39232 l -0.454469,-0.81402 h 13.386739 13.38674 v 2.25424 2.25425 l -8.173009,0.004 c -9.135141,0.004 -9.318921,0.0334 -9.434621,1.5049 -0.0577,0.73461 0.567341,2.02719 3.994441,8.25981 2.2346,4.06391 4.064069,7.44882 4.06549,7.52203 0.0021,0.0732 -0.7918,0.77496 -1.762691,1.55941 l -1.765279,1.42627 -6.39444,-11.57827 z M 14.409418,289.0573 c -0.8531,-0.69505 -1.53681,-1.41706 -1.51937,-1.60447 0.0174,-0.18741 0.77809,-1.66918 1.69033,-3.29281 3.63233,-6.46493 5.9284,-10.7344 6.20805,-11.5437 0.35298,-1.02149 0.0852,-1.71162 -0.8013,-2.06541 -0.33575,-0.13399 -4.14579,-0.23848 -8.69541,-0.23848 h -8.09783 v -2.25425 -2.25424 h 13.38586 13.38583 l -0.58895,1.0645 c -0.32392,0.58547 -2.57502,4.6713 -5.00243,9.0796 -2.42741,4.40831 -5.20614,9.45009 -6.17496,11.20396 -0.96882,1.75388 -1.86887,3.18441 -2.00011,3.17895 -0.13125,-0.006 -0.93662,-0.57859 -1.78971,-1.27365 z M 8.6177381,264.30824 c -1.41457,-0.27035 -2.5878,-0.97112 -2.97024,-1.77415 l -0.29168,-0.61247 1.92788,-0.0732 c 1.61464,-0.0613 1.97765,-0.002 2.23416,0.36648 0.43654,0.62662 3.0287699,0.64081 3.6211699,0.0198 0.66859,-0.70086 0.003,-1.11663 -2.30902,-1.44192 -3.3915999,-0.47723 -4.2490999,-0.73427 -4.7704599,-1.42994 -0.70449,-0.94008 -0.61836,-1.98816 0.2319,-2.82184 2.15474,-2.11273 10.2656199,-1.29404 10.2656199,1.03617 0,0.40783 -0.20887,0.46213 -1.77785,0.46213 -1.4161,0 -1.82345,-0.0855 -2.00197,-0.42034 -0.34099,-0.63956 -2.9121299,-0.78537 -3.4727299,-0.19693 -0.69443,0.7289 -0.0324,1.05597 2.9669899,1.46585 3.99175,0.54549 4.76281,0.96109 4.76281,2.56714 0,1.26313 -0.3759,1.8253 -1.60081,2.39403 -1.23703,0.57436 -4.9162,0.82223 -6.8157699,0.45918 z m 9.7688099,-0.17412 c -0.0875,-0.0918 -0.15908,-2.0643 -0.15908,-4.38326 v -4.21627 h 4.89187 4.89187 v 0.87665 0.87665 h -3.34079 -3.34079 v 0.87666 0.87665 h 3.10216 3.10216 v 0.87665 0.87665 h -3.10216 -3.10216 v 0.87665 0.87665 h 3.34079 3.34079 v 0.87665 0.87665 h -4.73278 c -2.60304,0 -4.80438,-0.0752 -4.89188,-0.16698 z m 10.8178,-4.21627 v -4.38326 h 2.365491 2.36551 l 1.94082,3.00566 c 1.06744,1.65311 2.0184,3.00566 2.11325,3.00566 0.0948,0 0.17044,-1.32436 0.167969,-2.94304 l -0.005,-2.94305 1.491409,-0.0746 1.491429,-0.0746 v 4.35075 4.35074 l -1.73006,0.0497 c -2.801009,0.0805 -2.791658,0.0862 -4.928521,-3.08772 -1.052769,-1.56375 -2.025538,-2.91545 -2.161709,-3.00378 -0.165978,-0.10769 -0.247578,0.87593 -0.247578,2.98507 v 3.14568 h -1.431761 -1.43177 z m 13.60179,4.22991 c 0,-0.0988 0.99183,-2.0772 2.20408,-4.39641 l 2.204071,-4.21676 h 2.062009 c 1.36715,0 2.139961,0.1055 2.293321,0.31309 0.127239,0.1722 0.773848,1.38385 1.436939,2.69257 0.663091,1.30872 1.58209,3.07585 2.042232,3.92695 0.460129,0.85111 0.7752,1.61191 0.700148,1.69068 -0.17589,0.18464 -2.408388,0.17979 -3.07031,-0.007 -0.27931,-0.0787 -0.625999,-0.41527 -0.770429,-0.74799 -0.25191,-0.58033 -0.358781,-0.60495 -2.625051,-0.60495 h -2.36243 l -0.28226,0.71525 c -0.27179,0.68872 -0.348139,0.71709 -2.057289,0.76458 -0.97627,0.0271 -1.775031,-0.0315 -1.775031,-0.13034 z m 7.344021,-4.73086 c -0.42068,-0.89543 -0.822359,-1.62614 -0.89263,-1.62379 -0.10064,0.004 -0.88092,1.70042 -1.40044,3.04586 -0.0437,0.1133 0.62638,0.206 1.4892,0.206 h 1.568749 z m -21.381851,-6.59879 c -1.4807,-0.55417 -3.01086,-1.99036 -3.64384,-3.42008 -0.5436,-1.22783 -0.60947,-4.25939 -0.1193,-5.49076 0.50613,-1.27144 2.04152,-2.92005 3.23909,-3.47795 1.43888,-0.6703 3.820461,-0.67049 5.263641,-4.1e-4 1.283139,0.59576 2.445359,1.76382 3.158749,3.17459 0.689811,1.36419 0.724361,4.35544 0.0655,5.6693 -1.64106,3.27225 -4.862042,4.70616 -7.963791,3.5453 z"
       id="path30-8" />
  </g>
</svg>
