<?xml version="1.0" encoding="UTF-8" standalone="no"?>
<svg
   xmlns:dc="http://purl.org/dc/elements/1.1/"
   xmlns:cc="http://creativecommons.org/ns#"
   xmlns:rdf="http://www.w3.org/1999/02/22-rdf-syntax-ns#"
   xmlns:svg="http://www.w3.org/2000/svg"
   xmlns="http://www.w3.org/2000/svg"
   xmlns:sodipodi="http://sodipodi.sourceforge.net/DTD/sodipodi-0.dtd"
   xmlns:inkscape="http://www.inkscape.org/namespaces/inkscape"
   width="25mm"
   height="28mm"
   viewBox="0 0 25 28"
   version="1.1"
   id="svg8"
   inkscape:version="1.0.1 (3bc2e813f5, 2020-09-07)"
   sodipodi:docname="servicio.svg">
  <defs
     id="defs2" />
  <sodipodi:namedview
     id="base"
     pagecolor="#ffffff"
     bordercolor="#666666"
     borderopacity="1.0"
     inkscape:pageopacity="0.0"
     inkscape:pageshadow="2"
     inkscape:zoom="0.35"
     inkscape:cx="400"
     inkscape:cy="560"
     inkscape:document-units="mm"
     inkscape:current-layer="layer1"
     inkscape:document-rotation="0"
     showgrid="false"
     inkscape:window-width="1258"
     inkscape:window-height="728"
     inkscape:window-x="92"
     inkscape:window-y="0"
     inkscape:window-maximized="0" />
  <metadata
     id="metadata5">
    <rdf:RDF>
      <cc:Work
         rdf:about="">
        <dc:format>image/svg+xml</dc:format>
        <dc:type
           rdf:resource="http://purl.org/dc/dcmitype/StillImage" />
        <dc:title></dc:title>
      </cc:Work>
    </rdf:RDF>
  </metadata>
  <g
     inkscape:label="Capa 1"
     inkscape:groupmode="layer"
     id="layer1">
    <path
       style="fill:#000000;stroke-width:0.0987917"
       d="m 3.6524555,26.133548 c -0.11479,-0.047 -0.30369,-0.20619 -0.41988,-0.3539 -0.18281,-0.23241 -0.21122,-0.39747 -0.21122,-1.22732 0,-1.9823 0.66381,-3.54803 2.11713,-4.99365 0.95454,-0.94948 1.82869,-1.49469 2.93217,-1.8288 0.55678,-0.16858 0.57499,-0.16805 0.74687,0.0219 0.29829,0.32962 1.5995595,1.1549 2.0192495,1.28062 0.25269,0.0757 0.44565,0.21164 0.52971,0.37317 0.18588,0.35715 0.53657,0.66344 0.96422,0.84211 0.48119,0.20106 2.91229,0.20789 3.84208,0.0104 0.90188,-0.19117 1.77606,-0.65683 2.43962,-1.29952 0.52702,-0.51047 0.57419,-0.53471 0.80758,-0.41499 0.13633,0.0699 0.64977,0.52738 1.14096,1.01657 1.45998,1.454 2.12008,3.01189 2.12008,5.00356 0,0.93274 -0.0116,0.98313 -0.28825,1.2932 l -0.28825,0.32263 -9.12171,0.0195 c -5.0169595,0.0104 -9.2156095,-0.0189 -9.3303595,-0.0659 z m 8.7990695,-7.06219 c -0.30857,-0.30857 -0.31717,-0.74069 -0.0202,-1.0154 0.20176,-0.18664 0.36819,-0.2091 1.80296,-0.24334 1.38576,-0.033 1.63092,-0.0641 1.98812,-0.25183 0.45941,-0.24143 0.89151,-0.71058 1.08941,-1.182826 0.18994,-0.45329 0.17361,-1.40017 -0.0281,-1.62296 -0.15245,-0.16845 -0.17705,-0.14466 -0.45189,0.43678 -0.68074,1.44025 -0.88366,1.55348 -2.78388,1.55348 -1.57091,0 -1.83075,0.0587 -2.31228,0.523306 l -0.32511,0.3136 -0.53933,-0.28238 c -0.67693,-0.35442 -1.6085095,-1.340516 -1.9926695,-2.109286 l -0.29317,-0.5867 -0.31381,0.28038 c -0.57811,0.51655 -1.61152,0.31813 -1.93917,-0.37234 -0.11788,-0.24841 -0.14978,-0.724461 -0.14978,-2.234931 v -1.91928 l 0.28361,-0.4367999 c 0.16034,-0.24697 0.31001,-0.64227 0.34435,-0.90953 0.0334,-0.26002 0.19523,-0.7935 0.35958,-1.18552 1.56051,-3.72221 6.1731495,-4.96619 9.4047195,-2.53633 0.6495,0.48836 1.40776,1.38066 1.75735,2.06798 0.23557,0.46317 0.59459,1.6405 0.59459,1.94985 0,0.13585 0.10933,0.377 0.24305,0.53586 0.33539,0.3985899 0.36689,0.6618399 0.33138,2.7698899 -0.029,1.717581 -0.0455,1.860441 -0.24047,2.074591 -0.16066,0.17647 -0.22391,0.41189 -0.27177,1.01164 -0.13329,1.670236 -1.0675,2.890366 -2.61117,3.410396 -0.50974,0.17172 -0.85089,0.2042 -2.14503,0.2042 -1.50216,0 -1.54468,-0.006 -1.78137,-0.2425 z M 9.7756055,8.3753511 c 0.4193095,-0.44912 0.7869595,-0.72336 1.3285695,-0.99104 0.71581,-0.35376 0.79288,-0.3701 1.74701,-0.3701 0.95415,0 1.03121,0.0164 1.74701,0.3701 0.88916,0.43945 1.78451,1.33084 2.20975,2.2 l 0.27508,0.5622499 0.18402,-0.2324799 c 0.24645,-0.31133 0.17011,-0.81945 -0.25754,-1.71437 -0.80445,-1.68344 -2.29891,-2.62786 -4.15832,-2.62786 -2.13188,0 -3.9337995,1.36882 -4.4642395,3.39121 -0.15569,0.59362 -0.15485,0.63756 0.0173,0.90024 l 0.18094,0.2761499 0.30537,-0.5715799 c 0.16795,-0.31437 0.56624,-0.85101 0.88509,-1.19252 z"
       id="path2066" />
  </g>
</svg>
