<?xml version="1.0" encoding="UTF-8" standalone="no"?>
<svg
   xmlns:dc="http://purl.org/dc/elements/1.1/"
   xmlns:cc="http://creativecommons.org/ns#"
   xmlns:rdf="http://www.w3.org/1999/02/22-rdf-syntax-ns#"
   xmlns:svg="http://www.w3.org/2000/svg"
   xmlns="http://www.w3.org/2000/svg"
   xmlns:sodipodi="http://sodipodi.sourceforge.net/DTD/sodipodi-0.dtd"
   xmlns:inkscape="http://www.inkscape.org/namespaces/inkscape"
   width="323"
   height="279"
   viewBox="0 0 85.460626 73.818677"
   version="1.1"
   id="svg8"
   inkscape:version="1.0.1 (3bc2e813f5, 2020-09-07)"
   sodipodi:docname="Sociable.svg">
  <defs
     id="defs2" />
  <sodipodi:namedview
     id="base"
     pagecolor="#ffffff"
     bordercolor="#666666"
     borderopacity="1.0"
     inkscape:pageopacity="0.0"
     inkscape:pageshadow="2"
     inkscape:zoom="1.1749267"
     inkscape:cx="400.62992"
     inkscape:cy="156.96611"
     inkscape:document-units="mm"
     inkscape:current-layer="layer1"
     inkscape:document-rotation="0"
     showgrid="false"
     inkscape:window-width="1258"
     inkscape:window-height="728"
     inkscape:window-x="99"
     inkscape:window-y="-5"
     inkscape:window-maximized="0"
     units="px" />
  <metadata
     id="metadata5">
    <rdf:RDF>
      <cc:Work
         rdf:about="">
        <dc:format>image/svg+xml</dc:format>
        <dc:type
           rdf:resource="http://purl.org/dc/dcmitype/StillImage" />
        <dc:title></dc:title>
      </cc:Work>
    </rdf:RDF>
  </metadata>
  <g
     inkscape:label="Capa 1"
     inkscape:groupmode="layer"
     id="layer1">
    <path
       style="fill:#002a43;fill-opacity:1;stroke-width:0.175622"
       d="M 36.460387,73.164518 C 33.316604,72.217666 31.294223,69.91861 31.077706,67.045559 l -0.09944,-1.319542 -1.416499,-0.07423 c -2.669766,-0.140637 -4.903238,-1.469208 -6.177756,-3.67509 -0.584648,-1.011849 -0.700717,-1.393549 -0.781372,-2.569316 l -0.09473,-1.380948 -1.448672,-0.09052 C 17.2677,57.699805 14.341525,55.040592 14.124731,51.634481 l -0.08356,-1.312243 -1.482565,-0.09256 C 9.8007063,50.057594 7.4957283,48.618143 6.320124,46.333317 5.3494589,44.446791 5.3257376,42.286131 6.2554155,40.439279 L 6.7079568,39.540299 5.9310524,38.652854 C 4.4102514,36.915609 4.335679,36.80474 2.8791455,34.114648 1.6875636,31.913864 0.75831499,29.092513 0.42433493,26.661468 0.17910389,24.876271 0.33413064,21.304688 0.73328653,19.543344 2.1497523,13.293821 6.2699455,7.7931838 12.057793,4.4247472 16.801604,1.6639104 22.728444,0.35684534 28.231616,0.85797903 30.138555,1.0321027 34.056762,1.8182442 34.844525,2.185514 c 0.179725,0.083982 0.782547,0.3306724 1.339618,0.5483477 0.557059,0.2173239 1.040459,0.4524494 1.074227,0.5215206 0.03344,0.069317 0.158067,0.1255943 0.276199,0.1255943 0.358081,2.041e-4 3.122352,1.5592212 4.262943,2.4042557 l 1.070543,0.7931678 0.479226,-0.4088976 c 0.845683,-0.7215266 3.381407,-2.1987468 4.898933,-2.8539309 0.810281,-0.3498726 1.680414,-0.7338366 1.933624,-0.8533911 0.766421,-0.3616647 3.353928,-1.0549504 5.08745,-1.3626016 2.249898,-0.39919179 6.728571,-0.39348468 9.092441,0.012095 2.086329,0.3576205 5.164925,1.2620467 6.708003,1.9704809 6.210376,2.8512399 10.897552,7.7259272 13.059328,13.5819242 0.9568,2.591865 1.134872,3.776193 1.125479,7.485269 -0.0087,3.412188 -0.01254,3.44795 -0.689185,5.778195 -0.830563,2.861963 -2.464249,5.979139 -4.279327,8.165247 l -1.216987,1.465802 0.517752,1.13022 c 0.444224,0.969767 0.517926,1.357462 0.518948,2.730215 0.0014,1.510412 -0.03686,1.670499 -0.684952,2.862371 -1.255006,2.309287 -3.636441,3.803024 -6.312131,3.959153 l -1.330536,0.07748 -0.1157,1.277501 c -0.160118,1.767829 -1.019244,3.342747 -2.506798,4.595338 -1.317241,1.109096 -2.675564,1.629925 -4.563718,1.749763 l -1.335114,0.08481 v 0.696491 c 0,1.849664 -1.004399,3.853216 -2.609028,5.204279 -1.338558,1.127162 -2.692469,1.628783 -4.572989,1.694392 l -1.381163,0.04853 -0.03154,1.138947 c -0.06953,2.53592 -1.935953,5.010555 -4.623323,6.129886 -0.722063,0.300927 -1.214699,0.362912 -2.895785,0.365746 -1.838086,0.0029 -2.129867,-0.04078 -3.150429,-0.469574 l -1.124738,-0.472712 -1.177185,0.45934 c -1.402954,0.547493 -3.988899,0.717853 -5.228595,0.344959 z m 3.520773,-2.917499 c 0.269663,-0.161047 -5.162138,-5.311887 -5.438082,-5.156774 -0.355117,0.199787 -0.247663,2.617267 0.141842,3.191346 0.937927,1.382497 2.28044,2.085636 3.985356,2.087348 0.607717,6.13e-4 1.19762,-0.05382 1.310922,-0.121928 z m 9.022432,-0.233652 c 1.002274,-0.428472 2.213732,-1.737045 2.387362,-2.578776 0.162133,-0.786074 -0.06091,-2.223699 -0.440359,-2.838027 -0.170682,-0.276473 -2.050951,-2.057743 -4.178393,-3.958624 -4.137512,-3.696799 -4.35374,-3.830871 -6.168336,-3.824877 -3.053289,0.0121 -5.067997,3.078806 -3.72868,5.679315 0.453896,0.881326 7.412143,7.152948 8.378829,7.552102 1.08018,0.445881 2.664538,0.432792 3.749577,-0.0325 z m -17.8314,-7.413865 c 0.408697,-0.131302 0.774572,-0.209576 0.813009,-0.174918 0.03853,0.03666 0.296717,-0.102766 0.573907,-0.305803 0.444011,-0.325381 0.513336,-0.509044 0.582156,-1.54185 0.101033,-1.516569 0.471175,-2.591457 1.268252,-3.683265 1.287645,-1.763873 3.345768,-2.863471 5.736178,-3.06486 l 1.409296,-0.11864 0.06953,-0.920796 c 0.110912,-1.4698 0.439911,-2.442912 1.174951,-3.475473 1.350267,-1.896803 3.321653,-2.979109 5.807533,-3.188534 l 1.419122,-0.119471 0.0695,-0.920879 c 0.110913,-1.469759 0.439915,-2.442909 1.174955,-3.475473 1.378674,-1.936681 3.390678,-3.023474 5.885568,-3.17895 l 1.451301,-0.09052 0.08564,-1.359177 c 0.130595,-2.072219 0.818253,-3.22735 2.873957,-4.827795 1.505986,-1.172381 4.357004,-1.767013 6.238022,-1.30107 2.210347,0.547576 2.775454,0.904241 5.887494,3.715844 2.510157,2.26786 3.031651,2.666281 3.262074,2.492331 0.544509,-0.410977 2.524212,-3.203702 3.061144,-4.318346 0.302036,-0.626883 0.627801,-1.264492 0.72399,-1.416793 0.336427,-0.532731 1.110311,-3.757718 1.315353,-5.481267 C 82.6668,20.701862 80.616582,14.895611 76.754748,10.833133 69.312761,3.0044923 56.564858,1.4526905 47.325511,7.2506641 c -1.653273,1.0374965 -1.933624,1.2432928 -1.933624,1.4194423 0,0.079106 1.818224,1.8044876 4.040487,3.8336876 3.579514,3.268535 4.108448,3.821819 4.63617,4.849081 1.80874,3.521062 0.11589,7.563312 -3.888645,9.285719 -0.899679,0.386961 -1.239184,0.435646 -3.038551,0.435646 -3.134128,0 -3.321429,-0.104807 -8.405957,-4.712647 -2.293741,-2.07858 -4.265586,-3.750341 -4.381886,-3.71515 -0.116308,0.03666 -5.725659,5.071798 -12.465222,11.192266 -7.636789,6.935288 -12.3952896,11.380404 -12.62938,11.797745 -0.7798492,1.390324 -0.3946799,3.336099 0.894953,4.521081 1.170729,1.075824 3.254072,1.420458 4.760487,0.78754 0.473729,-0.198993 2.281113,-1.723382 5.064249,-4.271129 2.380189,-2.178926 4.586022,-4.110591 4.901821,-4.292698 1.25376,-0.72283 2.648503,-0.117846 2.648503,1.148895 0,0.552309 -0.337449,0.902612 -4.857224,5.041952 -5.24324,4.801988 -5.356246,4.943191 -5.319215,6.648186 0.04518,2.079925 1.945571,3.738639 4.2835,3.738639 1.801091,0 2.252998,-0.302968 7.370773,-4.942825 4.390282,-3.980319 4.744039,-4.261589 5.359624,-4.261589 0.934116,0 1.63364,0.619793 1.63364,1.447294 0,0.594549 -0.239037,0.844302 -4.779144,4.992855 -3.101101,2.833707 -4.879258,4.58494 -5.064249,4.987556 -0.403164,0.877577 -0.369252,2.504403 0.06836,3.284724 0.51144,0.911785 1.423499,1.654432 2.49006,2.027692 1.133584,0.39675 1.499345,0.412367 2.457083,0.105222 z m 26.368571,-0.344959 c 2.050913,-0.945223 2.9349,-3.261933 1.958592,-5.133088 -0.454479,-0.871049 -7.552231,-7.317638 -8.477706,-7.699913 -1.486764,-0.614202 -3.540534,-0.29847 -4.73943,0.727767 -1.305116,1.117498 -1.72916,3.189592 -0.934393,4.565974 0.380085,0.658242 7.702222,7.406779 8.423074,7.763239 0.202599,0.09989 0.93043,0.184291 1.617472,0.187163 0.973074,0.0029 1.448794,-0.08644 2.152391,-0.41118 z m 8.405881,-7.690332 c 2.012019,-0.852049 2.903537,-2.867995 2.160575,-4.885576 -0.260886,-0.708476 -0.828713,-1.304412 -4.009497,-4.208048 -4.058938,-3.705326 -4.615758,-4.060441 -6.377386,-4.066761 -3.219378,-0.01209 -5.308063,3.080969 -3.843562,5.690813 0.459723,0.819265 7.460393,7.117636 8.365225,7.526004 1.042577,0.470592 2.512957,0.448209 3.704645,-0.05628 z m 8.457066,-7.698443 c 1.085837,-0.45991 1.764589,-1.13389 2.209926,-2.194426 0.377193,-0.898247 0.289991,-2.252934 -0.201231,-3.126716 -0.509267,-0.905874 -7.147258,-6.900059 -8.240352,-7.44115 -1.054592,-0.522012 -2.112205,-0.605763 -3.389546,-0.268726 -1.073936,0.283806 -1.782348,0.878673 -2.41328,2.026955 -0.445645,0.81111 -0.52559,1.13544 -0.462838,1.877557 0.04168,0.493386 0.236871,1.201495 0.433599,1.573614 0.522,0.98718 7.804055,7.49954 8.649342,7.735101 1.12288,0.313173 2.406452,0.244234 3.414396,-0.182666 z M 21.116033,26.222398 c 7.019383,-6.413117 12.275185,-11.086332 12.619276,-11.220446 0.44055,-0.171667 0.720004,-0.185538 1.104919,-0.05465 0.28338,0.09623 2.628409,2.086411 5.211177,4.422083 3.201432,2.895192 4.922867,4.331476 5.409001,4.513129 0.39218,0.146382 1.159631,0.266269 1.705435,0.266269 3.196123,0 5.265107,-3.035542 3.840784,-5.635113 C 50.383186,17.375824 40.773982,8.7108725 38.714949,7.4298675 37.301261,6.550337 34.114699,5.086693 32.869386,4.7449503 30.822641,4.1831851 30.175245,4.0635096 28.128991,3.8684397 25.41565,3.6099188 22.688779,3.8134095 19.978577,4.4772602 17.836936,5.001759 14.237405,6.5848707 12.578584,7.7317284 8.8505519,10.309197 5.8245209,14.192018 4.5482632,18.035574 3.3254517,21.718227 3.254527,25.945361 4.3557717,29.508335 c 0.3911917,1.265758 0.4620519,1.437954 1.3439603,3.266011 0.7380223,1.52982 2.8480846,4.394065 3.2621162,4.42807 0.068584,0.0083 5.5379088,-4.935485 12.1541888,-10.980313 z"
       id="path630" />
  </g>
</svg>
