<?xml version="1.0" encoding="UTF-8" standalone="no"?>
<svg
   xmlns:dc="http://purl.org/dc/elements/1.1/"
   xmlns:cc="http://creativecommons.org/ns#"
   xmlns:rdf="http://www.w3.org/1999/02/22-rdf-syntax-ns#"
   xmlns:svg="http://www.w3.org/2000/svg"
   xmlns="http://www.w3.org/2000/svg"
   xmlns:sodipodi="http://sodipodi.sourceforge.net/DTD/sodipodi-0.dtd"
   xmlns:inkscape="http://www.inkscape.org/namespaces/inkscape"
   width="89mm"
   height="85mm"
   viewBox="0 0 89 85"
   version="1.1"
   id="svg8"
   inkscape:version="1.0.1 (3bc2e813f5, 2020-09-07)"
   sodipodi:docname="vectorizar.svg">
  <defs
     id="defs2" />
  <sodipodi:namedview
     id="base"
     pagecolor="#ffffff"
     bordercolor="#666666"
     borderopacity="1.0"
     inkscape:pageopacity="0.0"
     inkscape:pageshadow="2"
     inkscape:zoom="0.35"
     inkscape:cx="400"
     inkscape:cy="445.71429"
     inkscape:document-units="mm"
     inkscape:current-layer="g243"
     inkscape:document-rotation="0"
     showgrid="false"
     inkscape:window-width="1258"
     inkscape:window-height="728"
     inkscape:window-x="92"
     inkscape:window-y="0"
     inkscape:window-maximized="0" />
  <metadata
     id="metadata5">
    <rdf:RDF>
      <cc:Work
         rdf:about="">
        <dc:format>image/svg+xml</dc:format>
        <dc:type
           rdf:resource="http://purl.org/dc/dcmitype/StillImage" />
        <dc:title></dc:title>
      </cc:Work>
    </rdf:RDF>
  </metadata>
  <g
     inkscape:label="Capa 1"
     inkscape:groupmode="layer"
     id="layer1">
    <g
       id="g243"
       transform="translate(-228.58641,-82.587305)">
      <path
         style="opacity:1;fill:#7f2aff;stroke-width:0.0846667"
         d="m 289.79631,155.51305 -5.18531,-5.18532 -1.39746,1.39555 -1.39746,1.39553 -0.48632,-0.48633 -0.48633,-0.48634 9.41824,-9.41823 9.41825,-9.41825 0.48636,0.48636 0.48635,0.48634 -1.46118,1.46298 -1.46118,1.46297 5.22816,5.22637 5.22817,5.22636 -0.48556,0.48556 -0.48557,0.48558 -5.14343,-5.14291 c -2.82889,-2.8286 -5.18152,-5.14291 -5.22808,-5.14291 -0.0466,0 -2.57998,2.49554 -5.62983,5.54565 l -5.54518,5.54566 5.14326,5.14377 c 2.82879,2.82908 5.14325,5.18318 5.14325,5.23136 0,0.11 -0.78119,0.88556 -0.892,0.88556 -0.045,0 -2.41523,-2.33339 -5.26715,-5.18531 z m -10.92817,-5.34015 -0.44454,-0.45012 0.72699,-0.73522 c 0.67644,-0.68408 0.71071,-0.7352 0.49294,-0.7352 -0.23198,0 -0.23034,-0.004 0.18611,-0.4445 l 0.42015,-0.4445 -0.43909,0.41483 -0.4391,0.41481 -0.61925,-0.0581 c -0.34057,-0.032 -1.62492,-0.15063 -2.85411,-0.26373 -2.11622,-0.19471 -2.25216,-0.21759 -2.56018,-0.43105 -0.19556,-0.13554 -0.35582,-0.33085 -0.40181,-0.48978 -0.0421,-0.14537 -0.48308,-1.29302 -0.97999,-2.55032 -0.95259,-2.41031 -1.44089,-3.65114 -2.63214,-6.68867 -0.40177,-1.02448 -1.01553,-2.58658 -1.3639,-3.47133 -0.34838,-0.88477 -0.80567,-2.04682 -1.01621,-2.58235 -0.21054,-0.5355 -0.46269,-1.17377 -0.56034,-1.41834 l -0.17753,-0.4447 0.24848,-0.27497 0.2485,-0.27499 -0.25959,0.23377 -0.2596,0.23375 -0.47866,-1.20743 c -0.73877,-1.86363 -2.21073,-5.60387 -2.55767,-6.49909 -0.17145,-0.44237 -0.66631,-1.69967 -1.09967,-2.794 -0.43337,-1.09432 -1.02535,-2.59927 -1.31553,-3.34432 -0.29017,-0.74508 -0.63718,-1.62087 -0.77113,-1.94621 l -0.24355,-0.59155 0.45058,-0.45058 0.45058,-0.45057 1.22178,0.4724 c 0.67199,0.25983 1.31704,0.51426 1.43346,0.56541 0.11642,0.0512 0.45932,0.1809 0.762,0.28831 0.30268,0.10742 0.95038,0.35332 1.43933,0.54645 0.48895,0.19314 1.13665,0.44079 1.43934,0.55034 0.30268,0.10954 0.93133,0.34866 1.397,0.53136 1.3009,0.51037 8.00996,3.08908 8.46666,3.25424 0.1397,0.0505 0.27087,0.10626 0.2915,0.12385 0.0206,0.0176 -0.18892,0.26909 -0.46564,0.55892 l -0.50314,0.52695 0.56116,-0.53766 c 0.46589,-0.44637 0.58808,-0.52358 0.71964,-0.45472 0.14442,0.0756 3.26312,1.27963 6.00048,2.31667 0.60538,0.22933 1.19593,0.45771 1.31234,0.50751 0.11641,0.0498 0.47836,0.18591 0.80434,0.30248 0.32596,0.11657 0.70696,0.26434 0.84666,0.32839 0.1397,0.0641 0.46355,0.1913 0.71966,0.28279 0.25613,0.0915 0.86573,0.32308 1.35468,0.51467 0.48895,0.19158 1.47955,0.57296 2.20132,0.8475 0.72179,0.27455 1.71239,0.656 2.20134,0.84764 0.48895,0.19166 1.1176,0.4269 1.397,0.52279 0.3934,0.13501 0.55992,0.24765 0.73813,0.49931 0.21957,0.31006 0.23798,0.41735 0.40117,2.33846 0.0941,1.10744 0.20679,2.35642 0.25048,2.77552 l 0.0794,0.762 -0.60761,0.63497 -0.60763,0.635 0.61385,-0.59039 0.61383,-0.59039 v 0.27291 c 0,0.15009 0.0211,0.2729 0.0468,0.2729 0.0257,0 0.37451,-0.32628 0.77507,-0.72504 l 0.72831,-0.72503 0.45331,0.44769 c 0.24933,0.24623 0.4434,0.47744 0.43128,0.51381 -0.0297,0.0892 -18.71725,18.77657 -18.77669,18.77657 -0.0258,0 -0.24688,-0.20256 -0.49137,-0.45013 z m 3.54065,-4.6337 c 0.81491,-0.79164 1.51976,-1.48105 1.56634,-1.53204 0.0466,-0.051 1.62771,-1.63212 3.51366,-3.51363 1.88595,-1.88151 3.45328,-3.44866 3.48296,-3.48255 0.0297,-0.0339 0.81073,-0.83448 1.73567,-1.7791 0.92493,-0.94459 1.69372,-1.77167 1.7084,-1.83795 0.0442,-0.19969 -0.52246,-6.71547 -0.58808,-6.76152 -0.0172,-0.0121 -0.60279,-0.23729 -1.30129,-0.50047 -0.6985,-0.26319 -1.97485,-0.75015 -2.83632,-1.08216 -0.86149,-0.33201 -1.85209,-0.71265 -2.20134,-0.84583 -0.34925,-0.1332 -1.03505,-0.39927 -1.524,-0.59126 -0.48895,-0.19198 -1.0795,-0.41892 -1.31234,-0.5043 -0.23282,-0.0854 -1.18532,-0.44709 -2.11666,-0.8038 -0.93134,-0.3567 -1.97909,-0.75787 -2.32834,-0.89146 -0.34925,-0.13359 -1.03505,-0.39868 -1.524,-0.58905 -0.48895,-0.1904 -1.25095,-0.48287 -1.69332,-0.64997 -0.97073,-0.36666 -2.63928,-1.00996 -3.048,-1.17515 -0.16299,-0.0659 -0.81069,-0.31303 -1.43934,-0.54928 -0.62865,-0.23622 -1.27635,-0.48309 -1.43934,-0.54855 -0.46171,-0.18551 -1.71017,-0.66626 -2.96333,-1.14115 -0.62865,-0.23822 -1.27635,-0.48751 -1.43933,-0.55396 -0.16299,-0.0664 -0.81069,-0.31452 -1.43934,-0.55126 -0.62865,-0.23675 -1.32767,-0.50749 -1.55339,-0.60165 -0.2257,-0.0942 -0.42421,-0.15738 -0.44111,-0.14047 -0.0169,0.0169 1.96663,2.02783 4.40786,4.46873 4.22449,4.22392 4.4318,4.4455 4.29782,4.59357 -0.13417,0.14824 -0.35562,-0.0583 -4.71714,-4.39936 l -4.57637,-4.5549 4.55271,4.57417 4.5527,4.57415 -0.32129,0.31373 -0.32128,0.31373 -4.39707,-4.39767 c -2.41839,-2.41874 -4.40887,-4.38588 -4.42329,-4.37147 -0.0144,0.0144 0.16079,0.49867 0.38933,1.07612 0.57353,1.44906 1.10107,2.79057 2.59368,6.59558 0.2466,0.62866 0.77593,1.9741 1.17627,2.9899 0.40035,1.01579 0.72791,1.89 0.72791,1.9427 0,0.0527 -0.10477,0.21219 -0.23284,0.35444 l -0.23283,0.25862 0.27229,-0.2459 0.27228,-0.24592 0.0874,0.22991 c 0.0481,0.12645 0.16197,0.40855 0.25308,0.62691 0.0911,0.21835 0.38002,0.94945 0.642,1.62468 0.262,0.67522 0.67967,1.74202 0.92817,2.37067 0.863,2.18324 2.55993,6.48895 3.38686,8.59365 0.4574,1.16418 1.01199,2.57388 1.23242,3.13268 l 0.4008,1.016 1.13068,0.10963 c 2.35789,0.22861 5.28593,0.50413 5.44867,0.51267 0.11115,0.006 0.67858,-0.48581 1.651,-1.43046 z m -3.35602,-7.99665 c -0.95734,-0.2082 -2.04572,-0.9025 -2.64318,-1.68616 -0.63986,-0.83925 -1.00947,-2.14145 -0.9104,-3.20745 0.062,-0.667 0.4353,-1.70132 0.77463,-2.14619 l 0.23108,-0.30296 -2.67861,-2.67959 -2.67861,-2.67958 0.48636,-0.48635 0.48634,-0.48635 2.68356,2.68259 2.68357,2.68256 0.53447,-0.26744 c 0.66927,-0.33492 1.19517,-0.45097 2.05847,-0.45423 0.84976,-0.003 1.33904,0.10899 2.0613,0.47273 1.82953,0.92132 2.84924,2.99863 2.43457,4.95955 -0.20225,0.95644 -0.57416,1.63761 -1.28242,2.34881 -1.1503,1.15508 -2.64798,1.59652 -4.24113,1.25006 z m 2.45729,-1.59625 c 0.6862,-0.33924 0.9349,-0.57206 1.35045,-1.26425 0.74254,-1.2368 0.52638,-2.87494 -0.51515,-3.90407 -1.83363,-1.81179 -4.84042,-0.91016 -5.43927,1.63104 -0.14896,0.6321 -0.0557,1.36616 0.25905,2.03989 0.30584,0.65455 0.55325,0.93659 1.17453,1.33893 0.63069,0.40842 1.09868,0.52893 1.90039,0.48929 0.55304,-0.0273 0.77098,-0.0841 1.27,-0.33083 z m -3.41927,-5.50315 c 0,-0.0161 -0.0857,-0.10179 -0.1905,-0.1905 l -0.1905,-0.16129 0.16129,0.1905 c 0.15156,0.17902 0.21971,0.22904 0.21971,0.16129 z m -0.42334,-0.41575 c 0,-0.0119 -1.32397,-1.33587 -2.94216,-2.94217 l -2.94216,-2.92055 2.92053,2.94218 c 2.71432,2.7344 2.96379,2.98024 2.96379,2.92054 z m -39.27303,-0.88711 -0.87671,-0.8883 0.45337,-0.47733 0.45338,-0.4773 -0.47173,0.44786 -0.47174,0.44786 -1.1581,-1.16078 -1.1581,-1.16079 v -0.50605 -0.50606 l 1.39753,-1.40424 1.39752,-1.40425 0.48528,0.48529 0.48528,0.48528 -1.1836,1.18587 -1.1836,1.18587 1.60852,1.60851 1.60851,1.60852 1.60728,-1.60894 1.60728,-1.60895 -1.60597,-1.60764 -1.60597,-1.60764 -0.40517,0.39908 -0.40517,0.39907 -0.4795,-0.4795 -0.4795,-0.4795 0.62305,-0.64028 0.62306,-0.64027 h 0.51552 0.51551 l 0.75847,0.762 c 0.41716,0.4191 0.7974,0.762 0.84499,0.762 0.0476,0 6.35258,-6.26637 14.01112,-13.92527 l 13.92461,-13.925293 -0.82253,-0.83719 -0.82252,-0.83719 v -0.45765 -0.45766 l 2.10686,-2.0942 2.10687,-2.09421 h 0.45897 0.45897 l 2.09083,2.09291 2.09084,2.0929 v 0.51139 0.51139 l -1.69327,1.69168 -1.69328,1.69169 -0.48598,-0.48599 -0.48598,-0.48598 1.47936,-1.48118 1.47937,-1.48117 -0.69975,-0.70341 c -0.38486,-0.38687 -0.67951,-0.72998 -0.65478,-0.76248 0.0247,-0.0325 0.0183,-0.0388 -0.0143,-0.0139 -0.0326,0.0248 -0.46174,-0.35606 -0.95364,-0.84643 l -0.89437,-0.8916 -1.47884,1.48066 -1.47885,1.48066 -0.50968,-0.48606 -0.50967,-0.48607 0.49525,0.51897 c 0.30413,0.31869 0.45933,0.54117 0.40217,0.5765 -0.0512,0.0316 -0.0931,0.0845 -0.0931,0.11754 0,0.033 0.38615,0.4527 0.85811,0.93264 l 0.85811,0.87263 -0.37127,0.39586 -0.37128,0.39586 0.39656,-0.37196 0.39657,-0.37196 0.69623,0.68879 c 0.56223,0.55622 0.71916,0.66977 0.81534,0.58995 0.0958,-0.0795 0.21278,-0.005 0.59806,0.38012 l 0.47896,0.47896 -0.33221,0.34022 c -0.31569,0.3233 -0.35776,0.34022 -0.84596,0.34022 h -0.51375 l -0.75847,-0.762 c -0.41716,-0.4191 -0.79736,-0.76103 -0.8449,-0.75985 -0.0475,0.001 -6.35249,6.269323 -14.01101,13.929173 l -13.92458,13.927 0.82241,0.82552 0.82241,0.8255 v 0.46479 0.4648 l -2.09612,2.09485 -2.09612,2.09488 -0.50738,-0.0102 -0.50738,-0.0102 z m 4.72904,-1.99428 c 0,-0.0134 -0.20003,-0.21342 -0.4445,-0.4445 l -0.4445,-0.42015 0.42015,0.4445 c 0.39041,0.41303 0.46885,0.48333 0.46885,0.42015 z m 2.37066,-6.876 c 2.07183,-2.0722 3.74791,-3.76765 3.72462,-3.76765 -0.0233,0 -1.73746,1.69545 -3.80928,3.76765 -2.07183,2.07222 -3.74791,3.76767 -3.72462,3.76767 0.0233,0 1.73746,-1.69545 3.80928,-3.76767 z m 17.489,-17.67415 0.24867,-0.27517 -0.27517,0.24867 c -0.15135,0.13678 -0.27517,0.2606 -0.27517,0.27517 0,0.0654 0.0699,0.008 0.30167,-0.24867 z m 0.62967,-0.61384 c 0.15796,-0.16298 0.26817,-0.29633 0.24489,-0.29633 -0.0233,0 -0.17159,0.13335 -0.32956,0.29633 -0.15797,0.16299 -0.26816,0.29634 -0.24488,0.29634 0.0233,0 0.17158,-0.13335 0.32955,-0.29634 z m 0.67733,-0.67733 c 0.15797,-0.16298 0.26816,-0.29633 0.24489,-0.29633 -0.0233,0 -0.17158,0.13335 -0.32956,0.29633 -0.15796,0.16298 -0.26816,0.29633 -0.24488,0.29633 0.0233,0 0.17158,-0.13335 0.32955,-0.29633 z m 0.67733,-0.67733 c 0.15798,-0.16299 0.26818,-0.29634 0.24488,-0.29634 -0.0233,0 -0.17158,0.13335 -0.32954,0.29634 -0.15797,0.16298 -0.26817,0.29633 -0.24488,0.29633 0.0233,0 0.17158,-0.13335 0.32954,-0.29633 z m 0.67734,-0.677343 c 0.15796,-0.16298 0.26817,-0.29633 0.24489,-0.29633 -0.0233,0 -0.17159,0.13335 -0.32956,0.29633 -0.15797,0.162993 -0.26816,0.296343 -0.24488,0.296343 0.0233,0 0.17158,-0.13335 0.32955,-0.296343 z m 0.67733,-0.67733 c 0.15797,-0.16298 0.26816,-0.29633 0.24489,-0.29633 -0.0233,0 -0.17158,0.13335 -0.32956,0.29633 -0.15796,0.16298 -0.26816,0.29633 -0.24488,0.29633 0.0233,0 0.17158,-0.13335 0.32955,-0.29633 z m 0.67733,-0.67733 c 0.15798,-0.16299 0.26818,-0.29634 0.24488,-0.29634 -0.0233,0 -0.17158,0.13335 -0.32954,0.29634 -0.15797,0.16298 -0.26817,0.29633 -0.24488,0.29633 0.0233,0 0.17158,-0.13335 0.32954,-0.29633 z m 0.67734,-0.67734 c 0.15796,-0.16298 0.26817,-0.29633 0.24489,-0.29633 -0.0233,0 -0.17159,0.13335 -0.32956,0.29633 -0.15797,0.16299 -0.26816,0.29634 -0.24488,0.29634 0.0233,0 0.17158,-0.13335 0.32955,-0.29634 z m 0.67733,-0.67733 c 0.15797,-0.16298 0.26816,-0.29633 0.24489,-0.29633 -0.0233,0 -0.17158,0.13335 -0.32956,0.29633 -0.15796,0.16298 -0.26816,0.29633 -0.24488,0.29633 0.0233,0 0.17158,-0.13335 0.32955,-0.29633 z m 0.67733,-0.67733 c 0.15798,-0.16299 0.26818,-0.29634 0.24488,-0.29634 -0.0233,0 -0.17158,0.13335 -0.32954,0.29634 -0.15797,0.16298 -0.26817,0.29633 -0.24488,0.29633 0.0233,0 0.17158,-0.13335 0.32954,-0.29633 z m 0.67734,-0.67734 c 0.15796,-0.16298 0.26817,-0.29633 0.24489,-0.29633 -0.0233,0 -0.17159,0.13335 -0.32956,0.29633 -0.15797,0.16299 -0.26816,0.29634 -0.24488,0.29634 0.0233,0 0.17158,-0.13335 0.32955,-0.29634 z m 0.67733,-0.67733 c 0.15797,-0.16298 0.26816,-0.29633 0.24489,-0.29633 -0.0233,0 -0.17158,0.13335 -0.32956,0.29633 -0.15796,0.16298 -0.26816,0.29633 -0.24488,0.29633 0.0233,0 0.17158,-0.13335 0.32955,-0.29633 z m 4.86833,-4.86833 c 0.18188,-0.18627 0.31165,-0.33867 0.28837,-0.33867 -0.0233,0 -0.19114,0.1524 -0.37303,0.33867 -0.18188,0.18626 -0.31165,0.33866 -0.28836,0.33866 0.0233,0 0.19114,-0.1524 0.37302,-0.33866 z"
         id="path3373" />
    </g>
  </g>
</svg>
